<svg xmlns="http://www.w3.org/2000/svg" id="Layer_2" data-name="Layer 2" viewBox="0 0 489.11 529.74"><path d="m253.96,59.15c-.16.15-.33.37-.5.75.16-.16.32-.44.5-.75Z" style="stroke-width: 0px;"></path><polygon points="257.04 62.88 257.32 62.57 257.11 62.48 257.04 62.88" style="stroke-width: 0px;"></polygon><path d="m254.38,60.87c-.26.42-.53.45-.84.51.31.21.65.33.97.34.06-.31.22-.87-.13-.85Z" style="stroke-width: 0px;"></path><path d="m255.57,61.19s-.04.03-.06.06c.03.08.06.11.06-.06Z" style="stroke-width: 0px;"></path><path d="m250.53,61.21c.01.06.03.12.04.18,0-.06.01-.11.02-.17h-.06Z" style="stroke-width: 0px;"></path><path d="m254.56,61.9c.24.2.39-.04.54-.34-.19.09-.38.15-.59.15-.03.14-.03.23.05.19Z" style="stroke-width: 0px;"></path><path d="m252.6,60.32c.12.21.25.4.4.57-.11-.32-.34-.83-.4-.57Z" style="stroke-width: 0px;"></path><path d="m255.44,60.97s.02-.03.04-.04c-.07-.22-.07-.11-.04.04Z" style="stroke-width: 0px;"></path><path d="m255.44,60.97c-.13.14-.24.38-.34.6.15-.07.29-.17.41-.32-.03-.07-.05-.18-.07-.28Z" style="stroke-width: 0px;"></path><path d="m251.65,61.55l.24-.1c-.26-.18-.42-.55-.74-1.3-.42.43-.52.76-.56,1.07l1.15.2-.09.13Z" style="stroke-width: 0px;"></path><path d="m252.94,61.5c-.23.99-.82,1.39-.53,2.5.7-.03.53-.81.96-1.23-1.12.19.34-.54-.43-1.15.22-.16.42-.2.61-.24-.19-.13-.38-.29-.55-.49,0,.02.01.04.02.06h0s0,0,0,.01c.04.13.05.2,0,.13,0,.01-.02.02-.02.02-.01.14-.04.26-.07.38-.31-.22-.04-.26.07-.38,0-.05.02-.1.02-.15,0,0,0,0,0-.01l-1.13.49c.23.15.52.14,1.05.05Z" style="stroke-width: 0px;"></path><path d="m258.39,66.68c-.04-.09-.03-.16-.04-.23-.07.12-.1.21.04.23Z" style="stroke-width: 0px;"></path><path d="m257.43,63.86c-.01-.07-.02-.14-.03-.22-.02.03,0,.11.03.22Z" style="stroke-width: 0px;"></path><path d="m258.33,65.38c-.36-.27-.78-1.11-.9-1.51.11.79.22,1.4.49,2.21.08-.14.15-.54.42-.44.23.3,0,.48.01.81.16-.27.56-.72.06-1.21l-.08.14Z" style="stroke-width: 0px;"></path><path d="m254.85,65.42v-.52c.52.23.42-.42.5-.82l-.95.46.44.89Z" style="stroke-width: 0px;"></path><polygon points="250.46 60.7 250.64 59.65 250.02 61.11 250.46 60.7" style="stroke-width: 0px;"></polygon><polygon points="249.24 60.75 249.35 59.84 248.99 60.37 249.24 60.75" style="stroke-width: 0px;"></polygon><path d="m242.31,46.7l-1.01.16c.19.28.09.5-.12.69.84-.44,2.16-.95,1.13-.86Z" style="stroke-width: 0px;"></path><path d="m241.6,60.44c.29-.46.44-.68.47-.8-.54.59-1.28,1.51-.47.8Z" style="stroke-width: 0px;"></path><path d="m257.72,37.71c-.15.18-.27.38-.34.64.14-.19.25-.41.34-.64Z" style="stroke-width: 0px;"></path><path d="m242.06,59.64c.4-.45.66-.7-.03-.32-.1.09-.15.14-.23.23.17-.03.31-.06.26.09Z" style="stroke-width: 0px;"></path><path d="m244.74,60.02c.12-.06.03-.11,0,0h0Z" style="stroke-width: 0px;"></path><path d="m245.2,64.55c.04-.24.08-.39.14-.48-.06.11-.11.25-.14.48Z" style="stroke-width: 0px;"></path><path d="m244.87,60.49c-.04-.13-.08-.23-.12-.31.01.08.05.18.12.31Z" style="stroke-width: 0px;"></path><path d="m244.9,60.01s.06.07.09.1c.03-.17.03-.27-.09-.1Z" style="stroke-width: 0px;"></path><path d="m244.74,60.02s-.09.03-.17.04c.07-.01.12.04.18.12-.01-.07-.02-.13,0-.16Z" style="stroke-width: 0px;"></path><path d="m247.01,59.69l.06-.03s-.04.01-.06.03Z" style="stroke-width: 0px;"></path><path d="m246.48,59.91c.28-.04.36.21.49.4,0-.23-.06-.54.04-.63l-.53.23Z" style="stroke-width: 0px;"></path><path d="m248.04,63.92c.2-1.31-.25-.9-.69-.5-.02.95.36.65.76.5-.02,0-.05,0-.07,0Z" style="stroke-width: 0px;"></path><path d="m248.2,63.9c.12-.04.25-.05.37,0,.08-.53-.14-.12-.37,0Z" style="stroke-width: 0px;"></path><path d="m244.24,60.14c-.2.42-.38.92-.04.63.05.25.29-1.19.27-.81.15-.59-.03-.24-.23.18Z" style="stroke-width: 0px;"></path><polygon points="247.11 66.31 247.46 66.56 247.39 65.38 247.11 66.31" style="stroke-width: 0px;"></polygon><path d="m244.41,65.5c.18.12.38.24.59.36,0-.2.09-.31.2-.39-.4-.07-.77-.32-.78.03Z" style="stroke-width: 0px;"></path><path d="m245.72,65.31c-.11,0-.35.03-.52.16.2.04.4.02.52-.16Z" style="stroke-width: 0px;"></path><path d="m237.45,65.63c.39-.21.74-.31.96-.7-.29.06-.58.11-.86.1-.41.33-.47.67-.1.6Z" style="stroke-width: 0px;"></path><polygon points="417.42 480.12 415.06 480.61 417.07 480.45 417.42 480.12" style="stroke-width: 0px;"></polygon><path d="m410.75,479.37l.31.46,1.39-1.06c-2.97-.44-6.98-.52-8.94-1.5.88,1.94,4.97.97,7.24,2.1Z" style="stroke-width: 0px;"></path><path d="m398.58,472.31c-.29-.07-.7-.17-1.37-.4.28.74-1.71.13,1.63.64-.14-.11-.18-.16-.26-.24Z" style="stroke-width: 0px;"></path><path d="m398.58,472.31c1.44.33-.79-.77,0,0h0Z" style="stroke-width: 0px;"></path><path d="m391.86,470.94l2.04-.06c-.3-.47-1.97-1-1.27-1.1-2.03-.2-1.73.27-.77,1.17Z" style="stroke-width: 0px;"></path><path d="m389.75,471.65l1.05.02c-.13-.2-.38-.32-1.05-.02Z" style="stroke-width: 0px;"></path><path d="m391.8,471.73c-.29.43.24.08,1.21-.03l-2.22-.04c.21.33.1.86,1.01.07Z" style="stroke-width: 0px;"></path><path d="m394.36,473.53c3.67.73,3.44-.55-.24-1.27.97.63,2.28,1.21.24,1.27Z" style="stroke-width: 0px;"></path><path d="m405.05,479.36c-.68.12-2.61-1.12-2.65-.6l1.29.83,1.36-.24Z" style="stroke-width: 0px;"></path><path d="m380.06,467.14c-.2.32.45,1.07.49,1.55l1.53-.06c-.68-.41-2.03-.95-2.02-1.49Z" style="stroke-width: 0px;"></path><path d="m380.55,468.68l-2.29.11c1.91.5,2.32.3,2.29-.11Z" style="stroke-width: 0px;"></path><polygon points="392.71 473 388.28 473.19 388.95 473.35 392.71 473" style="stroke-width: 0px;"></polygon><polygon points="373.19 464.78 370.96 465.56 371.92 465.34 373.19 464.78" style="stroke-width: 0px;"></polygon><path d="m366.95,464.3c.98-.44-.8-1.4.15-1.58-.67-.12-1.33-.1-1.96-.05-.63.04-1.23.14-1.81.23.58.03,1.14.15,1.73.39.59.21,1.21.54,1.89,1.01Z" style="stroke-width: 0px;"></path><path d="m361.41,463.1c.59.01,1.23-.09,1.93-.2-.61-.03-1.24.01-1.93.2Z" style="stroke-width: 0px;"></path><path d="m373.76,467.64c.26.06.55.12.85.19-.11-.24-.36-.86-1.49-1.34.18.38.42.77.64,1.15Z" style="stroke-width: 0px;"></path><path d="m372.65,467.38c-.28-.07-.49-.13-.62-.16.11.03.29.08.57.15.27.08.64.18,1.19.31l-.02-.04c-.23-.05-.44-.1-.63-.15-.18-.04-.34-.09-.48-.12Z" style="stroke-width: 0px;"></path><path d="m374.83,467.88c-.08-.02-.14-.03-.21-.05.06.11.11.15.21.05Z" style="stroke-width: 0px;"></path><path d="m381.84,472.71c1.05-.45-.27-1.27,1.8-1.63-1.38.23-4.11.21-1.8,1.63Z" style="stroke-width: 0px;"></path><path d="m378.24,469.17l-2.6.15,2.23.72c.01-.27-.32-.73.37-.86Z" style="stroke-width: 0px;"></path><polygon points="374.45 469.4 375.63 469.32 374.8 469.06 374.45 469.4" style="stroke-width: 0px;"></polygon><path d="m365,466.06c.25-.26.92-.66-.37-.97-1.01.14-2-.14-3.12-.42.56.28,1.14.54,1.72.78.58.24,1.17.46,1.77.6Z" style="stroke-width: 0px;"></path><path d="m369,466.53c-.07,0-.15,0-.22.01.11.11.2.16.22-.01Z" style="stroke-width: 0px;"></path><path d="m350.96,460.51c.03.08.05.16.09.24.04-.05.07-.09.11-.14l-.2-.1Z" style="stroke-width: 0px;"></path><path d="m365.15,466.29c.85.43,1.46.33,2.05.17-.7-.08-1.43-.21-2.2-.41-.11.12-.15.2.15.23Z" style="stroke-width: 0px;"></path><path d="m358.31,462.49c.38.36.83.71,1.31,1.06-.34-.46-1.06-1.25-1.31-1.06Z" style="stroke-width: 0px;"></path><path d="m368.54,466.19s.09-.01.14,0c-.24-.29-.23-.17-.14,0Z" style="stroke-width: 0px;"></path><path d="m368.54,466.19c-.5.02-.92.16-1.34.27.57.07,1.1.1,1.58.08-.09-.1-.18-.23-.24-.35Z" style="stroke-width: 0px;"></path><path d="m353.1,461.56l1.97.9h-.33s.85.25.85.25c-.86-.54-1.39-1.16-2.3-2.32-.76-.06-1.23-.09-1.55-.04-.32.05-.48.15-.59.27l.96.49c.32.16.65.3.98.45Z" style="stroke-width: 0px;"></path><path d="m359.3,464.09c-.97.71-3.15.37-2.29,1.85,1.26.42,1.76.39,2.16.26.39-.12.67-.35,1.49-.32-1.03-.25-1.45-.43-1.56-.52-.11-.09.1-.12.35-.15.5-.07,1.16-.2-.16-.99.82.14,1.54.3,2.22.47-.68-.34-1.32-.7-1.89-1.12.03.03.05.06.07.09h.02s0,.01,0,.02c.13.18.16.27,0,.13-.02,0-.07,0-.09-.01-.07.12-.19.21-.3.29-1.06-.61-.09-.31.3-.29.03-.04.08-.07.1-.12,0,0,0-.01-.01-.02l-2.05-.46c-.68-.16-1.38-.29-2.05-.49.38.24.83.44,1.43.65.6.21,1.33.44,2.27.73Z" style="stroke-width: 0px;"></path><path d="m379.04,474.28c-.11-.12-.09-.19-.09-.26-.31.06-.43.11.09.26Z" style="stroke-width: 0px;"></path><path d="m375.87,470.68c-.03-.08-.06-.16-.08-.24-.07.01-.03.11.08.24Z" style="stroke-width: 0px;"></path><path d="m379.45,472.89l-.34.06c-1.31-.58-2.82-1.76-3.25-2.27.3.88.65,1.57,1.53,2.6.35-.07.7-.4,1.7-.07.82.5-.11.47-.14.8.67-.12,2.32-.2.5-1.13Z" style="stroke-width: 0px;"></path><path d="m365.78,470.08l.04-.53c1.93.73,1.66-.01,2-.34l-3.59-.44,1.55,1.31Z" style="stroke-width: 0px;"></path><polygon points="351.68 459.12 349.24 459.62 350.82 459.89 351.68 459.12" style="stroke-width: 0px;"></polygon><polygon points="347.34 457.25 346.04 457.19 346.76 457.99 347.34 457.25" style="stroke-width: 0px;"></polygon><path d="m278.26,366.58l-.75.82c.58.92.79,1.72.86,2.46.2-1.76.78-3.85-.11-3.28Z" style="stroke-width: 0px;"></path><path d="m312.18,427.52c-.51-1.29-.99-2.25-1.51-3.02.48,1.64.57,3.21,1.51,3.02Z" style="stroke-width: 0px;"></path><path d="m337.76,302.73c.48-.6.61-.94.45-1.11-.49.59-.73,1.01-.45,1.11Z" style="stroke-width: 0px;"></path><path d="m310.67,424.5c-.36-1.21-.95-2.45-2.29-3.08.06.25.15.46.23.71.72.68,1.41,1.39,2.07,2.38Z" style="stroke-width: 0px;"></path><path d="m419.49,480.26c-.33-.32-.8-.9-1.25-1.45.16.31.53.76,1.25,1.45Z" style="stroke-width: 0px;"></path><path d="m332.05,447.62c.78.54.19,0,0,0h0Z" style="stroke-width: 0px;"></path><path d="m333.31,453.67c-.24-.03-.45-.01-.61.16.21-.15.42-.19.61-.16Z" style="stroke-width: 0px;"></path><path d="m332.88,448.87c-.2-.32-.46-.66-.76-.99.1.18.33.49.76.99Z" style="stroke-width: 0px;"></path><path d="m333.03,448.38c.23.24.41.42.59.6.2-.06.18-.21-.59-.6Z" style="stroke-width: 0px;"></path><path d="m332.05,447.62c-.22-.17-.56-.38-1.06-.8.41.36.79.69,1.12,1.06-.1-.17-.13-.26-.07-.26Z" style="stroke-width: 0px;"></path><path d="m386.09,409.04c-.04.05-.07.12-.11.2.04-.06.08-.13.11-.2Z" style="stroke-width: 0px;"></path><path d="m340.05,452.92l.19.09c-.08-.05-.14-.07-.19-.09Z" style="stroke-width: 0px;"></path><path d="m339.7,453.45c.09-.21.02-.63.34-.53l-1.68-.79c.86.5,1.02.9,1.34,1.32Z" style="stroke-width: 0px;"></path><path d="m339.82,457.22c-.36.89.97,1.31,2.34,1.92-.08-.04-.16-.08-.23-.14,1.04-.92-.53-1.34-2.11-1.78Z" style="stroke-width: 0px;"></path><path d="m343.52,459.6c-.26-.08-.66-.16-1.04-.32.42.19.83.43,1.21.67.21-.19.1-.28-.16-.36Z" style="stroke-width: 0px;"></path><path d="m329.04,445.24c-.87-.18-1.51-.07.12.94.36.64,1.12-.63,1.16-.08.68-.21-.41-.68-1.28-.86Z" style="stroke-width: 0px;"></path><path d="m339.24,460.5l.14-1.28c-.41.12-.82.25-1.23.35.35.32.73.61,1.09.92Z" style="stroke-width: 0px;"></path><path d="m330.69,453.32c-.45-.38-.78-.61-.86-.46.57.58,1.12,1.2,1.72,1.76.09-.18.41-.09.77.07-.3-.23-.59-.47-.88-.7-.27-.24-.53-.47-.75-.67Z" style="stroke-width: 0px;"></path><path d="m334.01,455.69c-.35-.24-1.1-.74-1.7-1,.62.48,1.24.9,1.7,1Z" style="stroke-width: 0px;"></path><path d="m310.25,433.63c.61.33,1.34,1.02,1.4.46l-1.9-1.91c-.48.03-.23.76.51,1.45Z" style="stroke-width: 0px;"></path><polygon points="55.15 481.19 54.58 483.32 54.77 483.77 55.15 481.19" style="stroke-width: 0px;"></polygon><path d="m61.83,469.81c-1.07.29-1.61,1.56-2.13,3.03-.26.73-.52,1.52-.82,2.25-.3.73-.66,1.41-1.12,1.94l-.55.21.58,1.73c1.43-3.02,2.6-7.27,4.03-9.17Z" style="stroke-width: 0px;"></path><path d="m67.57,465.48c.14-.14.2-.18.29-.26.13-.31.31-.74.66-1.45-.8.22.2-1.88-.96,1.71Z" style="stroke-width: 0px;"></path><path d="m67.87,465.22c-.63,1.53.94-.77,0,0h0Z" style="stroke-width: 0px;"></path><path d="m70.42,458.03c-.07.75-.17,1.49-.26,2.24.53-.28,1.32-2.06,1.32-1.28.5-2.22-.02-1.91-1.06-.95Z" style="stroke-width: 0px;"></path><path d="m69.84,456.81c.22-.13.38-.39.17-1.13l-.17,1.13Z" style="stroke-width: 0px;"></path><path d="m69.63,457.9c-.39-.36-.11.25-.16,1.32.14-.8.26-1.6.38-2.4-.36.2-.88.03-.21,1.09Z" style="stroke-width: 0px;"></path><path d="m67.05,463.36c.32-.03,1.03-1.02,1.69-2.99-.78.99-1.6,2.34-1.31.12-.68,1.94-.71,2.88-.38,2.86Z" style="stroke-width: 0px;"></path><path d="m60.62,468.36c-.37.41-.75.81-1.13,1.21l-.1,1.47c.05-.73,1.76-2.54,1.23-2.68Z" style="stroke-width: 0px;"></path><path d="m74.02,446.06l-.11,1.61c.48-.69,1.18-2.07,1.71-2.01-.3-.23-1.12.39-1.6.4Z" style="stroke-width: 0px;"></path><path d="m74.02,446.06l.16-2.41c-.72,1.96-.57,2.41-.16,2.41Z" style="stroke-width: 0px;"></path><path d="m68.41,454.68c-.06,1.35-.1,2.73-.2,4.09.18-1.6.31-3.2.44-4.79-.08.24-.16.47-.24.71Z" style="stroke-width: 0px;"></path><polygon points="78.73 438.61 78.24 435.98 78.34 437.09 78.73 438.61" style="stroke-width: 0px;"></polygon><path d="m81.44,431.44c.32-1.6.13-3.09-.04-4.43-.07,1.35-.53,2.7-1.55,4.31.39,1.14,1.47-1,1.59.12Z" style="stroke-width: 0px;"></path><path d="m81.2,424.79c0,.68.12,1.42.21,2.22.04-.72-.01-1.45-.21-2.22Z" style="stroke-width: 0px;"></path><path d="m77.03,438.42l-1.22.59c-.09.27-.18.57-.28.88.26-.11.89-.28,1.51-1.47Z" style="stroke-width: 0px;"></path><path d="m75.77,439.03l.04-.02c.32-.95.54-1.61.63-1.89-.09.24-.29.82-.67,1.91Z" style="stroke-width: 0px;"></path><path d="m75.45,440.11c.03-.08.05-.14.07-.22-.12.06-.17.1-.07.22Z" style="stroke-width: 0px;"></path><path d="m71.28,449.15c-.1-1.48.23-4.37-1.44-2.02.34,1.15,1.3-.2,1.44,2.02Z" style="stroke-width: 0px;"></path><path d="m73.8,443.59c.06-.91.08-1.84.13-2.76-.32.77-.62,1.54-.95,2.3.27.03.77-.27.82.46Z" style="stroke-width: 0px;"></path><polygon points="73.98 439.58 73.93 440.83 74.28 439.98 73.98 439.58" style="stroke-width: 0px;"></polygon><path d="m79.18,428.68c-.14-1.15.17-2.29.42-3.59-.54,1.33-1.06,2.71-1.43,4.06.25.27.62,1.02,1-.47Z" style="stroke-width: 0px;"></path><path d="m77.49,433.71c0-.08.01-.17,0-.25-.12.12-.18.22,0,.25Z" style="stroke-width: 0px;"></path><path d="m82.69,412.37c-.07.06-.15.11-.22.17.05.03.11.05.16.09l.07-.25Z" style="stroke-width: 0px;"></path><path d="m77.93,429.33c-.47.98-.41,1.66-.28,2.33.12-.8.28-1.63.52-2.51-.11-.12-.2-.16-.24.18Z" style="stroke-width: 0px;"></path><path d="m81.64,421.13c-.34.49-.66,1.06-.99,1.67.44-.45,1.19-1.41.99-1.67Z" style="stroke-width: 0px;"></path><path d="m77.86,433.19c0,.06,0,.11,0,.17.3-.28.19-.27,0-.17Z" style="stroke-width: 0px;"></path><path d="m77.86,433.19c.01-.57-.11-1.06-.2-1.53-.1.65-.16,1.26-.16,1.81.1-.11.24-.21.36-.27Z" style="stroke-width: 0px;"></path><path d="m81.34,417.09l-.14,1.01c.45-1.08.98-1.8,2.02-3.13-.07-1.75-.33-2.17-.6-2.35-.41,1.61-.8,3.23-1.23,4.83l-.05-.37Z" style="stroke-width: 0px;"></path><path d="m78.08,420.21c-.65,2.88.31,2.21.3,4.04.93-4.7.21,1.47,1.6-1.74-.06.96-.22,1.79-.38,2.58.33-.81.68-1.58,1.05-2.29-.03.04-.06.06-.09.09v.02s-.01,0-.02,0c-.17.17-.26.22-.13,0,0-.02,0-.08,0-.1-.13-.07-.22-.18-.31-.3.54-1.29.31-.15.31.3.04.03.08.08.13.09,0,0,.01,0,.02-.01l.64-4.79c-.38.95-.67,2.19-1.11,4.41-.78-1.02-.6-3.46-2.02-2.29Z" style="stroke-width: 0px;"></path><path d="m68.86,443.98c-.02-.33-.06-.46-.27.07.13-.11.2-.08.27-.07Z" style="stroke-width: 0px;"></path><path d="m72.54,440.97c.08-.02.17-.05.25-.07,0-.08-.1-.04-.25.07Z" style="stroke-width: 0px;"></path><path d="m69.93,444.59l-.02-.36c.46-.86,1.2-1.77,1.79-2.43.34-.38.64-.67.84-.82-.91.25-1.62.56-2.76,1.42.03.37.32.77-.13,1.8-.59.83-.46-.15-.79-.21.04.72-.06,2.47,1.07.61Z" style="stroke-width: 0px;"></path><path d="m74.87,432.35l.59-3.95-1.38,1.71.53.04c-.8,2.11-.05,1.82.26,2.2Z" style="stroke-width: 0px;"></path><polygon points="84.2 412.78 83.24 410.2 83.28 412.03 84.2 412.78" style="stroke-width: 0px;"></polygon><polygon points="84.85 405.83 84.26 406.92 85.13 407.29 84.85 405.83" style="stroke-width: 0px;"></polygon><path d="m114.12,309.5l-.87-.78c-1.19.56-2.19.78-3.07.76,1.02.21,2.12.41,2.93.49.8.07,1.29,0,1.01-.46Z" style="stroke-width: 0px;"></path><path d="m90.36,353.96c.43-1.47.62-2.64.7-3.68-.62,1.78-1.53,3.18-.7,3.68Z" style="stroke-width: 0px;"></path><path d="m225.66,327.45c.19.68.4.98.63.96-.18-.72-.38-1.11-.63-.96Z" style="stroke-width: 0px;"></path><path d="m91.06,350.28c.46-1.31.76-2.83.1-4.29-.11.26-.16.52-.26.78.14,1.09.26,2.18.16,3.51Z" style="stroke-width: 0px;"></path><path d="m55.54,491.13c.46-.12,1.21-.21,1.92-.32-.36-.02-.94.06-1.92.32Z" style="stroke-width: 0px;"></path><path d="m88.28,386.33c-.09,1.11.09.19,0,0h0Z" style="stroke-width: 0px;"></path><path d="m83.55,391.03c-.07-.25-.19-.44-.41-.51.23.13.35.3.41.51Z" style="stroke-width: 0px;"></path><path d="m87.6,387.91c.18-.39.35-.85.49-1.36-.11.22-.27.63-.49,1.36Z" style="stroke-width: 0px;"></path><path d="m88.1,387.76c-.1.37-.17.66-.23.94.15.16.27.06.23-.94Z" style="stroke-width: 0px;"></path><path d="m88.28,386.33c.03-.32.07-.78.16-1.53-.07.63-.2,1.21-.35,1.76.1-.21.17-.29.19-.23Z" style="stroke-width: 0px;"></path><path d="m132.13,466.03c-.06-.02-.13-.03-.21-.05.07.02.14.03.21.05Z" style="stroke-width: 0px;"></path><path d="m87,397.47l.1-2.16c-.14,1.15-.45,1.52-.72,2.07.23,0,.59-.28.62.09Z" style="stroke-width: 0px;"></path><path d="m87,397.47v.26c0-.11,0-.19,0-.26Z" style="stroke-width: 0px;"></path><path d="m81.85,402.43c.02-.1.03-.19.06-.29,1.21.73,1.12-1.09,1.03-2.9-.97.01-.94,1.53-1.09,3.19Z" style="stroke-width: 0px;"></path><path d="m81.8,402.82c-.06.51-.13,1.03-.27,1.51.48.3.23-.59.27-1.51Z" style="stroke-width: 0px;"></path><path d="m88.71,383.67c.54.52.36-.85.05-1.79-.15-.47-.36-.84-.5-.81-.15.03-.23.45-.23,1.55-.35.76,1.13.65.69,1.05Z" style="stroke-width: 0px;"></path><path d="m82.19,390.61c.31-1.6.76-3.34.42-3.32l-.69,2.56c.2,0,.26.34.28.76Z" style="stroke-width: 0px;"></path><path d="m82.02,392.73c.06-.45.19-1.43.16-2.13-.16.83-.27,1.63-.16,2.13Z" style="stroke-width: 0px;"></path><path d="m84.91,357.71c.24.7.34,1.78.75,1.36l-.18-2.89c-.38-.31-.67.46-.57,1.54Z" style="stroke-width: 0px;"></path><path d="m44.28,494.72v.02s0-.01,0-.02Z" style="stroke-width: 0px;"></path><path d="m44.42,494.47s-.02.04-.04.06c.01-.02.02-.04.04-.06Z" style="stroke-width: 0px;"></path><path d="m44.9,493.88s.05-.05.07-.07c-.02.03-.05.05-.07.07Z" style="stroke-width: 0px;"></path><path d="m44.68,494.13s-.08.09-.12.14c.04-.05.07-.09.12-.14Z" style="stroke-width: 0px;"></path><path d="m44.72,494.08c.05-.06.11-.13.18-.2-.08.09-.16.17-.22.25.01-.02.03-.04.04-.05Z" style="stroke-width: 0px;"></path><path d="m44.38,494.53s-.01.02-.02.03c0,0,.01-.02.02-.03Z" style="stroke-width: 0px;"></path><path d="m44.29,494.62s-.01.06-.02.09h0s.02-.09.02-.09Z" style="stroke-width: 0px;"></path><path d="m44.28,494.72s0,0,0,0h0Z" style="stroke-width: 0px;"></path><path d="m44.42,494.47s0-.02.01-.02c0,0,0,0,0,.01,0,0,0,0,0,.01Z" style="stroke-width: 0px;"></path><path d="m44.26,494.76s0-.03.01-.04c0,0,0,0,0,0v.05s0-.02,0-.02c0,0,0,0,0,0h0Z" style="stroke-width: 0px;"></path><path d="m44.29,494.71s.03-.06.05-.09c0-.02.02-.04.03-.06-.03.04-.05.08-.05.1,0,.02-.02.04-.03.05Z" style="stroke-width: 0px;"></path><path d="m44.43,494.45s.08-.11.13-.18c-.05.06-.09.12-.12.17,0,0,0,0,0,.01Z" style="stroke-width: 0px;"></path><path d="m44.28,494.72s0-.01,0-.02c0,0,0,0,0,0h0Z" style="stroke-width: 0px;"></path><polygon points="234.79 105.21 234.25 105.01 236.69 107.7 234.79 105.21" style="stroke-width: 0px;"></polygon><path d="m239.69,114.16l.04-.75-2.01-.97c2.38,4.19,6.09,9.29,7.29,12.49.46-2.63-4.03-6.96-5.32-10.76Z" style="stroke-width: 0px;"></path><path d="m246.5,135.05c.24.42.57.99,1.08,2,.21-.96,1.74,1.97-1.18-2.52.07.27.07.36.1.52Z" style="stroke-width: 0px;"></path><path d="m246.5,135.05c-1.18-2.03.27,1.61,0,0h0Z" style="stroke-width: 0px;"></path><path d="m250.14,141.91c0,.75,1.29,3.19.54,2.44,1.87,2.61,1.87,1.84,1.51-.04l-2.05-2.4Z" style="stroke-width: 0px;"></path><path d="m254.72,146.24l-1.03-1.26c0,.32.17.72,1.03,1.26Z" style="stroke-width: 0px;"></path><path d="m252.75,143.72c.57,0-.18-.35-1.2-1.43l2.15,2.69c0-.52.45-.83-.94-1.26Z" style="stroke-width: 0px;"></path><path d="m251.38,139.16c-3.09-5.04-3.7-3.71-.58,1.33-.55-1.69-1.44-3.75.58-1.33Z" style="stroke-width: 0px;"></path><path d="m247.06,125.1l-.66-2.26-1.43-1.49c.71.75,1.71,4.13,2.1,3.75Z" style="stroke-width: 0px;"></path><path d="m261.53,161.35c.41-.03.22-1.39.48-1.83l-1.57-1.73c.42,1.13,1.43,3.15,1.08,3.57Z" style="stroke-width: 0px;"></path><path d="m262.02,159.52l2.38,2.56c-1.62-2.62-2.16-2.94-2.38-2.56Z" style="stroke-width: 0px;"></path><path d="m257.15,146.7l-.56-.92c-1.32-1.39-2.62-2.8-3.92-4.21l2.23,2.58,2.26,2.55Z" style="stroke-width: 0px;"></path><polygon points="267.07 171.23 270.11 173.39 268.88 172.38 267.07 171.23" style="stroke-width: 0px;"></polygon><path d="m278.05,184.99c-1.46-1.35-2.67-3.08-3.88-5.56-.7-.39-.64.19-.55.74.1.54.22,1.06-.43.57,1.58,1.84,3.28,3.13,4.85,4.25Z" style="stroke-width: 0px;"></path><path d="m278.05,184.99c.78.72,1.6,1.37,2.55,1.93-.74-.66-1.61-1.27-2.55-1.93Z" style="stroke-width: 0px;"></path><path d="m268.19,169.89l.06-1.69c-.23-.35-.49-.74-.75-1.13-.03.34-.21,1.08.69,2.82Z" style="stroke-width: 0px;"></path><path d="m268.25,168.21c.8,1.24,1.39,2.08,1.63,2.44-.2-.32-.72-1.05-1.63-2.5v.06Z" style="stroke-width: 0px;"></path><path d="m267.31,166.78c.07.11.12.18.19.29,0-.16,0-.25-.19-.29Z" style="stroke-width: 0px;"></path><path d="m263.27,154.69c-1.34-.86-.52,1.37-2.84-.76,1.54,1.42,4.27,4.64,2.84.76Z" style="stroke-width: 0px;"></path><path d="m265.59,161.53c-.18.2-.14.97-.92.28.91.97,1.8,1.94,2.73,2.89-.63-1.05-1.21-2.11-1.81-3.17Z" style="stroke-width: 0px;"></path><polygon points="268.67 166 267.41 164.7 268.09 165.87 268.67 166" style="stroke-width: 0px;"></polygon><path d="m277.41,180.04c-.43-.04-1.43-.42-.02,1.35.66.5,1.26,1.09,1.85,1.74.61.64,1.22,1.34,1.86,2.09-.58-.88-1.21-1.76-1.83-2.62-.61-.87-1.24-1.73-1.87-2.55Z" style="stroke-width: 0px;"></path><path d="m272.91,174.96c.08.07.18.18.26.25-.06-.22-.14-.38-.26-.25Z" style="stroke-width: 0px;"></path><path d="m293.96,199.74c-.04-.12-.05-.23-.09-.35-.06.02-.11.05-.17.07l.26.28Z" style="stroke-width: 0px;"></path><path d="m277.34,179.65c-.41-.68-.8-1.18-1.19-1.56-.38-.39-.77-.68-1.16-.95.77.9,1.59,1.85,2.42,2.91.19.02.28-.02-.07-.39Z" style="stroke-width: 0px;"></path><path d="m284.45,190.8c-.38-.77-.86-1.6-1.37-2.45.28.82.98,2.4,1.37,2.45Z" style="stroke-width: 0px;"></path><path d="m273.26,175.81c-.06-.05-.12-.1-.18-.16.13.54.18.43.18.16Z" style="stroke-width: 0px;"></path><path d="m273.16,175.21c.06.2.09.42.09.59.6.57,1.18.94,1.73,1.33-.63-.73-1.25-1.38-1.82-1.92Z" style="stroke-width: 0px;"></path><path d="m288.74,193.96l.45.29-1.09-1.04c.51.69.91,1.32,1.3,2.06.39.73.77,1.57,1.3,2.63,2.07,1.51,2.67,1.64,3.01,1.56l-2.51-2.72c-.84-.9-1.63-1.85-2.45-2.78Z" style="stroke-width: 0px;"></path><path d="m287.26,188.43c-2.88-3.26-2.63-1.77-4.61-3.52,4.67,5.3-1.74-1.2,1.09,3.1-1.04-.95-1.85-1.91-2.64-2.79.72,1.06,1.35,2.13,1.97,3.14-.02-.06-.04-.11-.06-.16l-.02-.02s.01,0,.02,0c-.1-.31-.11-.44.06-.13.02.01.08.07.11.1.14-.05.32-.03.5,0,1.18,1.7.01.41-.5,0-.05.01-.13,0-.17.03,0,0,0,.02,0,.03l2.52,2.53,1.26,1.26,1.3,1.23c-.92-1.2-2.16-2.62-4.42-5.09,1.53.25,4.17,2.68,3.58.31Z" style="stroke-width: 0px;"></path><path d="m267.07,156.68c.04.23-.02.26-.08.31.35.31.51.41.08-.31Z" style="stroke-width: 0px;"></path><path d="m268.02,163.31c-.02.1-.04.19-.07.29.08.07.1-.05.07-.29Z" style="stroke-width: 0px;"></path><path d="m266.17,157.68c.97,2,1.75,4.73,1.86,5.63.24-1.06.35-2.03.1-3.9-.39-.35-.96-.48-1.77-1.92-.51-1.37.41-.25.65-.49-.76-.69-2.45-2.55-1.22.35l.38.34Z" style="stroke-width: 0px;"></path><path d="m278.53,175.44l-.33.43c-1.8-2.79-1.89-1.83-2.46-1.93,1.29,1.47,2.56,2.95,3.9,4.38-.37-.97-.76-1.91-1.11-2.88Z" style="stroke-width: 0px;"></path><path d="m294.07,200.58l-1.31.17c1.14.5,2.33.94,3.5,1.39-.73-.52-1.47-1.03-2.19-1.56Z" style="stroke-width: 0px;"></path><polygon points="299.71 205.91 298.87 206.38 300.76 207.37 299.71 205.91" style="stroke-width: 0px;"></polygon><path d="m332.95,264.72c-.37.36-.77.7-1.12,1.08-.34.4-.66.79-.97,1.16-.28.35-.55.68-.8.98-.83,1.09-1.05,1.38-.54,1.52l.6-.1.3-.05.33-.11c.09-.25.18-.5.27-.73.05-.12.09-.23.14-.35.07-.15.14-.29.21-.44.28-.57.57-1.11.84-1.61.3-.48.64-.89.94-1.29.16-.2.31-.39.46-.57.17-.16.34-.32.5-.47-.19.15-.4.3-.6.46l-.55.52Z" style="stroke-width: 0px;"></path><path d="m371.34,243.47c-.9-.39-1.59-.56-2.03-.23,1.04.44,1.98.8,2.85,1.09.87.28,1.68.47,2.44.64-.63-.26-1.23-.54-1.77-.8-.55-.25-1.05-.52-1.5-.71Z" style="stroke-width: 0px;"></path><path d="m164.91,285.69c-.91-.27-1.34-.32-1.43-.11.9.35,1.49.41,1.43.11Z" style="stroke-width: 0px;"></path><path d="m377.33,245.45c-.85-.11-1.75-.26-2.72-.47.93.39,1.95.76,3.01.99.27.06.54.11.81.14.27.03.55.05.83.05.56.01,1.12-.02,1.68-.12-.37-.16-.74-.26-1.13-.4-.41-.02-.82-.04-1.23-.06-.41-.03-.83-.08-1.26-.14Z" style="stroke-width: 0px;"></path><path d="m219.15,103.94c.33-.42.78-1.17,1.44-2.55-.3.64-.89,1.61-1.44,2.55Z" style="stroke-width: 0px;"></path><path d="m324.23,225.46c-1.45-.82-.28-.04,0,0h0Z" style="stroke-width: 0px;"></path><path d="m319.79,217.74c.35.1.65.13.82-.04-.25.13-.52.13-.82.04Z" style="stroke-width: 0px;"></path><path d="m322.36,223.75c.45.45,1.01.9,1.64,1.38-.25-.25-.75-.66-1.64-1.38Z" style="stroke-width: 0px;"></path><path d="m322.38,224.34c-.45-.35-.81-.63-1.15-.89-.27.02-.17.22,1.15.89Z" style="stroke-width: 0px;"></path><path d="m324.23,225.46c.42.25,1.01.6,2,1.17-.82-.49-1.55-.99-2.23-1.51.24.23.33.35.23.33Z" style="stroke-width: 0px;"></path><path d="m149.01,200.43c.08-.02.18-.04.31-.09-.1.03-.21.06-.31.09Z" style="stroke-width: 0px;"></path><path d="m312.91,217.93c-.73-.49-1.15-.9-1.48-1.26-.33-.36-.56-.68-.85-1.02-.09.22.12.77-.37.51l1.18.79c.5.34,1,.67,1.52.98Z" style="stroke-width: 0px;"></path><path d="m310.21,216.16l-.32-.22c.13.1.24.17.32.22Z" style="stroke-width: 0px;"></path><path d="m309.66,210.99c.39-.91-1.48-2.09-3.46-3.56.11.09.23.18.33.28-1.43.52.87,1.91,3.13,3.28Z" style="stroke-width: 0px;"></path><path d="m305.74,207.08c-.61-.45-1.18-.98-1.7-1.51-.56.19.59.72,1.7,1.51Z" style="stroke-width: 0px;"></path><path d="m330.07,228.76c1.38.28,2.23.17-.77-1.15-.91-.8-1.26.68-1.66.01-.89.19,1.04.86,2.43,1.14Z" style="stroke-width: 0px;"></path><path d="m324.98,219.45l-3.04-2.44c-.06.19-.54.01-1.09-.26,1.96,1.37,4.01,3.04,4.13,2.7Z" style="stroke-width: 0px;"></path><path d="m318.2,215.07c.56.38,1.74,1.24,2.65,1.68-1.02-.72-1.97-1.43-2.65-1.68Z" style="stroke-width: 0px;"></path><path d="m366.96,237.77c.51-.28-.54-.81-2.09-1.07-1.05,0-2.61-.26-2.09.28l4.18.79Z" style="stroke-width: 0px;"></path><polygon points="227.99 90.73 227.68 91.87 229.73 89.33 227.99 90.73" style="stroke-width: 0px;"></polygon><path d="m296.25,83.44c1.17-.37,2.34-.73,3.5-1.11-2.06.57-4.13,1.14-6.22,1.63l-.81.52c1.18-.35,2.36-.67,3.53-1.04Z" style="stroke-width: 0px;"></path><path d="m306.32,57.93c-.57-.19-1.14-.38-1.68-.56-2.19-.74-4.15-1.46-5.74-2.14.87.75,2.28,1.44,4.02,2.11.87.34,1.82.67,2.83,1,.48.16,1.08.34,1.65.54.58.2,1.18.42,1.79.68,1.22.52,2.52,1.19,3.77,2.24,1.23,1.03,2.38,2.56,2.91,4.28.54,1.72.52,3.42.26,4.87-.27,1.49-.81,2.87-1.55,4.01-.21.22-.41.45-.63.65l-.68.59c-.16.38-.36.74-.55,1.12-.21.36-.45.72-.69,1.08-.26.34-.53.69-.81,1.02-.27.31-.56.63-.85.93.35-.21.7-.45,1.05-.68.36-.27.72-.54,1.07-.84.69-.61,1.34-1.28,1.89-2.04,1.12-1.51,1.88-3.31,2.23-5.19.18-.94.25-1.88.22-2.89,0-.49-.1-1.03-.17-1.54-.12-.52-.23-1.05-.43-1.55-.19-.51-.4-1.01-.68-1.48-.25-.48-.57-.9-.89-1.32-.65-.79-1.38-1.47-2.11-1.99-1.47-1.07-2.92-1.72-4.26-2.24-.67-.25-1.33-.47-1.96-.67Z" style="stroke-width: 0px;"></path><path d="m291.51,48.75c.04-.05.09-.11.14-.17.11-.13.26-.28.45-.47-.58.16-.58-.07-.56-.11,0-.01,0,.03-.09.21-.04.09-.1.21-.18.37-.04.08-.08.16-.13.26l-.04.07s-.02.03-.01.04h.06c.09.03.18.05.27.07,0-.08.03-.11.06-.15h-.04s.01-.03.02-.04c.02-.02.04-.05.06-.07Z" style="stroke-width: 0px;"></path><path d="m291.96,48.8s-.05-.04-.08-.06c-.02-.02.04-.06.01-.07-.01-.01-.05,0-.13.02-.04.02-.09.04-.15.07-.06.03-.16.07-.15.1.53.16.57.03.49-.06Z" style="stroke-width: 0px;"></path><path d="m298.12,43.88c.51-.43.95-.79,1.32-1.09.37-.31.75-.58.99-.79.26-.22.44-.38.55-.51.03-.05.17-.15.21-.2.06-.06.08-.1.07-.12-.01-.05-.2-.02-.42.03-.14.02-.34.07-.59.15-.48.16-1.22.42-1.91.74-.68.58-1.33,1.22-1.98,1.84-.63.66-1.27,1.3-1.88,2,.55-.25,1.76-1.14,2.69-1.73.93-.59,1.57-.95.96-.32Z" style="stroke-width: 0px;"></path><path d="m300.11,39.86c.13-.05.27-.11.41-.17.29-.13.62-.29.99-.5.37-.21.79-.46,1.25-.77.47-.3,1.06-.61,1.66-1-.8.39-1.65.76-2.38,1.22l-1.14.67-.58.34-.29.17c-.08.05-.11.08-.17.12.03-.01.07-.02.1-.03.05-.02.09-.03.14-.05Z" style="stroke-width: 0px;"></path><path d="m297.07,41.85c-.2.2-.45.5-.76.85-.16.17-.33.36-.52.57-.19.21-.39.44-.61.69.36-.36.72-.72,1.1-1.05.38-.33.74-.7,1.13-1.01.39-.32.76-.65,1.16-.97l1.3-.98c-.44.12-.75.07-1.1.24-.17.08-.37.22-.57.46-.19.24-.4.57-.64,1.05.06-.34-.09-.25-.48.16Z" style="stroke-width: 0px;"></path><path d="m291.75,46.39c-.29.17-.55.35-.75.43-.38.17-.58.04.18-1.16-.94,1.03-1.44,1.8-1.62,2.24-.19.44-.07.57.2.49.27-.09.69-.37,1.16-.79.24-.21.5-.46.78-.74.29-.31.63-.66,1.01-1.05-.32.2-.66.41-.96.59Z" style="stroke-width: 0px;"></path><path d="m304.47,58.92c-2.01-.41-8.41-3.41-8.3-2.82l4.28,2.01,4.02.81Z" style="stroke-width: 0px;"></path><path d="m305.06,12.52l.67-.06.34-.03.17-.02c.06,0,.12.03.18.04-.17-.1-.32-.06-.49-.08-.17,0-.34-.02-.52-.03-.36-.02-.74-.03-1.13-.05-.78-.03-1.6-.07-2.35-.12-1.49-.09-2.68-.23-2.66-.46-.68.33,1.62.78,1.78,1.17l2.67-.24,1.34-.12Z" style="stroke-width: 0px;"></path><path d="m301.05,12.89l-7.92.74c6.6-.12,8.04-.41,7.92-.74Z" style="stroke-width: 0px;"></path><path d="m305,35.23l.93-.59c.3-.2.65-.39.86-.58l-.27.17-.32.18-.65.35-1.29.7c-.54.33-1.15.64-1.74.96l-.9.48-.85.54-.86.55-.44.28-.22.14-.11.07s-.05.04-.07.06l-1.07.86c-.37.29-.68.58-1,.87-.32.3-.65.57-.95.88-.62.61-1.23,1.21-1.82,1.86.71-.76,1.46-1.46,2.22-2.16l1.16-1.01,1.28-1.01c.11-.09.21-.16.33-.26l.53-.33,1.05-.65c.35-.21.68-.44,1.05-.64l1.1-.57,1.08-.57.27-.14.24-.15.47-.3Z" style="stroke-width: 0px;"></path><polygon points="274.78 11.5 266.58 12.84 270.1 12.37 274.78 11.5" style="stroke-width: 0px;"></polygon><path d="m239.21,12.75c1.13-.05,2.3-.08,3.51-.08,2.43,0,5.06.09,7.99.29,1.65-.37.59-.62-.47-.85-1.05-.22-2.11-.42-.36-.66-2.68.11-5.18.34-7.5.61-1.16.14-2.28.29-3.35.44-.54.08-1.07.16-1.59.23-.31.05-.61.09-.91.14-.36.06-.71.12-1.05.19.68-.12,1.61-.2,2.05-.22.55-.04,1.11-.07,1.67-.09Z" style="stroke-width: 0px;"></path><path d="m230.71,14.45c.44-.14.89-.29,1.33-.43.42-.13.84-.25,1.26-.38.66-.2,1.38-.4,2.18-.57-.76.13-1.46.28-2.11.46l-1.22.34c-.45.13-.9.27-1.34.42-.88.29-1.77.56-2.59.93-.82.37-1.56.79-2.24,1.29.68-.43,1.4-.81,2.2-1.15.79-.34,1.65-.61,2.53-.9Z" style="stroke-width: 0px;"></path><path d="m280.53,13.83c-.47-.18-1.3-.67-5.44-.78l2.51.85c.89-.02,1.91-.04,2.93-.07Z" style="stroke-width: 0px;"></path><path d="m277.68,13.92l-.09-.03c-3.18.06-5.38.1-6.33.12.81-.01,2.74-.04,6.42-.09Z" style="stroke-width: 0px;"></path><path d="m281.27,13.81c-.27,0-.47.01-.74.02.23.08.39.11.74-.02Z" style="stroke-width: 0px;"></path><path d="m302.44,15.45c.08.08.34.13.83.23.51.17,1.25.35,2.2.74.89.11,1.28.13,1.48.06.2-.07.21-.23.33-.34.12-.11.33-.18.94-.04.59.18,1.65.52,2.99,1.96-.86-.98-2.18-1.93-3.56-2.42-1.38-.5-2.8-.68-3.83-.68-.98.17-1.55.33-1.39.48Z" style="stroke-width: 0px;"></path><path d="m293.07,13.97l-8.85.88,7.66-.03c.03-.23-1.15-.53,1.19-.84Z" style="stroke-width: 0px;"></path><polygon points="284.22 14.84 281.36 14.85 280.23 15.25 284.22 14.84" style="stroke-width: 0px;"></polygon><path d="m233.55,15.74c.32-.05.64-.1.97-.15.67-.09,1.37-.17,2.11-.2l.54-.02h.43s.86,0,.86,0c2.29-.01,4.56-.05,6.78-.12.64-.33,2.65-.93-2.24-.77-1.73.26-3.52.43-5.41.55-.4.02-1.12.07-1.71.15-.61.08-1.2.18-1.77.29-.3.06-.6.13-.9.19-.35.08-.74.17-1.11.27-.75.19-1.51.38-2.26.6.83-.2,1.66-.38,2.5-.56.42-.09.84-.17,1.22-.24Z" style="stroke-width: 0px;"></path><path d="m259.87,14.3c-.24.02-.55.05-.78.08.45.07.82.08.78-.08Z" style="stroke-width: 0px;"></path><path d="m219.59,57.61c.05-.16.1-.3.15-.47-.06-.03-.12-.05-.18-.1,0,.19.03.38.03.57Z" style="stroke-width: 0px;"></path><path d="m245.98,15.41c3.37.09,5.4-.21,7.39-.56-2.56.17-5.25.31-8.14.4-.29.15-.35.24.74.16Z" style="stroke-width: 0px;"></path><path d="m220.97,28.17c-.04.31-.08.61-.12.9-.04.18-.07.35-.1.51-.12.64-.17,1.15-.1,1.35.13-.52.25-1.06.37-1.64.02-.08.03-.12.05-.24.01-.12.03-.25.04-.37.03-.25.06-.5.09-.75.06-.5.12-1.02.18-1.55.13-.76.33-1.66.49-2.58-.17.68-.42,1.56-.63,2.55-.09.59-.19,1.21-.27,1.82Z" style="stroke-width: 0px;"></path><path d="m258.01,14.14c.18-.02.33-.04.52-.06-1.08-.18-.96-.08-.52.06Z" style="stroke-width: 0px;"></path><path d="m258.01,14.14c-1.79.18-3.22.46-4.64.71,2.08-.13,4.02-.29,5.73-.48-.41-.06-.81-.15-1.09-.23Z" style="stroke-width: 0px;"></path><path d="m219.35,53.05c-.02-.7,0-1.38.02-2.07,0-.69.05-1.36.09-2.04.17-2.69.51-5.28.89-7.79v1.06s.31-3.05.31-3.05c-.34,1.69-.68,3.18-1.09,4.83-.39,1.67-.87,3.49-1.34,6.01.08,1.42.17,2.56.31,3.48.11.92.27,1.62.4,2.15.07.26.13.49.18.67.03.09.06.18.08.25.01.04.03.07.04.11.01.02.02.04.03.06.09.15.18.24.26.3l-.13-1.9c-.06-.71-.06-1.4-.07-2.1Z" style="stroke-width: 0px;"></path><path d="m221.85,31.28c.06-.57.1-1.16.15-1.78l.02-.24v-.06s0-.09,0-.09v-.19c.02-.25.03-.5.04-.76.02-.52.05-1.05.07-1.59.02-.36.12-1.09.2-1.86.07.54.1,1.2.15,1.94.06.53.12,1.1.18,1.67.03.28.05.57.08.85.02.2.05.4.07.6.09.76.18,1.49.27,2.03.2,1.08.51,1.38,1.19-.4.05-.42.07-.8.1-1.17.01-.18.03-.36.04-.53.01-.17.02-.31.03-.54.03-.81.04-1.49.05-2.06.02-.69.04-1.27.06-1.77,0-.51,0-.96.05-1.32.08-.75.21-1.31.39-1.85.19-.54.43-1.08.91-1.7.49-.62,1.23-1.32,2.54-1.97-1.13.49-2,1.11-2.66,1.73-.65.63-1.08,1.26-1.36,1.8-.56,1.09-.65,1.76-.75,2.03-.06.3-.09.22-.09-.08.02-.28.07-.77.21-1.3.24-1.07.95-2.17.89-2.31-.03-.07-.29.07-.77.66-.24.3-.52.71-.79,1.29-.07.14-.14.3-.2.46-.07.16-.13.34-.18.52-.03.09-.06.19-.09.28-.02.1-.04.21-.06.32-.04.22-.07.45-.12.69.05-.54.07-1.09.21-1.56.13-.49.29-.97.51-1.42.42-.92,1.03-1.73,1.72-2.4.7-.67,1.48-1.21,2.3-1.64.82-.42,1.69-.76,2.6-1.03-1,.25-1.94.58-2.81.98-.88.41-1.68.95-2.4,1.57-.71.64-1.33,1.38-1.79,2.18-.23.4-.43.81-.59,1.23-.17.41-.3.83-.37,1.3.05-.2.09-.33.13-.49,0-.04.01-.07.02-.1,0,0,0,.02,0,.03.18-.42.32-.69.37-.73.05-.04-.03.13-.2.61-.01.07-.07.33-.07.45.11.21.17.67.23,1.14-.12.78-.24,1.37-.3,1.83-.18,1.71-.2,1.11-.19-.04.06-.92.21-2.15.26-2.93-.04-.09-.06-.29-.1-.33-.01.02-.02.04-.03.07-.11,1.05-.24,2.09-.34,3.14l-.06,2.28-.02.52-.02.35-.04.71c-.02.47-.06.95-.1,1.43-.04.48-.07.96-.12,1.45-.17,1.94-.41,3.95-.63,6,.27-1.39.54-2.91.81-4.8.13-.94.26-1.97.38-3.1Z" style="stroke-width: 0px;"></path><path d="m295.98,18.03c-.38-.06-.3-.13-.28-.19-1.02.15-1.43.23.28.19Z" style="stroke-width: 0px;"></path><path d="m297.35,16.74l-1.13.16c-2.79-.05-5.87-.28-8.15-.53-1.29-.14-2.32-.29-2.87-.4,1.11.66,2.33,1.16,5.32,1.75,1.14-.17,2.3-.56,5.64-.59,2.73.16-.38.43-.46.71,1.12-.16,3.05-.39,3.95-.6.9-.21.77-.4-2.29-.5Z" style="stroke-width: 0px;"></path><path d="m285.2,15.96c-.1-.06-.21-.13-.31-.19-.24.03-.11.1.31.19Z" style="stroke-width: 0px;"></path><path d="m245.07,18.02l6.1.63-.24-.5c6.87-.05,5.51-.62,6.47-1.03l-12.33.9Z" style="stroke-width: 0px;"></path><path d="m219.09,58.58c-.34-.37-.71-.72-1.07-1.05.57,1.48.91,3.03.91,4.79.22-1.28.27-2.51.16-3.74Z" style="stroke-width: 0px;"></path><path d="m214.34,68.53c-.14.28-.25.52-.41.84l-.46.92-.93,1.83,2.28-2.65-.47-.94Z" style="stroke-width: 0px;"></path><path d="m63.86,366.41c.2-1.37.42-2.59.67-3.7-.73,2.43-1.56,4.98-2.14,6.86-.57,1.88-.81,3.09-.25,2.86l1.21-1.38c.07-.87.16-1.68.25-2.45.08-.77.17-1.5.27-2.18Z" style="stroke-width: 0px;"></path><path d="m116.15,195.02c1.54-1.07,2.58-2,2.81-2.77-3.48,2.56-6.18,4.65-8.52,6.52,1.08-.72,2.14-1.37,3.1-2,.96-.63,1.84-1.22,2.61-1.76Z" style="stroke-width: 0px;"></path><path d="m247.11,375.19c1,1.92,1.54,2.7,1.72,2.55-1.01-1.98-1.67-3.07-1.72-2.55Z" style="stroke-width: 0px;"></path><path d="m106.34,202.15c1.26-1.07,2.61-2.17,4.09-3.38-3.2,2.12-6.76,4.59-9.66,7.68.66-.38,1.27-.79,1.93-1.19.59-.51,1.19-1.01,1.8-1.53.6-.52,1.21-1.05,1.84-1.59Z" style="stroke-width: 0px;"></path><path d="m269.52,122.38c-.47-.96-1.38-2.49-3.04-5.08.76,1.2,1.93,3.2,3.04,5.08Z" style="stroke-width: 0px;"></path><path d="m179.19,120.19c1.8-2.73.2-.49,0,0h0Z" style="stroke-width: 0px;"></path><path d="m191.2,110.73c-.05-.36.08-.82.34-1.35-.3.64-.48,1.15-.34,1.35Z" style="stroke-width: 0px;"></path><path d="m182.37,116.41c-.8.94-1.69,2.04-2.63,3.27.45-.51,1.25-1.5,2.63-3.27Z" style="stroke-width: 0px;"></path><path d="m181.6,116.68c.67-.91,1.2-1.62,1.71-2.29.1-.43-.2-.19-1.71,2.29Z" style="stroke-width: 0px;"></path><path d="m179.19,120.19c-.54.79-1.29,1.92-2.54,3.78,1.05-1.55,2.08-2.95,3.1-4.29-.42.49-.62.68-.55.52Z" style="stroke-width: 0px;"></path><path d="m408.12,278.81c.15-.08.34-.21.59-.4-.19.12-.39.26-.59.4Z" style="stroke-width: 0px;"></path><path d="m479.35,494.68c-.29-1.43-.84-2.82-1.63-4.04-.79-1.23-1.82-2.31-2.98-3.2l-.9-.64-.9-.54c-.59-.32-1.18-.62-1.77-.87-.94-.41-1.87-.81-2.8-1.21-.89-.39-1.8-.76-2.66-1.22-.87-.44-1.74-.87-2.6-1.31-.87-.44-1.69-.96-2.53-1.43-1.7-.92-3.28-2.04-4.9-3.07-.79-.55-1.55-1.13-2.33-1.69l-1.16-.85c-.38-.29-.74-.61-1.11-.91l-2.21-1.82-2.11-1.93c-.35-.33-.71-.63-1.05-.97l-1-1.02c-.66-.68-1.35-1.34-1.99-2.04-1.26-1.43-2.56-2.8-3.72-4.3l-.9-1.1c-.3-.36-.6-.73-.87-1.12-.56-.76-1.13-1.52-1.69-2.28-2.18-3.09-4.25-6.25-6.09-9.54-1.9-3.26-3.57-6.64-5.19-10.03-.03,1.29,0,2.57,0,3.88l-1.15-2.39c-.39-.8-.73-1.62-1.09-2.43-.71-1.63-1.46-3.23-2.1-4.89-.35-1.37-.4-2.36,0-2.13.2.11.5.53.93,1.36.43.83.98,2.07,1.76,3.78-.09-.5-.26-1.05-.47-1.63-.22-.58-.45-1.2-.73-1.83-.56-1.26-1.25-2.55-1.93-3.73-1.29-2.39-2.58-4.3-2.8-4.34-2.1-7.16-1.13-5.92.13-3.48,1.23,2.47,3,6.06,2.21,3.94l-.57-1.42-.53-1.44-1.05-2.89.26,1.37c-1.15-2.24-1.88-3.44-2.68-5.16-.82-1.71-1.64-3.98-2.77-8.41-1.06-5.71.29-3.13-.17-5.36.12-.01,0-.78-.71-3.41l-.35-1.64-.31-1.65-.62-3.3c-.39-2.21-.75-4.42-1.11-6.63-.15,1.84-.26,3.69-.39,5.54-.43-1.44-.77-2.95-1.06-4.3-.28-1.35-.48-2.54-.66-3.35-.35-1.62-.56-1.71-.83,1.5.11-1.18.07-2.85-.04-4.88-.09-2.03-.33-4.41-.54-7.04-.49-5.25-1.07-11.45-1.64-17.54-1.13-12.19-1.98-23.99-1.79-26.85-1.48-8.41-1.89-16.78-2.36-27.18-.14,2.6-1.54,4.23-1.89-4.74.83.77,1.27.13,1.48-1.39.05-.38.09-.81.12-1.29.01-.24.02-.48.04-.74,0-.24.01-.49.02-.75.01-.52.01-1.06,0-1.64,0-.29,0-.58,0-.88v-.22s0-.15,0-.15c0-.1,0-.2.02-.3.03-.41.1-.82.25-1.21.16-.39.39-.76.68-1.07.29-.31.63-.58.97-.82.56-.42,1.11-.84,1.66-1.26.28-.21.56-.41.83-.61.28-.2.57-.46.85-.68.56-.45,1.12-.88,1.66-1.28.83-.67,1.61-1.28,2.33-1.79-.29.16-.39.13-.33-.04.04-.13.18-.35.38-.65.19-.31.45-.7.75-1.14,1.27-1.72,3.2-4.72,4.4-7.99,1.23-3.26,1.62-6.66,1.44-8.35-.03-.86-.19-1.3-.37-1.17-.15.12-.41.82-.78,2.2.27-2.07.26-3.13.39-3.68.12-.54.28-.56.46-.5.18.05.37.17.56-.13.21-.32.3-1.03.28-2.69-.1-.64-.29-1.25-.44-1.87-.17-.61-.31-1.24-.49-1.85-.2-.6-.39-1.2-.59-1.81-.1-.3-.2-.61-.3-.91-.11-.29-.23-.59-.34-.88-.23-.59-.46-1.18-.69-1.78-.22-.6-.5-1.16-.75-1.75-.1-.23-.2-.46-.3-.68.03-.02.06-.04.09-.06.34-.21.71-.52,1.05-.79.36-.27.68-.6,1.01-.91.65-.64,1.22-1.35,1.73-2.11,1.02-1.52,1.65-3.31,1.89-5.16.06-.46.11-.93.11-1.4v-.71s-.03-.7-.03-.7c-.02-.23-.03-.48-.05-.7l-.09-.64c-.03-.22-.05-.42-.1-.65l-.15-.69c-.43-1.84-1.12-3.69-2.22-5.28-1.1-1.59-2.64-2.88-4.43-3.7-.44-.21-.91-.37-1.38-.54-.48-.13-.95-.28-1.44-.38-.49-.09-.98-.2-1.48-.25l-.75-.08c-.13-.01-.24-.02-.35-.03l-.32-.02-.64-.04-.57-.02c-.38-.01-.74-.02-1.1-.02-.67,0-1.34,0-2.01-.01-1.3-.04-2.6-.08-3.9-.11-.65-.02-1.31-.03-1.96-.05-.65-.04-1.31-.08-1.96-.12-1.31-.09-2.63-.13-3.94-.24-1.31-.12-2.63-.24-3.94-.34-.39.36,3.11,1.37-1.52,1.49l-2.72-.91-1.35-.45-.67-.23-.67-.26-2.65-1.03c-.88-.35-1.76-.67-2.62-1.07-2.04-.39-3.11-.03-4.57,0-.72,0-1.54-.1-2.61-.4-1.07-.31-2.41-.8-4.09-1.79.91.68,2.29,1.7-.43.91l-1.83-.72c-.61-.24-1.22-.47-1.82-.75-1.2-.53-2.4-1.06-3.6-1.59-.61-.25-1.19-.56-1.78-.84l-1.77-.86-1.77-.86-1.74-.94-1.74-.93c-.58-.31-1.17-.61-1.73-.95-1.13-.67-2.27-1.34-3.41-2.01-.58-.32-1.12-.69-1.68-1.05l-1.67-1.08-1.67-1.07c-.55-.37-1.08-.76-1.63-1.14-4.39-2.98-8.52-6.35-12.56-9.89l-3-2.72-1.5-1.36c-.25-.23-.5-.45-.75-.68l-.72-.71-2.89-2.86-1.45-1.43-.72-.71-.7-.74c-7.53-7.82-14.42-16.32-20.59-25.32-6.17-8.99-11.61-18.47-16.31-28.27,1.16,2.72,1.24,3.25.71,2.62-.26-.31-.67-.92-1.16-1.68-.48-.77-1.03-1.71-1.61-2.67,1.3,2.62-.91.46-1.1,1.23-1.3-2.76-2.62-5.5-3.87-8.28-1.27-2.77-2.54-5.54-3.77-8.34-3-2.14-9.43-17.17-11.63-18.16l2.97,4.98c-2.59-2.99-2.17-.15-1.41,3.44.08.36.16.72.24,1.09-2.85-5.28-5.68-10.6-8.53-15.94,1.61.05,3.2.09,4.8.12.59,1.07,1.15,2.2,1.28,2.87l.6-2.08-.83-.77c18.78.4,36.59.04,54.15-3.69,4.84-1.03,9.53-3.03,10.48-8.39.96-5.39-2.95-7.77-7.59-9.31-8.62-2.87-17.15-5.97-26.14-9.12,7.17-9.03,14.5-16.73,25.17-20.49,2.6-.92,4.84-2.11,4.57-6.13-.37-5.6-3.03-7.48-8.03-7.28-21.18.83-42.37,1.67-63.54,2.59-2.09.09-4.18.69-6.23,1.2-2,.5-3.54,1.72-3.57,3.92-.05,4.23-.68,8.42-1.31,12.6.02-.23.04-.45.05-.67l-.56.2c-.55,3.75-.6,6.57-.07,4.45-.46,3.33-.82,6.66-.8,10.01-.08-.6-.16-1.1-.27-1.51-.15-.55-.31-.93-.5-1.18-.38-.49-.89-.41-1.44.11-.28.26-.57.63-.84,1.1-.27.47-.58,1.04-.83,1.69-.24.66-.51,1.39-.7,2.19-.09.4-.18.82-.27,1.25l-.06.33c-.02.11-.04.23-.06.29-.04.15-.09.3-.13.45.1.03.2.06.31.16.11.11.23.29.33.65.12.36.23.89.27,1.69.05.8.03,1.88-.28,3.33.26-.46.71-1.46,1.01-2.68.31-1.23.47-2.65.51-3.97.02-.81.05-1.54.11-2.12.07-.58.15-1.03.24-1.27.18-.48.38-.16.64,1.44.07.63.14,1.22.21,1.76.06.51.1.91.14,1.32.01.4.03.77.03,1.11-.02.34-.03.65-.04.94-.12,1.14-.31,1.87-.55,2.44-.22.57-.48.99-.77,1.5-.31.5-.65,1.1-1.19,2.01.62-.7.76-.4.63.48-.13.88-.6,2.32-1.24,3.81-.63,1.49-1.4,3.01-1.82,4.16-.22.6-.34,1.08-.31,1.37-2.84,4.04-5.68,8.08-8.51,12.13l-1.77.71-.81,2.82,1.26-1.64c-7.88,11.29-15.7,22.64-23.44,34.03.03-.25-.15-.23-.62.23l-2.95,4.57c-3.68,3.54,4.66-9.2.36-3.8,3.56-6.4,7.29-13.76,13.61-21.88l2.17-.74c-.78.44-4.48,5.14-5.7,7.62,1.91-3.88,10.55-11.85,11.68-16.77l-4.91,5.36c3.58-6.43,7.49-14.75,13.04-21.99-3.51,2.6-1.06,1.82-6.1,6.2,4.68-3.3-11.9,17.35-7.13,13.54-4.82,4.2-6.79,8.67-12.79,14.61.54.04,2.49-2.02-2.05,4.14-.08.36-.4,1.13-.61,1.61-.15.18-.2.25-.32.4.1-.11.18-.2.29-.32-.13.31-.13.35.11-.12,1.21-1.38,2.25-2.46,2.81-2.8-1.25,3.73-8.24,13.73-10.04,17.38-2.75,3.56.63-1.85-1.18-.12-.94,1.81-1.86,3.64-2.82,5.45-.6-.06-2.69,2.1-3.93,3.15-.62.52-1.03.77-.92.34.12-.43.74-1.55,2.15-3.77-1.85,2.56-3.75,5.08-5.65,7.59-3.81,4.11-8.75,9.92-11.45,13.8-3,3.28-6.46,9.28-4.51,5.83-3.09,3.85-6.23,7.66-9.49,11.38l-.28-.08c-5.08,5.23-10.13,10.81-15.76,16.19-5.64,5.39-11.81,10.63-18.97,14.96-3.71,3.19-7.59,6.5-14.57,10.72-.61.04-1.21.08-1.82.1-1.28.88-2.93,1.92-4.74,2.95-.91.5-1.86,1.01-2.81,1.53-.48.25-.95.51-1.43.76-.48.24-.96.48-1.43.72-1.87.96-3.65,1.86-5.1,2.6-1.44.76-2.53,1.44-3.02,1.93-.89.08-1.98.33-3.22.71-.62.19-1.28.43-1.98.66-.71.23-1.44.49-2.21.77-.77.28-1.56.59-2.38.92-.83.31-1.68.63-2.55.95-.87.34-1.76.68-2.66,1.04-.91.33-1.84.66-2.77,1-1.05.39-2.11.78-3.17,1.18-.4.15-.85.35-1.29.56-.44.2-.87.44-1.29.69-.42.24-.83.51-1.22.79-.4.27-.77.58-1.14.89-1.47,1.24-2.69,2.74-3.59,4.39-.9,1.65-1.48,3.44-1.77,5.23-.08.45-.12.9-.17,1.34l-.03.33v.3s-.04.6-.04.6c-.02.41,0,.78,0,1.14.01.35.03.78.05,1,.07,1.05.17,2.07.27,3.05.21,1.96.47,3.78.72,5.38l1.25.25c.41,2.15.98,4.26,1.71,6.37.36,1.03.82,2.17,1.16,2.99.38.9.76,1.81,1.14,2.74,1.57,3.72,3.31,7.83,5.8,12.41.21-.35.44-.69.66-1.03,1.18,1.89,2.38,4.13,3.93,6.53,1.54,2.39,3.38,4.97,5.73,7.42.3.3.6.6.9.91.3.31.6.62.94.89.66.57,1.31,1.17,2.02,1.72.71.52,1.43,1.05,2.16,1.59.45.33.87.67,1.18,1,.64.67.94,1.19,1.17,1.96.24.76.37,1.92.42,3.3-.21-.36-.31-1.25-.43-2.03-.11-.82-.24-1.44-.37-1.93.07.43.1.86.12,1.43.02.56.02,1.25,0,2.04-.01.46-.03.91-.04,1.37,0,.5-.02,1-.03,1.5,0,1,0,2,.02,3.01.03,2.01.08,4.02.18,6.04.09,2.02.18,4.03.27,6.04.36,8.01.56,15.9-.82,22.87.07,1.77,0,3.28-.14,4.65-.14,1.37-.33,2.61-.59,3.82.03-.33.04-.62.03-.87-.04.36-.1.89-.16,1.43-.34,1.52-.71,3.09-1.05,4.78.41-1.43.76-2.81.98-4.01-.13,1.35-.25,3.04-.4,4.91-.16,1.86-.28,3.89-.42,5.9l-1.34,1.55c-.03.32-.06.59-.09.92-.94,3.84.1,3.22,1.22,1.25-.07,2.04-.17,3.9-.11,5.37-1.12,1.45-1.42,4.07-1.75,6.84-.15,1.39-.37,2.8-.69,4.12-.33,1.32-.75,2.54-1.45,3.52.1.71-.07,2.31-.34,4.35-.28,2.04-.73,4.51-1.11,6.99-.71,4.22-1.38,8.37-1.14,10.32-1.33,4.27-2.73,8.49-3.36,12.47l-1.92,1.4c-.37,3.29-.8,6.58-1.31,9.87-1.44,2.65-2.54,4.46-3.11,4.9-.58.44-.62-.51-.08-3.43-.87,3.44-1.59,5.83-2.21,7.65-.61,1.83-1.11,3.1-1.59,4.32-.47,1.21-.96,2.39-1.54,3.98-.59,1.59-1.28,3.6-2.29,6.5l-.55-.94c-.97,1.94-1.97,4.58-3.05,6.94-1.06,2.37-2.19,4.46-3.2,5.36-1.19,1.33-2.84,3.47-4.93,6.08-2.1,2.61-4.69,5.67-7.86,8.71-.81.74-1.6,1.55-2.48,2.27-.43.37-.87.75-1.31,1.13l-.39.33c-.14.13-.29.25-.43.38-.29.26-.57.52-.84.8-1.09,1.1-2.06,2.34-2.88,3.62-.21.32-.4.65-.59.97l-.28.49-.29.54c-.43.83-.87,1.67-1.16,2.55-.65,1.76-.85,3.67-.61,5.54.23,1.87.89,3.69,1.9,5.29,1.01,1.6,2.39,2.99,4.03,3.95.2.13.41.24.63.34l.65.3c.44.19.9.31,1.35.46.46.11.94.18,1.4.27.47.06.96.09,1.44.12,1.15.04,2.3.07,3.44.11.99.04,1.98.07,2.96.08,1.96.03,3.9.11,5.81.11,3.81.06,7.49.07,10.93.08-2.56-1.2.43-1.08,4.17-.95,1.87.03,3.94.06,5.59-.06,1.65-.15,2.87-.44,3.07-.99,1.55.49,5.17.4,1.09,1.45,1.63-.24,3.15-.53,4.59-.73.72-.1,1.42-.2,2.11-.29.68-.1,1.35-.2,1.99-.3,1.3-.18,2.53-.34,3.71-.5,1.18-.18,2.31-.35,3.41-.52,2.2-.32,4.25-.77,6.29-1.28,2.04-.53,4.05-1.27,6.16-2.2,1.62.28-2.52,1.56-1.13,1.62,1.01-.35,3.94-1.56,5.36-1.53,1.4.03-1.74,1.01-3.7,1.8,3.27-.87,5.78-1.65,7.68-2.46,1.91-.78,3.23-1.48,4.14-2.17,1.83-1.35,2.09-2.43,2.27-3.46,6.69-1.27,9.84-2.56,13.93-5.43,2.39-.29,6.29-1.1-1.35,2.08,2.19-.77,8.91-3.13,14.95-5.8,6.05-2.64,11.42-5.53,11.28-6.31,1.48-.29,5.84-2.88,6.83-3.62,2.31-1.22,4.06-2.21,5.56-3.04,1.49-.84,2.75-1.49,3.95-2.23,1.21-.72,2.41-1.45,3.85-2.33.36-.22.74-.45,1.13-.7.39-.26.79-.52,1.22-.81.86-.57,1.8-1.2,2.87-1.91l-2.52,1.34c.61-.93,1.34-1.7,2.2-2.41.43-.36.9-.69,1.4-1.03.49-.35,1.01-.7,1.57-1.06,1.13-.7,2.37-1.47,3.76-2.34,1.38-.89,2.86-1.96,4.49-3.23l-.08.29c2.02-1.26,3.55-2.4,4.82-3.3,1.26-.92,2.25-1.62,3-2.25,1.5-1.25,2.23-1.96,2.96-2.67.72-.71,1.46-1.38,2.9-2.65,1.44-1.27,3.69-3.01,7.27-6.08l-1.51-.08c-.11-.74.63-1.76,1.91-3.02,1.24-1.3,3-2.86,5.01-4.59.97-.91,1.99-1.86,3.03-2.84,1.04-.99,2.12-2,3.1-3.11,1-1.09,1.98-2.21,2.9-3.33.47-.56.89-1.14,1.29-1.73.4-.58.79-1.17,1.14-1.75-.96.92-1.88,1.86-2.86,2.76.75-1.29,1.86-2.67,3.23-4.05.67-.7,1.45-1.38,2.17-2.11.74-.73,1.52-1.46,2.3-2.19.79-.73,1.58-1.46,2.36-2.18.75-.74,1.48-1.48,2.17-2.2.69-.72,1.34-1.43,1.93-2.11.29-.34.57-.68.83-1.01.25-.33.47-.67.68-.99.42-.52.23-.03-.15.81-.4.83-1.05,1.98-1.46,2.81.6-.81,1.12-1.52,1.58-2.15.45-.64.8-1.21,1.12-1.71.63-.99,1.03-1.7,1.27-2.21.49-1.02.34-1.25.09-1.39-.25-.14-.62-.21-.58-.88.05-.68.48-1.97,1.75-4.59,1.68-1.56.53,3.42,4.23-3.56,1.17-1.62,3.12-7.06,5.25-13.29,2.06-5.96,4.24-12.65,6.63-17.41.18.39.36.77.55,1.14.57,1.09,1.17,2.07,1.8,2.9.25,1.03.25,1.46.13,1.56.35.71.76,1.53,1.2,2.43.45.9.94,1.87,1.46,2.89.51,1.02,1.05,2.09,1.59,3.17.55,1.08,1.13,2.16,1.7,3.22.58,1.06,1.14,2.1,1.68,3.1.54.99,1.11,1.91,1.62,2.75,1.03,1.68,1.93,3.02,2.58,3.75-.11.87.14,2.04.63,3.45.5,1.4,1.2,3.05,2.13,4.8s2.02,3.63,3.19,5.55c1.21,1.9,2.5,3.83,3.76,5.72,1.3,1.86,2.58,3.69,3.76,5.38.57.85,1.16,1.65,1.7,2.41.54.76,1.03,1.48,1.47,2.15,1.73,2.7,2.71,4.54,1.95,5.03l2.86,3.96,2.97,3.88,1.49,1.94,1.54,1.9,3.09,3.79-.6-.17c1.95,2.45,3.68,4.42,5.17,6.1,1.55,1.63,2.89,2.93,4.07,4.02.6.54,1.14,1.05,1.69,1.48.55.44,1.06.84,1.56,1.21.99.74,1.91,1.38,2.82,2.02,1.83,2.24.13.96-.17.92,6.11,6.71,9.9,10.22,13.76,13.06,1.93,1.42,3.92,2.64,6.34,3.89,2.43,1.23,5.32,2.52,9.2,3.6.37.56.76,1.13,1.16,1.69.55.09,1.4.34,2.44.67.98.29,2.18.68,3.55,1.15,2.74.95,6.22,2.15,10.09,3.49,7.76,2.65,17.22,5.64,25.97,7.2-.2.08-.61.21-2.02.01,9.8,1.88,21.23,5.45,31.41,7.82,5.07,1.22,9.83,2.12,13.79,2.54,3.98.39,7.16.3,9.07-.52,4.37.21,8.77.44,13.2.49-4.26-.49-6.19-.9-6.83-1.18-.64-.28.01-.44.98-.58,1.93-.28,5.09-.49,1.67-1.22,3.32.26,7.56.96,10,1.45,1.22.26,1.98.48,1.91.65-.06.16-.95.28-3.02.2-.43-.1-.85-.19-1.27-.3-.8.48.12.9,1.96,1.2,1.84.31,4.61.51,7.48.53,2.87.03,5.83-.11,8.06-.23,1.11-.06,2.04-.11,2.69-.08.31.02.61.03.79.07.19.04.28.11.26.21.3-.05.62-.11.93-.18l.47-.1.52-.14c.35-.1.7-.2,1.05-.33.35-.12.69-.25,1.02-.4,1.34-.59,2.59-1.4,3.63-2.42,1.04-1.02,1.86-2.26,2.43-3.61l.39-1.03c.11-.35.21-.7.3-1.06.09-.36.16-.72.23-1.08.07-.36.1-.7.15-1.05.16-1.42.13-2.93-.16-4.35ZM69.39,323.95l.8-2.61c-.28-3.5-.57-6.99-.92-10.47.92,2.76,2.21,7.67,3.44,13.23-.08,5.85-.28,11.68-.61,17.51-1.16-5.15-2.32-11.28-2.71-17.65Zm30.65-82.47l-1.05.34c1.83-1.6,1.43-.98,1.05-.34Zm144.93,52.85c-.15-.01-.3-.03-.45-.04-.14-.02-.29-.06-.42-.08-.54-.11-.98-.2-1.33-.25l.95-.32.47-.16c.15-.05.3-.14.45-.21.6-.3,1.16-.53,1.85-.98l1.1-.62c.37-.22.75-.39,1.16-.51.47.05.51.24.31.5-.2.26-.64.62-1.06,1.17.38-.33.8-.54,1.14-.7.63.06,1,.25,1.19.43.11.11.15.22.14.33-.83-.08-1.71.02-2.32.34-.25.13-.51.25-.76.37.19-.25.39-.5.6-.76l-1.02.82c-.11.09-.22.18-.33.27-.41.17-.81.32-1.2.45-.16-.01-.32-.03-.47-.04Zm75.89-9.24c-.06.16-.1.33-.1.48-.16-.2-.66-.12.1-.48Zm58.61-14.8c.27-.04,2.22-.46,4.35-1.16,2.13-.68,4.42-1.66,5.41-1.92.36-.08.62-.06.8.03-.12.11-.25.21-.38.32-1.35,1.11-2.76,2.13-4.21,3.05l-1.05-1.44c.13.62.25,1.24.36,1.86-1.59.97-3.25,1.81-4.97,2.52-.54-1.27-.69-2.51-.33-3.27Zm7.97-24.01s-.01.01-.01,0h0s.01,0,.01,0Zm-27.81-9.38c-1.3-.46-2.43-.79-3.43-1.04-.99-.28-1.85-.48-2.63-.6-1.54-.27-2.75-.25-3.87-.32-1.12-.07-2.18-.15-3.47-.51-.64-.19-1.34-.43-2.13-.81-.77-.39-1.64-.89-2.62-1.54-2.8-2.67.91-2.33.56-3.49,2.25.77,3.8,1.74,5.22,2.56,1.41.84,2.62,1.71,4.14,2.25-1.17-.64-2.31-1.36-3.45-2.03.78.09,1.92.37,3.05.74,1.14.34,2.29.76,3.03,1.22-.28-.23-.72-.5-1.28-.79,6.85,2.56,13.95,4.6,21.31,6.09-.1.04-.2.07-.3.11-.48.14-1.02.24-1.61.34-1.19.18-2.61.27-4.2.27-1.59-.02-3.32-.21-5.18-.47-1.46-.25-2.31-.57-2.79-.81-.48-.25-.59-.46-.56-.63.07-.34.73-.52.21-.54Zm-19-3.57c.05,0,.09,0,.14,0,2.27,1.53,1.47.97-.14,0Zm-39.77-34.49c-.31-.18-.65-.39-1-.66-.6-.46-1.25-1.01-1.82-1.68-.5-.58-.96-1.22-1.35-1.9,1.37,1.43,2.76,2.84,4.17,4.23Zm.92.89c.1.09.19.19.29.28-.11-.08-.22-.16-.33-.24,0-.02.02-.03.04-.04Zm26.31,252.88c.19-.03.27-.16.18-.42l-.71-.46-.69-.49c-.25-.89.57-.64,1.29-.39.73.23,1.37.46.7-.38,1.09.42,2.29.79,3.47,1.35,1.18.56,2.39,1.22,3.47,2.37l-.35,1.51c.18-.39-1.15-1.89-2.11-2.05.71.13,1.39,1.22,2.18,2.2.82.94,1.77,1.77,2.87,1.38l-1.26-2.02c1.12.3,2.44.52,3.73.86,1.32.3,2.59.75,3.63,1.63-.34-1.85-.62-.18-1.39-2.57.08.65-.23.75-.74.59-.51-.17-1.22-.57-1.87-1.03-1.21-.81-2.35-1.56-2.11-.36-.31-1.12-.84-1.7-1.42-2.33-.64-.67-1.36-1.37-1.88-2.75-.11.21-.07.52-.2.59-.14.08-.45-.1-1.24-.89-.16.05-.46.03-.64.02-.05-.05-.06-.07-.1-.12.02.04.04.08.06.12-.12,0-.14,0,.02.04.29.49.47.96.45,1.28-.77.08-1.86-.45-2.92-1.05-.54-.29-1.04-.63-1.5-.91-.46-.28-.87-.5-1.2-.6-.87-1.06.78-.03.56-.9l-1.94-.58c.56-.91-1.39-3.73,1.3-2.02l-2.01-1.98c-.2-.39-.45-.78-.7-1.19-.26-.41-.54-.8-.84-1.17-.61-.74-1.28-1.36-1.93-1.71-.72-1.14-3.1-1.74-1.72-1.41l-1.72-1.44-1.67-1.51.18-.2c-1.35-1.7-3.12-3.31-4.77-5.09-1.67-1.76-3.13-3.81-3.92-6.44-1.14-1.06-2.28-2.18-3.52-4.43l.46-.93c-.35-.35-.69-.86-1.02-1.43-.32-.57-.63-1.21-.94-1.8-.62-1.18-1.22-2.2-1.85-2.29.84-3.07-4.69-8.21-6.07-11.39l-1.08.5c-.29-.51-.6-1.01-.93-1.5-.32-.5-.66-.99-1.02-1.49-.73-1-1.55-2.02-2.49-3.18l-.82.67c-1.02-.89-1.61-2.43-2.24-4.16-.31-.87-.62-1.78-.98-2.7-.34-.93-.72-1.86-1.2-2.74.48.06.85,1.01.96,1.77-.02-1.34-.41-2.52-.99-3.61-.29-.55-.63-1.07-1-1.58-.35-.52-.73-1.02-1.11-1.52-1.52-2-3.13-3.94-3.21-6.29-.79-.83-.99-1.6-1.06-2.4.04.09.1.17.16.22-.03-.11-.1-.26-.17-.41-.03-.51-.04-1.04-.1-1.59-.05.51-.06.99,0,1.38-.37-.75-.98-1.86-1.69-2.91l.83-.92c-.05-.09-.08-.16-.14-.25-.08-1.28-.87-.7-1.4.23-.41-.51-.84-.95-1.26-1.26.65-.8.18-1.49-.25-2.24-.44-.75-.88-1.56-.22-2.54-.59-.22-1.32-1.61-2.16-2.95-.69-1.14-1.46-2.25-2.32-2.54-.25-1.38-.52-2.74-1.44-3.74l1.17-1.02-2.76-2.29c.25-2.03.5-2.9,2.12-1.5-1.5-1.84-1.89-2.66-2.27-3.39-.38-.74-.74-1.39-2.08-2.97l.94-.08c-.44-1.29-2.16-2.98-1.6-3.95.51-1.63-.21-5.12-.61-9.28-.21-2.07-.34-4.3-.29-6.48.02-.55.03-1.09.07-1.62.02-.27.04-.53.06-.8l.04-.39.05-.3c.03-.2.07-.39.1-.58l.06-.28.06-.19c.09-.25.18-.48.29-.67-.68-.03-.95-.09-.98-.27-.04-.17.15-.42.4-.64.24-.22.55-.4.71-.59.16-.19.17-.42-.24-.83.36.14.73.21.99.36.26.14.39.33.41.69.19-.37.55-.49.88-.57.17-.04.33-.06.48-.08.3-.08.58-.16.85-.23.14-.04.27-.08.4-.12.13-.04.33-.13.49-.2.34-.15.66-.32.97-.52.62-.4,1.18-.94,1.66-1.69.38.16.28.49.15.78-.13.29-.29.56,0,.63.28-.28,1.02-1.19,1.63-1.08.6.1-.32.8-.85,1.4.52-.3.97-.59,1.34-.88.37-.3.68-.59.92-.88.5-.56.75-1.12.85-1.63.21-1.03-.18-1.92-.59-2.78,2.32-.56,3.15-1.45,3.54-3.39.95-.06,2.38-.47.46,1.53.32-.23.94-.71,1.7-1.32.74-.62,1.6-1.39,2.33-2.17l.26-.28.13-.16c.09-.1.17-.21.25-.32.16-.21.28-.43.38-.65.19-.43.26-.89.1-1.28.36.15.81-.9.95-1.29.37-.35.74-.57,1.09-.56.35,0,.63.14.87.29.49.31.88.7,1.68,1.29l-.38-.64c.54-.71,1-.42,1.45.06.23.24.46.55.72.85.07.07.13.15.2.22.09.08.2.18.31.26.22.18.46.35.73.51l-.16.11c.25.28.46.52.69.74.23.22.44.41.63.58.38.34.69.59.95.77.53.35.86.46,1.17.57.32.11.62.23,1.15.57.53.34,1.26.93,2.51,1.92l.17-1.16c.77-.96,1.78-.09,3.18,1.01,1.37,1.13,3.26,2.41,5.12,2.36-.38-.28-.74-.62-1.1-.92.52-.08,1.04.16,1.61.54.56.39,1.15.97,1.77,1.53.32.29.63.59.95.87.32.28.64.54.96.77.32.24.63.45.93.61.3.16.59.26.86.31.46.22-.76.33-1.42.41,2.8.89,3.03.46,3.02-.12,0-.59-.15-1.38,1.85-1.6.39.37.18.89.21,1.31.03.42.31.75,1.76.71.37.12,1.07-.05,1.94-.35.44-.16.91-.37,1.42-.6.51-.21,1.03-.48,1.57-.75,2.17-1.05,4.43-2.27,6.44-2.34-1.02-.24-1.96-.5-.44-1.63.62-.34,1.41-.58,2.28-.83.86-.27,1.82-.5,2.71-.85,1.81-.65,3.43-1.66,3.85-3.18.39-.08.59-.04.7.07.34-.44.81-.97,1.32-1.56.5-.6,1.03-1.25,1.53-1.89.47-.66.91-1.31,1.23-1.9.3-.6.5-1.13.52-1.53.5.17,1.07.04,1.45-.04.2-.06.4-.15.58-.26.19-.1.37-.22.54-.36.69-.54,1.3-1.26,1.98-1.78.68-.54,1.51-.91,2.21-.85.7.06,1.13.47.95,1.34.33.05.68.1,1.04.2.18.04.36.08.55.14l.28.08.34.1c1.04.33,2.08.63,3.14.89l-.26.31c2,.69,3.46.8,4.56.72,1.12-.11,1.91-.42,2.68-.76.92.36.19.6.09.78.75.19,1.42.3,2.03.42.61.09,1.16.17,1.66.22.5.04.96.06,1.39.06.43-.01.83-.04,1.22-.09.39-.05.77-.14,1.16-.24.39-.11.8-.23,1.15-.4.19-.08.38-.17.58-.26.1-.05.2-.1.31-.15.09-.05.14-.1.22-.15.29-.22.65-.45,1.08-.75.06.38.09.76.11,1.14.21-.2.61-.25,1.07-.23.46.03.99.09,1.51.38.25.14.52.39.62.77.1.37.1.76.11,1.11,0,.36.02.68.08,1,.06.4.16.78.32,1.16-.13.01-.36.02-.52-.17.33.78.28,1.91.09,2.94l-.16,1.24c-.06.43-.13.85-.19,1.28-.13.85-.26,1.68-.39,2.49-.47,3.22-.52,5.95,1.58,7.07.34,1.36.72,2.71,1.08,4.07.26-5.27,1.84.76,2.51-1.41.27,2.06-1.2,5.36-1.45,2.82l.21-.4c-1.1-.45-1.28,1.19-1.36,2.93-.06,1.74-.04,3.58-.79,3.52.37,10.38-.34,20.57.36,30.33l1.61-1.25.19,3.39c-.32.92-1.23,1.31-1.36-1.12-.86,1.36,1.15,3.99,1.53,4.02-.24,4.8-2.16-1.67-2.06-.21.09.66.2,1.31.31,1.96l.15-.46c.85,1.54,1.6,1.6,1.8,4.52-.16,1.87-.95,1.05-.94,1.78-.12,0-.15.26.08,1.12l.34,4.29,1.15-1.86c.87,1.81.39,4.01,1.68,1.87-.5.79-.67,2.18-.66,3.85,0,1.67.2,3.63.48,5.54.51,3.83,1.3,7.47,1.08,8.4,1.37,2.48,1.83,5.05,2.26,8.28.14-.85,1.53-1.59,1.86,1.2-1.63-.22-1.72,1.11-1.62,2.83.05.86.15,1.82.12,2.73,0,.82-.11,1.61-.45,2.25.47-.67.96,1.12,1.49,2.78.27.89.6,1.74.92,2.14.32.4.65.35.97-.55.32,2.34-1.1.41-1.38,2.33.32.65.59,1.32.83,2.03.23.7.44,1.43.65,2.17.4,1.48.72,3.05,1.02,4.67.68,3.22,1.32,6.66,2.72,9.89.42-.04.63-1.35,1.7-.14l-.35,2.09-.29,2.09c.7,1.23,2.67.32,2.27,3.2.19-.46.48-1.15.94-.34,1.69,6.71,5.16,12.91,8.86,18.89l1.4,2.24c.47.74.9,1.52,1.4,2.24.96,1.48,1.89,2.97,2.77,4.51,1.87,2.99,3.51,6.15,5.03,9.46-.57-1.99.29-1.04,1.21.07-.44-.86.8-.62,1.12-1.12.78,1.86,1.69,3.64,2.59,5.46.47-.05.96.21,1.47.63.51.41,1.01,1,1.55,1.53.14.15.29.29.43.43-6.41-1.34-11.99-2.49-17.54-3.81-11.94-2.86-23.74-6.43-35.77-8.79-6.34-1.24-12.35-3-18.04-5.25.07.02.15.03.22.03l.11-.52c-1.12-.44-2.06-.47-1.42.05-1-.41-1.99-.83-2.97-1.26,1.03.03,1.53-.73,1.66-1.76.07-.55.03-1.17-.08-1.8-.1-.64-.28-1.29-.51-1.87-.23.34-.38.68-2.57.24.45.77,3.87,3.15,1.86,3.12-2.85-.83-2.03-1.33-3.09-2.37.14.38-.04.58-.4.66-.36.08-.89.05-1.45.03-.87-.03-1.81-.06-2.24.36-5.32-2.91-10.33-6.31-15.05-10.17Zm-160.95-9.45l.72-.23c-.99,1.27-.84.76-.72.23Zm12.5-130.82c-.61-.26-.82-.56-.8-.85.72.07,1.43.12,2.14.16-.18.13-.35.27-.51.39.33-.12.69-.23,1.07-.36.33.01.65.02.98.02.69.44,1.31.82,1.74.99-.74.15-1.49.27-2.24.4-.75.13-1.51.19-2.28.28-.53-.28-.02-.76.73-1.34-.31.1-.6.21-.83.31Zm-53.4-13.83c.18.18.57.06.02.47.02-.16.02-.32-.02-.47Zm-39.88,62.65c-.09.93-.11,1.73-.09,2.42.01.7.08,1.3.17,1.83.2,1.06.53,1.85.83,2.59.3.75.57,1.45.65,2.35.07.9-.02,2-.57,3.51-1.52,2.32-2.49-.15-3.45.3-.03-.81.05-1.52.16-2.16.1-.64.27-1.21.44-1.75.34-1.08.73-2.03.79-3.12l-.81,2.63c-.33-1.06-.47-3.22-.01-4.36-.14.21-.27.53-.38.93.39-4.99.66-10,.8-15.03.27.35.54.75.79,1.22.41.78.82,1.72,1.11,2.78.3,1.06.53,2.24.69,3.5.28,4-1.36,1.65-1.12,2.35Zm-8.22,46.38s-.04,0-.06-.02c.02-.09.04-.18.06-.27,0,.1,0,.19,0,.29Zm-1.12,4.78c.3-1.32.59-2.65.88-3.97.17,1.06-.04,2.64-.88,3.97Zm311.7-169.09s0,0-.02.02c0,0,.01-.01.02-.02Zm-111.59,59.43c-.42.57-.88,1.11-1.33,1.67-.47.53-.93,1.09-1.43,1.61-.56.1-.5-.56-.34-1.46-.15.27-.3.52-.4.73-.61.17-.95.08-1.12-.16.55-.38,1.09-.79,1.62-1.2-.04.22-.07.43-.11.63.16-.29.33-.61.51-.94.23-.19.46-.37.69-.56.78-.09,1.47-.17,1.9-.31Zm-7.84,53.12c.22-.12.22-.49.45.07-.15-.05-.29-.08-.45-.07Zm13.74,29.63c-1.15-.37-2.99-1.16-4.9-2.14-.8-1.63-1.58-3.26-2.34-4.91,2,.81,4.05,1.92,5.33,3.48l-.34,1.07c.73.84,1.5,1.67,2.25,2.5Zm30.43,49.64c1.02,1.36,1.92,2.2,2.75,2.73.85.52,1.6.77,2.3,1.01.7.24,1.34.47,1.98.96.66.47,1.31,1.18,2.02,2.43.65,2.47-1.7,1.83-2,2.82-1.21-.91-1.86-1.87-2.39-2.78-.51-.92-.87-1.81-1.56-2.54l1.21,2.25c-.94-.42-2.51-1.71-2.96-2.76.05.27.22.62.47,1.03-1.35-1.54-2.68-3.12-3.97-4.75-1.68-2.12-3.32-4.25-4.94-6.4.43.08.88.22,1.36.41,1.57.6,3.38,1.72,5.14,3.25.65.65.98,1.09,1.12,1.39.13.31.07.49-.06.61-.26.23-.77.19-.46.34Zm10.22,6.18s-.06-.01-.09-.02c-.78-1.44-.51-.91.09.02Zm-26.17-24.56c-.56-.83-1.12-1.66-1.67-2.5.86.41,1.68.94,2.25,1.5-.35.09-.5.63-.58,1Zm-6.97-11.89c-.04.28-.14.48-.27.62-.63-1.03-1.25-2.07-1.87-3.11l1.49-.97-1.75.53c-.6-1.02-1.19-2.04-1.78-3.07,1.19-.7,2.37-1.12,3.06-1,.04.19.34,1.57.61,3.1.3,1.51.59,3.16.51,3.9Zm-26.12-55.54c-.26-.81-.52-1.61-.77-2.42.91.59,1.82,1.18,2.75,1.75-.57-.05-1.25.28-1.98.67Zm127.29-100.59c.5.9,1.11,1.82,1.52,2.69.24.51.46,1,.65,1.49-.24-.26-.49-.53-.74-.81-.66-.79-1.34-1.4-1.94-2.21.39,0,.47-.68.51-1.16Zm-306.82,86.31c-.03-1.04-.06-2.08-.1-3.12.5.83.91,1.76,1.09,2.58-.33-.11-.73.25-.99.54Zm.38-16.38c-.22.68-.45,1.31-.64,1.63-.15.23-.32.37-.5.44-.1-1.28-.21-2.57-.33-3.85.59,0,1.18.02,1.77.04-.6-.17-1.22-.37-1.82-.58-.12-1.26-.24-2.52-.38-3.77.09.03.17.06.26.09.44.16.86.34,1.25.52.78.36,1.41.74,1.79,1.08-.05.13-.38,1.12-.78,2.41-.21.68-.44,1.39-.63,2Zm8.37-11.15c.63-.51,1.35-1.06,2.08-1.61,1.96-.08,3.9-.25,5.8-.5-.68.77-1.45,1.54-2.33,2.15-1.02.74-2.15,1.37-3.34,1.64l-.94-.73c-1.34.36-2.09.6-2.96.89.32-.5.87-1.14,1.69-1.84Zm39.7-18.01c-.03.21-.05.42-.09.64-.13.9-.27,1.81-.42,2.74-.18-.55-.77-1.01-1.43-1.51.65-.6,1.3-1.23,1.94-1.87Zm2.8-.47s0,0,0,0h0s0-.02,0-.02v.02Zm-.82,1.24h0s0,0,0,0c-.01.01,0,0,0,0Zm244.9,78.72l.22-.7c.49,1.48.15,1.08-.22.7Zm-34.74,95.13c-.1-.05-.19-.1-.29-.15l.33.09s-.02.04-.04.06Zm.67.34c1.04.04,2.48.55,3.53,1.68-1.19-.54-2.36-1.1-3.53-1.68Zm80.57,21.65c1.07-.04,1.15-1.2,1.14-2.53,0-.14,0-.29,0-.44,1.26,1.36,2.55,2.7,3.89,4.03-1.74-.37-3.41-.73-5.03-1.07Zm-66.93-214.51c-.25.05-.51.07-.8.11-.29.03-.6.07-.93.08-.32,0-.67,0-1.03-.01-.37,0-.75-.04-1.13-.09-.39-.05-.8-.1-1.22-.18-.33-.07-.68-.15-1.03-.24-.98-.82-1.94-1.74-2.86-2.79-1.13-1.29-2.29-2.25-3.43-2.89.15-.02.3-.03.46-.03.36,0,.73.04,1.13.09.41.04.78.17,1.21.28.21.06.43.12.64.21.21.09.41.19.63.29.41.19.91.47,1.26.64.38.19.75.4,1.13.62.19.12.36.19.53.27.17.08.34.17.5.26.16.09.33.18.48.28l.49.26c.13.42.25.88.41,1.3,1.39.68,2.83,1.12,4.26,1.39-.2.06-.43.11-.68.16Zm-49.93,17.76c0,.15.03.3.04.45-1.31-.21-2.6-.57-3.85-1.06,1.48-.17,2.88-.52,4.14-1-.31.39-.37.96-.33,1.6Zm-243.62,160.73c3.72-10.81,6.93-21.69,9.6-32.63,0,.06-.01.12,0,.18l.53.03c.28-1.23.2-2.21-.2-1.55.26-1.08.51-2.16.76-3.24.36,2.14,3.49,1.35,5.53-.26-.38-.16-.74-.25-.73-2.75-.68.73-2.34,5.04-2.7,2.84.24-3.25.9-2.51,1.72-3.94-.71.53-.88-.56-1.14-1.74-.2-.91-.43-1.86-.94-2.18.32-1.59.64-3.18.94-4.78l1.26-.36-.75-1.08-.5,1.41c.9-4.77,1.7-9.56,2.38-14.36.11.11.25.1.42-.11l.08-1.82c1.24-1.52.91,3.57,1.7,1.36.18,1.26.45,2.61.55,4.06.05.73.05,1.48-.06,2.25-.1.78-.27,1.58-.55,2.4l-1.52.4c.42,0,1.22-2.08.95-3.1.39,1.52-2.79,4.87-1.2,6.74l1.38-2.21c.14,1.27.49,2.73.62,4.24.12,1.5.09,3.06-.43,4.52,1.66-1.1-.02-.72,2.02-2.56-1.2.74-.78-1.19-.44-2.98.29-1.67.55-3.21-.47-2.38,1.93-1.8,1.28-3.55,3.28-6.09-.48.02-1.04.89-.45-1.64-.12-.14-.25-.43-.33-.62.02-.08.04-.1.06-.17-.03.05-.05.08-.08.13-.05-.12-.07-.13-.03.05-.29.58-.6,1.04-.89,1.2-.89-1.43-.29-5.47-.65-6.91.43-1.48.45.7,1.06-.06-.17-.72-.37-1.44-.58-2.16,1.06-.07,2.18-3.84,2.39-.17l.41-3.23c.8-1.84,1.34-4.45,1.01-6.12.35-1.52-.83-3.97-.13-2.57-.09-1.72-.13-3.43-.25-5.14l.26-.03c.2-2.51-.09-5.13-.17-7.81-.13-2.69-.07-5.44.94-8.31-.1-.85-.26-1.71-.34-2.72-.08-1.01-.1-2.15.04-3.57l.9-.56c-.18-1.09.08-2.73.16-4.22.09-1.49.11-2.82-.38-3.27.59-.61.89-1.58,1.02-2.76.06-.59.08-1.23.07-1.9-.01-.67-.09-1.37-.16-2.08-.16-1.42-.38-2.88-.55-4.22-.09-.67-.16-1.32-.21-1.92-.02-.3-.04-.59-.05-.86,0-.14,0-.27,0-.4,0-.1,0-.13.02-.19h-1.19c-.08-1.44-.55-2.79-1.25-5l-1.09-.42c-.07-.14-.13-.3-.18-.43-.05-.11-.09-.23-.12-.34-.06-.23-.08-.46-.06-.68.03-.22.08-.43.22-.61.14-.18.4-.3.7-.3.61,0,1.24.23,1.78.38.57.15,1.02.26,1.53.26-.09.4-.48.27-.94,0,.42.32.73.53,1,.66.38.13.81.17,1.19.16.2,0,.39-.02.59-.05l.92-.14c.74-.12,1.47-.27,2.19-.42.72-.14,1.44-.36,2.14-.53.71-.18,1.4-.32,2.09-.45.69-.15,1.36-.25,2.04-.29.68-.03,1.35,0,2.02.08,1.19-.63,2.13-.64,3.07-.62-.12.03-.22.08-.3.13.13-.02.32-.07.52-.12.6.04,1.22.09,1.89.1-.6-.11-1.15-.19-1.61-.17.96-.27,2.41-.74,3.73-1.47l.95.88c.11-.05.21-.08.32-.14.77-.02,1.01-.25.93-.53-.08-.28-.48-.6-.99-.89.65-.39,1.2-.87,1.59-1.3.43.32.86.36,1.3.25.22-.05.44-.14.66-.24.22-.11.43-.25.65-.39.88-.55,1.79-1.08,2.94-.56.12-.33.57-.75,1.17-1.22.6-.48,1.37-.99,2.05-1.61.7-.6,1.37-1.22,1.83-1.82.31-.44.52-.87.57-1.27.7-.35,1.42-.7,2.05-1.13.62-.46,1.17-.99,1.56-1.65l1.43.7c.51-1.24.95-2.51,1.39-3.72,2.1-.77,3.11-1.08,2.33,1.21.59-1.1,1.02-1.87,1.39-2.45.09.08.19.16.28.23,1.02.69,2.01,1.33,2.04,2.09.53,1.82,3.44,5,7.34,8.1,3.86,3.17,8.76,6.04,12.57,8.63-.23-1.62.57-.87,1.64-.04.53.42,1.12.9,1.65,1.14.54.23,1,.23,1.26-.23.27.78,1.36,1.55-.22,1.58,1.15.26,2.13.54,3.01.84.44.15.85.32,1.25.46.4.14.78.27,1.16.4.75.24,1.46.47,2.22.51.75.05,1.53-.03,2.39-.3.4.74-1.15.73-.76,1.2.2-.03.59-.09.98-.1.39-.01.79.04.99.27.41.45-.77.44-1.55.57,2.39.35,3.77.03,4.64-.63.85-.65,1.15-1.59,1.4-2.49,1.13.55,2.02.76,2.83.75.81-.06,1.55-.4,2.39-1,.41.3.98.57,1.07.83.05.13-.02.25-.29.37-.13.06-.32.11-.56.16-.24.04-.54.07-.91.1.21.01.52.04.92.06.4,0,.87.01,1.39.02,1.05.04,2.3-.08,3.49-.2.6-.09,1.18-.21,1.72-.33.27-.06.53-.12.77-.19.24-.08.46-.17.67-.25.82-.34,1.31-.7,1.25-1.07.61.22,2.29-.6,2.63-.92.88-.33,1.57-.58,2.15-.8.57-.25,1.04-.46,1.5-.67.47-.2.91-.45,1.44-.77.52-.32,1.15-.67,1.89-1.24-.33.12-.65.26-.99.36.13-1.15.66-1.66,1.49-2.1.4-.23.86-.48,1.36-.78.25-.15.51-.32.77-.51.26-.2.5-.44.75-.7l.06.19c1.47-.87,2.25-1.55,2.75-2.03.25-.24.42-.44.55-.62.12-.18.21-.34.3-.5.18-.31.36-.62.83-1.11.12-.12.25-.25.41-.4.14-.12.28-.23.44-.37.16-.11.35-.24.54-.34.09-.04.19-.09.29-.12.08,0,.18-.05.24-.03-.23-.31-.51-.54-.79-.8-.15-.25-.2-.49-.18-.64.01-.08.04-.16.09-.23.04-.05.1-.09.16-.13.06-.02.12-.03.18-.02.05.02.1.03.14.09.08.09.14.22.26.45.06.12.12.25.18.37.07.15.14.31.21.47.08.17.16.35.23.53l.06.14c.05.08.08.14.12.2.08.13.16.26.24.39.34.52.73,1,1.21,1.39.47.4,1.02.65,1.58.82.13.04.26.08.39.11l-.29-.32c-.3-.32-.58-.62-.83-.96.37.09.72.24,1.08.48.11.08.25.19.35.28.09.09.18.19.26.3.16.22.32.48.46.74.29.53.5,1.17.69,1.77.35,1.23.5,2.37.85,2.86.05.18-.1.16-.31.08-.21-.08-.48-.22-.7-.28.5.83.74,1.2.97,1.32.23.11.42-.03.63-.24.21-.2.44-.47.75-.57.3-.09.74-.04,1.27.49-.13.46-.64.63-.96.9-.32.27-.48.6-.05,1.34,0,.13.06.27.19.43.12.16.3.33.52.52.42.41,1.02.9,1.55,1.57.54.66,1.05,1.47,1.35,2.33.29.86.38,1.77.13,2.57.49-.74.97-1.56,1.69-.05.3,1.21-.1,2.96-.37,4.67-.26,1.71-.39,3.4.59,4.59-.16.34-.32.47-.47.49.12.5.26,1.2.36,1.91.1.71.21,1.5.33,2.26.28,1.52.49,2.96.97,3.6-1.01.4-1.4,1.37-1.59,2.6-.21,1.23-.1,2.73-.06,4.19.02,1.45.07,2.87-.12,3.87-.23,1-.66,1.58-1.53,1.4l-.26,1.51-.13.76-.16.75-.64,3.01-.31-.25c-.62,1.87-.85,3.18-.84,4.24-.01,1.06.17,1.85.36,2.65-.51.8-.62.06-.78-.07-2.51,5.28-2.59,5.8-2.76,11.03l-1.27.03c.05.74-1.16,2.53-2.59,4.8-1.41,2.29-3.04,5.07-3.71,7.95-.09-.11-.24-.31-.19-.8-.8,3.22-3.3,6.33-5.25,9.12-.99,1.36-1.83,2.64-2.26,3.84-.45,1.19-.52,2.3.1,3.34l-.62,2.11c-.21.7-.44,1.39-.67,2.09,1.6-2.26,1.85-1.89,1.98-1.09.12.79.04,1.95.95,1.15-.95,2.02-4.06,4.18-2.83,1.76l.4-.25c-.34-.5-.77-.41-1.26,0-.48.4-1,1.12-1.56,1.85-1.09,1.46-2.16,3.06-2.74,2.58-3,4.5-6.43,8.61-10,12.45-3.57,3.84-7.27,7.41-10.87,10.92l2.03.38c-.86.81-1.7,1.64-2.58,2.43-.95.35-1.82-.1.04-1.79-1.62.22-2.48,3.49-2.29,3.82-2.05,1.42-2.04.71-1.64-.19.4-.91,1.11-2.08.56-1.57-.46.5-.93.99-1.41,1.48l.48-.16c-.76,1.61-.36,2.29-2.7,4.22-1.68.99-1.43-.16-2.05.28-.08-.09-.3.03-.91.71-1.15.92-2.35,1.79-3.52,2.69l2.22-.07c-.56.88-1.39,1.53-1.75,1.94-.38.4-.28.59,1,.54-.95.02-2.31.6-3.8,1.5-.74.46-1.54.96-2.36,1.5-.82.54-1.64,1.13-2.46,1.72-1.66,1.13-3.24,2.32-4.57,3.18-1.33.87-2.35,1.49-2.84,1.6-.91,1.15-1.96,2.08-3.14,2.95-1.19.86-2.54,1.59-4.04,2.41.86-.2,2.09.88-.58,2.18-.3-1.62-1.65-1.26-3.3-.59-1.58.64-3.49,1.49-5.02,1.18,1.76.57-7.33,4.05-3.55,4.44-2.32.84-.65-.98-2.64-.84-1.18.9-2.51,1.67-3.96,2.3-1.45.65-3,1.23-4.61,1.75-1.61.53-3.26,1.07-4.94,1.62-.83.28-1.67.59-2.5.91-.83.31-1.66.65-2.48,1.03.04.42,1.4.57.17,1.7-1.43-.17-2.86-.37-4.29-.57-1.26.67-.41,2.7-3.35,2.22.46.2,1.16.51.3.95-1.76.35-3.48.8-5.22,1.26-.86.24-1.72.49-2.58.75-.86.25-1.71.51-2.56.78-3.41,1.06-6.83,2.16-10.3,3.12-6.94,1.92-14.16,3.24-21.46,2.34,2.02.52.76.78-.7,1.01.98.06.11,1.01.37,1.53-2.06-.24-4.1-.52-6.14-.81-.38.7-1.57.93-2.85,1.1-1.29.16-2.63.21-3.44.57-.23.08-.42.17-.55.27-.13.1-.19.21-.21.34.09-.03.21-.06.37-.1.03,0,.06-.01.1-.02-.02.02-.04.04-.06.06-.02.02-.04.04-.06.06.04-.04.08-.08.13-.12.11-.02.22-.05.34-.07l1.25-.28c-1.19.98-.23,1.87,1.03,2.79.12.09.25.18.38.28-.82.07-1.64.15-2.46.22-.97.08-2.06.55-3.19-.88,1.19-1.68,2.35-3.38,3.48-5.1l.94.44.73-.37-1.57-.22c8.33-12.58,15.26-26.03,20.23-40.47Zm22.56-75.91c.64-1.74.39-1.13.04.09-.01-.04-.03-.06-.04-.09Zm322.04,25.18c.06.71.1,1.42.18,2.12-1.38-4.57-.78-3.34-.18-2.12ZM238.33,66.06c-1.39-.04-1.91-.52-2.12-1.25.06-.03.11-.06.17-.09.25-.13.48-.24.73-.36.95-.44,1.96-.84,2.72-1.19.5-.17.33.13.07.47-.25.33-.61.68-.44.55.59.21,1.46-.62,2.08-1.31.65-.69,1.04-1.27,1.13-.55-.1.62-.31,1.23-.58,1.8-.26.57-.58,1.09-.7,1.53-.46.21-.67,0-.78-.25-.12-.26-.14-.56-.38-.54.07.2.15.4.24.6-.44.4-1.15.68-1.2.32-.03.13,0,.24.06.32-.33-.01-.66-.02-.99-.04Zm2.93-32.59c0,.11,0,.23.01.34v.08s.01-.04.01-.04c.03-.13.07-.25.11-.38.07,0,.15.01.22.01.29.46.52.84.66,1.04-.21.21-.39.42-.55.63l-.09.13c-.19-.25-.3-.77-.35-1.39-.03.12-.05.24-.05.35-.22-.23-.37-.51-.49-.81.17.01.35.02.52.03Zm-4.06,8.26c-.53-.11-1.28-.19-2.09-.25,0-.22-.02-.44-.03-.66.71.35,1.42.66,2.12.91Zm1.62,9.09l-.76.24.91.81c-.87-.19-2.15-.53-3.46-.92-.02-.47-.04-.93-.06-1.4,1.48.35,2.87.78,3.37,1.27Zm-1.12-7.43c.25-.02.37-.11.4.04-.12-.02-.25-.04-.4-.04Zm1.15,12.12c-.12.1-1.65,1.47-2.52,1.82-.17.06-.35.1-.53.12-.01-.31-.03-.62-.04-.93l1.77-.09-1.78-.04c-.01-.3-.03-.61-.04-.91,1.37-.06,2.59-.05,3.14.04Zm-2.91,5.38c-.01-.26-.02-.51-.03-.77.48.06.87.14,1.03.26-.33.1-.73.34-1,.51Zm7.34.02c.03-.44,0-.26.03-.05-.01.02-.02.03-.03.05Zm6.02,5.78s-.05,0-.07,0l.08-.06s0,.04,0,.07Zm.2.01c.27-.4.67-.52,1,.06-.33-.02-.67-.04-1-.06Zm2.22.13s.04-.02.06-.05v-.52c-.3.01-.54.32-.37.56-.27-.02-.54-.03-.82-.05.55-.77.35-3.69-.02-5.37-.04.4-.06.77-.67,1.28.17.52,1.21,1.26.67,2.06-.8.43-.61-.36-.95-.87.22,1.04-.8,1.5-.99,2.78-1.56-.1-3.12-.21-4.68-.31.05-.13.06-.28.02-.43l-.45.15c-.11-.51.16-.85.36-1.12.21-.27.37-.48.17-.72.29-.34.57-.78.84-1.06.36-.27.74-.39,1.13-.07l.06,1.44c0-.42-.48-.89-.74-.47.38-.61,1.13,2.01,1.63.17l-.51-1.03c.64-.68,1.45-2.15,2.15-1.65-.24-1.43-.18.15-.58-1.53.32,2.08-1.85-.21-1.27,1.99-.41-1.95-.87-.87-1.46-2.55,0,.24.04.46.02.6-.01.07-.04.11-.11.12-.03,0-.07,0-.13-.01-.03-.01-.05-.03-.08-.06-.02.14-.07.31-.1.41,0-.01-.01-.02-.02-.04,0,.02,0,.04.01.06-.02.07-.02.08,0,.02.05.21.1.46.11.73-.24,1.07-.88,1-1.22,1.54-.2-.24.21-.53.19-1.03-.16.27-.33.54-.5.81.11-.52.11-.95.17-1.33.05-.38.17-.7.39-.99l-.24-.06c0-.07.01-.15.02-.23.03-.4,0-.52-.29-.16.04-.22-.94,1.11-.36.32-.25.2-.54.41-.85.61l.18-.25c-.15-.08-.74.33-1.15.34-.4.02-.44-.39.47-1.3-.26.06-.59.07-.31-.35l.88-.53c-.16,0,.06-.22.2-.36.14-.15.21-.23-.26-.11,1.2-.48,1.33-.54,1.21-.62-.06-.04-.18-.07-.27-.12-.09-.29-.14-.6-.04-.82h-1.18c.04-.61-.32-1.2-.83-1.95l-1.04.09c-.89-.63.67-1.74.52-2.79.4.06.31.33.08.53,2.31-1.35-1.83-2.59-.16-3.8-.39-.27-.27-.48-.02-.69,0,.03.02.05.06.07.01-.03.01-.07,0-.12.17-.13.38-.27.54-.42-.25.13-.45.25-.55.35-.03-.22-.17-.55-.45-.86l1.12-.18s-.01-.05-.04-.07c.4-.34-.54-.24-1.38-.03-.19-.16-.42-.3-.7-.4,1.8-.33-.65-.83,1.27-1.26-.88-.17-.8-1.4-2.36-1.66.1-.18.21-.37.21-.54,0-.15-.08-.23-.36-.36.48-.03.95-.05,1.43-.07-.65-.16-1.3-.38-1.95-.65.86-.26,1.37-.2,2.49.19-.86-.41-1.03-.62-1.2-.78-.17-.18-.33-.3-1.19-.94l.94.35c-.02-.11-.35-.38-.58-.61-.23-.23-.36-.44.03-.33.88.14.92-.35.94-.96.01-.3,0-.64.22-.85.1-.1.27-.16.51-.13.23.03.51.15.81.35-1.32-1.41-.91-1.12-.42-.72.49.4,1,.9.21-.2.57.68.95,1.07,1.24,1.64-.03-.31.33-.03.53.1.21.13.27.11-.02-.79.38.67.4.96.65,1.35-.05-.14-.17-.56.06-.17.22.39.21.55.31.83.18-.1-.53-2.11-1.17-3.99.2.26.34.44.45.53.26.23.28-.08.27-.94.3.62.6,1.27.27,1.47.12.05.5.28.8.32.3.03.56-.13.57-.87.04.19.12.22.21.18.13-.04.26-.15.31-.24.85.09.93.23,1.76.09l-.23-.24c.32-1.8.69-.39,1.36-.63l-.02.18c1.56,1.27.64-.63,2.19.81l-.12-1.11c.06-2.41,1.37,1.37,2.22.42l-.34-.63c.44-.84,1.47,3.2,1.98,3.48.12.2-.15.34-.29.51,1.34,1.35.09-1.47,1.01-1.86.22.78-.12,2.02.53,2.13.17.31.6-.36,1.09-.92.17-.54.51-.99.61-.23,0-.61-.08-1.21.21-1.69.21-.12.38.44.5.8.13.35.22.5.74-.5-.02.17-.06.33-.12.49.43-.52,1.21-.9,2.07-2-1,2-.4,1.49.44.93.82-.56,1.83-1.17.12.73l1-.25-.43.39c.19.23,1.39-.7,2.74-1.63-.17.26-.71.62-.96.82-.06.37-.09.52.36.32.45-.19,1.33-.72,3.18-1.7l-1.79,1.26c.64-.37.23.12-.09.51-.3.4-.55.71,1.17-.03-.27.14-.74.39-1.12.57.86-.37,1.04-.34.89-.15-.15.19-.64.54-.99.78-.17.12-.3.22-.32.26,0,.02,0,.03.07.02.03,0,.07-.02.11-.03.03,0,.06-.01.1-.03.36-.11,1.48-.57,3.87-1.59.67-.21,1.31-.39,1.92-.54.69-.49,1.73-.94,2.79-1.34,1.07-.41,2.15-.76,3.12-1.29.1.07-.85.62-1.8,1.09-.95.47-1.92.87-1.98.78l.53-.25c-2.39.95-3.03,1.35-3.46,1.66-.44.31-.69.56-2.25,1.13-.42.53-1.51,1.29-2.51,1.91-1.01.64-1.94,1.15-2.39,1.56.89-.12,1.79-.26,2.71-.4l-.52.41c-.68.15-2.06.25-1.75.03-.78.12-.54.17-.09.22.46.05,1.15.1,1.4.09-.74.29-1.35.22-1.87.16-.5-.07-.9-.14-.98-.08.02.05.03.09.04.14l.31-.04c.85.11,1.82.15,1.41.46-.63.17-1.44,0-1.59.06-.15-.01-.24,0-.15.09l-.51.33c.57.05,1.15.09,1.74.1.59.33-.52.45,1.47.55-1.56-.05-2.17.29-2.57.71-.4.41-.62.94-1.02.83.24.47.26.81.16,1.09-.17.37-.44.63-.8.98.2-.02.6.19.88.47.28.27.43.62.11.88-1.16-1.05-1.69-.94-2.24-.57-.27.18-.55.42-.91.59-.36.17-.79.29-1.43.24.45-.01.58.16.59.41,0,.25-.12.58-.2.9-.18.66-.17,1.24,1.09,1.07-.29.3-.58.24-.92.13-.34-.1-.73-.26-1.23-.06.17,1.09-.39,2.02-.9,3.17-.51,1.13-.91,2.49-.44,3.72.41-.06.94-.58,1.64-.22-.2.19-.39.4-.58.61-.07-.27-.14-.5-.01-.71-.36.11-.69.68-.99,1.19.2-.18.4-.21.62-.05-.21.25-.42.5-.61.76.19.21.79.13,1.23.13.45,0,.69.11.25.78.25-.25.64-.6.93-.39.03.31.11.6.21.88-.1-.01-.17-.03-.21-.03.04,0,.11.02.21.05.17.46.42.89.74,1.29h0s.02.01.02.01c.23.28.48.55.76.79.19.17.4.33.61.48.01.21.09.43.27.67.05-.15.07-.3.07-.43.71.46,1.48.86,2.25,1.21.56.28,1.14.51,1.69.79.26.12.51.25.76.39l.37.22c.06.03.1.07.16.1-4.2.35-8.39.25-12.57.03Zm9.94-24.09l.43-.03c.26.19-.06.11-.43.03Zm9.21,23.1c0-.23,0-.47,0-.71.47.13.93.25,1.39.39-.47.12-.93.22-1.4.32Zm-20.77,61.17c12.03,21.96,24.89,43.32,41.47,62.02-.07-.06-.15-.13-.23-.18l-.3.45c1.24,1.33,2.36,2.12,1.9,1.27,1.07,1.19,2.16,2.36,3.26,3.52-2.63-1.55-3.23,1.99-2.33,5.3.18-.1.34-.22.82-.02.47.2,1.28.68,2.77,1.76-.6-1.22-4.75-6.58-2.05-4.95.91.78,1.51,1.36,1.94,1.82.43.45.68.79.84,1.09.33.61.37,1.1,1.02,2.09-.3-1.1,1.08-.34,2.57.45,1.17.58,2.4,1.15,3.01.97,1.76,1.63,3.55,3.21,5.36,4.74l-.09,1.44c.55.05,1.09.12,1.64.15-.5-.5-.98-1.02-1.47-1.53,5.5,4.65,11.23,8.85,17.17,12.59-.19.03-.24.17-.02.47l2.35,1.25c1.58,2.16-5.01-1.46-2.37.73-.87-.32-1.76-.65-2.69-.99-.93-.35-1.86-.78-2.82-1.24-.96-.47-1.94-1-2.92-1.62-.96-.66-1.92-1.41-2.86-2.28l.08-1.71c-.17.39,2.17,2.66,3.59,3.14-1.05-.36-2.34-1.92-3.73-3.34-.7-.7-1.39-1.43-2.11-1.95-.72-.53-1.45-.87-2.2-.86l2.19,3c-1.64-.85-3.61-1.67-5.55-2.73-.95-.55-1.91-1.14-2.83-1.81-.91-.67-1.81-1.39-2.56-2.26.29,1.23.52,1.38.84,1.64.32.26.73.64,1.43,2.33-.21-.85.25-.79,1.01-.3.77.49,1.82,1.44,2.89,2.27,1.95,1.56,3.76,2.98,3.19,1.48.69,1.51,1.67,2.44,2.73,3.41.59.54,1.21,1.08,1.85,1.75.63.67,1.33,1.39,2.01,2.36.15-.47-.79-1.62,2.3.75.22-.02.66.07.93.13.09.08.12.11.2.18-.05-.06-.09-.11-.15-.17.18.03.2.03-.06-.06-.65-.69-1.13-1.31-1.24-1.7.55.04,1.27.29,2.08.65.81.35,1.74.77,2.65,1.22.91.45,1.82.9,2.62,1.3.8.39,1.53.66,2.05.8,1.87,1.31-1.1,0-.27,1.05l3.09.78c-.06.27.19.68.52,1.12.34.42.76.87,1.03,1.22.54.7.48,1.05-2.08.07,1.44.77,2.89,1.52,4.33,2.28,1.14.95,2.63,1.81,4.11,2.59.74.38,1.48.73,2.19,1.02.72.27,1.4.47,2.01.61,1.03.55,2.49.83,3.42.98.93.15,1.34.13.25.16,1.24.35,2.48.68,3.72,1.01,1.24.33,2.47.68,3.72.94v.27c.88.3,1.79.57,2.72.83.46.12.93.25,1.4.37.47.12.95.2,1.42.31.96.19,1.92.38,2.89.57.97.19,1.94.4,2.94.55.99.17,1.98.36,2.98.57,1,.21,1.99.46,3,.68,1.01.23,2.02.51,3.04.82,1.02.32,2.03.7,3.07,1.07,1.28.05,2.57.09,4.07.22.11.01.24.02.35.03,0,.02,0,.05,0,.07-.05.68,0,1.39.11,2.07.23,1.37.75,2.65,1.34,3.78.15.28.3.56.45.82.12.21.24.41.35.6.16.27.29.46.4.61.11.14.2.24.28.27.07.01.2.15.32.19-.28.86-.17,1.96-.11,2.85,0,.2.05.44.03.59,0,.08,0,.17.02.25-.01.06-.02.12-.01.18,0,.03,0,.06,0,.09,0,.02-.01.03-.01.05-.01.03.02.07,0,.1-.01.03-.01.07,0,.1,0,.04-.02.07-.01.11-.02.13,0,.3-.22.67l-.06.13-.1.15c-.07.1-.13.2-.19.31-.19.23-.34.45-.56.69-.42.47-.92.94-1.44,1.38-.56.46-1.09.84-1.58,1.13l.55,1.06c-1.33.92-2.61,1.8-4.01,2.67-.7.44-1.42.87-2.2,1.29-.78.43-1.61.84-2.51,1.23l.54.93c-.78.47-1.74.77-2.84.96-.56.08-1.14.17-1.74.19-.3.01-.6.02-.91.04-.3,0-.61-.02-.92-.03-.31,0-.62-.02-.93-.06-.31-.03-.63-.05-.94-.09-.62-.1-1.24-.18-1.84-.31-1.21-.26-2.39-.55-3.52-.93.22-.15.6-.08,1.03.04.44.1.91.33,1.33.51-1.34-.83-2.56-1.43-3.83-2.03-1.26-.6-2.59-1.23-3.91-2.07l-.49-.33c-.17-.12-.31-.19-.53-.38-.4-.34-.8-.67-1.19-1.01-.56-.48-1.12-.96-1.67-1.43-.59-.42-1.17-.84-1.75-1.25-2.39-1.51-4.92-2.42-7.56-2.76-.64.16-1.23.24-1.76.44-.27.08-.53.16-.79.24-.25.08-.49.19-.72.27-.24.09-.47.17-.7.24-.22.1-.43.19-.64.29-.22.09-.43.18-.64.26-.21.08-.4.21-.61.31.2-.14.36-.3.51-.42-.23.13-.55.37-.88.61-.53.24-1.01.56-1.52.91-.53.33-.98.78-1.49,1.23.23-.17.45-.35.67-.52.11-.09.21-.17.32-.25.11-.07.22-.15.33-.22.44-.28.84-.56,1.22-.82-.38.33-.79.74-1.23,1.19-.41.48-.81,1.03-1.24,1.59-.37.62-.75,1.26-1.11,1.93-.15.35-.3.71-.46,1.06l-.22.53-.11.27c-.04.09-.07.18-.09.24-.47.14-.95.29-1.43.45-.03.09-.07.17-.1.25-.02.06-.05.13-.07.2-.56.72-.59,1.08-.34,1.23.25.14.8.05,1.39-.21-.22.92-.41,1.77-.47,2.48-1.14.22-1.56,1.29-2.1,2.38-.53,1.08-1.2,2.19-2.52,2.24.01.72-1.21,2.4-2.66,3.87-1.27,1.27-2.63,2.46-3.01,3.45-.45.14-.9.27-1.33.42-.23.07-.45.17-.68.22-.23.06-.45.12-.67.19-.22.07-.44.14-.65.22l-.32.13-.32.1c-.42.14-.83.32-1.22.55-.34-.39-.67-.87-.97-1.31l-.91.58c-.31.2-.64.32-.97.49-.33.15-.68.33-1.03.46l-1.09.35c-.62-.26-1.09-.61-1.45-.88-.35-.28-.58-.5-.64-.72-.06-.23.01-.39.26-.55.25-.17.67-.32,1.25-.46-.68.05-1.29.12-1.8.04-.26-.02-.5-.04-.73-.06-.11-.01-.22-.02-.33-.03-.1-.02-.2-.05-.29-.07-.38-.09-.7-.18-1-.27-.15-.04-.29-.08-.42-.13-.13-.06-.25-.11-.37-.17-.25-.11-.49-.21-.75-.32-.27-.11-.56-.2-.88-.37-.32-.15-.7-.32-1.16-.5-.24-.08-.47-.21-.73-.35-.27-.13-.55-.28-.86-.44l.83-.48c-.17-.16-.36-.31-.58-.46-.21-.16-.41-.35-.64-.52-.23-.18-.46-.36-.7-.54-.24-.18-.48-.36-.68-.57-.42-.41-.82-.81-1.11-1.2-.29-.39-.44-.78-.43-1.13-.09-.58-.31-1.31-.64-2.22-.16-.45-.36-.95-.58-1.48-.11-.27-.23-.55-.35-.84-.07-.15-.13-.31-.2-.46-.09-.18-.17-.37-.26-.56-.79-1.69-1.82-3.52-3.38-5.02-.77-.75-1.67-1.41-2.67-1.93-1-.52-2.12-.87-3.28-1.05-1.16-.18-2.37-.16-3.57,0-1.2.16-2.4.48-3.52,1-2.26,1.02-4.09,2.88-5.32,5.08-.16.27-.3.56-.44.84-.14.28-.27.57-.39.87-.23.54-.46,1.09-.69,1.62l-.3.69-.26.55c-.17.37-.36.72-.54,1.06-.74,1.38-1.54,2.63-2.39,3.68,1.7-.26.82.75-.37,1.86-1.18,1.12-2.68,2.17-2.04,3.02-.45.02-.98.23-1.31.22-.33,0-.44-.21-.1-.99-.37.52-.76.98-1.16,1.37-.11.1-.18.19-.31.3-.12.11-.24.22-.36.33-.24.22-.47.41-.69.59-.89.74-1.69,1.28-2.36,1.69-.68.41-1.25.75-1.69,1.06l-.17.13c-.05.03-.1.07-.15.11-.1.07-.21.2-.3.27-.09.08-.18.19-.28.31-.1.1-.21.21-.32.34-.2-.29-.06-.56.04-.78.11-.21.19-.4.04-.57-.04.04-.09.09-.16.16-.04.03-.07.07-.11.1-.04.03-.09.04-.13.06-.09.03-.19.08-.28.06-.09-.03-.16-.08-.21-.18-.17-.39.37-.5.58-.81-.43.08-.69.16-1.27.24-.14.01-.28.03-.41.05-.02.03-.24-.02-.39-.04-.16-.02-.32-.04-.46-.06-.59-.06-1.08-.09-1.5-.03-.83.13-1.37.5-1.72.9-.36.41-.55.87-.72,1.33-.89-.24-1.73-.29-2.47-.17-.37.05-.71.18-1.04.29-.33.11-.65.23-.95.36-.17.08-.34.16-.5.24l-.24.13c-.08.05-.12.06-.18.09-.22.11-.43.25-.64.41-.21.15-.41.37-.63.53-.22.17-.44.37-.69.6-.52-.17-1.13-.5-1.22-.74-.05-.13.02-.25.28-.37.25-.08.69-.28,1.39-.46-.2.03-.51.06-.89.11-.19.04-.39.02-.61.02-.22,0-.45,0-.68,0-.95-.1-2.03-.33-3.11-.75-1.08-.44-2.18-1.03-3.07-1.46-.89-.45-1.59-.67-1.85-.41-.15-.36-.7-.8-1.3-1.24-.6-.43-1.23-.81-1.51-.94-.95-.84-1.68-1.48-2.31-2.03-.32-.28-.61-.53-.88-.77-.23-.21-.46-.4-.67-.61-.86-.82-1.72-1.63-3.2-3.36.2.38.4.76.62,1.12-1.27-.09-1.98-.82-2.62-1.87-.32-.53-.63-1.14-1-1.82-.19-.34-.39-.69-.61-1.07-.12-.18-.24-.37-.36-.57-.14-.21-.29-.42-.44-.64l.23.02c-.64-1.31-1.2-2.41-1.77-3.21-.56-.81-1.07-1.38-1.51-1.78-.89-.81-1.47-1.05-2.02-1.29-.57-.2-1.12-.44-2.23-.75-1.11-.29-2.85-.66-5.76-.09.3.29.59.58.86.9-.11.66-.71,1.06-1.58,1.49-.87.45-2.05.97-3.19,1.92-.58.47-1.14,1.03-1.65,1.7-.52.66-.97,1.42-1.34,2.25-.2.43-.35.81-.49,1.2-.14.39-.28.81-.4,1.18-.22.62-.35,1.26-.46,1.87.41-.48.77-1,1.17-1.51,0,1.44-1.42,3.04-3.04,4.28-.4.32-.83.6-1.22.88-.4.26-.79.51-1.17.75-.38.22-.71.43-1,.64-.3.19-.55.38-.73.59-.44.24.16-.78.35-1.44-1.05,1.02-1.53,1.46-1.7,1.78-.17.31-.02.51.2.7.22.2.51.4.58.76.07.34-.07.89-.8,1.62-.54-.08-.66-.62-.94-.94-.28-.34-.64-.41-1.59.08-.16,0-.32.09-.54.21-.11.06-.21.15-.34.24-.13.08-.26.18-.41.29-.59.41-1.4.94-2.49,1.32-1.08.39-2.41.61-3.73.55-1.32-.06-2.62-.39-3.63-1.02.81.8,1.72,1.63-.69,1.56-.45-.09-.93-.23-1.43-.41-.5-.2-1.02-.41-1.54-.68-1.06-.52-2.14-1.18-3.21-1.77-2.13-1.24-4.09-2.4-5.98-2.37-.32-.37-.37-.61-.32-.74-1.3-.48-3.27-1.53-5.05-2.66-1.77-1.13-3.39-2.31-4.33-2.6.15-.57.07-1.17-.17-1.79-.23-.63-.58-1.32-1.07-2-.88-1.44-2.18-3.01-3.21-4.72-.14-.21-.27-.42-.41-.63-.07-.09-.14-.23-.2-.36l-.2-.4c-.26-.52-.52-1.03-.76-1.52-.06-.12-.12-.24-.18-.36-.07-.15-.13-.29-.19-.44-.12-.29-.24-.57-.36-.85-.23-.55-.43-1.07-.61-1.56-.35-.97-.67-1.71-.84-2.35-.09-.31-.13-.6-.12-.86,0-.25.07-.47.21-.65-.64-.82-1.39-1.54-2.24-2.15-.85-.6-1.79-1.08-2.79-1.41-2-.66-4.15-.75-6.21-.47.09-.14.19-.27.28-.4-1.02.09-1.95.3-2.76.59-.81.3-1.52.68-2.12,1.1-1.2.85-1.95,1.84-2.46,2.77-1.02,1.87-1.03,3.57-1.1,5.15-.38.78-.53.88-.62.66-.09-.2-.1-.67-.15-.79-.26.72-.49,1.43-.71,2.1l-.04.13-.04.09-.08.18c-.05.12-.1.24-.15.35-.1.23-.2.46-.29.68-.1.24-.18.39-.26.54-.08.15-.16.31-.24.45-.15.3-.3.57-.46.83-.58,1.05-1.11,1.88-1.56,2.72-.23.42-.47.83-.69,1.27-.24.43-.47.89-.74,1.4-.54,1-1.17,2.16-2.14,3.63-.43-.14-.86-.28-1.28-.42-.46.83-2.98,2.33-6.32,3.72-3.34,1.43-7.46,2.68-11.1,4.17.05-.14.16-.4.71-.69-2.02.83-4.42,1.21-6.76,1.15-.58,0-1.23-.07-1.84-.11-.61-.06-1.24-.08-1.83-.17-1.18-.19-2.36-.32-3.43-.59-.54-.11-1.06-.22-1.58-.32-.49-.14-.98-.26-1.44-.36-.23-.05-.47-.1-.69-.14-.23-.04-.43-.12-.65-.16-.42-.1-.83-.18-1.23-.24-1.54-.29-2.86-.25-3.99.35-.45-.12-.92-.22-1.36-.37l-1.33-.49c-.22-.08-.45-.16-.67-.25l-.64-.31-1.31-.63c.73.57,1.24,1.02,1.59,1.37.37.32.58.53.65.7.15.32-.21.39-.71.38-.52.02-1.12-.13-1.48-.09-.36.04-.46.24.12.88-.34-.21-.69-.46-1.04-.74-.17-.14-.34-.28-.51-.42-.17-.14-.33-.29-.47-.46-.58-.66-1.07-1.32-1.38-1.84-.27-.56-.37-.95-.23-1.05.07-.05.2-.02.4.09.2.12.45.34.83.62l.3.54c.62-.18.51-.71.04-1.39-.23-.35-.52-.78-.87-1.21-.35-.44-.76-.88-1.12-1.4-.37-.5-.75-1.01-1.11-1.49-.32-.51-.61-1-.84-1.43-.23-.43-.4-.79-.46-1.08-.05-.3,0-.5.17-.57l-.73-1.2c-.24-.4-.49-.79-.7-1.22-.43-.85-.88-1.67-1.28-2.53-.38-.87-.77-1.75-1.15-2.62l-.56-1.38-.25-.64-.18-.47c-.19-.53-.38-1.06-.53-1.58-.14-.53-.27-1.06-.22-1.59.02-.27.1-.53.24-.76.14-.23.34-.42.56-.58.44-.32.94-.54,1.42-.74.24-.1.49-.19.73-.28l.78-.28c.86-.33,1.72-.66,2.58-1,1.85-.75,3.71-1.48,5.54-2.26,1.81-.81,3.62-1.6,5.4-2.44,1.76-.87,3.52-1.73,5.25-2.63-.79-.21-1.59-.45-2.38-.68,1.62-.78,3.19-1.66,4.78-2.49,1.43-.34,2.33.24-1.1,2.05,1.12-.07,2.45-1.03,3.47-2.03,1.01-1.02,1.71-2.06,1.67-2.25,3.42-1.61,3.05-.82,2.06.25-.99,1.07-2.6,2.4-1.58,1.83l2.66-1.72-.72.19c.93-.94,1.33-1.62,2-2.35.67-.73,1.62-1.5,3.59-2.7,2.63-1.33,1.83.05,2.83-.53.06.1.42-.06,1.51-.94.97-.6,1.91-1.24,2.86-1.87l2.84-1.89-3.01.45c2.11-2.24,5.22-3.66,1.82-3.05,1.26-.2,3.21-1.18,5.44-2.59,2.21-1.44,4.72-3.27,7.08-5.2.59-.48,1.18-.95,1.77-1.42.57-.48,1.13-.96,1.68-1.42,1.09-.92,2.12-1.8,3.03-2.58,1.81-1.58,3.21-2.74,3.86-3.07,1.25-1.76,2.62-3.34,4.18-4.89,1.53-1.58,3.26-3.12,5.14-4.85-1.11.68-2.69.11.59-2.81.26.84.8.97,1.55.68.75-.29,1.69-1,2.71-1.88,1.94-1.66,4.23-3.78,6.22-4.43-2.05.37,8.47-9.44,3.68-7.31,2.67-2.55,1.02.63,3.44-.96,1.24-1.84,2.71-3.62,4.3-5.42,1.56-1.82,3.27-3.62,5.04-5.47,3.48-3.73,7.19-7.64,10.34-12.07-.22-.38-1.83.66-.88-1.54,1.73-1.07,3.4-2.2,5.1-3.31,1.12-1.84-.7-2.98,2.76-5.28-.6.24-1.5.6-.77-.64,7.09-7.95,12.88-17.14,18.64-26.32,5.76-9.2,11.5-18.41,18.63-26.65-2.18,2.08-1.25.38-.13-1.54-.91,1.14-.85-.55-1.48-.59,1.99-2.29,3.94-4.61,5.91-6.92-.48-2.18,4.76-8.35,3.96-9.9l-1.2,2.58c.22-2.27-1.61-1.27-3.57-.16,1.33-2.29,2.74-4.72,4.43-7.62,7.43,16.22,14.9,31.09,22.89,45.68Zm-25.93-63.58c.3-1.48.54-3.16.61-4.93,0-.44.02-.89.02-1.34,0-.45,0-.91-.01-1.37,0-.46,0-.93.02-1.38,0-.28.03-.55.06-.82.03.83.08,1.67.16,2.5.37,3.64-.23,6.84-1.45,9.85.19-.74.39-1.59.59-2.51Zm-1.61,4.72c-.14.27-.29.54-.43.8.13-.28.26-.57.39-.86.02,0,.04.02.05.05Zm-65.64,83.79c.18-.19,1.11-1.2,2.31-2.57-.05.09-.08.15-.11.23-1.78,1.93-2.38,2.53-2.2,2.34Zm-25.53,32.33c4.01-4.29,5.1-5,5.39-4.8.29.2-.26,1.29.36.46.98-.98,1.89-1.88,2.71-2.76.82-.88,1.56-1.7,2.24-2.47,1.38-1.54,2.46-2.94,3.4-4.16.94-1.23,1.69-2.35,2.36-3.37.66-1.03,1.25-1.96,1.8-2.88,1.1-1.85,2.17-3.55,3.71-5.66,1.56-2.1,3.63-4.56,6.74-7.93,5.48-4.95,2.17,1.28,3.88.57-.7.98-1.37,1.9-2.03,2.75-.66.85-1.31,1.63-1.94,2.37-.63.74-1.24,1.43-1.84,2.09-.61.65-1.2,1.27-1.78,1.86-1.15,1.19-2.26,2.3-3.35,3.4-1.09,1.11-2.14,2.24-3.22,3.46.97-.93,1.91-1.89,2.86-2.84.94-.95,1.9-1.9,2.83-2.87-.81,1.32-2.24,3.23-3.75,5.13-1.55,1.88-3.19,3.75-4.51,4.92.59-.45,1.41-1.2,2.39-2.19-7.62,8.59-15.67,16.8-24.22,24.55-2.77,2.52-5.58,4.99-8.42,7.4.6-.9,1.36-1.92,2.26-3.07,2.88-3.67,7.19-8.48,12.15-13.97Zm-56.44,44.81c-.1.28.28.35.79.32.34-.02.73-.09,1.09-.16-2.85,1.53-5.75,2.99-8.69,4.36.59-.42,1.2-.85,1.82-1.27,1.67-1.14,3.38-2.32,4.99-3.25Zm-28.08,45.58c-.09-.29-.42-1.51-.89-3.22-.23-.85-.49-1.83-.77-2.88-.14-.52-.28-1.07-.43-1.62-.15-.58-.31-1.18-.45-1.79-.56-2.43-.9-4.96-1.01-7.12-.12-2.16-.05-3.94.08-4.92.11-.7.26-1.1.43-1.28.31,3.91.98,7.76,2.13,11.44l-1.63.76c.71.28,1.43.54,2.14.78.14.39.27.79.43,1.18,1.22,3.15,2.39,6.36,3.66,9.5-1.26.55-2.66.35-3.7-.83Zm11,140.09c.04.33.11.6.2.79-.28.07-.68,1.13-.2-.79Zm-4.78,25.41c-.94,2.55-1.94,5.09-3.01,7.6.41-2.75.75-5.49,1.03-8.23.25.83,1.06.78,1.98.63Zm50.21,63.85c-1.59.28-.48-.64,1.35-1.92-.81.4-1.57.79-2.17,1.11-1.15.25-1.9.32-2.31.27-.24-.03-.37-.1-.4-.2,2.06-.66,4.11-1.34,6.16-2.06-.44.31-.87.6-1.27.88.88-.44,1.84-.93,2.84-1.44.9-.32,1.8-.65,2.69-.98,2.14-.32,3.97-.62,5.24-.91-3.99,1.84-8.01,3.61-12.12,5.24Zm141.64-130.41c-.34.09-.31-.72.38-3.33.03-.09.06-.19.1-.28.29.71.58,1.39.88,2.05-.55.8-1.07,1.49-1.35,1.57Z" style="stroke-width: 0px;"></path><path d="m198.16,93.04c-.26-.02-1.08.62-.55-.31l-3.38,5.35c1.9-2.85,2.8-3.72,3.93-5.04Z" style="stroke-width: 0px;"></path><path d="m197.61,92.72l.41-.64c-.19.27-.31.48-.41.64Z" style="stroke-width: 0px;"></path><path d="m204.82,88.82c1.1.08,3.36-3.75,6.03-7.93-.17.25-.32.48-.5.72-.25-1.96-2.9,2.64-5.53,7.21Z" style="stroke-width: 0px;"></path><path d="m211.48,79.93c.83-1.28,1.7-2.58,2.59-3.78-.1-.78-1.15,1.46-2.59,3.78Z" style="stroke-width: 0px;"></path><path d="m173.78,129.42c1.51-1.78-.17-1.89.88-2.75.22-1.41-1.62,1.99-2.78,4.36-1.14,2.38-1.49,3.77,1.89-1.61Z" style="stroke-width: 0px;"></path><path d="m186.71,118.98l4.77-6.33c-.23-.01.25-.9.88-1.97-2.81,3.99-6.04,8.25-5.65,8.3Z" style="stroke-width: 0px;"></path><path d="m192.35,110.69c1.46-2.08,2.82-4.08,3.46-5.35-.77,1.14-2.42,3.59-3.46,5.35Z" style="stroke-width: 0px;"></path><path d="m131.17,188.17c1.31-1.62,3.47-3.98,2.26-3.33-.97,1.06-1.98,2.08-2.98,3.11-.99,1.04-2,2.07-3.02,3.07-.38.88,1.54-.51,3.74-2.86Z" style="stroke-width: 0px;"></path><polygon points="256.01 95.68 253.34 89.66 254.64 93.77 256.01 95.68" style="stroke-width: 0px;"></polygon></svg>