<svg xmlns="http://www.w3.org/2000/svg" id="uuid-5ecd9141-8496-422d-b780-25b6d68aba41" data-name="Layer 1" viewBox="0 0 800 529.74"><defs></defs><path d="M783.17 314.21c-14.45.11-28.9-1.44-42.96-4.61-3.19-1.71-6.4-3.53-8.77-5.26-2.98-2.11-4.66-4.04-3.66-5.05-4.98-.38-10.41-2.13-16.05-4.79-2.82-1.34-5.68-2.91-8.58-4.67-1.45-.88-2.9-1.8-4.37-2.75-.73-.48-1.46-.97-2.2-1.46l-1.1-.75c-.11-.07-.15-.11-.31-.2-.3-.16-.6-.32-.91-.47-.61-.31-1.27-.54-1.98-.71-1.38-.37-2.83-.41-4.11-.27-1.29.14-2.39.47-3.38.85-1.95.78-3.36 1.76-4.6 2.77a21.02 21.02 0 0 0-3.25 3.35c-.25.33-.48.65-.73 1.01-.24.37-.5.77-.67 1.09-.4.68-.72 1.32-1.03 1.98-.61 1.33-1.13 2.71-1.52 4.38-.35 1.68-.68 3.61-.19 6.35.28 1.37.76 2.9 1.73 4.42.24.38.49.75.77 1.1.29.35.6.68.92 1.01.65.68 1.33 1.18 2.05 1.66l.55.35.24.14.34.2.68.39 1.37.77c4.03 2.29 8.07 3.76 15.17 5.08.7.13 1.43.27 2.21.39 1.07.74.36.8-.78.69-1.16-.11-2.76-.39-3.82-.46-.79-.06-1.29.02-1.27.33-.03 0-.03.01-.03.03 3.66.34 7.52 1.09 11.58 2.06 4.05.95 8.37 2.13 12.46 3.06.25.06.6.14.95.23l-3.06-.26c.5.08 1 .16 1.49.25.23.01-.05.06-.11.09l-.32.1-.64.2c-.87.27-1.72.54-2.55.8-1.69.52-3.36 1.04-5.01 1.51-3.29.95-6.46 1.84-9.52 2.62-2.37.61-4.67 1.2-6.91 1.72-2.23.51-4.42 1.01-6.6 1.51-2.27.49-4.53.97-6.81 1.46-3.58.8-7.21 1.61-10.93 2.45-15.5 3.44-32.65 7.09-55.01 11.81l4.95 1.44c-12.75 2.68-15.61 2.47-21.68 3.23-6.85 3.54 2.07 1.57 11.16-.43 9.09-2.02 18.34-4.07 12.21-.43-9.01-.5-31.36 4.7-53.14 9.24-10.89 2.26-21.62 4.41-30.43 5.7-2.2.33-4.28.6-6.21.82-.96.11-1.89.21-2.78.28-.44.04-.88.07-1.3.1-.21.01-.42.03-.63.04l-.29.02h-.16c-1.59-.15-2.63-.53-3.08-1.19-3.85.7-3.82 1.44-3.5 2.13.3.69.89 1.35-4.48 2.29-.5-.45-.86-.94-1.08-1.44-1.52.96-3.2 1.96-5.04 2.97-3.44.4-5.1.06-5.26-.67-.19-.72 1.03-1.79 2.49-2.73.42.02 1.51-.24 2.62-.55 1.12-.31 2.25-.66 2.95-.84-.76-.4-2.08-.39-3.9-.14-.54.18-.09-.23.05-.46l.52-.75c.33-.49.65-.96.94-1.43.59-.96 1.17-1.89 1.69-2.73.87-1.38 1.73-2.66 2.47-3.43-1.82 1.65-3.77 3.51-5.86 5.6 1.38-2.03 3.08-4.28 4.97-6.59.94-1.16 1.94-2.34 2.98-3.51.52-.59 1.05-1.18 1.58-1.78l1-1.09 1.85-1.98c9.92-10.58 20.58-20.89 31.62-30.73 11.04-9.85 22.41-19.22 33.68-28 11.29-8.78 22.65-17.23 32.98-25.87l-3.99 1.44c7.98-6.51 13.58-11.07 18.02-14.69 4.53-3.62 7.88-6.3 11.34-9.07 1.73-1.4 3.5-2.8 5.38-4.46.94-.83 1.93-1.69 2.98-2.61 1.01-.97 2.09-1.99 3.25-3.1 4.54-4.5 10.24-10.47 16.96-20.15l-.77 1.56c1.13-2.1 2.46-4.27 3.73-6.69.66-1.18 1.34-2.4 2.03-3.65.66-1.27 1.33-2.57 2.01-3.89l1.05-1.98c.34-.67.66-1.37 1-2.06.67-1.38 1.36-2.78 2.05-4.19.64-1.44 1.28-2.9 1.93-4.36.33-.73.66-1.46.99-2.2l.89-2.26c-1.52 5.85 1.17.9 3.68-3.81 2.26-4.76 4.44-9.26 2.71-1.26.39-1.47.76-2.87 1.11-4.2.33-1.34.55-2.62.81-3.83.24-1.21.49-2.36.68-3.46.16-1.1.31-2.15.46-3.13.64-3.94.77-7.06.99-9.52.17-4.95.11-7.39-.21-9.33-.14-.97-.3-1.81-.49-2.77-.18-.96-.4-2.03-.73-3.46-.63-2.85-1.36-7.17-3.29-14.58.19-1.19.44-2.4.59-3.6l.43-3.64c-.81-2.52-1.68-4.39-2.41-6.19-.74-1.78-1.43-3.46-2.29-5.52-.81-2.05-1.76-4.47-3.04-7.73-.62-1.63-1.46-3.41-2.31-5.49-.41-1.04-.93-2.12-1.48-3.27-.54-1.15-1.12-2.37-1.73-3.67 4.58 8.27 3.83 4.69 3.19 1.17-.3-1.75-.62-3.45-.16-3.53.51-.1 1.76 1.42 4.47 6.26-.49-1.5-1.01-2.96-1.52-4.4-.26-.72-.52-1.44-.78-2.14-.3-.69-.59-1.38-.88-2.06-.6-1.36-1.19-2.7-1.77-4.02-.67-1.28-1.32-2.54-1.97-3.77-1.25-2.49-2.8-4.77-4.21-7.01-1.46-2.21-3.06-4.22-4.55-6.21-6.29-7.72-12.97-13.33-19.24-17.8-6.32-4.44-12.26-7.73-17.72-10.9-1.38-.77-2.72-1.54-4.03-2.35-1.33-.76-2.64-1.5-3.92-2.3-.64-.41-1.27-.81-1.9-1.22-.64-.38-1.27-.78-1.9-1.18-1.26-.81-2.49-1.67-3.72-2.58-6-.6-6.36.22-3.93 1.64 1.22.71 3.17 1.56 5.44 2.67 1.14.53 2.38 1.09 3.67 1.69 1.28.63 2.6 1.28 3.95 1.94 1.36.62 2.68 1.38 4.01 2.08 1.31.73 2.65 1.36 3.85 2.11 2.42 1.46 4.68 2.73 6.31 3.91 3.33 2.26 4.71 3.27 1.89 1.73 3.84 3.81-.53 1.75-7.54-1.67-.88-.42-1.8-.87-2.76-1.33-.95-.46-1.97-.87-2.99-1.34-1.02-.46-2.06-.93-3.11-1.41-1.06-.44-2.14-.88-3.21-1.32-2.12-.94-4.29-1.72-6.34-2.52-2.03-.85-4.03-1.47-5.78-2.16-1.8-.67-3.54-1.25-5.26-1.96-.86-.35-1.71-.73-2.57-1.1-.87-.34-1.74-.7-2.63-1.08-.89-.39-1.79-.78-2.71-1.18-.93-.4-1.89-.75-2.88-1.14-1-.39-2.02-.78-3.08-1.2-1.07-.4-2.19-.73-3.36-1.11-1.17-.37-2.39-.76-3.67-1.11-1.29-.32-2.64-.64-4.06-.95-.71-.15-1.44-.31-2.18-.47-.75-.12-1.52-.24-2.3-.36-1.57-.22-3.22-.48-4.96-.64-6.94-.65-15.31-.55-25.27 1.26 1.99-.32 3.03-.59 4.08-.86.52-.14 1.05-.27 1.69-.41.64-.12 1.41-.22 2.41-.34-7.63.24-14.93 2.2-22.36 4.74-7.45 2.57-15.02 5.73-23.87 8.89-1.96 1.93-4.21 3.64-6.53 5.19-1.14.81-2.3 1.58-3.44 2.31-.57.37-1.14.73-1.69 1.08-.54.38-1.07.75-1.6 1.11-4.22 2.84-7.34 5.6-7.22 8.13 2.36-1.87 4.68-3.81 7.18-5.53 2.43-1.82 4.99-3.44 7.54-5.09 5.18-3.15 10.5-6.13 16.08-8.56a223.6 223.6 0 0 0-3.46 1.74c-1.13.63-2.23 1.3-3.34 1.96-2.23 1.29-4.35 2.79-6.49 4.29-1.08.73-2.13 1.54-3.18 2.36-1.05.82-2.11 1.64-3.18 2.48-1.04.88-2.09 1.77-3.16 2.67-1.06.9-2.16 1.79-3.2 2.78-1.06.96-2.14 1.93-3.25 2.93-1.11.98-2.16 2.07-3.29 3.12-2.28 2.07-4.48 4.4-6.9 6.71-4.7 4.79-9.75 10.09-15.25 16.28.23-.64.68-1.67 1.37-2.91.71-1.22 1.6-2.68 2.59-4.24.97-1.58 2.18-3.14 3.31-4.73 1.13-1.6 2.35-3.08 3.45-4.41-.97.77-1.93 1.55-2.81 2.39-.86.85-1.69 1.73-2.5 2.62-1.65 1.75-3.08 3.67-4.52 5.58-2.89 3.82-5.56 7.81-8.96 11.65-.94-2.34 5-11.83 14.26-21.81 4.66-4.95 10.11-10 15.57-14.6 5.48-4.59 11.04-8.66 15.53-12.26-2.57 1.04-6.12 3.08-9.63 5.73-1.81 1.25-3.52 2.74-5.22 4.16-1.72 1.4-3.29 2.89-4.74 4.24-1.46 1.34-2.78 2.56-3.85 3.62-1.09 1.04-1.99 1.83-2.64 2.28-1.29.89-1.6.41-.27-2.38-4.05 7.74-10.85 14.72-17.86 23.6-.91 1.08-1.71 2.26-2.59 3.42-.85 1.17-1.76 2.34-2.58 3.58-1.64 2.49-3.36 5.02-4.83 7.78-.75 1.37-1.54 2.74-2.21 4.19-.68 1.45-1.34 2.92-1.98 4.42-.33.75-.62 1.51-.9 2.29l-.21.58-.1.28-.04.16-.14.64c-.18.84-.33 1.7-.45 2.69a24.93 24.93 0 0 0-1.71-2.43c-.18 1-.46 2.53-.77 4.28-.38 1.85-.86 4.08-1.44 5.78.07-1.88.13-3.59.1-5.13 0-1.53-.04-2.89-.15-4.09-.15 2.3-.78 4.54-1.35 6.21-.62 1.68-1.18 2.8-1.61 3.49l-.08.12c0 .06-.03-.04-.06-.11l-.07-.22-.27-.86-.52-1.62c-.35-1.03-.66-1.96-.98-2.75-.63-1.6-1.23-2.65-2.11-3.36 1.6 2.47 2.31 4.26 2.78 5.75.45 1.49.6 2.62.62 3.58.02.98-.1 1.76-.02 2.94.09 1.2.41 2.82 1.46 5.99-1.25-2.09-2.66-4.32-3.85-6.38-1.22-2.06-2.26-3.94-3.07-5.58-1.63-3.32-2.26-5.63-2.69-7.83l-.07-.4c-.02-.07 0-.11-.05-.22l-.18-.38c-.25-.5-.5-1.02-.76-1.54-.52-1.05-1.08-2.13-1.71-3.29-1.31-2.26-2.85-4.84-5.06-7.77-4.08-5.45-10.17-12.5-20.87-21 3.29 2.74 7.38 6.7 9.96 9.83 3.33 3.97 4.48 6.24-.52 2.16-4.01-4.19-8.83-8.88-13.43-13.07-2.31-2.08-4.49-4.13-6.51-5.85-2-1.75-3.7-3.38-5.05-4.61-2.17-1.35-4.04-2.55-5.69-3.5-1.67-.93-3.07-1.7-4.25-2.33-2.33-1.28-3.81-1.87-4.58-2.12-1.55-.49-.38.54 1.4 1.94 3.51 2.94 9.3 7.43 1.54 3.77-5.13-4.78-9.8-6.75-15.05-8.31-2.62-.79-5.48-1.35-8.63-2.18-1.6-.37-3.3-.74-5.12-1.21-.9-.24-1.84-.49-2.81-.75-.98-.23-2-.49-3.06-.77l.7-2.5c-10.81-3.97-17.35-5.09-21.29-5.47-3.98-.3-5.44.09-6.76.56-1.32.49-2.49.99-5.82.92-1.66-.08-3.9-.08-6.97-.33-.77-.06-1.59-.13-2.47-.2-.88-.04-1.83-.09-2.83-.13-2.01-.07-4.27-.33-6.84-.32l2.17-.51 2.18-.4 4.39-.79c2.94-.5 5.91-.79 8.91-1.18-3.65-.09-7.27-.35-10.92-.2-1.82.05-3.64.03-5.46.15l-5.45.4c1.45-1.03 2.94-2.06 4.45-3.09-12.07 1.3-19.83 3.02-27.57 4.71-3.86.93-7.71 1.83-12.01 3.19-4.3 1.34-9.08 2.99-14.65 5.61 1.48-.26 2.17.03 2.07.65-.1.62-.97 1.66-2.55 3.06-.4.35-.84.72-1.33 1.11a67.031 67.031 0 0 1-3.39 2.73c-.64.51-1.32 1.06-2.04 1.64-2.9 2.27-6.38 5.08-10.25 8.59-1.48 1.03-2.45 1.76-3.16 2.21-.7.45-1.12.63-1.36.66-.49.06-.29-.48-.4-.64-.1-.15-.55.04-2.18 1.72-.41.42-.9.93-1.48 1.54-.57.62-1.2 1.38-1.95 2.25-.76.86-1.56 1.89-2.47 3.08-.93 1.17-1.89 2.53-2.96 4.07 1.28-3.23 2.77-6.65 5.4-10.27 2.66-3.57 6.5-7.39 12.49-10.65.13-.38.47-.92.92-1.54.46-.6 1.04-1.27 1.62-1.95 1.15-1.37 2.38-2.68 2.76-3.42-7.32 3.69-15.41 10.57-21.45 18.06-6.14 7.47-10.39 15.34-12.91 20.29 2.07-3.77 4.82-8.13 6.65-10.1-1.85 3.26-3.42 6.63-4.91 10-1.41 3.41-2.74 6.82-3.82 10.3-2.21 6.94-3.8 13.95-4.64 21.07-1.15 3.21-1.65 3.49-1.83 2.26-.15-1.22-.06-3.98.22-6.69-.48 2.15-.7 4.21-.97 6.22-.12 1.01-.24 2.01-.35 3.02-.1 1.02-.11 2.06-.16 3.12s-.1 2.16-.16 3.3c-.04 1.14-.17 2.33-.13 3.6 0 1.26-.02 2.59-.03 4.01 0 1.42-.13 2.92-.03 4.52-1.11-1.68-2.07-2.34-2.88-4.93-.38-1.3-.77-3.09-.9-5.75-.02-1.32 0-2.87.07-4.67.04-.84.09-1.74.14-2.7-1.42 13.09-.48 26.27 2.26 38.78-.06.36-.09.98-.1 1.76-.02.79 0 1.74.09 2.77.18 2.09.38 4.54.57 6.74.56 4.36.97 7.77-.18 5.23 2.7 11.53 9.27 24.66 18.22 36.75 1.12 1.51 2.22 3.06 3.38 4.56 1.19 1.47 2.39 2.96 3.6 4.45 1.17 1.51 2.46 2.93 3.72 4.37l1.89 2.16c.58.67 1.44 1.69 1.44 1.61 1.52 1.4 3.21 3.1 4.07 4.38.54.19 1.21.5 2.17 1.08.53.29 1.24.73 2.08 1.29 1.19 1.09 2.35 2.15 3.5 3.21.92.83 1.61 1.42 2.53 2.03.59.29-.42-.02-.85-.1-.49-.11-.98-.22-1.48-.33-.93-.2-1.74-.31-2.46-.37-1.46-.12-2.51.05-3.91.54l-.1.04c-3.8-1.73-6.56-3.28-8.27-4.72-.74.14-.93.52-.67 1.06.25.53 1.05 1.22 1.98 1.95.9.72 1.94 1.47 1.76 2.03-.1.28-.52.51-1.48.66-.48.08-1.09.12-1.87.17-.39.02-.81.04-1.3.05-.25 0-.5 0-.76.01-.31 0-.38.02-1.17-.02-7.21-.23-11.48-.45-13.98-.87-2.51-.35-3.26-.85-3.41-1.39-.32-1.1 1.75-2.4-3.34-3.1-7.28.69-17.22 2.08-28.6 3.29-11.41 1.2-24.25 2.49-37.76 2.84 2.18-.48 4.25-.89 6.26-1.2 2.02-.27 3.97-.49 5.91-.69 1.94-.19 3.86-.41 5.81-.57 1.95-.15 3.94-.32 6-.55-6.85-.23-13.73-.18-20.64-.01 12.13-3.29 22.87-4.62 28.03-5.35 5.17-.73 4.85-1.22-4.99-2.13-.31.94-1.8 1.75-4.16 2.47-2.36.72-5.6 1.3-9.41 2.02-1.91.34-3.96.67-6.12.99-2.16.31-4.43.75-6.77 1.11-2.34.4-4.76.72-7.2 1.18-2.44.45-4.92.91-7.39 1.37-4.95.89-9.91 2.02-14.52 3.2-4.62 1.18-8.91 2.46-12.58 3.76-7.34 2.62-12.17 5.24-12.27 7.2-4.47.92-8.91 2-13.35 3.14 3.69-1.32 4.12-1.96 7.81-3.17-6.56 1.4-10.89 2.98-14.14 4.67-3.26 1.68-5.46 3.43-7.81 5.39-1.18.96-2.39 2-3.78 3.1-.35.27-.71.55-1.08.84l-.28.21-.14.11-.09.06-.19.12c-.5.31-1.01.64-1.49.98-1.89 1.38-3.38 2.98-4.63 4.69-1.25 1.72-2.26 3.58-3.1 5.68-.82 2.13-1.53 4.46-1.73 7.56-.07 1.55-.08 3.32.5 5.63.17.61.34 1.17.59 1.81.29.66.53 1.26.95 1.95.76 1.32 1.88 2.7 3.32 3.84 1.43 1.13 3.17 2.02 4.87 2.45.88.26 1.66.35 2.52.45.76.05 1.61.07 2.31 0 .74-.06 1.45-.16 2.09-.3.69-.14 1.27-.31 1.87-.51.62-.2 1.11-.42 1.67-.66.25-.11.51-.21.76-.32 2.53-1 4.88-1.91 6.89-2.6 2.03-.64 3.71-1.12 4.87-1.36 2.31-.49 2.52-.06-.7 1.77 7.14-3.66 14.49-6.99 22.05-9.91 3.38-1.01 4.78-.96 4.45-.56-.16.21-.75.53-1.71.91-.41.17-.9.36-1.44.55 10.84-3.48 21.94-6.29 33.23-8.35l-.24.26c1.26-.5 2.92-1.1 4.81-1.75 1.89-.64 4.02-1.26 6.16-1.91 2.14-.67 4.33-1.2 6.34-1.73s3.85-.98 5.31-1.28c9.61.2-4.7 1.19-2.17 1.89 6.82-1.22 13.7-2.39 20.64-3.21 4.29.76 2.11 1.79-2.89 2.67-2.5.41-5.69.95-9.16 1.32-1.73.21-3.52.45-5.33.63s-3.62.36-5.39.53c9.94 2.63 14.03 1.91 21.05.73 3.5-.6 7.71-1.24 13.67-1.46 5.96-.19 13.67.08 24.05 1.64-3.27-.04-6.52.06-9.78.09-3.25.11-6.5.17-9.74.34 3.13 1.02 6.41 1.79 9.91 2.33 3.51.61 7.23.98 11.26 1.46 8.04.89 17.29 1.84 28.09 4.34-1.26-.5-4.58-1.39-8.52-2.5-3.94-1.05-8.51-2.28-12.23-3.36-3.72-1.12-6.61-2.1-7.15-2.89-.54-.77 1.27-1.41 6.94-1.47 6.33.96 14.65 1.9 26.99 1.87-.19 2.6 11.73 3.3 26.56 5.6l-1.56 3.22c16.09 1.69 15.15-.16 24.84.09 17.75 3.88 20.87 7.41 24.55 10.5 28.31 6.97-18.72-8.65 15.12-1.6 11.7 3.41 21.79 5.85 32.59 8.06 2.71.53 5.45 1.07 8.26 1.63 1.41.26 2.84.53 4.3.8.73.13 1.46.27 2.2.4l.66.13c.43.08.87.15 1.31.2.89.12 1.73.11 2.57.06.42-.03.84-.06 1.25-.12.37-.06.74-.14 1.11-.22.37-.08.74-.18 1.1-.28.36-.1.64-.21.95-.33 2.51-.96 4.17-2.19 5.44-3.3 1.28-1.13 2.25-2.24 3.1-3.34.84-1.1 1.54-2.2 2.22-3.43.34-.61.66-1.25 1.02-2.05.18-.38.32-.78.47-1.17.12-.35.25-.71.35-1.05.42-1.36.73-2.67.95-4.19.21-1.53.38-3.22.1-5.61-.09-.63-.22-1.31-.37-1.96-.22-.79-.44-1.51-.8-2.33-.2-.44-.42-.87-.66-1.3l-.37-.63c-.15-.22-.31-.45-.48-.67-.66-.89-1.4-1.71-2.34-2.44-.45-.36-.93-.72-1.41-1-.47-.27-.95-.52-1.44-.74-.25-.11-.5-.22-.75-.32l-.33-.12-.08-.02-.33-.09c-.44-.12-.87-.25-1.31-.38-15.69-6.97 3.53-.95-1.9-3.98l-15.14-2.65c-3.43-1.35-2.02-1.72-1.31-1.91-6.12-1.73-6.65-1.05-8.05-.67-1.39.36-3.65.43-13.05-2.86-3.18.73-12.21-4.37-22.9-10.94-1.34-.82-2.7-1.65-4.09-2.51-1.37-.86-2.77-1.74-4.18-2.63-2.85-1.72-5.68-3.57-8.57-5.26-2.87-1.74-5.73-3.44-8.6-4.98-1.41-.8-2.82-1.55-4.24-2.25-1.43-.68-2.83-1.34-4.2-1.99-4.29-4.14 3.52-.13 2.77-2.26l-4.93-2.8c-1.53-.86-2.87-1.77-4.17-2.55-1.28-.81-2.49-1.53-3.58-2.25-1.08-.74-2.08-1.42-3.01-2.06-1.88-1.28-3.51-2.38-4.91-3.45-1.43-1.05-2.72-2-3.97-2.92-2.42-1.94-4.83-3.65-7.77-6.12-.75-.61-1.55-1.25-2.4-1.93-.82-.72-1.7-1.49-2.64-2.31-.94-.84-1.99-1.7-3.05-2.7-1.05-1.01-2.18-2.1-3.4-3.27-4.02-6.53-7.47-13.31-10.22-20.24 2.77 7.79 1.14 7.61-2.9 3.32-.99-1.08-2-2.47-3.17-4.03-.56-.79-1.21-1.6-1.76-2.5-.56-.91-1.13-1.85-1.73-2.81-.58-.98-1.22-1.97-1.78-3.02-.54-1.06-1.09-2.14-1.64-3.23-.53-1.1-1.16-2.19-1.62-3.34-.48-1.15-.96-2.29-1.43-3.43.07.98.14 1.94.2 2.87-.68-2.33-1.29-4.69-1.8-7.07.15.43.29.85.44 1.29.32.97.78 1.93 1.17 2.91-.07-1.17-.21-2.36-.17-3.58-.68-1.36-1.34-2.67-1.97-3.93-.06-.13-.13-.26-.19-.38-.9-5.05-1.44-10.19-1.53-15.41.17 0 .36.1.55.31.48.52 1 1.62 1.56 3.07.58 1.44 1.05 3.23 1.84 5.1-.09 1.87-.24 3.76-.3 5.64.01 1.89.02 3.76.04 5.61 3.77 7.05 8.45 12.62 9.79 10.49-.5-.83-1.12-2.09-1.82-3.61-.72-1.52-1.26-3.37-1.92-5.29 1.05 1.69 1.85 2.7 1.95 1.77.04-.52-.31-1.46-.95-2.82-.16-.34-.34-.71-.53-1.1-.16-.4-.34-.83-.52-1.28-.37-.92-.79-1.94-1.25-3.06l.61-1.79c.21-.59.48-1.19.72-1.77l1.49-3.44-1.72-1.39.04-4.65c.02-.77-.01-1.54.04-2.31l.2-2.31c.15-1.53.22-3.07.43-4.58a84 84 0 0 1 .74-4.49c1.18-5.93 3-11.67 5.53-16.95 1.39-6.18 3.45-12.1 6.57-17.7 1.57-2.77 3.34-5.5 5.54-8.09 2.19-2.59 4.72-5.09 7.61-7.44 5.78-4.71 13.08-8.72 21.84-11.63 8.76-2.89 19.04-4.64 30.67-4.49-2.91.51-4.49 1.23-5.27 1.83-.77.62-.73 1.21-.37 1.81.73 1.21 2.72 2.48 2.38 4.14-5.89-1.87-14.65-1.14-23.98 1.47-4.66 1.34-9.46 3.17-14.13 5.43-4.25 2.04-8.39 4.4-12.34 7.01.64-.4 1.24-.73 1.78-1.02.85-.48 1.59-.79 2.19-1.01 1.2-.46 1.87-.56 2.18-.42.31.13.23.46-.04.87-.26.42-.73.93-1.24 1.39 2.45-1.78 5.1-3.37 7.89-4.8a73.64 73.64 0 0 1 8.73-3.83c3.03-1.1 6.14-2.09 9.34-2.85 1.59-.41 3.24-.68 4.86-1.04l2.45-.5 2.48-.35c-.18.69.27 1.13 1.19 1.41.93.31 2.32.33 4.07.52 1.75.18 3.84.18 6.13.43 1.14.14 2.34.28 3.57.42.61.08 1.23.15 1.86.26.62.13 1.25.26 1.89.39-1.81-1.55-.9-2.35 1.86-2.68.69-.08 1.49-.14 2.39-.16.9-.02 1.89.06 2.96.12 1.07.07 2.23.17 3.45.29 1.22.12 2.48.37 3.81.57 5.3.8 11.25 2.42 16.88 4.09 2.78.95 5.54 1.73 8.03 2.68 1.26.43 2.47.85 3.62 1.25 1.15.38 2.21.81 3.22 1.14.1 1.06-.95 1.52-4.32.76-1.71-.32-3.96-1.07-7-2.02-1.53-.46-3.23-1.05-5.16-1.7-1.95-.57-4.09-1.29-6.49-2.04 2.52 1.27 4.83 2.27 7.01 3.1 2.16.9 4.21 1.54 6.16 2.09 1.94.6 3.82 1.05 5.67 1.43 1.83.42 3.63.82 5.45 1.18 1.83.34 3.6.84 5.44 1.34.92.26 1.85.53 2.79.85.92.34 1.86.71 2.81 1.12.95.41 1.92.86 2.9 1.36.98.5 1.95 1.11 2.95 1.75 1 .64 2.01 1.34 3.04 2.11 1.01.81 2.03 1.69 3.06 2.64-4.17-2.81-6.42-4.35-8.56-4.63 5.48 2.23 13.96 7.86 19.79 13.05 5.87 5.16 9.27 9.49 6.3 7.78-1.2-1.13-2.48-2.18-3.75-3.25.83.75 1.72 1.5 2.59 2.31.87.82 1.76 1.67 2.67 2.54 1.87 1.7 3.67 3.65 5.62 5.58 3.76 4 7.73 8.34 11.43 13.1.95 1.17 1.89 2.35 2.78 3.59.91 1.22 1.81 2.44 2.72 3.67l2.6 3.77.65.94c.12.17.2.27.34.51l.41.67 1.65 2.68c.55.89 1.1 1.78 1.64 2.66l.82 1.32.8 1.53 3.15 6.03c.54.93.99 2.09 1.45 3.2.46 1.1.92 2.2 1.38 3.28.91 2.19 1.85 4.18 2.61 6.63.81 1.57 1.6 3.12 2.38 4.64l.58 1.13.29.56c.09.16.18.25.28.38l1.08 1.44 2.09 2.77c.58.76 1.16 1.51 1.71 2.23 1.02 1.33 2.09 2.68 2.79 3.74.75 1.09 1.35 2.1 1.87 3.02.51.92.93 1.77 1.28 2.53.18.38.29.74.58 1.05.27.3.7.54 1.2.63 1.01.19 2.04-.09 2.76-.43.73-.35 1.22-.78 1.47-1.14.22.22-.72 2.11-2.21 3.56-.73.73-1.6 1.32-2.2 1.64-.6.33-.92.5-1.04.5.16.13.52.28 1.06.34.54.07 1.25.04 1.97-.11 1.46-.3 2.91-.97 4.14-1.85 2.45-1.8 4.3-4.28 5.39-7.01 1.21-2.77.8-5.62.77-8.67-.17-3-.1-6.39-.28-9.79-.09-1.7-.07-3.54-.16-5.32l-.27-5.43c-.08-1.84-.19-3.64-.33-5.43 0-.09 0-.17-.01-.25.04-.35.08-.7.13-1.05.4-1.71.79-3.42 1.19-5.12.68-2.83 1.35-5.66 2.03-8.48.16-.74.35-1.37.54-2l.57-1.91.19-.63c1.01-.2 2.06-.45 3.02-.49 1.65-.05 2.98.54 3.38 3.94.26 1.74.32 4.23.08 7.74-.04.9-.19 1.76-.17 2.89-.03 1.1-.06 2.26-.09 3.51-.05 1.25-.11 2.57-.16 3.98-.04.7-.07 1.43-.11 2.17-.03.78-.05 1.58-.08 2.4.11-.85.19-1.75.32-2.6.12-.85.25-1.72.38-2.61l.78-5.62c.1-1.02.33-1.93.55-2.87.22-.95.44-1.93.66-2.92.22-1 .45-2.03.68-3.09.12-.53.23-1.06.35-1.6.14-.53.28-1.06.43-1.6.45-1.58.93-3.25 1.43-5 .43-1.4.88-2.87 1.36-4.42.97-3.1 2.07-6.52 3.42-10.31-.65 1.13-1.63 2.29-2.7 3.32-1.01 1.05-2.12 1.96-3.09 2.53-1.94 1.13-3.29.84-2.1-2.7 2.92-4.33 5.01-7.08 6.64-9.21 1.56-2.16 2.79-3.62 3.97-5.27.58-.83 1.23-1.65 1.98-2.58.75-.93 1.56-1.99 2.59-3.2 1.07-1.18 2.28-2.57 3.8-4.16 1.44-1.38 3.02-3.03 5.01-4.75-1.07.86-1.87 1.07-2.36.78-.61-.36-.8-1.46-.52-3.04.14-.79.39-1.7.76-2.71.35-1.02.87-2.09 1.54-3.19.66-1.11 1.42-2.28 2.34-3.44.95-1.12 2.02-2.26 3.2-3.36-.79 2.04 4.87 3.75 2.1 7.3l2.21-3.18c.75-1.06 1.57-2.05 2.37-3.09 1.56-2.11 3.35-4 5.07-6.03l2.75-2.86c.47-.48.92-.97 1.4-1.43l1.46-1.36c.98-.9 1.95-1.85 2.97-2.73l1.91-1.6c-1.88 1.78-1.36 2.74.33 3.13.99.23 2.38.25 3.92.12 1.55-.12 3.31-.29 4.99-.66-.41.04-.36-.11.07-.41.42-.31 1.23-.73 2.34-1.22 1.11-.48 2.47-1.14 4.06-1.72 1.6-.55 3.36-1.25 5.25-1.82 3.78-1.15 7.93-2.24 11.67-2.93 1.87-.36 3.61-.73 5.15-.93 1.54-.23 2.85-.49 3.83-.67-2.13.05-4.28.09-6.43.22l-3.22.28-1.62.14-1.61.22c8.43-1.78 14.75-2.71 20.13-3.71 5.51-1.03 9.89-1.85 14.26-2.66 2.24-.36 4.5-.64 6.93-.88 1.21-.07 2.46-.12 3.76-.15.65-.01 1.32-.03 2-.02.68.04 1.37.08 2.09.12 5.7.31 12.59 1.53 21.09 5.1-2.34-.24-5.54.6-6.03 2.4-.25.9.14 2.03 1.58 3.36.72.66 1.7 1.37 2.94 2.24.63.42 1.33.85 2.12 1.3.8.43 1.65.94 2.57 1.49 4.21.34 13.91 1.18 25.72 6.91.84.41 1.69.86 2.55 1.33 1.21 1.16 2.39 2.35 3.54 3.59 8.36 9 15 19.53 19.72 30.88-1.38-1.96-2.84-3.9-4.37-5.8-5.07-6.3-10.91-12.04-16.72-16.65-5.8-4.68-11.58-8.05-16.43-10.57 2.3 2.15 3.36 3.61 4.09 4.58.71.99 1.06 1.52 1.51 2.21.84 1.45 2.71 2.89 8.5 10.1 1.34 3.07-.73 1.44-3.46-1.38-2.89-2.73-6.65-6.37-8.69-8 4.94 4.69 9.34 10.13 13.04 16.01 3.7 5.88 6.72 12.21 8.99 18.79.34-.37.83-.21 1.44.37.57.6 1.23 1.62 1.96 2.93.77 1.3 1.45 2.94 2.18 4.74.78 1.78 1.34 3.78 2 5.76.65 1.99 1.07 4.04 1.62 5.93.43 1.91.8 3.69 1.21 5.19.64 3.01 1.26 4.93 2 4.48-1.71-16.09-7.42-31.55-16.26-44.39.27-.42.83-.47 1.63-.15.77.34 1.78 1.06 2.98 2.13 2.44 2.12 5.38 5.84 8.38 10.89 2.9 5.08 5.62 11.6 7.33 19.05 1.72 7.44 2.36 15.81 1.42 24.14-.54 2.09-1.28 2.66-1.91 2.39-.68-.27-1.27-1.36-1.98-2.67-1.39-2.63-2.69-5.97-3.36-5.66.32 1.02.4 3.36.44 6.39-.09 1.51-.18 3.17-.29 4.92-.22 1.71-.49 3.49-.76 5.28-1.25 7.1-4.16 13.69-5.12 14.81.56-2.16 1.2-4.26 1.55-6.44l.62-3.21.39-3.23c-.36.99-.69 1.96-.98 2.92-.34.95-.7 1.86-1 2.78-.29.92-.58 1.83-.87 2.73-.33.89-.63 1.77-.92 2.66-.53 1.79-1.19 3.51-1.82 5.25-.57 1.77-1.34 3.47-2.08 5.23-3.07 6.94-7.49 14.2-16.29 20.91-.67.66-1.47 1.36-2.35 2.08-.9.7-1.91 1.41-2.94 2.13-2.03 1.46-4.37 2.84-6.43 4.16-2.11 1.3-4.05 2.48-5.41 3.52-1.4 1.01-2.24 1.87-2.16 2.49 6.11-2.38 11.68-1.76 15.31.46.72.44 1.35.95 1.89 1.52-.02.01-.03.03-.05.04-.49.3-.98.58-1.45.84.34-.14.56-.19.68-.15-4.92 4.45-10.06 8.69-15.3 12.77-1.68 1.31-3.36 2.6-5.05 3.88l.07-1.84-4.17 3.19.97.99c-7.46 5.56-15.05 10.96-22.61 16.39-4.07-.85 13.38-17.97 3.96-14.2.19 1.08-5.02 6.31-7.27 8.41-3.67 2.12-3.41 1-4.06.72-.65-.26-2.21.27-9.54 5.94-.17 2.39-7.74 7.98-12.05 11.28-2.17 1.63-3.53 2.66-2.83 2.3.71-.35 3.49-2.11 9.74-5.83-6.86 5.92-10.68 8.81-14.9 11.87-4.2 3.08-8.78 6.34-16.68 13.46 3.32-1.36 1.05 3.29-3.45 9.94-1.45 2.15-3.15 4.53-4.95 6.97-2.52 2.4-5.02 4.83-7.5 7.27-3.06 2.82-6.11 5.68-9.12 8.63-.23.22-.45.45-.68.67-1.34.94-1.19.85-.39.38a417.59 417.59 0 0 0-5.93 5.97l-1.73 1.79-2.33 2.46c-1.73 1.84-3.42 3.69-5.09 5.56-.37.41-.74.83-1.11 1.25a674.937 674.937 0 0 0-15.06 16.67c-4.54 5.21-8.92 10.46-13.42 16.15-1.09 1.41-2.2 2.84-3.33 4.29-1.02 1.32-2.02 2.68-3.05 4.05-.26.34-.51.69-.77 1.04l-.39.52c-.18.09-.43.07-.64.11-.88.11-1.76.21-2.66.32-1.82.22-3.69.45-5.6.68-3.23-.45-19.67.28-12.89-2.06-4.78 1.16-9.13 2.9-19.58 3.91-10.25-.74-4.42-1.33 1.97-2.09 6.4-.77 13.36-1.77 5.5-2.91-.42.84-4.29 1.84-9.77 2.83-2.74.49-5.87.98-9.17 1.45-2.9.4-5.95.83-8.93 1.24-.81-.29-1.61-.59-2.4-.88-.95-.34-1.88-.67-2.79-.99-2.06-.73-4.03-1.37-5.86-1.91.56.84 1.92 1.8 3.85 2.89.49.26 1.01.54 1.55.84.53.27 1.1.56 1.68.86 1.06.54 2.23 1.11 3.48 1.71 1.23-.02 2.56-.16 3.91-.28.73-.07 1.47-.15 2.22-.22.79-.09 1.58-.17 2.39-.26 3.22-.37 6.56-.83 9.84-1.34 6.57-1 12.92-2.2 17.7-3.13.19 1.55-2.73 3.47-8.1 5.48-9.45.89-18.9 1.64-28.36 2.19-9.19-4.41-18.84-8-28.86-10.91-15.98-4.64-32.63-8.14-49.3-9.28-3.6-.45-8.04-.79-13.12-.87-4.9-.07-10.4.09-16.26.74-2.93.32-5.94.76-9.02 1.36-3.07.62-6.23 1.45-9.23 2.92-1.5.73-2.94 1.63-4.25 2.74-.93.78-1.74 1.67-2.47 2.63-.02-.02-.02-.03 0 0 0 0-.01.02-.02.02l-.14-.16.12.19c-.1.14-.2.27-.3.41-.04-.06-.08-.11-.13-.18.05.07.08.12.12.18-.19.27-.38.54-.56.81-.13.2-.24.41-.36.61l-.28-.33.28.33c-.03.05-.06.11-.09.16-.25-.28-.51-.57-.73-.81l.72.83s-.02.03-.03.05l-.29-.29.29.29c-.16-.16-.36-.37-.63-.64-1.19-1.2 1.77 1.8-.57-.58-.15-.15-.31-.31-.5-.51.19.2.36.37.51.52l.02.02-.53-.54c-.32-.35-.59-.64-.56-.59.07.08.11.12.16.19-.2-.21-.42-.43-.58-.6.09.09.3.3.59.6 0 0 0 .01.01.02-.08-.09-.16-.16-.23-.24-.12-.12-.24-.24-.37-.38l-.06-.06c.09.1.2.2.31.32-.13-.13-.25-.25-.35-.36.2.2.44.45.71.73l.03.03-.02-.02.02.02s.01.02.02.02c-.07-.07-.14-.15-.21-.22.1.11.15.16.19.2l.04.04-.04-.04.04.04c.4.46.46.55.54.66.32.32.5.48.51.47-.12-.13-.26-.29-.41-.45.08.08.16.17.29.31l-.05-.05.06.06c.02.02.03.03.04.05.03.04.06.08.06.09.22.24.36.4.29.31.21.21.1.09-.13-.17.06.06.13.13.24.25l.1.1s.07.07.09.1l.12.12.02.02a.812.812 0 0 1-.09-.1l.12.12c.07.08.11.11.2.21-.02.04-.05.07-.07.11-.31-.34-.67-.73-.99-1.05-.26-.3-.33-.39-.39-.47-.2-.2-.44-.45-.75-.75.04.04.06.07.1.1s.01 0 .02.02c.2.21.32.34.2.22.02.02.03.03.03.04.22.24.41.44.59.64-.34-.34-.41-.44-.59-.64-.08-.08-.15-.16-.23-.25 0 0-.01-.02-.02-.02l.81.98c.23.22.2.16.04-.05.45.49.82.89 1.16 1.27-.02.04-.04.07-.06.11-.42-.44-.81-.86-1.17-1.23.38.41.75.8 1.16 1.25-.03.05-.05.09-.07.14-.67-.72-1.12-1.21-.73-.84l-1.07-1.08c-.03-.03-.22-.23-1.35-1.36 3.26 3.32-.1.07 3.13 3.32-2.9-2.9-1.25-1.19-3.91-3.77.77.77 1.48 1.46 1.06 1.12.22.23.5.52.67.68a.317.317 0 0 0-.06-.05l.09.09.03.03c.34.33.75.73 1.19 1.15.36.37.63.64.85.88-.02.04-.04.09-.07.13-1-.95-1.8-1.7-2.47-2.42l-.12-.03c-1-.91-1.43-1.24-.72-.51-.4-.34 1.86 1.92.52.59l.98 1.14-.44-.41c-.35-.06 2.79 2.87-.61.14.4.47.89 1.04.24.76l-1.65-1.28c.48.57-1.99-.85-.29.52-1.16-.8-1.83-1.19-2.22-1.33-.07-.07-.25.05-.35.11-.12.08-.22.17-.31.28-.18.21-.31.48-.41.77-.19.58-.22 1.25-.29 1.82-.03.29-.07.55-.15.77-.02.06-.04.11-.07.16l-.02.04-.16.4c-.11.29-.22.6-.33.92-.42 1.29-.76 2.84-.87 4.56l2.73.96c.04 2.08.66 4.55 1.86 6.61 1.18 2.07 2.79 3.62 4.23 4.59.72.49 1.41.86 2.04 1.14.32.14.62.26.9.37.24.08.3.09.46.13.54.14 1.13.25 1.75.31 2.45.3 5.52-.32 7.73-1.79a54.7 54.7 0 0 1-1.1-2.16c.15-.16.3-.31.45-.46.7.23 1.4.44 2.1.65.09.05.17.07.23.07l.18.06c.37.66.12.54-.23.14.84 1.08 1.25 1.33 1.38 1.18.07-.08.06-.25.02-.49-.06-.18-.19-.38-.31-.59.23.07.47.13.7.2.04.05.09.11.14.16l-.13-.16c.06.02.12.03.18.05l.25.32s-.01-.03-.04-.07c.27.31.16.15-.14-.24.24.07.48.14.73.2.41.11.81.2 1.22.31.06.07.11.13.18.21-.01-.03-.07-.1-.16-.2 10.93 2.8 21.53 4.63 30.72 6.02 0 .13-.01.26-.07.42.09-.12.15-.26.21-.4 1.1.17 2.2.33 3.26.49.27 0 .55-.02.83-.03l-.31 1.3.35-1.3c.38-.01.77-.03 1.17-.04-.13 1.17.05 2.09-.2 2.87.34-.25.73-1.56 1.09-2.73-.24.5-.45.49-.63-.15.23 0 .46-.02.69-.03-.02.06-.03.11-.05.17.02-.05.05-.11.08-.17 3.52-.13 7.42-.33 9.96-.63.02.18.04.37.05.61 0-.16.02-.37.02-.62.94-.11 1.68-.24 2.14-.39 1.8.08 3.59.15 5.39.21.15.18.29.26.41.01h.19c.3 4.57 1.93.69 2.58 1.67l.08-1.59c2.53.06 5.06.11 7.58.14.17 1.35.3 2.21.32.61v-.6c2.93.03 5.86.04 8.78.03 12.03-.03 24.06-.42 36.08-1.11 6.8 3.38 13.32 7.24 19.46 11.64 4.04 2.89 7.85 6.05 11.5 9.38l-.14-.05.5 1.58c-.06.15-.14.3-.19.44l.49.49 2.55 8.09-.72.12c-.16-.02-.32-.04-.46-.05.25.05.48.09.68.13l.53-.09.11.33c.06.2.24.5.6.86l-2.46-.8s.01.05.05.09c-.99-.07 1.07.64 2.94 1.19.05.04.12.09.18.13-.06.14-.12.28-.17.41-.47-.07-.29.13-.14.33-.04.1-.09.2-.13.31-.25-.01-.73-.11-1.6-.36.68.31 1.02.63 1.35.98-.36.92-.71 1.84-1.04 2.77-.16-.08-.32-.15-.49-.23.18.11.32.2.47.29a88.3 88.3 0 0 0-2.19 7.16c-.04 0-.07.02-.11.03.03 0 .06 0 .1.02-.08.32-.17.65-.26.97-.51-.07-.99-.18-1.56-.42 1.24 1.07-2.39.82 1.17 2.07v.04c-1.33-.19-1.94-.55-2.78-.63.3.13 1.21.5.33.43-.88-.07-1.2-.35-1.81-.6.05.57 1.77 1.13 4.06 1.66-.66 3-1.18 6.02-1.58 9.06-.32-.46-.71-.53-1.23-.03-.03.48-.05.97-.07 1.45-.14.03-.24.06-.29.09-.49.07-.77-.18-1.12-.33-1.99.57-.38.57 1.38.65 0 .13-.01.27-.02.4-1.1-.05-2.04-.06-2.23.24-.74.11.72.57 1.93 1.05.09.03.17.07.25.1-.15 4.81-.04 9.62.55 14.36.04.76.1 1.53.17 2.3-.3-.28-.75-1.61-1.11-2.52-.42-1.08-.86-1.52-.96 1.39.75.39 1.52 2.86 2.74 6.39l.19.53c1.13 5.4 3.25 10.46 7 14.19 3.4 3.39 8 5.3 12.77 5.1.4.04.8.06 1.2.07.51-.1.98-.24 1.42-.4 4.32-.93 7.94-3.83 10.76-7.27.08.1.15.2.25.32-.08-.1-.16-.22-.24-.33l.02-.02.02.02.7.92c-.14-.23-.31-.48-.48-.73.15.13.3.27.48.42-.3-.27-.51-.49-.66-.7.05-.06.1-.13.15-.2l.33.33c-.11-.13-.22-.24-.32-.35.03-.03.05-.06.08-.1.46.49.87.94 1.37 1.52-.91-1.14 1.74 1.59-1.01-1.45 1.02 1.09 1.49 1.58 2.09 2.23-.21-.24-.86-.96-.25-.32.61.64.86.9 1.28 1.39-.08-.16-1.51-1.67-3.32-3.58.06-.08.13-.16.2-.25.9.89 1.62 1.62 1.8 1.79.34.34.54.55.79.8 2.06 2.03-1.39-1.41-2.59-2.61 1.27 1.27 2.96 2.95 3.18 3.16 1.05 1.03-4.16-4.19-1.68-1.74-.5-.5-1-.99-1.47-1.46l.01-.01c.55.54.87.85 0-.01.05.04.1.1.14.14l-.14-.14c.02-.02.03-.05.05-.07l.14.14c.13.12.05.04-.13-.14.01-.02.03-.04.04-.06.35.34.52.49.01-.01.17.17.36.35.51.5-2.09-2.05 4.43 4.23-.48-.54.02-.02.04-.05.05-.07.41.38.78.72.85.77l-.83-.8c.14.13.23.22.26.25.85.81.43.4-.26-.26.86.82 1.64 1.56 1.68 1.6l-.21-.21-.33-.32c-.41-.4-.8-.77-1.13-1.09.38.36.69.66.75.71.2.19.3.28.08.08l.25.22-1.08-1.02s.01-.02.02-.03l.44.33c.17.16.35.33.56.52-.21-.2-.38-.36-.54-.51l.11.08c.19.18.38.36.55.53l-.53-.51.05.04c.28.27.6.57 1.01.97l-.99-.95.03.04-.03-.03h.01c.4.4.83.81 1.19 1.16-.12-.11.27.26.35.34 1.26 1.22-.24-.24-.07-.08l-.65-.63c-.79-.77-.17-.17-.75-.74l.14.11.17.17c-.06-.06-.12-.11-.17-.17l.17.12.13.12c.32.31.23.23.05.05l.07.06c.22.21.51.49.9.87-.35-.34-.61-.59-.83-.81l.02.02s-.02-.02-.03-.02c-.09-.09-.18-.17-.25-.25l.02.02.22.21c-.06-.06-.13-.13-.22-.21s1.48 1.44 1.48 1.44c-2.02-1.96 1.77 1.71.67.64-.04-.04-1.06-1.03-2.13-2.06h.02c1.38 1.35 2.91 2.84 2.48 2.42-.25-.24-1.12-1.09-1.95-1.89.38.37 1.08 1.05 2.04 1.98l-2.53-2.46c.45.44.35.34 0 0l.05.04 1.31 1.27c-1.57-1.53-1.16-1.13-.57-.56-.22-.21-.46-.45-.7-.69.48.48.95.93 1.44 1.41 1.27 1.23.29.28.28.26-.07-.07-.17-.16-.44-.42l-1.25-1.22h.01c.16.16.32.32.48.47-.08-.08-.27-.26-.47-.46 1.25 1.22 2.44 2.38 3.03 2.95l-1.67-1.63c.66.64 1.8 1.75 2.36 2.29.89.86-2.93-2.85-1.75-1.71-.29-.29-.57-.56-.79-.77.34.33 2.2 2.13.13.11l2.71 2.63c-.52-.51-2.59-2.52-3.83-3.73l.05.04c.81.78 2 1.94 2.42 2.35-.7-.68-1.76-1.72-2.34-2.28l.08.07c.1.09.2.2.33.32.18.18.24.23.25.25 0 0 .02.02.06.05l1.5 1.46c2.47 2.4 1.62 1.57 3.73 3.63-5.22-5.08-.56-.54-5.73-5.58s1.07 1.04 1.07 1.04l.2.2c1.38 1.34.1.1-1.2-1.18l.3.27c1.64 1.59.66.64.06.05l.06.06c.11.11.25.24.42.41l.66.65c2.97 2.88 1.89 1.84 3.74 3.64-.75-.73-3.13-3.05-4.78-4.65l.12.11 1.99 1.93c-.47-.46-1.2-1.17-1.95-1.9l.04.04c.74.72 1.71 1.66 2.6 2.53-.26-.25-1.57-1.53-2.53-2.46l6.53 5.96-2.68-2.75.38.35-.39-.35-.25-.25c.65.59 1.19 1.08 1.67 1.52-.19-.17-1-.92-1.8-1.66l-2.36-2.42c.23.2.26.23-.06-.06l-.17-.18.34.3c-.54-.49 1.57 1.38-.05-.07 4.2 3.73.93.79 1.68 1.45l-2.04-1.81c.08.07-.17-.16-.61-.56l-.32-.33c.62.54.37.32-.11-.11l-.28-.29c.2.18.41.36.58.51-.22-.19-.42-.37-.59-.52l-.07-.07.92.81-.05-.05c.47.41-.07-.06-.9-.8l-1.16-1.19s.07.06.12.1c-.04-.04-.08-.07-.12-.11l-.08-.08c.45.39.87.76 1.39 1.2-1.09-.96 1.78 1.53-1.3-1.16 1.12.97 1.64 1.42 2.3 2-.18-.16-.65-.57-.56-.49-.58-.5-1.27-1.11-2.03-1.76l-.12-.13c.22-.32.44-.64.65-.97 1.39 1.6 1.9 2.18 0-.01.16-.25.33-.5.48-.75.01-.02.03-.05.04-.07.44-.3.16-.12.21-.17-.05.01-.1.02-.14.05.53-.87 1.03-1.76 1.49-2.67l.9.37.53.22c.04-.14.09-.29.15-.47l.12-.33.09-.26.18-.55.02-.06c.16.04.32.07.48.1-.05-.06-.22-.16-.43-.27l.04-.14c.06-.23.12-.46.17-.69l.04-.17.03-.16.08-.49c.05-.33.08-.66.1-1.01.02-.43.01-.87-.01-1.31.1-.23.19-.46.29-.72.29-1.22.6-2.49.96-3.75.17-.76.35-1.52.48-2.28.38-.13.79-.26 1.26-.39-.53.07-.9.1-1.19.09.26-1.24.47-2.48.64-3.74h.9l-.89-.11c.41-2.97.58-5.98.55-8.98.76-.07 1.43-.4 1.08-.87-.39.18-.7.36-1.08.46 0-.33 0-.65-.01-.98.2 0 .47-.02.85-.04-1.13.1-.04.06.79.19l-1.25-.37c-.12.03-.26.06-.39.09v-.2l.4.11c.34-.08.45-.16-.4-.17-.03-.82-.08-1.63-.14-2.44.27.05.68 0 1.15-.1l-1.17-.22c-.03-.32-.07-.64-.1-.96h.02v-.05h-.03c0-.07-.01-.14-.02-.21h.04c0-.25.02-.41.03-.48 0 .05-.03.19-.08.39-.04-.4-.07-.79-.12-1.19.03 0 .04 0 .08-.02h-.09v-.04c.15-.06.35-.14.55-.2a4.85 4.85 0 0 0-.58-.03c-.03-.23-.07-.46-.1-.69.37-.1.63-.22.55-.37-.25 0-.45-.01-.61-.04-.05-.36-.1-.72-.16-1.07l.23-.2c-.05.02-.09.04-.13.06s-.02 0-.04.01c-.03.02-.06.03-.09.04v-.02c.03 0 .06-.01.09-.02.01 0 .02 0 .03-.01l-.13-.06c-.08-.49-.18-.98-.27-1.47.37-.22.83-.48 1.4-.81-.6-.04-1.1 0-1.54.06l-.06-.3h.1l2.36-.62-2.5.4c-.07-.32-.14-.62-.21-.94l1.7-.55-1.32.11-.41.32c-.07-.33-.15-.65-.23-.98.23-.13.53-.3.93-.51-.38.19-.68.31-.95.41-.06-.23-.1-.46-.16-.69-.15-.57-.31-1.14-.48-1.7.28-.25.68-.57 1.32-1-.61.28-1.16.62-1.43.65-.04-.13-.09-.26-.13-.39.36-.12.56-.25.09-.31-.05.12-.07.21-.1.3-.06-.19-.13-.38-.19-.57.03-.02.07-.04.09-.05l-.17-.17c-.06-.17-.11-.34-.17-.51.25-.11.37-.14.14 0 1.14-.45.58-.45-.24-.28-.2-.55-.41-1.09-.63-1.63.44-.7.34-1.17-.46-1.07 0-.01-.01-.03-.02-.04 0-.05 0-.09-.05-.11a56.7 56.7 0 0 0-3.78-7.14c0-.1-.04-.17-.12-.2-.06-.1-.12-.19-.18-.29 3.08-3.06-.97-2.01-.66-3.12l-.93.72c-2.59-3.78-5.52-7.35-8.55-10.77 1.36-2.3 2.76-4.59 4.18-6.87l.97.82-.95-.85c.16-.26.33-.53.5-.79.11.08.21.16.32.25-.1-.08-.21-.17-.31-.26.11-.18.23-.36.35-.55.5.3 1.14.67 1.58 1.02l-1.2-1.1-.31-.02c.03-.05.07-.11.11-.16l.2.19.22.02-.39-.26c.35-.56.71-1.11 1.07-1.66.44.34 1.12.91 1.85 1.12.28.3.33.44.36.57.29.07.63.18 1.04.34-.05-.02-.08-.04-.13-.07s-.02 0-.03-.01c-.26-.14-.41-.22-.25-.16l-.03-.03c-.27-.18-.5-.34-.72-.49.49.13.52.3.72.49.09.06.18.12.29.19.01 0 .02 0 .03.01l-.79-1.12c-.33-.08-.35.08-.26.43-.8-.55-1.39-1.01-1.96-1.43.15-.24.31-.48.46-.72.74.43 1.45.83 2.06 1.18-.63-.41-1.23-.8-1.91-1.41.25-.38.49-.77.74-1.15.99.87 1.77 1.62 1.13 1.45 2.82 1.63-.27-.27 3.06 1.59-4.1-2.38.63-.62-3.73-3.03 3.85 2.19 1.81.65 5.14 2.43-.92-.58-1.81-1.03-1.2-.98-.25-.18-.58-.43-.77-.57.03.01.05.02.08.03l-.12-.06c-.13-.1-.16-.12-.04-.02-.44-.2-.94-.47-1.47-.78-.68-.5-1.09-.86-1.38-1.16.1-.15.19-.3.29-.45.13.09.26.17.41.26l-.38-.31c.04-.06.08-.13.13-.19 1.43.8 2.57 1.31 3.33 2.18l.28-.24c1.25.56 1.85.62 1.1-.09.53.15-2-1.82-.5-.66l-.95-1.29.51.33c.55-.29-2.72-3.16 1.26-1.29-.41-.49-.92-1.07-.18-.95l1.77 1.11c-.48-.6 2.12.56.37-.73 4.81 2.91 1.64-.28 2.69-.08l-2.25-1.54c.25-.14-.11-.68-.7-1.45l-1.71-2.78c1.37-2.02 2.75-4.02 4.14-6.01 1.43-.25 2.84-.51 4.24-.78l1.58-.32c.1 0 .18-.03.25-.08 5.88-.85 11.76-1.73 17.62-2.66 67.91-10.79 150.5-29.3 216.6-48.15 18.31-5.22 36.56-10.68 54.76-16.31a211.587 211.587 0 0 0-31.82 43.82c-1.63 2.98-3.16 6.01-4.64 9.07-1.27-.59-2.33-1.09-2.58-1.21-.43-.21-.7-.34-1.02-.49-2.81-1.3 2.43 1.16 3.59 1.72-1.65-.77-4.03-1.9-4.33-2.04-1.34-.62 5.33 2.56 2.16 1.08.74.35 1.47.69 2.14 1.01v.02c-.89-.41-1.61-.74 0 .02-.15-.07-.3-.14-.44-.21.15.07.3.14.44.21l-.03.06a.488.488 0 0 0-.07-.03l.07.03-1.37-.61.33.15c-.16-.07-.31-.14-.41-.19l.94.43s.03.02.09.05c-.37-.17-.43-.2-1.01-.45.46.21.84.39 1.2.55.03.01.04.02.07.03-.49-.22-.32-.15.15.07 0 .01-.01.02-.02.04-.21-.09-.37-.17-.47-.22l.47.22-2.26-1.03c2.64 1.21 2.31 1.06 1.75.81l.5.23c-.22-.1-.42-.19-.58-.26-.51-.23-1.1-.5.15.08.07.03.22.1.42.19-.14-.06-.28-.13-.44-.2.06.03.17.08.29.13-.37-.17-.6-.27-.43-.18-.18-.08-.36-.16-.5-.23.72.33.44.2.33.16-.04-.02-.09-.04-.13-.06.04.02.08.04.12.05-.04-.02-.03-.01.13.06l.09.04c.29.14.25.13.05.04-.86-.4-.54-.25-3.53-1.63-1.19-.54 3.06 1.41 1.58.73 1.03.47 1.19.55 1.9.87-.46-.2-1.54-.7-1.93-.87-1.22-.56-1.86-.86-1.94-.9l-.98-.44c2.08.97 2.84 1.32 3.82 1.77.33.16.75.35 1.28.6-.29-.13-.53-.25-.69-.32.35.16.68.32.96.45l-1.35-.63c-.63-.29.5.24 1.35.63-.05-.02-.08-.04-.14-.06-.21-.09-4.22-1.95-2.28-1.05.61.28 1.45.67 2.42 1.12v.01c-.16-.07-.31-.14-.45-.21.08.04.24.11.45.21 0 .02-.02.03-.02.05-.59-.26-1.18-.51-1.28-.54l1.26.58c-.28-.13-.49-.23-.54-.25-1.16-.53-.44-.2.54.26-1.16-.54-2.26-1.05-2.31-1.07l.26.13.42.19c.57.26 1.14.53 1.63.76v.01c-.56-.26-1.07-.49-1.14-.53-.25-.12-.37-.17-.1-.04l-.31-.13 1.55.71-.05.1c-.36-.16-.81-.37-1.39-.64.68.32 1.1.51 1.38.64v.01c-.06-.03-.12-.05-.17-.08.07.03.11.05.17.08 0 0 0 .01-.01.02-.62-.28-1.38-.62-.97-.42.28.13.61.28.96.45l-1.81-.83 1.8.84c-.02.03-.03.07-.05.1-.54-.25-1.25-.57-2.18-1 .82.38 1.28.6 1.53.72-.66-.3-1.22-.54-1.58-.69l-.07-.03.07.03c-.18-.07-.32-.13-.38-.14-.24-.13-.42-.23-.59-.32l1.02.47-.63-.3-.42-.19c-.13-.07-.25-.13-.38-.2-2.89-1.08 2.35 1.17 3.52 1.82 0 0 0 .02-.01.02l-4.38-1.89c-.69-.27.62.43 1.71 1.01 1.08.58 1.95 1.03.3.46.74.3 1.48.59 2.16.86-.03.05-.05.11-.08.16-.91-.26-1.62-.43-.09.18 0 .01-.01.02-.02.04-.13-.04-.26-.09-.39-.13.13.06.25.11.37.17-.18.37-.35.74-.53 1.11l-.17-.04c-.17.03-.1.1.11.18-.25.53-.48 1.06-.72 1.59h-.13c.05 0 .08.02.13.02-.06.13-.12.26-.17.39-.39.08-.89.16-1.27.27-.78.19-1.07.41.97.4-1.3 2.88-2.55 5.78-3.72 8.71-1.04 2.61-1.39 7.77 2.44 8.2 3.86.43 7.03-4.2 8.23-7.21 1.28-3.21 2.63-6.38 4.08-9.52.11-.23.22-.46.32-.7-.1.51-.23 1.19-.25 1.26l.23-1.18s0-.05.01-.07c-.33 1.88-1.52 8.39-1.98 12.13.15-.92.3-1.76.61-2.98.11-1.16.22-2.72.61-4.6.25-1.07-.06.75-.17 1.87.2-1.31.35-2.26.51-3.37.08-.55.16-1.15.26-1.84.05-.36.1-.75.15-1.18v-.02l-.25 2.63.21-2.16.04-.48v-.04.05c0 .3 0 .6-.01.92v-.4c.04 2.33-.07 3.22-.04 4.31-.07 1.64-.32 4.21-.42 2.88l.16-2.88c-.03.8 0 1.41.06.55-.06.73-.05-.39-.03-1.14.01-.76.04-1.16-.17.99l-.09 2.28c-.2 1.65-.75 5.11-.84 4.05-.27 3.24.07-.37-.17 3.44.33-4.72.58.25.76-4.73-.16 4.42.1 1.89.19 5.66.11-.92.13-1.08.19-1.54.02-.32.05-.72.07-.96 0 .03 0 .05.01.08v-.17c-.01-.48-.03-1.05-.05-1.65.17-2.49.38-2.41.44-3.7 0 .52.01 1.25.03 2.4l.09-1.93c.03 2.41.39 4 .15 5.42l.27.1c.21 1.35.52 1.87.59.84.2.51.09-2.69.16-.8.1-.51.18-1.02.25-1.53l.08.6c.23.12.3-.9.4-1.42.12-.52.27-.54.99 1.53 0-.63-.05-1.38.35-.78l.6 2c-.03-.75 1.23 1.81.65-.29.98 2.63 1.39 2.82 1.59 2.45.21-.37.17-1.27.55-.89l-1.07-2.51c.28.05.18-.76-.08-1.85l-1.08-2.15c-.75-1.83 1.19 1.31 1.38.92.45.81.25.64-.07.19 1.52 2.27 1.26 1.27.79.17-.45-1.11-1.11-2.3.15-.76-.44-.76-.23-.55.18-.09 0 0 .02.05.06.11h.04c.28.31.6.67.85.96-.38-.45-.7-.81-.84-.98.02-.08-.08-.38-.38-.91l1.6 2.03s0-.03-.03-.07c-.51-.67-.88-1.16-1.91-2.53-.24-.35-.53-.77-.88-1.29 2.65 3.23-.75-1.2 2.14 2.19-1.24-1.58-.82-1.54-3.17-4.22.38.35.76.66-.07-.29l2.27 2.38c-.97-1.11-1.96-2.2-2.97-3.28 1.44 1.4 2.31 2.17 4.02 4.04-2.59-2.91-.89-1.19-3.58-3.95l1.54 1.46c-.01-.11-2.07-2.07-.75-.91 1.53 1.32 1.76 1.27 1.95 1.2.2-.08.36-.17 1.98.79-5.11-3.61 2.38 1.5-1.57-1.32 1.22.84 1.9 1.32 2.96 2.06-1.09-.97 2.14 1.03-1.22-1.32 1.24.82 1.81 1.2 2.55 1.68l-.29-.29c.72.5 1.02.71 1.55 1.08-.07-.35-3.94-2.77-7.57-5.04 1.75 1.03 1.54.83-.86-.64 1.2.73 2.45 1.49 2.88 1.75.14.06 1.15.46.39-.04-.43-.24-.82-.44-1.08-.57-.64-.34-.52-.28-.71-.37.12.07.32.2.56.35-1.24-.7-2.57-1.45-3.96-2.23l1.05.68c-.32-.2-.88-.54-1.56-.96-.59-.33-1.18-.67-1.78-1.01-.07-.07-.13-.14-.2-.2.04.02.07.04.11.07.54.33 1.03.64 1.43.88-.22-.14-.46-.29-.7-.44.41.26.79.49 1.14.71.17.1.34.19.51.29l-.5-.32c-.38-.23-1.12-.67-1.98-1.19.02.01.03.02.05.03-.02-.01-.03-.02-.05-.03.01-.02.03-.04.04-.06.17.08.33.15.5.23.86.47 2.01 1.1 3.63 2 .25.14.76.41 1.68.89l.51.24c.25.22-.02.08-.24.05.34.2.86.53.1.12.75.42 1.21.69 1.46.86.94.52 2.11 1.18 2.77 1.5-.37-.21-1.1-.63-1.16-.66l2.44 1.26c-.86-.48-1.66-.92-2.7-1.5 1.87.87 3.17 1.4 2.07.68.68.09 4.83 2.56 4.44 2.11-1.99-1.03-4.37-2.23-4.63-2.47 1.08.47 2.24 1.02 3.16 1.39.07.04.16.08.26.13.15.07.23.11.34.16-.02-.01-.01-.01.08.03-.28-.14-.48-.23-.64-.31.11.04.2.07.3.11l.69.34c.8.38.98.46 1.55.74-.54-.28-1.2-.59-2.16-1.05.12.04.25.1.35.13l-2.4-1.11-.55-.28-.12-.06.12.06c.28.13.39.19-.11-.06h.13c.23.11.55.27.92.44l-.9-.44s.01-.01 0-.02l.04.02s.1.04.12.05c-.02 0-.07-.03-.17-.07-.02-.03-.09-.07-.22-.14.1.05.2.1.33.16.15.07.37.18.57.27-.23-.11-.6-.29-.97-.47-.1-.05-.23-.12-.41-.2-.13-.07-.23-.12-.24-.12-.29-.14-.49-.23-.39-.18-.32-.15-.06-.02.37.19-.22-.1-.49-.23-.82-.37.25.1.43.17.59.22.11.05.23.11.33.16.35.18.46.23.55.27.25.12.57.26.96.44-.05-.02-.08-.04-.13-.06s-.02 0-.03-.01c-.26-.12-.42-.2-.27-.13a.11.11 0 0 1-.04-.02l-.79-.38c.43.21.54.26.79.38.1.05.2.1.31.15.01 0 .02 0 .03.01l-1.14-.57c-.29-.13-.23-.1 0 .02-.19-.09-.36-.17-.54-.26.15.05.26.09.33.11l.18.09-.18-.09h.04c.1.04.18.08.28.13 0 0-.12-.06-.27-.13h.03c.18.08.36.17.53.24-.15-.07.34.16.45.21.17.08.29.13.38.18.26.12.66.31 1.28.6-.46-.22-.8-.38-1.08-.52-.19-.09-.78-.37-.68-.33l-.15-.07c-.42-.2.25.12-.8-.38-.05-.03-.11-.07-.19-.11 2.01.93.8.37 3.69 1.72-.98-.46-1.88-.88-1.39-.66-.29-.14-.65-.31-.86-.41.03.01.04.02.07.03-.04-.02-.08-.04-.12-.05-.15-.07-.18-.08-.04-.02-.38-.18-.84-.39-1.32-.62.12.04.25.09.39.15.51.24.98.46 1.42.67l.1.03c1.23.57 1.72.79.8.35.48.22-2.41-1.15-.7-.34l-.48-.23c2.09.92 4.95 2.37 5.85 2.85-2.27-1.25-.83-.8-4.61-2.5l-.09-.02-.32-.15c.13.05-.38-.2-1.17-.57.03 0 .06.02.1.03.22.1.44.2.66.31 1.61.74.37.16.35.15l-.55-.25-.37-.17s.08.03.13.04c1.06.49 1.98.92 2.52 1.17l-2.11-1c.83.38 2.28 1.06 2.99 1.38 1.13.52-3.7-1.74-2.21-1.06-.31-.14-.59-.28-.84-.4h.02c.65.29 2.24 1.03.18.06l3.23 1.5c-.45-.21-1.83-.86-3.17-1.48.02 0 .03.01.05.02.05.02.09.04.14.06.53.25 1 .47 1.25.58-.27-.13-.58-.27-.91-.43.54.25 1.05.48 1.43.65 2.29 1.07 1.59.74 4.04 1.89-2.55-1.2-3.23-1.52-3.49-1.64.09.04.05.02-.18-.08-.13-.06-.35-.16-2.09-.98h.03c.04.02.07.03.1.05 1.19.56.81.37-.08-.04h.02l1.56.73.06.03-1.63-.76s.03 0-.02-.03c.1.05.08.04-.01 0-.06-.03-.18-.09-.37-.17-.75-.36-2.02-.95-.02-.02-.8-.38-1.5-.71-1.96-.93.45.21.68.32-.29-.14.94.45 1.32.62 1.44.68.07.03.05.03.02 0-.14-.07-.37-.18-.5-.24l.09.04c-.26-.12-.62-.3-1.02-.49.1.03.2.07.29.1l-.2-.07.33-.02c.18.08.35.16.55.25-1.15-.54 1.33.56-.46-.26h.01c.66.29 1.12.5 1.66.75-.29-.13-1.17-.54-.36-.18.8.36 1.13.51 1.72.78-.11-.07-1.3-.61-2.96-1.36h.15c-.07-.04-.41-.15-.71-.25-.08-.04-.16-.07-.24-.11l1.51.37c-.84-.22-1.82-.62-2.33-.86-.94-.48 7.43 2.15 4.15.91-.08 0-.22-.01-.29-.02l-1.44-.54c3.5 1.02 3.73.88 3.96.73.23-.15.46-.3 4.01.53-2.81-.92-1.71-.39-5.11-1l-1.99-.68c-.29 0 .24.19-.47.09-2.93-.94.87-.19 2.77.04-1.01-.31-5.37-1.08-4.15-1.05 1.46-.07 5.21 1.1 6.1 1.02-1.22-.3-2.45-.59-3.68-.86 2.9.18.39-.51-.06-.78.3 0 .7.01 1.11.02-.8-.23.13-.28 1.12-.36.98-.08 2.01-.19 1.4-.36-.78.02-2.37-.27-3.28-.32.78-.1 1.57-.22 2.35-.37-.99.19-3.17.12-5.27.09.23-.09 1.42-.12 1.7-.2h-2.52c1.2-.09 2.39-.22 3.59-.38.37.07.51.09.61.11.02-.1 1.38-.41-.4-.49-.83.06-1.61.12-2.45.18 2.39.02.36.17-1.26.25.36-.23-.55-.04-2.1-.08.08-.11 2.94-.35 4.77-.4-.84-.18-1.41-.16.75-.6l-2.93.32.91-.28c-1.18.18-2.37.35-3.56.5-2.02-.04 5.02-.59 3.32-.79l-2.57.35c.97-.24 5.27-1 2.19-.63 1.51-.44 3.66-.28 4.11-.82-1.33.15-2.32.17-2.86.17 1.13-.37 3.03-.51 2.7-.33 1.04-1.01-8.73 1.51-5.51.32 1.84-.3 4.8-1.44 4.85-.94 1.42-.64-3.74.53-1.08-.44l-3.14 1.04c-.08-.04 1.06-.45 1.43-.61l-2.44.74c2.11-.74 1.57-.71 1.2-.68-.37.02-.56.03 2.17-1.03-4.31 1.64.19-.27-1.54.25-2.97 1.3.27.5-3.77 1.85-1.24.35.72-.36-.49-.01-.45.19-1.17.47-1.86.72l-.06-.15c.99-.41 2.33-.96 2.8-1.24-.28.19-.56.38-.84.55 3.98-1.48.65-.34 3.73-1.61-2.18.71.85-.65-.5-.23-.02.01-.29.19-.31.21-.02-.17-1.62.43-3.21 1.11-.64.28-1.29.57-1.83.81l-.07-.17c.55-.3 1.19-.63 1.77-.92 1.02-.6-1.01.82 3.88-1.72-2.9 1.32-2.39 1.02-1.69.52.71-.48 1.58-1.18-.4-.24-1.54.9-2.57 1.5-3.66 2.14l-.03-.06c.45-.29 1.06-.67 1.86-1.19l-1.72 1.01c3.7-2.49 3.35-2.09 5.16-3.69-1.3.85-2.41 1.58-3.58 2.35-.15.02.31-.37 1.25-1.11l-.23.17c.65-.85-2.13 1.34-.52-.2l.96-.73c1.16-1.15 1.21-1.53 1.11-1.75-.11-.22-.36-.27.02-.94l.74-.53c-.16.06 1.08-1.53-.23-.38-.06.1-.19.29-.27.42-.95.96-2.37 2.36-2.65 2.55l1.39-1.51-1.12 1.14c-.11-.06 2.04-2.12 1.92-2.19-2.03 2.13-2.24 2.2-2.4 2.21-.16 0-.27-.06-1.94 1.92 2.65-3.33.52-.37 2.94-3.37-.44.46-.96 1.07-1.23 1.29l1.64-1.95c-1.23.87-2.59 2.57-2.46 2l-.31.45c-.64.76-.39.37.83-1.47-.67.99-1.02 1.49-1.61 2.35 1.8-2.72 1.04-1.79.21-.61-.84 1.17-1.76 2.59-.57.65-.33.51-.65 1.02-.98 1.53l-.47-.14c.47-.92.93-1.84 1.41-2.75 3.23-6.1 6.78-12.04 10.63-17.77.23-.34.46-.67.68-1.01.01-.02.02-.04.04-.05.43-.62.86-1.23 1.3-1.85 1-1.41 2.02-2.8 3.06-4.18 2.08-2.76 4.23-5.46 6.45-8.11 2.28-2.72 4.64-5.39 7.07-7.98.55-.59 1.11-1.18 1.67-1.77.05-.06.17-.17.28-.3.15-.15.32-.33.39-.4 1.28-1.3 2.59-2.58 3.91-3.85a200.33 200.33 0 0 1 17.86-15.19c2.42-1.83 4.07-5.37 4.33-8.3.17-1.94-.45-5.29-3.09-5.27ZM451.09 421.89s-.06-.05-.1-.08c.95.39.58.23.1.08Zm-.54 87.53c-.12-.11-.3-.29-.52-.5l.04.03.49.48Zm-.18-.13s-.03-.02-.04-.03c-.08-.07-.16-.15-.25-.23-.16-.16-.34-.33-.47-.45.06.06.11.11.12.11.02.02.25.24.26.26 1.01.98-1.37-1.33.28.26-.28-.27-.49-.48-.65-.63.13.12.36.35.75.73Zm.02.01c-.13-.13-.18-.18 0 0Zm-.16-.11c-.09-.09-.21-.19-.31-.29-.11-.11-.22-.21-.31-.3l.65.61.04.04c-.02-.02-.04-.03-.07-.05ZM257.1 389.57c.1.11.22.23.38.39-.13-.14-.26-.26-.38-.4l.9.93c-.32-.34-.64-.66-.88-.91l-.01-.01Zm-.15-.16c-.26-.27-.33-.34 0 0Zm180.82 29.8c-.13.2-.26.4-.39.61-.19.03-.68.37-1.67 1.21.64-.84 1.24-1.11 2.02-2.01-1.65 1.47-2.09 1.68-1.64.74l.41-.37c-.55-.13-.46-.73-.21-1.52.02-.03.04-.07.07-.1.04.25.08.53.09.82l-.08.05c.37.34.89.22 1.17-.85.18.13.35.25.51.37.02.19.04.37.06.54-.02.03-.04.07-.06.1h-.02l.02.02c-.08.12-.16.25-.24.37l-.09-.03c.04.03.05.05.07.07Zm2.95-8.15h-.03l-.77-1.25c.56-.03 1.11-.07 1.67-.11l.01.01c-.29.45-.58.9-.88 1.35Zm-2.45 1.44h-.01l-.43-.29-.09-1.59c.14.15.29.31.44.46.06.5.13.99.19 1.49l-.08-.05s-.01-.02-.02-.02Zm-4.65-1.39c.04-.06.09-.12.13-.18.04.71.09 1.37.16 2-.15-.12-.3-.24-.47-.34.04-.58.1-1.08.17-1.48Zm1.94 1.13-.03.08s.01-.04.03-.08Zm-1.4 2.81c.01.11.03.23.04.34l-.64.64c.03-.17.26-.54.59-.98Zm.06.5c0 .06.02.12.02.17-.11.09-.2.13-.24.09l.21-.26Zm4.15-2.93-.02-.02h.02Zm-.27-2.11c-.15-.09-.28-.16-.39-.22l-.02-.34h.09c.09.08.18.15.27.22.01.11.03.23.04.34Zm-6.89.17s-.03.06-.05.09c-.01-.06-.02-.12-.04-.18.03 0 .06 0 .09-.01v.1Zm6.61 1.62.38.22c-.09 0-.2.04-.36.15l-.02-.38Zm.34 2.67s.01-.08.02-.11v.08s0 .02-.02.03c-.03.29-.03.49.07.49l.21 2.52c-.1-.07-.22-.14-.33-.21l-.14-2.52c.06-.09.12-.19.18-.29Zm.73-.28c.02.11.04.22.06.32-.04 0-.08 0-.12-.01 0-.07-.02-.14-.02-.2.02-.03.05-.07.07-.11Zm-.56.73c.06-.04.13-.13.22-.25.05.04.09.08.14.12.07.57.12 1.12.18 1.64l-.34-.06-.21-1.45Zm.56.04.19.16c.11.53.19.89.25 1.17-.04.07-.09.14-.13.21l-.1-.02c-.08-.54-.14-1.06-.2-1.51Zm.78.62s.05.04.08.06l-.07.1c0-.06 0-.11-.01-.17Zm-.57.98h.06s-.03.03-.05.06v-.06Zm1.03-2.85c0 .07 0 .14.01.22v-.23Zm-.4.58s-.1.07-.16.1c-.03-.51-.05-.93-.05-1.21l.08-.11c.03.29.08.72.14 1.22Zm-1.49.04-.03-.23c.08-.51.2-1.12.21-1.56.05.43.11.86.16 1.28l-.33.51Zm-.36-4.91h.14c0 .04 0 .07.01.11-.05-.03-.1-.07-.15-.1Zm-.18 5.74.06-.09c.07.64.14 1.39.22 2.11-.13-.08-.24-.16-.38-.24l.39.41c0 .07.01.15.02.22-.16-.11-.32-.23-.49-.34.12-.48.19-1.16.17-2.06Zm.42 2.31.25.26s-.02.03-.03.05c-.07-.05-.13-.09-.21-.14v-.17Zm.17.38c-.05.07-.09.15-.14.22l-.02-.34c.05.04.11.08.16.12Zm.24-1.49.34.15c.01.13.03.26.04.39-.08.13-.17.26-.25.38l-.13-.93Zm3.3-3.91-.22-.36c.1.08.2.15.31.23-.03.04-.06.09-.09.13Zm-.19.28c-.13.19-.26.39-.39.58-.03-.54-.05-1.06-.06-1.52.13.09.25.19.38.28.02.21.05.43.07.66Zm-9.67 13.94c.8-.89 1.61-1.8 2.46-2.71-.66 1.06-1.32 2.13-1.97 3.2-.16-.17-.33-.32-.5-.48Zm10.73-16.06-.12.03.03.62-.57.84c-.03-.47-.07-.95-.1-1.43l-.52-.06c.03.38.08.86.14 1.41l-.38-.62v-.55l.17-.25h.07v-.1c.16-.23.32-.46.47-.68l.06.84c.24.02.46.02.64-.04v-.1c.04.02.07.04.12.07h.01c-.06-.04-.09-.06-.13-.08 0-.19-.02-.38-.03-.57-.16-.12-.32-.25-.48-.38.1-.15.22-.32.32-.47.04 0 .08 0 .12-.01.01.29.03.57.04.86.21.17.42.33.61.49-.07.1-.14.21-.21.31-.09-.05-.19-.11-.25-.15Zm2.6 71.64c-.02.81-.06 1.62-.13 2.42-.06.71-.13 1.42-.22 2.12-1.07-.12-2.12-.1-3.04.04-.11-.01-.21-.03-.22-.06-.04.04-.08.08-.16.13l-.34.06c-.3.07-.55.15-.81.23-.19.03-.38.05-.56.07l-.57-.03c.13.02.24.04.34.06-.68.09-1.35.2-2.04.26.91-.37 1.68-.5 2.44-.65-.3-.03-1.48.21-1.74.08 2.05-.5 4.14-1.07 5.15-1.15-.79.07-1.58.12-2.38.14.87-.26 2.38-.84 3.15-.96.58-.26-.45-.15-1.44-.12-.98.03-1.94 0-1.16-.34-.41.05-.8.08-1.11.05.4-.49 2.92-1.11 0-1.24l3.72-.68c-.89-.3-4.69.9-6.18.35-1.25-.41 3.19-.48 4.22-.74-1.91-.05-5.82-.28-2.78-.97.72.12.17.28.46.42l2.07-.49c2.32.16 2.57.35 3.35.31 0 .2-.01.4-.02.59-.33.07-.5.11 0 .08Zm-17.84-17.15.06-.37c1.02.18 2.15.47 3.27.79l-2.14-.09c2.03.55 4.28 1.1 6.27 1.39-.38-.11-.7-.26-.88-.39.55.14 1.04.26 1.39.29.36.04-.38-.16-1.22-.43l3.8.5-1.49-.3 2.52-.48c-.78-.28-1.63-.59-2.51-.9.18-.16.37-.31.6-.46.61-.04 1.76.24 2.2.39l-1.55-.84c.11-.08.22-.15.34-.24l-.38.22-1.37-.74c2.66.57 2.05.21 3.2.2-1.42-.25-2.31-.46-2.9-.67.51-.37.75-.61.81-.75.32.16.44.31.24.45 2.11.19.41-.36-1.22-.92.86-.54 1.74-1.05 2.6-1.51.51.76.99 1.53 1.44 2.31-.38.53-.25.94-.09 1.4.22.59.47 1.28-.4 2.22.66-.19 1.37-.32 2.08-.59.08.16.16.32.24.49.14.32.26.64.39.96 0 .35.02.7.03 1.08v.94c-.16.06-.31.1-.48.17h.48v.29c-.4.11-.79.22-1.05.39.36-.12.71-.22 1.05-.3 0 .55.01 1.1 0 1.64 0 .86 0 1.66.03 2.35-1.33-.02-3.5.08-3.89-.4 1.35-.39-.02-.82-2.01-1.64 1.21-.23 2.08.27 3.07.25l-2.69-.59c.07-.07.91.05 1.33.1-1.03-.38-3.41-.39-4.29-.94-1.87-.28-.47-.36.87-.47 1.34-.12 2.63-.26.54-.82.98 0 2.08.36 3.4.5-2.69-1.11-1.94-.9-5.59-2.1l2.31-.18c-2.61-.02-5.54-1.01-7.93-1.93-.18 0-.36-.02-.53-.02 0-.06.02-.11.03-.17.17.07.33.12.5.19l.71.03c-.42-.11-.81-.22-1.2-.32Zm17.86 16.3c-4.22.03.28-1.29-6.24-1.12l1.53-.32c-.07.08.36.08.29.15 3.48-.61-5.29-.23-4.26-.99.55-.26 1.61-.45 2.48-.3l-1.81-.53c.12-.13 1-.13 1.22-.04l-.54-.76h.22c-1.15-.11-2.91-.39-3.66-.54 1.05-.21.77.12 1.68.07l-1.76-.49c1.89-.16 3.72.25 3.45.56 7.28-.34-1.83-.41 2.44-1.22l.92.43c2.95-.12 3.05-.32 3.8-.55.07.72.13 1.45.17 2.18.07 1.16.1 2.31.09 3.46Zm-7.07 13.53Zm-1.14-6.22s-.05.04-.08.06c-.02 0-.04 0-.06-.01.05-.02.09-.03.14-.05Zm-.27.1.1.03c-.2.14-.39.28-.55.41-.23.02-.4.02-.44-.05.32-.17.62-.29.89-.39Zm2.55-14.26 3.43.19c-.97-.36-2.73-.44-4.26-.72.31-.3 2.3-.27 4.28-.21.03.85.1 1.5.28 1.78.06-.57.09-1.17.12-1.77.2 0 .4.01.59.02.16-.14-.11-.2-.58-.22.04-.95.05-1.92.02-2.93 0-.38-.03-.77-.06-1.16.17-.03.32-.06.47-.08.08.24.16.47.23.71l-.13.08c.04 0 .1-.01.15-.02.06.19.13.38.19.58a.7.7 0 0 0-.19.15c.25-.03.16.06.26.08.2.69.38 1.38.55 2.08.1.64.19 1.29.26 1.93l-.64-.05c-.91 0-.98.07-1.13.2l1.77-.13c.02.17.04.34.05.51-2.1.16-5.48.45-6.86.06.55-.12.82-.28-.64-.6 2.59.1 1.97-.17 1.83-.48Zm3.71-6.49c-.01-.1-.03-.21-.04-.31.14.36.28.72.41 1.08-.1.03-.21.08-.3.11-.02-.29-.05-.58-.07-.88Zm.51 1.2s.01.03.02.05c-.13.04-.27.08-.43.12 0-.06 0-.12-.01-.18h.42Zm-5.47 6.38c.54.14 2.21.41.68.46-2.97-.2-1.54-.29-.68-.46Zm-1.34-14.59c-.21.17-.41.37-.64.59-1.37-.47-2.5-.89-.95-.78.02.13-.27.13.62.38-1.33-.56-.39-.93.89-.64 0 .16.01.32.09.45Zm.06 3.65-.56.32c-.42-.15-.85-.3-1.27-.45.03-.04.06-.08.09-.13-.06.03-.13.06-.19.09-.44-.16-.88-.32-1.31-.48.64-.28 1.19-.42 1.74-.55.62.4 1.94.98 1.48 1.21h.02Zm-1.79-9.9c.1.12.2.25.29.37-.25-.1-.48-.2-.67-.29.06-.05.12-.1.18-.14.06.02.13.05.2.07Zm.42 1.31s-.03.02-.05.04c-.02-.02-.03-.04-.05-.06.03 0 .06.01.09.02Zm-.4 0 .13.13c-.11-.04-.21-.07-.31-.1l.18-.03Zm1.99 1.29c.06.08.13.16.19.25l-.42-.12c.08-.04.16-.09.23-.13Zm-3.63-.19c.07.02.21.06.4.11-.13-.04-.26-.07-.4-.11Zm-4.7 4.33-.03.06c-.03-.03-.08-.07-.11-.1.05.02.09.03.14.04Zm.1.18c.06-.04.1-.07.15-.11.04.01.08.02.12.04-.02.08-.05.16-.07.24-.07-.05-.14-.11-.2-.16Zm5.12-4.63c-.45-.18-.9-.37-1.34-.56.02-.02.04-.03.06-.05l1.64-.26c.24.08.47.15.71.22-.19.14-.37.28-.56.42l-1.1-.3 1.02.36c-.1.07-.19.14-.29.21-.04-.02-.09-.03-.13-.04Zm2.57.6.11.04.32.34-.56-.16c-.05-.02-.1-.04-.15-.05.1-.06.19-.11.28-.16Zm.62.36s-.04.03-.06.05l-.11-.03c-.07-.1-.16-.2-.23-.3l.53.19s-.09.08-.13.11v.06l-.05-.02s.03-.02.05-.04v-.02Zm-6.27-2.88s.04.04.04.08l-1.01.16c-.06-.02-.12-.05-.18-.07.35-.15.63-.24.84-.26.11.03.21.06.31.09Zm-.97.24 1.01-.16c-.1.12-.25.25-.42.41-.2-.08-.4-.16-.6-.25Zm-.03 6.44c1.6.42 3 .64 4.82.99-.21.14-.43.28-.68.42.23-.1.52-.25.81-.39.18.04.37.07.56.11l-.16.13c-.17.02-.23.07-.19.14-.88.64-.56-.06-1.7.69-1.47-.56-2.8-1.13-3.72-1.68.09-.14.17-.28.25-.41Zm3.14 3.36c.07.02.12.04.17.06-.16.09-.27.18-.28.26-.15 0-.31.01-.51.01-.19-.16-.07-.29.62-.32Zm.39.25s-.02 0-.03.01c.01 0 .02 0 .03-.01Zm2.46-2.88s-.05-.04-.08-.07c.06 0 .1 0 .13.02-.02.02-.03.03-.05.04Zm-.16-.14s-.07-.07-.1-.11c.26-.17.51-.34.77-.51.28.08.54.16.75.24-.36.04-.91.21-1.43.38Zm-.18-.23c-.16-.25-.24-.5-.81-.79.46.1.91.2 1.33.31-.16.15-.33.31-.52.48Zm1.55-3.08c-.29-.31-.74-.63-1.37-.96.1-.06.21-.12.31-.18.13.06.25.11.38.17.27.08.54.16.81.23 0 .24-.05.49-.13.74Zm8.89 22.79v.06-.06Zm-.02.24h.03c.06 1.34.09 2.69.05 4.03 0 .25-.03.49-.04.73-.22-.04-.44-.09-.66-.12.28-1.39.49-2.93.62-4.64Zm-2.61-73.16.7-.06.07.05-.25.37c-.17-.11-.35-.24-.52-.36Zm.8-.07Zm5.43 99.12c.06.05.1.1.13.13a.8.8 0 0 1-.13-.13ZM338.65 400h-.27c.02-.11.03-.21.05-.32.17-.23.33-.43.49-.57-.1.31-.19.6-.27.89Zm-3.67-2.12c0 .12 0 .24-.01.36-.02.05-.04.09-.06.14-.01.23-.03.47-.04.71.03-.1.05-.19.08-.28-.01.36-.03.71-.04 1.06h-.09c.01-.26.03-.51.04-.77-.07.25-.15.51-.22.77-.11 0-.21 0-.32-.01.19-.51.39-1 .58-1.47l.03-.51h.04Zm10.67 2.29v-.02s.06.01.08.02h-.08Zm-87.68-9.73c-.34-.35-.71-.73-1.09-1.11a.138.138 0 0 1-.03-.04l1.12 1.15Zm-.28-.28c-.5-.51-.71-.73-.75-.77.26.27.52.53.76.78Zm-.75-.77c.06.06.52.53 1.02 1.05l-.51-.52c-.41-.42-.06-.05.51.52l-.65-.67.65.67-.95-.98s-.04-.05-.07-.07Zm1.02 1.07-.83-.86.84.87Zm191.62 118.1c.09.08.18.17.27.26-.09-.08-.17-.16-.27-.25Zm.2.18s-.11-.1-.19-.19c.14.14.3.29.46.45-.09-.08-.18-.17-.27-.25ZM176.5 281.67c-3.97.16-7.74.05-9.75-.72 6.39-2.84 11.3-1.25 20.71.2-2.8.05-6.99.43-10.96.52Zm24.91-147.83c-.02-2.54-.11-5.28.26-8.13.36-2.85.95-5.83 1.9-8.86.05 4.07-1.27 9.93-2.16 16.99Zm55.39 255.39c.66.68.93.95 1.04 1.06l.01.01-.01-.01.05.05.09.09-.87-.89a267.853 267.853 0 0 0-.27-.27c-.01-.01-.02-.03-.04-.04Zm-.53-.53c.26.27.21.21 0 0Zm.01.02c.17.17.34.35.52.53 0 0 0 .01.02.02-.17-.18-.34-.35-.51-.52l-.03-.03Zm.08.09c.16.16.32.33.48.5.01.01.02.03.03.04l-.45-.47s-.04-.05-.07-.07Zm.53.55c-.09-.09-.24-.25-.42-.43-.01-.01-.02-.03-.03-.04.23.23.37.39.45.47Zm-.42-.43c.14.14.28.29.43.45-.14-.15-.28-.29-.42-.44l-.01-.01Zm.08.09-.03-.03.4.41c-.1-.1-.2-.21-.3-.31.06.06.17.18.3.31-.14-.14-.27-.28-.38-.4Zm.58.61c.28.29.59.61.68.7-.23-.24-.45-.47-.67-.69Zm.79.83s0 .01.02.02l-.02-.02Zm-1.89-.63.09.09c-.75-.67-.46-.41-.09-.09ZM449.5 508.79l-.06-.05c.02.02.04.04.06.05Zm0-.12.02-.02c.05.05.11.1.16.15-.06-.04-.12-.09-.18-.13Zm.21.15c-.07-.07-.13-.12-.19-.18 0 0 0-.01.01-.02.1.09.2.19.3.29l-.12-.09Zm-.17-.2c.11.11.22.21.33.32h-.01l-.32-.31Zm.33.32c-.12-.11-.23-.22-.33-.32.1.1.22.21.36.34-.01 0-.02-.02-.03-.02Zm.06.04c-.14-.13-.26-.25-.38-.37l.39.37Zm0 0-.39-.37c.13.12.26.25.4.38Zm-.09-.11c.09.09.18.16.25.23a.304.304 0 0 0-.07-.05c-.05-.05-.11-.11-.18-.17Zm.41.35-.04-.04.05.04Zm.3.28.02.02-.03-.03Zm.18.17-.08-.08-.09-.09c.05.06.1.1.16.16Zm-.37-.37c-.31-.3-.35-.34-.32-.32-.06-.06-.2-.19-.46-.44l.8.77s-.01 0-.02-.01Zm.02.02c-.3-.3-.63-.61-.66-.64l.66.64Zm.02.02c-.28-.28-.56-.54-.82-.8l.05.04c.24.23.51.5.79.77 0 0-.01 0-.02-.01Zm.07.05c-.08-.08-.16-.16-.24-.23.09.09.17.16.24.24Zm-.58-.57.04.03.54.53.02.02h-.01c-.18-.17-.38-.37-.59-.58Zm.63.6-.46-.45.46.45h-.01Zm.04.03c-.12-.11-.23-.23-.35-.34l.08.07.29.29h-.01l-.08-.08c.03.03.06.05.08.08Zm.25.24h.01c.5.49.69.68-.01 0Zm-.21-.21-.23-.22.03.03.21.21Zm.02.01c-.06-.06-.12-.12-.18-.17h.01c.06.07.11.12.17.18Zm286.36-107.16c-.21-.1-.51-.25-.77-.38.05.02.11.04.16.07.11.05.23.11.4.19.09.04.16.07.24.11.04.02.02.03-.04.01Zm-1-.81.15.07h-.02c-.04-.02-.09-.04-.13-.06Zm-.47-.22s.12.05.41.19c-.14-.06-.27-.13-.41-.19Zm-2.95-1s.08.04.13.06c-.06-.03-.12-.05-.18-.08l.05.02Zm.74.31s.05.02.09.04h-.01c-.03-.01-.06-.03-.08-.04Zm-8.31-3.35Zm11.53 4.92s-.07-.03-.11-.05c.06.03.1.05.15.07h-.01s-.01 0-.02-.01Zm-.06-.12c.22.1.36.16.45.21-.17-.08-.32-.15-.46-.21Zm-2.19-1.21c.15.07.38.17.63.28.22.1.44.21.65.3-.02 0-.05-.01-.07-.02-.42-.19-.83-.39-1.21-.57Zm2.17.87c-.48-.23-.57-.27.17.07-.06-.02-.11-.05-.17-.07Zm-20.25-9.44-.12-.06.12.06Zm-.14.05s.06.03.09.04c-.09-.04-.19-.09-.29-.14l.2.09Zm-2.68-1.2s.1.05.15.07l-.15-.07Zm2.39 1.32.28.13c-.09-.04-.18-.08-.28-.13Zm9.19 4.9c-.03.19-.05.36-.07.49-.07.43-.07.39.07-.49Zm.01-.08Zm.72 12.36v.13-.13Zm-.11-7.99c-.14-.38.04 1.59.12 3.26.1 1.67.09 3.03-.19 1.41-.17-2.88-.34-5.74-.46-7.81-.06-1.09.17 1.82.22 1.7l-.16-1.36c-.06-.96-.14-1.68-.05-.85-.03-.27-.05-.49-.07-.66.12.63.24 1.24.36 1.83.36 1.98.59 3.68.64 4.73-.01 1.14-.47-2.89-.41-2.25Zm.07-3.75 2.68 2.75c-.77-.79-1.91-1.95-3.13-3.19l.44.44Zm-.45-.45s-.08-.04-.12-.07c1.85 2.73 3.46 5.34 3.96 6.32l-.96-1.48c.32.59.63 1.19.92 1.8-.95-1.7-2.37-4.16-3.92-6.65 0 0-.01 0-.02-.01 1.05 2.23 2.57 5.45 3.02 6.41-.16-.23-1.85-3.49-2.6-5.38-.13-.32-.29-.68-.44-1.05.33 1 .59 1.84.68 2.15-.22-.7-.49-1.56-.68-2.15 0 0-.02 0-.03-.01v-.06s0 .02.01.03v-.03.03c0 .02.01.03.02.05l1.62 3.64-1.62-3.63h.02a.3.3 0 0 0-.04-.08c.02.03.04.06.05.09h.01c-.02-.04-.05-.07-.07-.11 0 0 0-.02-.01-.02l.2.2Zm12.08 5.52c-.72-.35-.44-.21.05.03l-.59-.28h.03c.15.07.31.15.52.25Zm-1.35-1s-.09-.04-.14-.07c-.28-.14-.53-.25-.74-.36-.22-.11-.33-.17-.17-.11.52.25 1 .47 1.44.68-.14-.05-.27-.1-.38-.14Zm.84.33h.01c.28.13.2.09-.01 0Zm-.13-.11.26.12h-.02l-.23-.11Zm.58.23c.49.22.73.33.82.37-.28-.13-.58-.27-.87-.4a.988.988 0 0 1-.15-.09c.16.07.33.15.53.24-.22-.1-.45-.22-.62-.3-.03-.02-.05-.03-.07-.05.02 0 .03.01.05.02.1.05.18.08.29.13-.1-.05-.19-.09-.28-.13.02 0 .02 0 .04.02l1.29.6-.11-.03s-.05-.02-.08-.04c-.21-.1-.32-.15-.5-.23.26.12.47.23.52.25h-.01l-.2-.05c-.26-.13-.46-.24-.61-.32Zm2.16.68.12.06-1.29-.59s.03 0 .04.01l1.13.52Zm-2.56-1.21.17.08h-.02c-.05-.02-.1-.05-.15-.07Zm1.06.46c-.16-.07-.36-.16-.61-.26l-.09-.04.09.04s-.07-.03-.11-.04c-.63-.29-1.28-.6-1.78-.83.02 0 .04.01.06.02.46.21.98.46 1.44.67l-1.38-.65c.31.15.8.38.89.42l-.52-.25.19.09c-.15-.07-.31-.15-.48-.23.01 0 .02 0 .03.01.08.04.15.07.18.09 1 .47 1.66.78 2.07.97Zm-1.89-.9c.49.23 2.01.95.63.3-.38-.18-.67-.31-.9-.42h.01c.09.04.18.08.26.12Zm-.45-.46h-.01c-.03-.02-.07-.03-.11-.05s.08.04.11.05Z" class="uuid-2f28e882-534a-4bf7-8439-4d1cdff13c04"></path><path d="M739.7 404.18c.09.06 1.13.54 0 0ZM740.77 404.56c-.74-.35-1.96-.94-2.9-1.39l.84.41c.5.24.97.46 2.06.98ZM740.89 404.56l1.7.82-2.57-1.24.87.42zM739.09 403.71l-2.07-.99h-.03c.45.2 1.61.75 2.1.99ZM737.78 403.03c-.9-.44-.97-.48-1.11-.55-.41-.19-.63-.28-.63-.28.65.31 1.67.79 1.75.83ZM737.2 402.78s-.07-.03-.12-.06c-.18-.08-.23-.11.12.06ZM736.71 402.43c-.11-.05-.26-.12-.38-.18.12.06.24.11.36.17h.02ZM738.77 403.46c-.44-.2-.8-.38-1.14-.53.66.31 1.68.79 1.14.53ZM737.65 402.99s.07.03.09.04c.45.21.23.11-.09-.04ZM736.13 402.18l.23.12c.34.16 1.11.52 2.61 1.23-.94-.45-1.65-.79-2.29-1.1l-.28-.11-.29-.14ZM737.75 402.92l2.21 1.05-3.12-1.48.91.43zM737.49 402.78l1.93.91-1.16-.56-.77-.35zM736.14 401.51l.95.45-.95-.45ZM740.03 403.45c.11.05.21.1.31.15l-.31-.15ZM740.34 403.59l.69.32c-.17-.08-.41-.19-.69-.32ZM739.15 403.03l.88.41-.88-.41ZM741.03 403.91c.16.07.26.12.27.13l-.27-.13ZM715.84 392c-.47-.22-.9-.42-1.28-.61.52.24.92.43 1.28.61ZM737.21 402.63c-.1-.04-.14-.06-.25-.12.29.13.3.14.25.12ZM738.45 403.13c.14.07.23.11 0 0ZM737.49 402.69l.63.29c-.16-.08-.37-.17-.63-.29Z" class="uuid-2f28e882-534a-4bf7-8439-4d1cdff13c04"></path><path d="M738.49 403.15c-.1-.04-.15-.07-.21-.09.35.17.57.27.21.09ZM738.34 403.07s-.07-.03-.22-.1c.14.07.26.12.33.16-.03-.02-.07-.04-.11-.06ZM715.54 392.04l.1.05c.02 0 .05.02.07.03l-.18-.08ZM737.11 402.56l.08.03s-.06-.03-.08-.03ZM738.06 402.4c.01 0 .02.01.03.02h-.03ZM740.43 403.52c.7.33.97.46 1.36.64-.35-.17-.84-.4-2.1-.99.11.05.22.1.33.16l.41.2Z" class="uuid-2f28e882-534a-4bf7-8439-4d1cdff13c04"></path><path d="M740.26 403.44c.17.08.35.17.55.26l.07.03h-.01l-.28-.14-.15-.07c-.25-.12-.55-.26-.93-.44.16.07.43.2.75.36ZM738.75 402.85s-.01 0-.03-.01l.42.2-.4-.19ZM738.11 403.02c.55.26 1.34.63 1.38.65l-.6-.3c.11.06-.4-.18-.77-.35ZM736.84 402.36c-.51-.24 2.52 1.19 1.72.81 2.51 1.19-3.03-1.45-1.72-.81ZM738.73 402.71s.05.02.07.03l-.07-.03Z" class="uuid-2f28e882-534a-4bf7-8439-4d1cdff13c04"></path><path d="M738.73 402.71c-.06-.03-.14-.06-.29-.14l.46.22c.3.14.55.26.79.37-.46-.22-.91-.43-1.35-.64l-.66-.31.1.05.52.25c-.07-.03-.14-.06-.21-.1l.3.14.34.16ZM743.27 404.9s.03.02.05.02c0 0-.01 0-.05-.02Z" class="uuid-2f28e882-534a-4bf7-8439-4d1cdff13c04"></path><path d="M743.66 405.09c-.1-.05-.23-.11-.35-.17 0 0-2.97-1.38.35.17ZM718.75 411.83c-.06.15-.09.24-.13.36.01.03-.01-.03.05.12.55-1.39.6-1.14.08-.48ZM718.22 414.4c.28-.67.61-1.49 1.16-2.83l-.62 1.19c-.27.84-.34 1.03-.54 1.64ZM720.24 409.51c.09-.17 0 0 .26-.51l-.26.51ZM720.24 409.51l-.21.38c-.23.45-.18.36-.35.68l.56-1.06ZM719.83 410c.31-.78.5-1.26.99-2.5-.36.42-1.41 2.91-.99 2.5ZM720.5 410.67l-.39.85c-.13.54-.2 1.06-.57 2.21.24-.78.65-2.07.97-3.07ZM720.5 410.67l.57-1.29c-.06-.19-.29.43-.57 1.29ZM720.82 407.72c.43-.9.85-1.8 1.25-2.71l-.04.03c-.39.9-.8 1.79-1.22 2.68ZM720.51 413.14l-.35.9-.63 1.78.98-2.68zM720.71 413.85c-.38 1.52-.65 2.57-.88 3.5.23-.23.68-1.5 1.06-2.65-.27.63-.36.43-.18-.85Z" class="uuid-2f28e882-534a-4bf7-8439-4d1cdff13c04"></path><path d="M721.45 413.02c-.13.35-.34 1-.57 1.68.14-.34.32-.83.57-1.68ZM721.21 409.88s-.03-.03-.04-.05c-.13.47-.49 1.71-.56 2.26l.6-2.21Z" class="uuid-2f28e882-534a-4bf7-8439-4d1cdff13c04"></path><path d="m721.23 409.81-.02.07c.04.06.07.13.08.16 0-.02-.03-.09-.06-.23ZM723.12 402.73c-.54 1.48-.92 2.52-1.58 4.34.5-1.19 1.01-2.46 1.58-4.34ZM721.34 408.55l.61-1.49.06-.53c-.19.58-.47 1.41-.67 2.02ZM722.22 406.38l-.27.69-.01.19.28-.88zM722.08 408.97c-.16.7-.41 1.81-.43 1.89.31-.95.4-1.02.51-1.16.02-.46 0-.72-.09-.73ZM721.53 410.03l-.05.12c.04-.11.03-.07.05-.12ZM722.98 409.88c.02-.13.04-.28.05-.41-.02.13-.04.26-.07.39v.02ZM721.83 409.32c.1-.21.19-.34.24-.35.06-.28.07-.32.09-.42.05-.44-.12.09-.33.77ZM721.96 412.03c.05-.48.09-.89.13-1.26-.12.72-.27 1.84-.13 1.26ZM721.39 410.65c-.02.05 0 .02-.04.1 0-.02.02-.06.04-.1ZM721.39 410.65c.11-.31.29-.85.45-1.33-.07.17-.17.4-.3.71-.04.16-.09.4-.14.62Z" class="uuid-2f28e882-534a-4bf7-8439-4d1cdff13c04"></path><path d="m722.78 409.2-.11.25c0 .38-.11 1.22-.28 2.88.31-1 .45-1.78.58-2.47l-.26-.35.08-.31Z" class="uuid-2f28e882-534a-4bf7-8439-4d1cdff13c04"></path><path d="M722.4 409.4c.55-2.25.84-3.2 1.29-5.66-.13.14-.48 1.88-.77 2.84.35-.51-.36 1.24-.46 2.56-.14.37-.22.48-.29.56-.01.29-.03.64-.07 1.07 0-.05.01-.09.02-.14s0-.01 0-.03c.04-.2.04-.18.06-.29 0-.03.01-.04.02-.04-.03.11-.05.22-.08.34v.03c.2-.39.38-.78.56-1.18 0-.33-.09-.28-.28-.05Zm-.14.58c.01-.06.03-.12.04-.18-.02.07-.03.13-.04.18ZM724.6 398.54l.17-.51c-.07.19-.12.35-.17.51ZM724.34 399.36c-.11.3-.26.73-.34.95l.59-1.77c-.2.58-.53 1.57-.89 2.64l.11-.3c-.23.76-1.05 3.53-1.14 3.83.62-1.99 1.06-3.41 1.67-5.36ZM723.26 403.75l.4-1.07.46-1.95-.3 1.16c.07-.47-.3.96-.55 1.86ZM722.83 411.02l-.43 2.41c.25-1.13.48-2.25.71-3.38l-.28.98ZM723.23 411.63l.02-.85-.3 2.11.28-1.26zM736.13 401.44c.54.2.94.35.98.36l-.98-.36ZM732.98 408.02c1.27 1.53 3.3 3.85 1.83 1.97l-1.45-1.82c.18.39-.04.22-.38-.14ZM740.17 398.93c1.16.07 2.36.14 2.37.14l-2.37-.14ZM727.33 409.82c.28.87.46 1.23.58 1.32-.43-1.28-.89-3.23-.58-1.32ZM715.07 393.77c-.48-.19-.93-.36-1.32-.51.53.21.95.37 1.32.51Z" class="uuid-2f28e882-534a-4bf7-8439-4d1cdff13c04"></path><path d="M727.91 411.14c.31.95.61 1.51.37-.09l-.19-.52c0 .4-.03.73-.18.61ZM734.18 387.75s-.06.06-.15.13c.06-.06.11-.09.15-.13ZM734.23 387.7s-.04.04-.06.05c.04-.04.03-.03.06-.05ZM724.84 401.56c-.03.56-.05.92-.06 1.13.01-.26.03-.59.06-1.13ZM724.7 410.85c.04.29.07.51.1.69-.02-.17-.06-.41-.1-.69ZM724.62 411.72c.05.15.02.08.08.23-.03-.11-.05-.16-.08-.23ZM724.95 411.78s-.04-.07-.15-.24c0 .16.01.29.02.37.04-.04.09-.08.13-.12ZM731.7 394.95s-.05.02-.08.02c.02 0 .03 0 .08-.02ZM731.62 394.97ZM731.61 394.97s-.07.02-.13.04c.09-.03.11-.03.13-.04ZM734.46 388.08s.03-.02.07-.05l-.07.05ZM725.06 397.36v-.01.01ZM725.05 397.31c0 .01 0 .03.01.04 0-.01 0-.02-.01-.03ZM740.17 398.93l-.47-.04.03.01.44.03ZM723.91 411.52c-.06.6-.14 1.48-.14 1.52l.25-.66c-.11.12-.1-.45-.12-.86ZM724.37 404.44c.19-2.17.08-1.44-.02-1.04-.35 3.03-.15 2.04 0 1.04ZM724.33 403.47l-.06.05c.04-.03.02-.02.06-.05ZM725.11 410.12c-.02.46-.04 1.17-.07 1.9-.04 2.78.4-3.36.07-1.9ZM724.98 399.26v-.74c-.02.45-.04.72-.05.92.01.09.03.63.05-.17ZM724.88 399.88s.03-.12.05-.44c0-.05-.02 0-.05.44ZM725.12 397.88c.09.64.14.99.27 1.87l-.08-.77c-.13-.76-.14-.8-.19-1.1ZM740.37 404.19l.12.12c-.22-.11-.46-.22-.76-.37.18.09.45.22.76.37.05.03.11.08.21.13l-.1-.05c.04.02.07.04.12.06.13.07.32.17.62.31l.63.28c.73.35 1.34.64 1.89.9-.22-.11-1.16-.56-2.11-1.03l-1.38-.73ZM740.41 402.26l-2.92-.98 2.98 1.03-.06-.05zM744.82 401.29c-3.4-.72-.71-.08-.45.15.14-.05.53-.05.45-.15ZM744.33 401.5c.07-.01.07-.03.04-.06-.04.02-.07.04-.04.06ZM443.73 434.34c-.23-.01 1.72 1.12 2.06 1.34-.33-.41-2.56-1.64-2.06-1.34ZM448.33 432.29c.15.08.23.11.34.17 0-.04.03-.08.17-.1-1.3-.74-.99-.84-.51-.07Z" class="uuid-2f28e882-534a-4bf7-8439-4d1cdff13c04"></path><path d="M448.67 432.46c0 .2 1.13.56 0 0ZM450.95 432.98c-.49-.58-1.26-1.01-2.56-1.66l1.01.9c.78.42 1.06.36 1.56.76ZM446.13 429.66l.41.4c.33.18.45.22-.41-.4ZM446.54 430.06c-.54-.3-1.6-.95.3.33-.95-.62-.05 0 .57.52l-.87-.84ZM446.84 430.72c-.78-.33-1.32-.46-2.32-1.36.2.65 2.53 2.02 2.32 1.36ZM450.85 431.16c-.68-.45-1.89-1.09-2.78-1.63l.7.64c.52.22 1.05.35 2.08.99ZM447.02 428.58c-.26.11.28.49 1.05.96l-1.05-.96ZM452.99 431.53l-2.28-1.74.76.61 1.52 1.13zM452.46 429.68c.49.48.26.52-.93 0 1.26.92 2.32 1.29 3.07 1.9-.14-.3-1.2-1.14-2.14-1.9ZM452.46 429.68c-.26-.26-.66-.6-1.36-1.13.28.26.8.68 1.36 1.13ZM449.69 429.49l-2-1.14s-.05.04-.08.07c.43.25 1.54.9 2.08 1.07Z" class="uuid-2f28e882-534a-4bf7-8439-4d1cdff13c04"></path><path d="m447.62 428.32.06.04c.1-.07.19-.1.23-.12-.03.01-.12.04-.29.08ZM447.58 428.44s.02 0 .02-.02c-.2-.11-.26-.15-.02.02ZM447.35 426.82c.6.4 1.65 1.15 1.68.97-.78-.63-.78-.79-.84-1-.47-.11-.76-.1-.84.03ZM448.18 427.94s-.06-.06-.1-.09c-.17-.09-.23-.11.1.09ZM448.99 425.59c-.11-.06-.25-.14-.36-.21l.33.22h.03ZM446.98 426.62c-.44-.14 0 .22.56.66-.15-.2-.22-.36-.18-.45-.27-.18-.45-.3-.38-.21ZM450.41 427.64c-.44-.21-.82-.37-1.17-.51.65.34 1.67.84 1.17.51ZM448.64 428.15s.05.05.08.07c.44.23.23.11-.08-.07ZM448.08 427.85c.15.08.36.2.56.31-.25-.23-.7-.57-1.1-.88.11.16.29.34.54.57ZM448.16 425.71l.16.23c.38.09 1.15.47 2.64 1.23-.78-.71-1.42-1.17-2.01-1.56l-.55.3-.25-.2ZM449.98 426.17l2.03 1.36-2.77-2.07.74.71zM450.05 425.53l1.77 1.17-.99-.82-.78-.35zM452.49 420.14c.85.36 1.24.47 1.39.43-1.22-.57-2.98-1.55-1.39-.43Z" class="uuid-2f28e882-534a-4bf7-8439-4d1cdff13c04"></path><path d="M453.88 420.58c.91.43 1.51.63.25-.4-.2-.09-.33-.15-.5-.23.26.32.46.59.26.63ZM452.14 424.15c.06.18.21.16 0 0ZM451.15 423.73c.27.12.49.2.67.25a5.16 5.16 0 0 0-.67-.25ZM452.09 424.31c-.11-.02-.18-.03-.25-.03.32.22.53.35.25.03ZM452.13 423.94c0 .08-.13.07-.31.03.14.07.26.13.32.18a.665.665 0 0 1-.01-.21ZM452.41 425.78l.04.06-.04-.06ZM452.02 425.25c.04.18-.46-.09-.84-.26.44.28 1.06.63 1.22.79l-.38-.52ZM450.86 422.85c-.52-.23 2.31 1.56 1.54 1.12 2.27 1.59-2.5-2.32-1.54-1.12ZM459.13 486.92c-.2.21 2.05.2 2.45.24-.49-.39-3.04-.24-2.45-.24ZM461.99 477.84c-1.47.28-1.32-.27-.42.49.16-.06.25-.08.37-.12-.03-.07-.04-.18.05-.37ZM461.94 478.21c.15.37 1.22-.37 0 0ZM460.89 476.59l1.39.33c.86-.21 1-.69 1.66-.6-.79-.43-1.64-.2-3.04.27ZM462.38 473.2c-.81.11-2.11.55-3.13.76l.98.2c.52-.28.96-.72 2.15-.96ZM462.06 471.05l1.92-.07-2.92.02 1 .05zM461.42 469.7c1.58-.12 2.49-.95 3.49-.92-.37-.34-1.76-.36-3-.36.73.15.65.54-.49 1.27Z" class="uuid-2f28e882-534a-4bf7-8439-4d1cdff13c04"></path><path d="M460.08 468.38c.41.06 1.1.05 1.83.05-.39-.08-.94-.11-1.83-.05ZM460.2 471.84l-2.2.67v.21c.48-.14 1.73-.47 2.2-.88ZM458.81 467.82c-.43.26-.78.51-1.1.76.67-.31 1.69-.88 1.1-.76ZM458.37 470.99s.08 0 .11.01c.46-.19.23-.13-.11-.01ZM439.28 478.05l-1.05-.03c.58.06 1 .08 1.05.03ZM418.91 446.11c-1.99-.39-5.01-1.08-2.75-.28l2.22.72c-.31-.38.01-.47.54-.44ZM435.9 467.82c.53 0 1.04-.02 1.54-.1l-1.54.1ZM442.04 485l2.36-.3c-.04-.18-1.21.11-2.36.3ZM455.45 459.94c.26.2.25-.07 0 0ZM438.56 478.77l.05.07s0-.05-.05-.07ZM434.95 467.32c.42.12.92.21 1.4.18-.44-.04-.92-.11-1.4-.18ZM441.61 485.05s-.01.01-.03.02c.16-.02.31-.05.46-.07l-.44.05ZM456.22 462.61c.56-.24 1.33-.67 1.44-.51l-.85-.29c.23.21-.26.52-.59.8ZM442.75 467.49l-.53.72.47-.34.06-.38zM459.14 488.51l1.17-.47-1.85.25.68.22zM442.56 479.7l.07-.08-3.15.21 3.08-.13zM452.32 510.2c1.49 1.31 3.81 3.34 2.01 1.76l-1.75-1.54c.31.28.12.11-.26-.22ZM454.82 513.53l.08.08-.08-.08ZM453.21 511.96c.33.33.67.65.96.93l-.96-.93ZM454.16 512.89l.66.65c-.12-.11-.36-.35-.66-.65ZM451.73 510.7c-.08-.07-.11-.11-.2-.19.23.22.24.23.2.19ZM451.87 510.63zM451.66 510.62l.06.06s-.05-.04-.06-.06ZM452.46 510.07a4.3 4.3 0 0 0-.26-.22c.96.83 1.6 1.39 1.68 1.46-.49-.42-.76-.66-1.43-1.24ZM452.89 511.65l-.02-.02.34.33-.31-.31ZM455.79 514.4l-.6-.59c-.65-.63-.7-.68-.8-.78l1.4 1.36ZM453.95 512.64l-2.26-2.2 2.21 2.15.05.05zM456.77 515.41c-.09-.09-.22-.21-.31-.31.41.4-2.51-2.43.31.31ZM449.38 509.21l1 1c-.3-.3-.64-.63-1-1ZM256.18 385.76c.25.44 1.77 2.47 1.43 2 .14.14-1.19-1.67-1.43-2ZM254.69 386.08s-.01.04-.09-.04c.45.51.65.75.7.81-.05-.06-.18-.24-.35-.49-.11-.12-.17-.19-.26-.28ZM255.29 386.85s.02.02 0 0ZM254.69 386.08c-.03-.12-.85-.93 0 0ZM253.15 384.5c.45.58 1.03 1.23 2 2.31l-.85-1.03c-.58-.66-.74-.79-1.15-1.28ZM256.96 388.94l-.36-.43c-.24-.28-.33-.37.36.43ZM256.6 388.5c.41.46 1.23 1.4-.27-.33.74.86.03.03-.49-.59l.76.92ZM256.24 388.01c.56.62.92 1 1.76 2.02-.31-.43-2.07-2.47-1.76-2.02ZM253.68 385.46c.55.61 1.45 1.62 2.15 2.39l-.6-.72c-.38-.41-.73-.79-1.54-1.68ZM256.73 388.92c.13.11-.31-.4-.91-1.07l.91 1.07ZM254.13 386.21l-.63-.73-1.25-1.41 1.88 2.14zM253.06 385.28c-.44-.51-.3-.41.59.52-1.06-1.15-1.79-1.95-2.44-2.66.17.23 1.05 1.24 1.85 2.14ZM253.31 385.57c.22.25.5.57.91 1.03-.2-.23-.54-.61-.91-1.03ZM253.06 385.28c.09.1.17.19.25.29-.1-.11-.18-.21-.25-.29ZM254.85 386.94l1.55 1.7.03.02c-.33-.36-1.21-1.31-1.58-1.71ZM256.44 388.69l-.05-.05s-.08-.06-.11-.08c.02.01.06.05.16.13ZM256.43 388.66c.15.16.2.22 0 0ZM256.21 388.55s.05.06.09.1c.13.14.18.19-.09-.1ZM256.38 389.2c.09.09.2.2.29.3l-.27-.29h-.02ZM254.9 387.43c.34.34.62.63.88.9-.5-.53-1.29-1.34-.88-.9ZM255.87 388.18s-.05-.06-.07-.08c-.34-.36-.17-.18.07.08Z" class="uuid-2f28e882-534a-4bf7-8439-4d1cdff13c04"></path><path d="M255.87 388.18c.22.25.6.67.93 1.05-.12-.14-.28-.32-.5-.58-.11-.12-.28-.3-.43-.47ZM256.87 389.62l-.17-.2c-.26-.27-.85-.87-2.02-2.07.69.78 1.23 1.35 1.72 1.87l.26.17.21.23ZM255.58 388.37l-1.67-1.78 2.34 2.53-.67-.75zM255.72 388.64l-1.47-1.54.88.95.59.59zM273.12 409.29c1.24 1.55 3.19 3.94 1.73 2.05l-1.43-1.84c.22.36.03.18-.29-.21ZM255.52 390.09c-.71-.57-1.03-.79-1.13-.84 1.05.83 2.58 2.14 1.13.84ZM254.38 389.25c-.78-.62-1.27-.99-.1.13.19.14.29.2.44.32-.27-.28-.49-.52-.35-.45ZM254.73 388.19c-.09-.12-.18-.18 0 0ZM255.51 388.91c-.21-.19-.39-.35-.51-.47.13.12.3.27.51.47ZM254.72 388.14c.08.07.13.1.17.14-.27-.28-.45-.45-.17-.14ZM254.8 388.3s.07.03.2.14c-.11-.11-.21-.2-.26-.26.02.03.05.07.07.11ZM255.96 388.98ZM257.91 390.36l-.01-.01c.01.01.01.02.01.01ZM257.9 390.35ZM255.31 387.72zM257.87 390.33l.02.02-.02-.02ZM255.24 387.65l.07.07c-.15-.15-.3-.31-.47-.48.05.05.12.12.2.21l.19.19.01.01Z" class="uuid-2f28e882-534a-4bf7-8439-4d1cdff13c04"></path><path d="m255.25 387.66-.02-.02-.06-.06a1.42 1.42 0 0 1-.12-.13c-.06-.06-.13-.13-.16-.17-.16-.17-.04-.04.25.25-.12-.12-.1-.1 0 0 .02.02.06.06.08.09l-.04-.04.08.08ZM255.15 388.27c-.42-.43-1.04-1.05-1.06-1.09l.43.52c-.07-.11.33.29.63.57ZM255.95 389.5c.41.38-1.98-1.96-1.34-1.35-1.97-1.96 2.32 2.43 1.34 1.35ZM38.83 305.7c3.3-1.76 5.44-2.85 6.99-3.73l-3.52 1.81-3.46 1.92ZM100.94 286.13l1.22-1.26c-2.56.99-3.54 1.65-1.22 1.26ZM213.19 168c-.21-.68-.47-1.38-.67-2.12-.19-.74-.4-1.51-.61-2.32 1.07 4.75 2.66 9.43 4.43 14.09-.48-1.63-1.19-3.54-1.97-5.85-.36-1.16-.75-2.43-1.18-3.8ZM205.58 234.06c.73.1 1.36-.06 2.31.08-1.79-.65-3.29-1.06-4.52-1.21.79.8 1.49 1.03 2.21 1.13ZM509.26 370.67c.13.09.42.09.52.21.59-.42.2-.38-.52-.21ZM478.37 55.29c.46-.57.51-.7.26-.47-.5.45-2.27 2.27-4.28 4.79.43-.33.91-.74 1.4-1.09 1.27-1.66 2.18-2.64 2.62-3.22ZM458.14 160.35c.03-.67 0-1.08.02-1.69-.07.6-.17 1.36-.23 1.91l.21-.21ZM455.16 162.78c-.33.13-.72.08-1.07.11-1.42.05-2.72 0-3.9-.19.28 2.78.52 5.39.64 8.05l.34 7.48c.04 1.18.06 2.33.06 3.47 0 .56-.02 1.15 0 1.67l.06 1.54c.06 2.03.06 3.94 0 5.74.17-1.32.33-2.58.48-3.77.08-.61.12-1.15.23-1.77.12-.63.24-1.24.36-1.83l.69-3.31c.05-.24.12-.53.21-.84l.24-.87c.16-.56.32-1.12.48-1.67.32-1.08.65-2.07 1-3.07.36-1.28.74-2.52 1.13-3.74.2-.61.4-1.21.6-1.82l.31-.91c.11-.3.23-.57.26-1.07.21-1.76.42-3.56.64-5.41-.61.63-1.22 1.17-1.84 1.62-.31.22-.62.42-.92.6ZM169.81 120.58c0 .07 0 .14-.01.22.13-1.18.27-2.36.44-3.53-.16 1.18-.36 2.27-.42 3.32ZM631.88 227.74c-.32.13-.73.34-1.26.66.41-.2.83-.42 1.26-.66ZM396.21 67.64a43.46 43.46 0 0 0-2.5-1.95c.86.66 1.69 1.31 2.5 1.95ZM484.61 89.95c.21-.17.42-.35.65-.56-.23.19-.43.38-.65.56ZM511.03 361.74c.18-.16.36-.33.54-.49-.17.12-.35.29-.54.49ZM231.49 78.81c-.39.24-.79.5-1.21.79.4-.27.81-.52 1.21-.79ZM69.17 292.97c-.84.27-1.69.54-2.53.82.96-.28 1.8-.55 2.53-.82ZM210.51 162.93c.07 1.54-.25 2.1-.59 2.6 1.09 1.83 1.57 1.66.59-2.6ZM208.91 234.52c-.03-.06-.11-.11-.15-.17-.34-.11-.62-.17-.87-.21l1.02.38ZM581.12 253.8c4.66-2.88 7.39-4.26 9.31-5.03-.14-.68-2.43.31-9.31 5.03ZM385.82 414.53l-1.03.04 1.03-.02c5.27 2.78 10.3 6 15.15 9.48a134.55 134.55 0 0 0-4.42-3.46c-3.5-2.16-7.04-4.25-10.72-6.04ZM305.08 373.57c5.74.71 6.09 1.38 9.23 2.46l.88-3.28c-3.38.16-6.77.46-10.12.82ZM378.71 385.55c2.03.47 3.18.68 2.22.15-.96-.5-4.02-1.8-10.53-3.83-2.41.06-22.95-4.76-4.47 1.19 1.15-.18 8.73 1.51 12.78 2.49ZM591.4 54.82c-1.69-.18-3.27-.38-4.73-.57-1.46-.18-2.83-.25-4.05-.38-2.45-.27-4.42-.24-5.76-.2-1.35.06-2.08.27-2.13.73-.04.44.62 1.14 2.02 2.21 1.33.22 2.52.41 3.58.58 1.05.21 1.97.38 2.79.51.82.13 1.52.23 2.14.29.61.09 1.13.16 1.58.2 1.8.15 2.45-.13 3.05-.42.6-.29 1.13-.59 2.68-.35.78.11 1.81.34 3.23.75 1.41.43 3.18 1.17 5.46 2.1 1.3.16 1.05-.22 0-.81-1.07-.55-2.95-1.34-4.84-2.11-1.92-.67-3.85-1.34-4.96-1.83-1.13-.43-1.43-.7-.05-.7Z" class="uuid-2f28e882-534a-4bf7-8439-4d1cdff13c04"></path><path d="M598.28 55.85c-.95-.24-1.8-.38-2.54-.49-.74-.11-1.37-.21-1.92-.29-1.09-.15-1.84-.23-2.42-.25 1.08.16 2.18.33 3.33.51 1.15.17 2.35.29 3.56.53ZM223.31 290.89l5.79 1.81 1.28-.67c-2.22-1.22-5.77-1.85-12.88-2.88l5.81 1.73ZM12.54 304.36c-1.78-2.59-2.65-5.33-2.94-7.45a13.7 13.7 0 0 1-.16-1.57c-.02-.49-.05-1.03-.03-1.47.05-.86.11-1.81.26-2.51.13-.76.3-1.49.5-2.14.19-.69.42-1.3.66-1.89-.35.54-.71 1.08-1.02 1.71-.32.61-.63 1.25-.89 1.99-.13.36-.26.71-.38 1.11-.11.42-.21.85-.3 1.29-.2.82-.28 1.9-.33 2.93.53 2.37 1.53 5.16 3.61 7.94 2.03 2.78 5.31 5.29 8.68 6.51-3.07-1.39-5.92-3.82-7.67-6.44ZM192.39 233.73c-3.81-.29-7.96-.41-12.14-.36-2.09 0-4.17-.01-6.22-.02h-1.08c13.67.48 21.07 4.06 19.44.38ZM168.05 233.32c1.58.04 3.23.04 4.9.03-1.56-.06-3.19-.07-4.9-.03Z" class="uuid-2f28e882-534a-4bf7-8439-4d1cdff13c04"></path></svg>