<svg xmlns="http://www.w3.org/2000/svg" id="Layer_1" data-name="Layer 1" viewBox="0 0 659.61 777.1"><path d="m203.03,464.31c1.14.39,1.1-1.46,1.35-1.75-2.07-.01-1.39,2.22-1.35,1.75Z" style="stroke-width: 0px;"></path><path d="m183.51,464.41c-1.02.47-2.04.94-3.05,1.43.87-.26,1.74-.51,2.61-.74l.44-.69Z" style="stroke-width: 0px;"></path><path d="m174.8,464.66l.45.76,1.72-2.31c-3.93-.05-9.1,1.09-11.73,0,1.39,3.23,6.49.1,9.57,1.56Z" style="stroke-width: 0px;"></path><path d="m158.1,455.86c-.39-.01-.92-.06-1.81-.22.5,1.25-2.14.87,2.19.55-.2-.15-.26-.23-.38-.34Z" style="stroke-width: 0px;"></path><path d="m158.1,455.86c1.89.06-1.15-1.11,0,0h0Z" style="stroke-width: 0px;"></path><path d="m149.4,455.89l2.54-.89c-.47-.75-2.64-1.07-1.79-1.52-2.56.4-2.09,1.14-.75,2.41Z" style="stroke-width: 0px;"></path><path d="m146.91,457.97l1.3-.36c-.2-.31-.53-.44-1.3.36Z" style="stroke-width: 0px;"></path><path d="m149.48,457.35c-.29.9.31.06,1.5-.5l-2.76.76c.32.52.28,1.53,1.26-.25Z" style="stroke-width: 0px;"></path><path d="m153.01,459.65c4.74-.07,4.22-2.29-.53-2.21,1.33.77,3.08,1.33.53,2.21Z" style="stroke-width: 0px;"></path><path d="m167.49,466.39c-.84.43-3.47-1.16-3.45-.18l1.76,1.06,1.69-.88Z" style="stroke-width: 0px;"></path><path d="m134.36,453.16c-.2.64.67,1.81.79,2.67l1.85-.62c-.89-.52-2.59-1.07-2.64-2.05Z" style="stroke-width: 0px;"></path><path d="m135.15,455.83l-2.76.91c2.37.33,2.85-.18,2.76-.91Z" style="stroke-width: 0px;"></path><polygon points="150.85 459.32 145.37 461.33 146.22 461.36 150.85 459.32" style="stroke-width: 0px;"></polygon><polygon points="124.27 452.21 125.9 450.84 123.04 452.87 124.27 452.21" style="stroke-width: 0px;"></polygon><path d="m114.3,449.38c-1.84.39-3.33,1.61-4.67,2.7,1.47-.68,3.1-.68,5.28.16,1.02-1.36-1.74-1.99-.61-2.87Z" style="stroke-width: 0px;"></path><path d="m109.63,452.09c-.78.36-1.54.85-2.27,1.62.73-.37,1.47-.98,2.27-1.62Z" style="stroke-width: 0px;"></path><path d="m125.97,453.98l.88,1.93c.32.04.68.08,1.04.12-.17-.41-.47-1.49-1.92-2.05Z" style="stroke-width: 0px;"></path><path d="m126.88,455.98l-.03-.06c-1.13-.15-1.91-.26-2.24-.3.29.05.97.16,2.28.37Z" style="stroke-width: 0px;"></path><path d="m128.15,456.06c-.1-.01-.17-.02-.26-.03.08.19.14.26.26.03Z" style="stroke-width: 0px;"></path><path d="m137.31,462.75c1.23-1.18-.53-2.21,1.97-3.58-1.65.91-5.04,1.77-1.97,3.58Z" style="stroke-width: 0px;"></path><path d="m132.4,457.44l-3.15,1.04,2.8.65c-.02-.49-.47-1.24.35-1.69Z" style="stroke-width: 0px;"></path><polygon points="128.22 458.23 127.81 458.95 129.25 458.48 128.22 458.23" style="stroke-width: 0px;"></polygon><path d="m113.38,456.48c.18-.6.79-1.7-.96-1.48-1.17.91-2.52,1.1-4.04,1.36,1.67.22,3.38.26,4.99.12Z" style="stroke-width: 0px;"></path><path d="m120.18,455.13c-.15.03-.33.03-.46.06.27.18.49.25.46-.06Z" style="stroke-width: 0px;"></path><path d="m93.32,457.68c.09.11.18.2.27.31,0-.11.02-.21.03-.32h-.3Z" style="stroke-width: 0px;"></path><path d="m113.68,456.8c.63.12,1.12.06,1.54-.12.21-.09.39-.2.57-.34.18-.13.31-.28.62-.45-.43.09-.53.14-.81.2-.23.05-.47.11-.72.16-.49.1-.99.18-1.51.23-.08.27-.08.44.31.32Z" style="stroke-width: 0px;"></path><path d="m103.23,454.95c.68.33,1.43.59,2.22.82-.68-.53-2.04-1.32-2.22-.82Z" style="stroke-width: 0px;"></path><path d="m119.05,454.61c.1-.02.2-.04.31-.05-.67-.46-.59-.26-.31.05Z" style="stroke-width: 0px;"></path><path d="m119.05,454.61c-.53.04-1,.34-1.43.55-.43.24-.82.48-1.21.72,1.19-.24,2.31-.61,3.31-.7-.24-.16-.49-.38-.67-.58Z" style="stroke-width: 0px;"></path><path d="m99,457.7l1.15-.31c-1.36-.18-2.37-.78-4.24-1.96-1.87,1.01-2.21,1.67-2.3,2.25l5.76-.27-.38.29Z" style="stroke-width: 0px;"></path><path d="m105.38,456.91c-.75,1.94-3.48,2.98-1.58,4.84,3.41-.43,2.26-1.76,4.23-2.75-5.48.95,1.49-1.17-2.59-1.88,1.06-.41,2.02-.59,2.94-.75-1.01-.14-2-.33-2.93-.6.05.04.09.07.14.1h.03s0,.02,0,.02c.26.21.35.34.07.23-.02.02-.08.04-.11.05-.01.26-.1.5-.19.72-1.63-.24-.29-.46.19-.72.01-.09.05-.18.04-.28,0,0-.01-.02-.02-.02l-5.44,1.51c1.19.15,2.65-.03,5.23-.47Z" style="stroke-width: 0px;"></path><path d="m134.06,466.53c-.16-.18-.14-.31-.14-.45-.38.2-.52.34.14.45Z" style="stroke-width: 0px;"></path><path d="m134.37,463.87l-.41.22c-1.71-.64-3.7-2.35-4.28-3.16.46,1.51.96,2.69,2.19,4.3.42-.23.82-.94,2.1-.65,1.09.65-.07.89-.06,1.51.83-.43,2.86-1.12.46-2.22Z" style="stroke-width: 0px;"></path><path d="m129.68,460.92c-.04-.14-.09-.28-.13-.43-.09.05-.03.21.13.43Z" style="stroke-width: 0px;"></path><path d="m117.76,462.02c.39-.1.62-.26.76-.45.29-.33.22-.82.44-1.17-.51-.02-1.01.2-1.51.29-.5.12-1.02.24-1.35.35l-2.26.66,2.49,1.4-.2-.96c.61.04,1.28-.02,1.64-.12Z" style="stroke-width: 0px;"></path><path d="m91.63,456.67c-.1.13-.22.25-.22.37-.06.24-.12.48-.19.72l.18-.22.08-.11c.06-.04.16-.08.24-.12l.99-.49.44-2.02-1.21,1.5-.3.38Z" style="stroke-width: 0px;"></path><path d="m90.23,455.54c-.19.36-.41.73-.66,1.1.07.22.17.44.28.66l.39-1.76Z" style="stroke-width: 0px;"></path><path d="m115.85,344.39l-1.94-.19c-.13,1.29-.67,2.09-1.32,2.74,2.12-1.17,5.13-2.03,3.27-2.54Z" style="stroke-width: 0px;"></path><path d="m89.52,428.62c1.13-1.42,1.76-2.61,2.15-3.71-1.57,1.64-3.53,2.81-2.15,3.71Z" style="stroke-width: 0px;"></path><path d="m68.42,354.29c-.01.92.21,1.4.6,1.53.04-.93-.11-1.52-.6-1.53Z" style="stroke-width: 0px;"></path><path d="m92.35,422.06c-.03.56-.2,1.1-.33,1.69-.06.21-.11.43-.17.65-.06.17-.11.34-.17.52.15-.15.29-.31.42-.47l.2-.24c.07-.12.16-.31.24-.46.32-.65.63-1.3.72-2.02.06-.35.12-.73.14-1.05,0-.19,0-.39-.04-.59-.07-.4-.22-.81-.48-1.24-.23.24-.36.5-.56.75.03.3.06.59.1.89.01.41-.02,1.04-.05,1.57Z" style="stroke-width: 0px;"></path><path d="m85.41,454.73c.08.28.23-.08,0,0h0Z" style="stroke-width: 0px;"></path><path d="m76.36,464.24c-.22.02-.52.14-1.03.55.52-.37.84-.53,1.03-.55Z" style="stroke-width: 0px;"></path><path d="m84.35,455.96c.29-.34.53-.66.72-.94-.18.18-.41.46-.72.94Z" style="stroke-width: 0px;"></path><path d="m85.38,455.19c-.12.19-.18.33-.26.47.36-.22.59-.41.26-.47Z" style="stroke-width: 0px;"></path><path d="m85.38,454.28c0,.2-.13.45-.32.75.16-.16.28-.26.35-.29-.02-.09-.04-.22-.03-.46Z" style="stroke-width: 0px;"></path><polygon points="99.02 256.4 96.17 254.21 96.26 269.28 98.02 265.93 99.02 256.4" style="stroke-width: 0px;"></polygon><path d="m87.59,455.73c-.37.21-.77.43-1.2.65.45-.14.15.34.08.68.39-.53.9-1.28,1.13-1.33Z" style="stroke-width: 0px;"></path><path d="m83.36,463.07c-1.1,1.86.66,1.11,2.14.65-.08.01-.17.04-.24.02,1.5-2.6,0-1.65-1.9-.67Z" style="stroke-width: 0px;"></path><path d="m85.84,463.63c.45-.12.88-.21,1.26-.16.47-1.03-.4-.17-1.26.16Z" style="stroke-width: 0px;"></path><path d="m85.65,453.79c1.21-.43.52-.42-.3-.45-.82-.04-1.79.02-1.32.78-.55.56,2.43-.82,1.62-.33Z" style="stroke-width: 0px;"></path><path d="m80.88,469.1c.21-.74.44-1.49.71-2.24-.69.65-1.42,1.3-2.18,1.95l1.47.29Z" style="stroke-width: 0px;"></path><path d="m73.62,463.38l-1.1,3.35c.43-.4.63-.25.77.01.31-1.79,1.08-3.93.33-3.36Z" style="stroke-width: 0px;"></path><path d="m73.26,467.98l.17-.04c.12-.03.23-.07.33-.1.22-.07.45-.16.67-.27-.13.02-.29.04-.47.07-.1.02-.2.03-.3.05-.1.02-.26.08-.21-.05,0-.34-.05-.67-.16-.89-.09.46-.14.89-.14,1.22-.02.06.06.03.11.02Z" style="stroke-width: 0px;"></path><path d="m78.91,430.66c.31.91.3,2.18,1.12,1.85l.19-3.41c-.64-.51-1.31.27-1.31,1.56Z" style="stroke-width: 0px;"></path><path d="m600.75,419.25c.04.07.07.14.13.21l1.01-.29c-.31-1.44-1.1-2.4-1.41-1.52-.22-1.31-.46-2.61-.67-3.93,1.97,2.17,7.37-.5,10.27-3.3-.8.04-1.54.16-3.04-2.48-.84,1.13-1.36,6.58-3.37,4.47-1.51-3.58.17-3.15.86-5.11-1.81,1.67-3.57-2.96-6.17-3.13-1.11-7.62-2.07-15.24-2.85-22.86.29.12.57.09.84-.23l-.55-2.09c1.81-2.13,3.15,3.71,3.83.94,1.66,2.69,4.25,5.58,3.57,9.66l-2.74,1.09c.81-.19,1.38-2.79.39-3.81,1.42,1.49-3.1,6.57.84,7.91l1.6-3.02c1.78,2.65,5.21,5.7,4.83,9.31,2.56-1.97-.43-.76,2.47-3.68-3.64,2.59-1.18-8.05-4.4-5.29,2.84-2.77.79-4.38,3.52-7.89-.92.2-1.65,1.37-1.52-1.59-.29-.1-.67-.37-.89-.55.02-.09.03-.12.05-.2-.03.06-.06.11-.09.17-.15-.11-.18-.12-.03.06-.33.74-.76,1.35-1.25,1.64-2.33-1.22-2.68-5.89-3.96-7.37.27-1.78,1.14.63,2.05-.41l-1.86-2.21c2.06-.42,3.09-4.87,4.62-.91l-.19-3.66c.97-2.24,1.31-5.19.31-6.96.33-1.73-2.51-4.22-.83-2.8l-1.5-5.66.52-.07c.06-2.82-.82-5.69-1.28-8.7-.35-2.99-.4-6.14,1.66-9.26-.42-1.89-1.07-3.89-.23-6.99l1.84-.49c-.23-1.22.34-2.98.76-4.58.46-1.59.74-3.01-.14-3.62,1.27-.52,2.04-1.48,2.51-2.7.47-1.22.7-2.67.78-4.21.13-3.07-.01-6.4.75-8.38l-2.29-.56c.08-.36.14-.69.19-1.07.11-.69.22-1.37.32-2.06.13-1.25.22-2.52.28-3.8.12-2.57.12-5.21.09-8.03l-2.19.94c-.25-1.06-.39-2.21-.38-3.6-.01-1.37.04-2.93-.07-4.59-.18-3.28-1.17-7.07-3.75-9.67.89-.23,1.98,1.37,2.29,2.79-.25-2.59-1.64-4.64-3.47-6.1-1.81-1.49-4.02-2.47-6.25-3.09-2.24-.63-4.5-.9-6.58-1.22-2.1-.33-4.03-.72-5.89-1.71-2.05.63-3.39.38-4.79-.15.18,0,.35-.04.49-.11-.2-.03-.51-.03-.82-.03-.24-.14-.4-.04-.6-.04-.2.02-.4.05-.6.07-.41.05-.84.12-1.3.22.81.05,1.51.04,2.1-.12-1.28.83-3.28,2.34-5.07,4.2-.46-.53-.95-1.05-1.46-1.56-.16.15-.3.24-.47.4-2.37.69-1.2,2.14.34,2.98-.82,1.05-1.48,2.13-1.87,3.12-1.48-1.05-2.62.26-3.66,1.57-1.07,1.33-2.04,2.6-4.28,2.12.12,1.26-1.99,3.9-3.52,6.39-.32,2.52-.37,4.88.61,6.18-.14.26-.26.44-.38.62l-.36.58c-.23.39-.43.79-.58,1.19-.31.81-.43,1.67-.16,2.61l-2.93-.2,2.35,4.93c-2.4,1.68-3.67,2.28-4.98-.65,1.34,6.46-.3,4.77,1.29,10.42l-1.66-.82c-.49,1.66.94,5.06-.83,5.56-3.04,1.69-4.99,9.13-7.82,16.37l-3.25,8.31,5.7,1.17c-.11.54-.23,1.06-.34,1.56,2.67-1.23,2.08.16,1.44,1.84-.64,1.7-1.34,3.68.77,3.65-1.21.77-1.74,2.27-3.05.73,1.89,5.18-1.06,7.54,2.54,10.07-1.27.47-1.89-.76-2.64-.33.29.28,1.13,1.14.38,1.52-.75.35-1.09-.54-1.65-1.06.03.43.13.83.26,1.17.12.31.29.59.51.85.46.53,1.01.88,1.72,1.23,1.41.68,3.29,1.15,5.08,1.59-.54.45-.93.82-1.19,1.17l-.09.13-.13.23c-.08.15-.16.31-.23.46-.13.3-.23.6-.29.9-.23,1.19.03,2.29.88,3.42-.12.08-.26.16-.39.25l-.41.34c-.12.12-.18.23-.28.34-.18.21-.36.39-.55.47-.2.08-.41.06-.66-.11-.21-.17-.62-.52-.71-1.07.05-.35.15-.78.31-1.31-.15.3-.37.75-.65,1.31-.12.49.16,1.08.28,1.73.17.65.35,1.36.54,2.1.2.74.42,1.52.66,2.29.12.39.24.77.37,1.16.12.35.24.7.35,1.04.66,1.86,1.34,3.01,2.63,2.83-.62.61.15,1.92.49,2.23.04,1.12-.06,1.8-.17,2.41-.07.64-.13,1.24-.2,1.91-.09.48.02,1.15.05,1.92.06.35.27,1.55.45,2.37l.16-.58c.06-.18.11-.39.15-.66.48.22.85.37,1.15.53.29.17.51.35.66.54.31.4.37.86.35,1.38-.04,1.05-.45,2.36,0,3.93l-.38-.04c-1.47,7.69,1.68,2.97-.13,10.63l2.14-.73c4.82-.07-1.78,6.83.74,10.74l1-1.72c1.99,1.99-5.32,7.5-5.47,9.95-.32.58-.8-.68-1.23-1.33-1.66,6.59,3,.27,4.51,4.65-1.38,1.13-4.13-.33-3.84,2.78-.96,1.8,6.75,7.82,4.76,12.58.98-1.18,1.95-2.34,3.31-.46.56,1.55-.05,3.96-.24,6.25-.02.29-.04.57-.05.85,0,.25,0,.5-.01.74,0,.4.05.78.17,1.12.25.69.81,1.26,1.9,1.69-.25.37-.55.46-.85.5,1.28,1.04,2.8,4.07,5.48,5.97-2.1-.38-2.76-.1-2.76.65-.04.73.68,2.08.81,3.49.16,1.43-.43,2.42-1.25,2.53-.85.13-1.89-.49-3.36-2.31-1.18.22-2.41.23-3.69.31l-.21-.73c-2.24-.57-3.49,1.07-4.64,2.72-.89-.52-.28-1.16-.25-1.53-.63-.2-1.2-.37-1.7-.53-.13-.04-.22-.07-.38-.1-.17-.03-.33-.06-.49-.1-.32-.05-.62-.1-.9-.15-1.14-.17-2.08-.19-2.98-.06-1.81.26-3.51,1.15-6.53,2.79l-.52-2.32c-1.66,1.27-10.04-4.03-17.06-1.63.08-.26.24-.7.8-1-7.89,2.37-18.31-7.16-21.51,1.08l-5.21,1.83c6.6.95-1.15,3.58,1.51,5.1-2.63.37-6.63-2.83-3.4-3.11l.48.44c1.38-4.3-8.16-1.93-7.84-4.9-6.52-.21-12.9-1.1-19.19-2.07-9.28-1.14-19.34-2.49-28.97-3.23,1.85,1.26,3.61,2.51,5.28,3.76l-2.28-.23c0,.1,0,.21-.02.31-.62-.32-1.26-.65-1.92-.97.44.26,1.06.61,1.91,1.07-.06,1-.08,2.06-.12,3.09-.78.79-2.61-.09-2.51-4.5.24.11.49.22.72.34-.32-.19-.55-.33-.72-.45,0-.01,0-.02,0-.04-.01,0-.02.01-.03.02-.27-.18-.37-.29-.25-.28-1.21-.47-2.91-1.14-5.74-2.24,2.05.81,4,1.7,5.88,2.6-.74.45-.4,2.61.25,4.66-1.04-.33-2.07-.66-3.08-.98-.25-.08-.51-.16-.76-.24l-.37-.12c-.07.12-.13.26-.2.39-.26.52-.5,1.03-.74,1.53-.95,1.98-1.73,3.69-2.16,4.97-1.42,1.96-1.32,1.27-1.09.21.23-1.05.61-2.5-.43-1.72-.94,2.69-1.81,5.25-2.6,7.68-.9-.53-3.38,1.98-5.05,3.31-1.64,1.29-2.43,1.35.77-5.27l-5.43,9.02c-1.67,1.67-3.4,3.8-4.86,5.99-.37.55-.72,1.1-1.05,1.64-.16.28-.32.55-.48.82-.19.34-.37.67-.55.99-.49.88-.94,1.77-1.37,2.63-.25.86-.37,1.69-.5,2.45-.13.33-.26.69-.37,1.05-.09.25-.13.39-.19.59-.1.38-.17.79-.22,1.19-.14.83-.17,1.65-.22,2.33-.09,1.35-.03,1.95-.25.34-.94,3.45-2.27,7.25-3.6,11.37l-.53-.1c-1.34,2.92-2.48,6.21-3.33,9.83-.19.92-.38,1.84-.58,2.77-.15.95-.3,1.91-.45,2.87-.1.98-.21,1.95-.31,2.94-.06.87-.12,1.74-.18,2.61-.12,1.82-.26,3.79-.2,6.17.07,2.35.24,5.15,1.43,8.47.59,1.64,1.5,3.38,2.66,4.94,1.18,1.59,2.58,2.92,4.02,4.05.67.49,1.37.96,2.08,1.43.25.16.16.12.22.17l.09.1.16.2c.21.27.4.51.53.78.42-.05.86-.11,1.33-.14.46-.02.99,0,1.34.32.1.1.15.22.17.35-1.17.23-2.41.49-3.62.75-7.7,1.62-14.51,3.32-3.21-1.85.17.11.34.23.51.34.39.25.79.5,1.19.74l.57.33c.4.26.93.14,1.99-.35-.05-.2-.18-.31-.28-.49-.27.03-.53.03-.77.04-.12,0-.24-.02-.35-.03l-.17-.02h-.08s-.09-.05-.17-.09l-.24-.12c-.44-.2-.91-.45-1.39-.72.42-.19.85-.38,1.31-.59l-2.12.1c-1.96-1.26-4.06-3.12-5.65-5.58.44.91,1.04,1.76,1.68,2.62.32.42.66.86,1.02,1.24.36.37.73.73,1.12,1.09.26.24.53.46.8.69l-6.64.32,2.83-1.27c-3.9-.95-11.41,1.93-18.36,4.81.47-.89,3.3-2,4.58-2.64-1.35-1.38-2.75-1.93-5.56-1.43-2.81.51-7.24,2.1-14.04,4.84l5.07-3.95c-2.38,1.07-2.49-.65-4.11-2.14-1.52-1.49-4.81-2.68-10.26-.87.51-.43,1.4-1.18,2.49-1.66-3.05.92-4.88.57-6.45-.26-1.55-.83-2.83-2.15-4.33-3.15-2.92-2.05-6.51-3.03-11.67,4.17-2.13.97-4.14,1.95-6.02,2.95,2.4,1.02,1.35,2.59-.02,4.27-1.39,1.68-3.01,3.5-2.71,4.88-1,.29-1.54-1.01-1.68-2.47-.12-1.45.22-3.04,1.54-3.22l.06.81c2.03-3.83.69-4.78-.96-5.48-1.62-.71-3.48-1.15-2.77-3.87l-1.06-.19-.92-.18c-.47-.11-.94-.23-1.41-.37-.93-.28-1.85-.61-2.75-.98-1.81-.73-3.54-1.72-5.26-2.67-1.72-.96-3.41-1.94-5.1-2.8-1.69-.89-3.38-1.68-5.11-2.19l-.71,6.4-2.39-.97c-.29-1.6.35-5.06,2.04-4.37-.04-3.74-3.68,2.22-4.08,3.55-2.8-3.37,3.19-6.87,2.17-7.3l-1.54.11.13.81c-1.8,2.22-2.61,4.87-4.63,3.99-1-1.6.34-3.99-.12-4.37.12-.44,0-.69-.75-.39l-2.92-1.35-.11,5.19c-2.03,2.03-2.85-1.04-2.95,4.85.11-4.51-2.53-6.14-5.29-6.97-2.76-.83-5.65-.94-5.88-2.46-2.99,2.91-4.87,2.25-7.07,1.09.26,1.18-1.13,6.69-2.96,5.39,4.26-10.61-1.81-6.28-1.08-14.01-.71,4.75-6.03-.89-6.36,7.07-1.36-1.46,1.34-4.17.99-7.2-5.46,2.9-7.74-5.91-13.42-6.29-.59,1.42-.52,3.94-2.38,5.71-.05-2.73-.1-5.47-.2-8.21-1.3.35-3.83,8.06-4,2.36-.15,1.32-.38,3.3-1.22,3.53-3.94-5.28-9.95-5.55-15.81-6.27-2.95-.36-5.87-.83-8.71-2.17-1.42-.67-2.86-1.52-4.26-2.73-.72-.61-1.46-1.28-2.2-2.06.51-2.77,1.43-4.49,3.26-4.1l2.57-15.32.64.53c.23-.94.45-1.82.65-2.63.22-.96.45-2.02.6-3.21.16-1.13.22-2.47.16-3.76,0-.07-.01-.13-.02-.2l.67-.52-.71.16c-.05-.5-.1-.99-.2-1.49-.16-.73-.28-1.36-.54-2.05-.73-2.19-2.04-4.05-3.38-5.28l.48.06-1.88-2.31c-.04.27-.09.65-.2,1.01-.58-.37-1.14-.62-1.7-.9-.73-.27-1.42-.47-2.08-.65l-3.56-.94.38-1.08c-27.54-5.94-55.47-6.15-83.2-9.02-5.62.5-11.23.99-16.89,1.49.08-.03.17-.06.24-.12l-.2-.96c-1.47.19-2.5.87-1.6,1.21-1.32.12-2.63.23-3.96.35,2.29-1.7.06-6.92-2.54-9.76,0,.38,0,.74-.33,1.16-.17.21-.42.44-.8.69-.19.13-.41.26-.67.4-.18.13-.3.27-.5.41.07.11.18.22.33.34.08.06.13.12.26.17.14.05.29.11.45.16.62.22,1.33.45,1.93.71,1.2.52,1.99,1.15.86,2.03-1.82.6-2.66.53-3.14.19-.43-.34-.68-.92-1.29-1.32.53,1.03-.29,1.88-1.52,2.89-.91.78-2.08,1.66-2.58,2.75-5.11.45-10.28.91-15.55,1.38.32-2.41.67-4.8,1.03-7.19.26-.03.56-.23.92-.7l-.05-1.82c1.19-1.42,1.75-.79,2.23-.37.47.45.83.77,1.48-.53.57.67,1.39,1.08,1.88,1.63.24.28.41.6.41,1.08,0,.12,0,.25-.03.39l-.04.22s.12,0,.17.02c.24.02.44.09.61.21-.81.96-1.57,1.92-2.3,2.87.37-.42.29-.81-.05-.98-.09-.04-.19-.07-.31-.08-.06,0-.13,0-.2,0h-.11s0-.06,0-.09c0-.25-.08-.41-.29-.4.15,0,.19.12.15.34-.02.11-.07.25-.11.39.07.03.14.07.2.12.24.21.4.57.7.85.58.56,1.77.78,3.83-1.15-.21-.6-.32-1.2-.32-1.82,1.55-.81,3.33-2.01,4.65-2.89,1.35-.89,2.24-1.46,2.84-1.1.15-1.33.1-1.25-.04-1.22-.1.03-.34.01.15-1.57-.68,1.98-1.48,2.01-2.29,2.06-.4.03-.77.06-1.2.35-.42.29-.98.84-1.45,1.89.97-1.87,1.04-2.26.93-2.56-.02-.08-.04-.15-.05-.24,0-.06-.02-.07.04-.17.08-.12.17-.25.25-.37.37-.53.93-1.21,1.84-2.12-1.02.84-2.01,1.94-1.38.63-.29.17-.65.34-.86.42.04-.05.05-.07.09-.12-.05.05-.08.09-.13.14-.14.06-.17.08-.04.05-.48.55-1.04,1.18-1.63,1.71-2.25,1.14-1.77-1.6-2.74-2.08.31-.62.57-.59.88-.56.32.04.7.06,1.25-.37-.5-.18-.99-.43-1.46-.75,1.05-.35,2.01-1.14,2.79-1.5.79-.39,1.4-.39,1.89.15l.3-1.21c.61-.32,1.1-.85,1.32-1.24l.04-.08.06-.21.11-.44c.06-.29.11-.58.13-.86.05-.56.03-1.1-.08-1.59.76-1.59-1.22-4.68-.04-2.9l.05-5.84.49.06c.75-2.72.63-5.73,1-8.74.17-1.51.48-3.01,1.04-4.48.14-.36.3-.73.48-1.09l.29-.57.42-.91c.32-.59.5-1.23.77-1.86.14-.38.24-.49.37-.68.12-.18.25-.35.39-.52-.22-1.85-.51-3.82.62-6.65l1.76-.23c-.13-2.39,3.19-6.14,1.79-7.51,2.5-.54,3.49-2.95,4.26-5.65.18-.68.36-1.37.54-2.05.09-.34.18-.68.27-1.02l.07-.25.17-.49c.12-.33.23-.66.35-.99.28-.65.4-1.34.53-2,.12-.55.23-1.08.33-1.59.15-.67.33-1.28.56-1.79l-2.1-.68c.42-1.46.64-2.94.77-4.54.06-.8.1-1.63.13-2.5,0-.44.02-.88.03-1.34,0-.22.01-.49,0-.67-.03-.08-.07-.18-.1-.29l-1.9-.43c-.34-.29-.06-1.46.3-2.42.37-.99.92-2.03,1.52-3.11,1.19-2.16,2.58-4.5,3.19-7.03.62.54.08,1.76-.61,2.55,5.93-4.85.36-13.4,5.04-17.52-.28-1.48.26-2.29,1.01-3-.03.12-.03.23,0,.34.06-.12.13-.3.19-.5.5-.43,1.07-.84,1.57-1.33-.62.34-1.16.7-1.48,1.06.3-.94.56-2.45.64-3.98l2.16.18c.02-.12.05-.21.06-.33,1.24-.99-.48-1.42-2.23-1.3-.04-.81-.16-1.59-.42-2.27.88.06,1.37-.14,1.64-.5.14-.18.23-.39.29-.62.03-.12.06-.24.08-.36.06-.21.12-.43.19-.64.12-.38.2-.85.29-1.17.07-.27.17-.53.32-.76.31-.46.86-.8,1.85-.89-1.18-1.5,1.14-7.05-1.02-9.51,1-1.51,1.99-3.02,1.57-4.86l2.75.21-2-4.86c2.33-1.66,3.55-2.25,4.66.65-.99-6.38.48-4.71-.78-10.28l1.53.81c.53-1.63-.67-4.99,1.02-5.48,1.1-.62,2.09-2.04,3.05-3.94.48-.95.95-2.03,1.43-3.18.23-.58.47-1.18.72-1.79.1-.24.2-.49.3-.74.11-.26.23-.53.34-.8.51-1.21,1.27-2.76,1.88-5.04.28-1.21.56-2.52.5-4.18,0-.78-.14-1.68-.3-2.5-.22-.85-.46-1.72-.83-2.48-.18-.39-.37-.78-.57-1.16-.21-.34-.42-.68-.65-1.01-.45-.7-.91-1.21-1.38-1.75-.49-.57-.93-.95-1.39-1.38-.45-.43-.95-.82-1.46-1.19-.5-.37-.98-.74-1.66-1.1-.65-.35-1.22-.7-2.05-.98-.78-.29-1.54-.55-2.45-.69-.82-.16-1.65-.24-2.48-.23l-9.23-19.89-5.28,10.02-3.05-2.88-.13,1.29,2.87,2.2-3.87,7.33-.45,4.27c-.06.54-.24,1.11-.79,1.17-.83.07-.52-1.03-.52-1.95v-.14s-.06.11-.06.11c-2.34,4.45.52,6.75,3.27,8.82-2.74,1.4-3.2,2.63-2.22,5.41-.71.09-1.67.57-2.15.43-.25-.06-.39-.25-.34-.69.02-.22.09-.5.22-.85.07-.26.18-.57.34-.94-.14.18-.34.45-.6.79-.35.49-.77,1.08-1.23,1.73-.92,1.31-2.01,2.91-2.97,4.48-2.26,3.22-2.42,5.91-1.09,6.01-.98.62-1.27,2.8-1.15,3.26-.24.56-.45,1.05-.64,1.49-.1.22-.19.43-.28.64-.04.1-.09.2-.13.3-.07.11.05.12.06.18.31.38.57.66.85.92.27.25.6.49,1.03.8.44.31,1.03.73,2.04,1.4-.12-.32-.29-.66-.38-.93,2.8-.24,3.84,0,4.67,1.03,0,.01.02.03.03.04-4.66,5.21-.03,3.1-5.29,8.5l2.06.46c3.84,2.38-4.93,4.83-5.01,9.35l1.68-.92c.5,2.71-8.09,3.46-9.5,5.34-.55.3-.26-.97-.25-1.73-4.77,4.46,2.19,1.8,1.01,6.16-1.67.17-3-2.46-4.44.19-1.68.9.93,9.93-3.26,12.57,1.39-.38,2.78-.75,2.74,1.5-.88,3.06-7.42,6.41-5.22,10.5-.44.27-.78.3-1.04.21-.09,2.65-1.56,8.07-.27,10.15-3.77-.22-4.3,3.72-4.63,7.37-.31,3.66-.43,7.04-3.54,5.93l-2.13,7.29-.58-.4c-1.97,4.45-.98,6.57-.01,8.68-.77.92-1.11-.05-1.41-.24-3.45,6.28-3.4,7.04-2.06,13.65l-2.23-.07c.7,1.9-6.29,8.63-6,15.91-.21-.14-.56-.4-.68-1.01.01,2.03-.7,4.02-1.66,5.94-.49.99-1.01,1.84-1.59,2.9-.57,1.02-1.16,2.03-1.64,3.02-2,3.94-2.99,7.49.5,9.78.23,1.86.5,3.71.78,5.53,1.97-6.46,3.11,1.66,4.95-.77-.09,2.62-3.62,6.16-3.41,2.93l.48-.42c-3.81-1.95-2.95,7.9-5.62,7.22-1.03,6.48-2.53,12.71-4.22,18.67-.11.41-.2.64-.33,1.27l-.35,1.65-.32,1.66c-.09.56-.13,1.16-.2,1.74-.1,1.17-.31,2.35-.24,3.51l.02,1.76c-.01.59.03,1.17.12,1.74.48,4.61,2.27,9.02,5.36,12.35.28-1.26.62-2.47,1.02-3.62.6.71,1.16,1.47,1.83,2.12.72.59,1.38,1.29,2.18,1.76.42.66.52,1.44.06,1.76-.23.16-.61.2-1.16.06-.27-.08-.61-.17-.95-.39-.34-.22-.72-.5-1.13-.86.17.68.64,1.34,1.4,1.68.74.36,1.64.59,2.49.69,1.82.01,3.38-.44,3.57-.73,3.6,1.55,2.69,2.28.82,2.61-1.87.45-4.42-.08-3.16.52l.9.31.94.19,1.88.37-.69-.56c1.69-.18,2.68-.77,3.87-1.13.59-.19,1.23-.31,2.04-.4.81-.15,1.79-.23,3.07-.22.8.16,1.32.27,1.66.44.34.17.5.37.6.57.2.4.14.77.84.74,0,.22.5.26,2.14-.2.37-.03.62-.08.89-.13l.82-.15,1.63-.31,2.76-.55-1.29-.96-.65-.48-.77-.46c.67-.47,1.07-.74,1.58-.96.48-.22.91-.36,1.19-.52.56-.32.53-.69-.98-1.76,2.24,1.64,6.92.96,11.44.19,4.51-.79,8.91-1.6,10.03-1.04,2.98-2.14,6.18-2.36,10.12-2.31-1-.48-1.74-3.27,1.73-3.06-1.06,5.81,6.34,2.35,9.04,6.59-1.2-1.4,1.19-1.55,3.44-1.8,2.24-.26,4.34-.62,2.48-2.66,2.84.58.09,2.18,2.18,3.63,6.87-1.94,14.73,2.48,23.2,2.67.22-.74-1.07-2.05.87-2.98l4,4.3c1.7-.16,2.07-4.18,4.78-1.17-.35-.69-.87-1.73.28-1.83,4.08,1.48,8.3,2.33,12.59,2.95l-18.92,6.3,28.74,5.95c-.15.68-.31,1.36-.45,2.05-.41,2.13-.69,4.28-.8,6.39-.22-.2-.58-.59-.63-1.76-.57,8.06-4.36,16.95-7.17,24.77-2.82,7.84-4.61,14.53-1.28,18.5-.2,3.64-.32,7.26-.43,10.88,3.7-13.28,3.08,2.8,5.7-2.4-.73,5.31-5.41,13.05-4.46,6.49l.63-.93c-1.87-1.66-3.18,2.44-4.27,6.85-1.1,4.41-2.02,9.11-3.44,8.66-2.36,13.35-4.95,26.43-7.5,39.24-1.26,6.39-2.51,12.73-3.75,19.01-.3,1.57-.6,3.13-.9,4.69l-.44,2.33-.43,2.42c-.6,3.36-1.01,6.69-1.33,9.98,1.2-.91,2.44-1.81,3.67-2.69-.39,3.01-.67,6.01-.92,9.01-.9,2.3-2.86,3.05-2.29-3.43-2.21,3.33,1.01,10.92,1.77,11.08-.89,6.19-1.82,4.95-2.59,2.64-.76-2.32-1.29-5.76-1.41-3.83l.09,5.22.43-1.16c1.27,4.24,2.74,4.65,2.43,12.17-.77,4.72-2.13,2.39-2.3,4.25-.24-.02-.37.61-.16,2.83l-.3,5.4c-.06.71-.1,2.24-.11,3.52,0,.66-.01,1.31,0,1.98l.17,2.14c.59-2.51,1.54-4.48,2.44-6.42.16.81.28,1.62.37,2.41.1.79.16,1.54.3,2.33.26,1.52.32,2.88.61,3.75.26.87.48,1.3.75,1.03.13-.13.27-.44.44-.93.17-.49.33-1.17.66-2.05-.26.65-.39,1.43-.46,2.34-.04.9-.16,1.96,0,3.07.07.56.16,1.14.26,1.74.06.3.11.61.17.92.09.3.19.6.29.91.21.61.43,1.25.65,1.9.25.64.62,1.24.95,1.88,1.4,2.49,3.51,4.97,6.39,6.55,2.87,1.59,6.26,2.27,9.62,2.31.85-.03,1.69-.06,2.54-.11.84-.1,1.68-.29,2.5-.43,1.67-.21,3.26-.81,4.82-1.28.39-.12.77-.24,1.16-.36.37-.14.72-.29,1.08-.43.71-.3,1.4-.59,2.08-.88.62-.28,1.22-.55,1.8-.81.45-.21.88-.41,1.3-.6,1.68-.79,3.19-1.41,4.42-1.84,1.22-.45,2.17-.71,2.75-.72,5.35-4.15,11.66-6.17,19.57-7.78-2.08-.08-4.03-2.76,3.01-3.95-.61,3.32,2.66,3.25,6.88,2.99,4.22-.28,9.46-.78,12.51,1.15-2.66-1.18,2.21-1.97,6.8-2.7,4.57-.74,8.86-1.46,4.71-3.31,5.95.12.5,2.28,5.08,3.49,6.98-1.6,14.81-1.48,23.03-1.01,8.23.48,16.85,1.31,25.63,1.1.29-.81-2.63-2.12,1.17-3.25l9.16,4.34c3.47-.28,3.37-4.6,9.61-1.51-.87-.72-2.17-1.81.18-1.98,17.16,2.72,34.85,3.09,52.7,3.81,17.86.72,35.73,1.81,53.5,5.96-4.8-1.71-1.57-1.78,2.12-1.74-2.39-.44.1-2.01-.35-3.13,4.94,1.13,9.9,2.22,14.89,3.25,1.37-1.51,5.37-1.61,9.24-1.67,3.87-.12,7.59-.2,8.33-1.7l-4.72.63c3.11-1.79.85-3.67-2.02-5.66-.29-.2-.58-.39-.87-.59,4.86-.07,9.71-.2,14.57-.4,17.21-.72,23.51-10.23,18.51-26.64-6.55-21.5-12.04-43.24-15.57-65.44-3.74-23.58-6.42-47.17-6.21-70.77.84-.24,1.69-.48,2.5-.72.49-.15.96-.29,1.42-.43l-.85,2.25,1.04-.24c-.43,5.36.9,4.19,1.69,4.85-.31-2.4-.52-4.8-.74-7.21,1.97-.6,3.7-1.14,5.02-1.58,0,.02,0,.04,0,.06-.42,2.46.05,3.94.64,5.34-.16-1.73-.26-3.58-.26-5.54.1-.03.2-.07.29-.1.49.42,1.09.88,1.31-.46.2-.07.37-.14.5-.2,1.41-.45,2.38-.63,3.2-.73-.17,1.51-.47,3.13-.99,4.94,1.32,2.22,2.33-3.01,3.13-.66-.1-1.55-.35-3.01-.67-4.39.22-.02.45-.03.68-.06,4.84-1.75,6.35-2.44,5.6-2.38-.68.05-3.25.7-6.49,1.56-.06-.23-.12-.46-.18-.68,4.03-1.12,7.23-2.12,8.59-2.91,2.6-.85,1.34-.82-1.48-.43-2.27.43-4.92.95-7.65,1.49-.19-.6-.38-1.18-.56-1.75.09.6.15,1.21.18,1.83-1.4.28-2.82.56-4.21.83-.28-1.88-.29-3.88-.24-6.07-.37,2.06-.63,4.17-.8,6.27-2.6.51-5.09.98-7.16,1.35-1.31.23-2.46.42-3.42.55.23-8.24.83-16.48,1.87-24.72,0,.22,0,.43.04.64l1.06-.1c.35-3.07.01-5.44-.7-3.56.38-2.75.82-5.49,1.31-8.24.7,5.32,7,2.58,11.09-1.3-.38-.16-.75-.27-1.01-1.06-.13-.4-.24-.96-.31-1.79-.03-.41-.06-.89-.07-1.45,0-.28,0-.57-.01-.89,0-.16,0-.32,0-.49,0-.05,0-.06,0-.16l.03-.3.03-.39c-.05.09-.1.18-.16.29-.04.05-.15.41-.19.44-.1.17-.21.36-.32.58-.23.43-.48.95-.74,1.51-.53,1.11-1.11,2.39-1.67,3.46-1.1,2.14-2.04,3.49-2.47.94.27-3.84.77-5.34,1.37-6.31.31-.53.62-.71,1.05-1.46.4-.6.84-1.35,1.24-2.56-1.29,1.72-1.57-.6-2.42-3.14.6.05,1.22.11,1.86.18-.98-.61-1.41-3.65,2.08-3.09-1.65,6.13,6.27,3.08,8.83,7.71-2.35-3.12,10.03-.11,6.31-4.56,2.9.69.03,2.33,2.17,3.93,7.13-1.97,15.3,2.53,24.02,2.22.18-.81-1.2-2.14.73-3.24l4.35,4.33c1.74-.31,1.83-4.62,4.81-1.62-.41-.71-1.01-1.78.15-1.98,8.39,2.43,17.15,2.01,25.91,1.9,8.78-.11,17.53.07,26.29,3.76-2.38-1.56-.8-1.73,1.01-1.8-1.18-.37.01-2.01-.23-3.12,2.43,1.02,4.87,2.01,7.33,2.97.64-1.55,2.59-1.63,4.47-1.71,1.88-.1,3.7-.18,4.03-1.66l-2.29.61c1.61-1.95.1-4.04-1.54-6.26,2.36-.07,4.73-.14,7.09-.24,17.21-.72,23.51-10.23,18.51-26.64-6-19.7-11.1-39.6-14.62-59.88Zm4.37-52.77s-.07-.06-.11-.09c.75-2.08.45-1.34.11.09Zm-462.91,343.57l.62-1.7c.56,3.89,0,2.79-.62,1.7Zm69.45-17.98l9.83-4.2c1.36.15.58,1.4-.78,3.04.64-.42,1.24-.82,1.7-1.18,1.57.04,2.27.41,2.42.99-1.69.44-3.39.88-5.08,1.32.34-.39.66-.77.97-1.13-.7.45-1.47.95-2.26,1.47-.74.19-1.48.38-2.22.58-1.87-.42-3.48-.77-4.56-.88Zm22.21-13.61c-.31-.02-.6-.08-.83-.22-.56-.36-.16-.66.58-.96.06.41.15.8.25,1.18Zm39.4-5.76c3.21,4.8,3.41,1.91,6.59,5.35-3.07-.07-6.02-.19-8.8-.4.36-2.19,5.09-.36,2.21-4.95Zm13.44.51c.78-.21,1.55-.47,2.32-.71,2.11,1.54,4.26,1.63,4.79-.35,1.38.37,1.1-5.1,1.3-1.87l2.63-3.64.4.9c3.71-.87,4.59-8.91,11.27-4.04.77-1.4,1.48-3.02,3.85-2.82l1.74,2.95c1.02-1.69,5.85,1.15,5.03-2.38,5.34,7.59,8.01-1.49,11.27-1.21l-1.79-4.05c1.9-.57,3.05-2.54,4.43-5.22l-1.84-3.46c.11-.95.54-1.42,1.17-1.61.31-.1.67-.12,1.07-.11.4.01.78.09,1.44.06,2.4-.02,5.39.07,7.52-1.23.57,1.4-.85,1.66-2.13,1.29,2.54,1.22,4.43,1.04,5.8.22,1.38-.83,2.29-2.27,2.99-3.74.7-1.48,1.25-2.96,2.19-3.93.95-.97,2.3-1.42,4.79-.96-.01-1.62,1.18-1.72,2.87-1.53-.1.07-.13.17-.11.3.16-.04.35-.13.52-.24,1.11.15,2.35.36,3.51.43-1.37-.32-2.54-.57-3.27-.58.83-.55,1.77-1.63,2.15-2.95l4.57,2.24c.06-.1.16-.14.21-.25,2.91.15-.87-1.78-4.61-3.3-.02-.77-.26-1.58-.84-2.41,3.88,1.7,4.19.88,4.53.11.38-.77.68-1.52,5.29-.03-2.77-2.19,2.43-4.76-3.46-7.99,2.19-.33,4.47-.76,2.93-2.23l7.32,1.8c-2.09-1.52-4.3-2.96-6.64-4.31,5.84.27,9.32.33,13.05,2.84-2.1-2.41-2.14-3.01-2.27-3.67-.14-.62-.28-1.25-3.29-3.06l4.86,1.01c.48-.39-.52-1.18-1.07-1.79-.54-.62-.63-1.09,1.86-1,6.18-.09,9.85-2.23,13.89-4.67,2.79-1.69,5.61-3.51,9.97-5.28.3.96.44,1.52.54,1.81,0,.88,0,1.75,0,2.61,0,.88.03,1.75.04,2.6.17,1.01.33,1.99.49,2.95.1.65.2,1.29.3,1.89.18,1.22.3,2.36.35,3.37h2.38c.79,6.29,2.36,12.23,4.6,19.88l1.97-.83c2.81,6.4,1.57,17.52,4.21,28.13-.93-.55-1.35-3.29-1.28-5.3-.47,3.42-.1,6.79.74,10.07l.33,1.23.18.61.15.42c.2.54.41,1.08.65,1.63l.36.82c.06.12.13.31.18.38l.15.22.62.92c.84,1.28,1.95,2.86,2.47,4.44.24.78.31,1.56-.04,2.15-.32.61-1.21.85-2.23.6-.44,1.12-1.8.78-2.94.22.11,0,.19-.04.23-.1-.14-.03-.32-.04-.51-.04-.74-.39-1.45-.84-2.07-1.2.61.53,1.29.98,1.81,1.2-.45,0-.99.05-1.6.16-.32.07-.66.13-1,.2-.5.08-1.02.17-1.54.27-.4-.76-.76-1.52-1.08-2.28-.15.02-.28.01-.44.04-1.81-.91-1.63.99-.47,2.72-.91.33-2.74.69-3.88,1.18-2.47-3.72-8.68.85-12.09-3.15-2.13,1.65-14.52.87-17.86,3.82-3.61-.6-7.21-1.18-10.5-.22l-1.43-2.9-8.15,3.46c-4.77-1.95-6.73-3.05-1.82-5.01-11.77,2.81-9.48.82-19.52,3.64l.58-1.81c-3.53-.12-9.31,2.02-11.35.38-1.92-.98-5.31-1.66-9.63-2.19-2.16-.28-4.55-.52-7.1-.74-2.65-.19-5.5-.43-8.43-.51-8.15-.37-16.95-.2-25.06-.37-.59-1.19-1.06-2,.64-1.87-.09-.52-.12-1.2-.13-1.61.07.02.1.05.17.08-.06-.06-.11-.1-.17-.16-.01-.28-.02-.33-.06-.05-.69-.57-1.36-1.32-1.83-2.2-.48-4.14,2.4-5.04,2.63-7.35,1.35.41.26,2.06,1.49,3.62l.34-3.46c1.51,3.64,5.11,5.04,3.41,8.14Zm3.16-3.91c1.83,1.05,1.16.61.01.21,0-.07,0-.13-.01-.21Zm76.82-48.99c1.16.4,2.01.42,1.59.77-.46-.25-.98-.51-1.59-.77Zm230.02-299.24c-.65-.21-1.52.15-2.09.43.11-1.26.24-2.52.37-3.78.85,1.13,1.51,2.35,1.72,3.35Zm-417.5,198.8h-.02s-.01.04,0,0h0s.02,0,.02,0Zm203.42,164.49c-.26.23-.47.48-.6.76-.09-.5-.97-.78.6-.76Zm41.02-74.46c.26-.59.58-.94.92-1.13.44,3.1.89,6.2,1.35,9.3l-3.47.71,3.66.59c.46,3.04.93,6.07,1.42,9.1-2.7.46-5.18.3-6.42-.7.05-.99,1.2-14.59,2.53-17.88Zm6.09,56.37c.82.77,1.72,1.67,2.66,2.48.94.86,1.95,1.86,3.01,2.97.42.43.86.91,1.31,1.4.69,2.61,1.4,5.21,2.16,7.81.72,2.46,1.02,4.41.94,5.95-.19-.37-.43-.77-.63-1.14-.45-.81-1.02-1.59-1.5-2.35-1.06-1.5-2.14-2.86-3.14-4.08-2.02-2.45-3.61-4.34-4.57-6,.4-.47.8-.91,1.15-1.63l-1.75-3.39-1.85-4.01c.65.54,1.39,1.21,2.22,1.99Zm-68.17,22.94c-2.2-.1-4.4-.2-6.59-.31,2.23-1.27,4.48-2.53,6.7-3.81-.61,1.01-.41,2.5-.11,4.12Zm240.56-322.72c-2.32,2.99-4.94.46-6.7,1.21-1.15-3.73,1.21-5.89,1.02-8.42-.36,1.06-.69,2.13-1.02,3.2-.92-1.15-1.64-3.66-.96-5.07-.27.3-.46.75-.61,1.3-.25-5.99-.34-11.98-.24-17.97.58.42,1.14.91,1.68,1.47.86.91,1.65,1.99,2.33,3.2.71,1.21,1.33,2.55,1.8,3.98,1.03,4.55-2.5,2.04-1.94,2.82-.41,8.7,7.05,7.04,4.65,14.28Zm2.58-71.18c-.17.31-1.42,2.67-2.86,4.79-.36.52-.74,1.08-1.1,1.58-.35.4-.69.78-1.03,1.13-.67.71-1.31,1.29-1.8,1.58-.39.22-.78.31-1.16.31.25-1.51.51-3.02.79-4.53l3.54.33c-1.14-.35-2.28-.66-3.42-.94.28-1.47.57-2.94.88-4.41,2.84-.43,5.19-.49,6.17.16Zm-17.21-23.13c.81-.59,1.68-1.06,2.58-1.45,1.8-.75,3.73-.99,5.45-.56.12.67.23,1.32.3,1.99,1.69.42,3.34,1.06,5.01,1.82-1.27.2-2.92.41-4.72.81-.89.19-1.83.44-2.75.72-.23.08-.46.15-.7.23-.13.04-.26.09-.4.15-2.18-1.31-4.3-1.99-6.43-2.34.16-.17.32-.3.49-.45.38-.33.77-.64,1.17-.92Zm-28.29,16.1c.18.23.38.44.63.6-.25-.06-.47,0-.6-.02-.11-.06-.17-.08-.02-.58Zm2.13,11.55l-1.04,3.02-2.88-4.32c.89.6,2.34.95,3.91,1.3Zm-9.18,67.92c-.08.11-.13.16-.19.21v-.22c.03-.87.18-1.73.19-2.69.02-.92.15-2.04-.03-2.7.58-.43,1.5.16,2.55,1.25-.17-.39-.35-.75-.52-1.03.56-.6,1.15-.79,1.73-.69-.13.83-.31,1.66-.53,2.48-.23-.26-.45-.51-.68-.76.15.42.32.89.5,1.37-.11.36-.2.72-.32,1.08-1.07.63-2.1,1.24-2.7,1.7Zm-113.05,99.98c.1.15.2.28.26.34-.63,3.33-1.5,2.6-2.28.75,1.47.11,2.47.12-.37-1.48.76.13,1.56.26,2.39.39Zm-4.33,2.83c.06-.46.19-1.02.37-1.63.03-.06.04-.18.08-.21h.15s.31,0,.31,0c.21.01.41.02.62.04.41,1.07.82,1.91,1.18,2.72l-.13-.04-1.02-.32-.25-.08s-.09-.03-.12-.03l-.07.14-.27.54c-.75.28-.96-.19-.85-1.11Zm-20.68,17.31c-.01.09-.02.15-.01.23-2.93,3.26-1.86,2.12.01-.23Zm-8.91,53.6c-.98-1.98-1.58-4.52-1.92-7.21-.08-.67-.17-1.33-.21-2.07-.03-.75-.05-1.53-.06-2.32.03-.78.07-1.59.13-2.41.08-.81.19-1.63.31-2.47,1.15-5.18,2.27-5.87,2.9-5.69.65.21.98,1.39,1.04.48,1.9-4.27,2.98-7.29,3.47-9.8.5-2.49.46-4.41.4-6.16-.03-.88-.1-1.71-.07-2.56,0-.42,0-.84.03-1.28.02-.21.04-.43.06-.66l.02-.17.05-.26c.03-.18.07-.35.1-.53.15-.72.3-1.49.56-2.29.44-.78.91-1.6,1.44-2.43.82-1.26,1.75-2.46,3.02-3.91,5.16-3.84,4.42,2.28,6.64,2.05-.79,1.8-1.64,3.29-2.53,4.59-.44.64-.9,1.26-1.38,1.88-.23.31-.51.6-.69.91-.16.33-.33.65-.48.97-.66,1.35-1.31,2.3-1.93,3.4-.62,1.07-1.2,2.14-1.68,3.34,1.18-1.8,2.31-3.62,3.35-5.51.08,2.56-1.35,7.64-3.19,9.91.49-.43,1.05-1.17,1.65-2.14-3.38,7.8-7.41,15.36-8.69,24.02-.61,4.15-1.08,8.04-.22,11.16-.78-.65-1.52-1.62-2.11-2.84Zm5.44,22.54s-.01.09-.02.14c-.57.3-1.14.57-1.71.78-.74.22-1.47.43-2.23.68,1.51-.6,2.82-1.13,3.96-1.6Zm-118.15-20.17l.2,1.2c-1.41.87-.82-.1-.2-1.2Zm-85.72,5.19l-.32.85c1.17-.07,2.17.19,3.05.61.87.41,1.63.99,2.39,1.73,1.5,1.42,2.94,3.29,5.21,5.12l.7-4.1c1.01.86.9,2.18,1.14,3.33,3.05-5.66-3.12-1.26-.08-7.59-.32,4.29,1.67,4.86,3.62,5.66,1.94.77,3.8,1.72,2.82,6.44,1.77.64.97-4.72,2.76-4.07l-.35,2.61,1.53-3c1.03.94.58,4.2-.09,6.29-.2-.35-1.02.3-1.39.37.48,3.16,4.13.9,4.82,1.49l-1.14-1.95c5.8-.54,11.08,5.04,18.07,1.87l.25-1.98c5.14-2.07,2.48,3.11,7.39,3.01l-.3.39c1.48-1.54,2.95-2.1,4.08-1.51-1.82,1.82.73,4.89-1.51,6.84,5.54-2.31,3.1-2.21,8.12-8.23l-.3,3.3c1.84-2.5,2.36-3.92,4.78-4.09-2.6,2.14-.02,5.14-3.11,8.06,2.66,8.16,8.88-4.85,8.15,5.73,4.57-8-2.64-5.96-.92-7.46-.17-3.1,3.59-5.93,4.77-4.65,1.39.6-.59,11.72,3.24,12.59-.36-.14-.57.51-.93.37.83,2.59,3.56-2.25,4.34,1.81,2.33-4.98,2.18.88,4.17-5.75-1.28.24-2.56.46-3.83.66,2.42-1.2,6.21-8.63,8.43-4.03-.58,1.29-1.97,2.84-2.88,3.67.45,2.21,2.13-.87,2.61,1.41-1.93,6.65-4.55.43-7.97,5.01.3,3.09,5.24-3.87,2.34,3.14,3.84-8.87,3.48,2.1,7.77-4.34l-1.13,3.99c.56-.54,1.85-2.23,2.58-1.95l-2.6,4.9c3.14-3.95,3.16,4.83,5.76,2.86-4.28-.83.15-5.08-.96-8.43,6.27-4.2.78,10.77,6.65,10.62-.91-.25-2.03-3.25-.54-4.7.93,1.09,2.08,2.94,2.33,5.21,4.09-.06.26-4.3,2.44-6.46.15,2.61.73,2.2,1.52.98.4-.66.83-1.36,1.31-2.15.44-.74,1.07-1.38,1.3-1.74l-.86,4.13c1.1,2.96,2.81-8.38,4.13-4.82-1.02,1.79-1.95,3.6-2.78,5.42.44-.42.92-.85,1.42-1.27-.65,1.5-1.28,3.01-1.89,4.52,2.07-3.23,2.24-2.27,2.33-.89.65-1.39,1.6-3.15,2.58-4.56.98-1.4,2.01-2.44,2.63-2.39-.71,2.41-2.66,3.58-.94,3.28-2,2.31-4.06,5.3-2.37,1.67-.82,1.25-1.69,2.38-2.44,3.62-.54,1.36-.42,1.55-.07,1.41.35-.14.94-.61,1.11-.61-.01-.16,0-.38.3-.94,1.67-1.68,3.56-3.33,5.67-4.95-.88,1.44-2.11,2.52-3.2,3.59.63-.36,2.35-2.02,3.2-2.25-2.89,2.97-5.77,6.05-7.35,7.42,1.22-1.07,2.59-2.13,4.09-3.16-1.16,1.31-3.12,3.6-4.39,4.66-.76.89.94-.51,2.89-1.8,1.9-1.29,4.07-2.47,2.97-1.32.8-.54,1.61-1.06,2.38-1.43,0,.38-1.14,1.44-1.52,1.93-.35.49.04.42,3.82-1.39-2.68,1.65-5.47,3.28-8.36,4.91,1.2-.53,4.01-2.06,6.87-3.68,2.9-1.63,5.85-3.35,8.49-4.16,4.28-1.39-7.6,4.13-9.95,5.49,2.58-1.19,6.63-2.98,9.29-3.97,2.63-.99,3.88-1.18,0,.76-2.33.85-.99.14-2.06.46-1.68.89-3.43,1.77-5.24,2.65-10.27,4.22-6.78,2.76-14.76,6.44,9.9-4.56,10.83-4.75,11.74-4.95.92-.19,1.82-.4,13.27-4.82l-4.37,1.89c.11-.09-1.27.43-1.15.33-5.15,2.14-.93.55,4.58-1.4,5.46-1.95,12.2-4.25,11.31-3.57-1.3.71-4.67,1.99-7.96,3l7.41-2.09c-.13.15-3.28,1.18-4.29,1.45l3.46-.57-.82.25c4.49-1.34,11.88-3.39,15.19-4.26-3.47,1.25-3.28.9-6.63,1.97l8.11-2.02c-3.47,1.12-7.33,2.2-10.18,2.96-2.86.76-4.72,1.21-4.53,1.03-13.58,4.3-11.85,3.76-8.27,2.79,1.77-.49,3.97-1.08,4.78-1.24.8-.16.24.11-3.79,1.36l-4.39,1.07c-4.92,1.46-9.12,2.7-15.04,4.46-1.77.49-3.7,1.03-5.86,1.64,1.74-.48,7.49-2.08,12.8-3.56,7.97-2.25,16.79-4.88,21.87-6.13-.36.12-.74.25-1.16.39-.78.29-.03.16,5.19-1.12-11.15,3.01-8,2.28-6.75,2.12l-15.29,3.98c12.35-3.05,12.4-3.06,20.08-4.96-.74.39-13.02,3.47-23.47,6.07-1.06.32,3.95-.92,9.56-2.33,5.63-1.41,11.81-2.99,14.07-3.36-2.64.76-2.2.73.42.22,1.73-.35,3.51-.71,5.43-1.1,1.87-.31,3.88-.64,6.13-1.01-3.26.9-5.78,1.43-8.17,1.92-2.38.49-4.61.93-7.12,1.54,4.34-.89,8.63-1.74,12.87-2.56-.47.18-4.5,1.02-6.54,1.44,2.35-.39,6.47-1.26,10.48-2.08,4-.82,7.89-1.6,9.59-1.68,8.88-1.76,1.64.06-5.11,1.7-6.81,1.68-13,3.06-3.88,1.75-4.66.97-9.35,1.58-15.43,2.7,5.76-.7,7.66-.81,10.17-1.07,2.47-.23,5.56-.62,12.9-1.3-3.68.79-7.28,1.53-10.81,2.23,5.83-1.03,11.77-1.88,17.25-2.42,5.49-.55,10.49-.8,14.8-.88,1.32-.24,2.59-.46,3.79-.68,1.08-.21,2.11-.4,3.07-.58,1.03-.21,1.96-.39,2.8-.56.13.48.27.97.42,1.46-1.65.13-3.53.25-5.58.37.83.01,1.62.02,2.25.03-1.31.29-2.66.53-4.04.72-.84.11-1.46.19-2.1.27-.8.08-1.56.16-2.5.26-3.48.34-7.11.59-10.69.84,3.16-.53,6.32-1.07,9.41-1.59-7.87.61-16.98,1.56-25.38,2.7,1.53-.14,2.71-.17,3.25-.1-2.2.21-4.21.42-5.66.63-1.54.22,1.42-.06,4.69-.29l-15.81,2.05,6.04-.65c-3.85.8-7.56,1.51-11.14,2.13,6.89-.31,15.21-.53,21.89-.37,6.71.16,11.75.78,12.52,1.97-4.35-.19-8.31-.09-12.55.05-4.25.15-8.78.34-14.5.47,6.4-.36,5.69-.7,3.66-.94-2-.26-5.38-.38-3.5-.82-1.97.48-7.6.71-9.53.77,3.39.1,6.59.32,9.6.66-9.47.28-7.54.5-11.82.85,18.79-.61,10.59.83,14.93,1.55-5.83-.1-11.55-.35-9.19-.94-7.19.31-2.24.49,2.64.88,4.94.35,9.81.91,3.8,1.11.16-.2,1.19-.27-1.56-.45,2.18.31,1.79.72.37.95-1.43.23-3.84.26-6-.02l.15-.17c-1.84.47-3.07,1.19-2.48,2.12.61.92,2.85,2.16,8.45,3.37-1.39-.28-13.13-2.63-16.08-3.22,6.15,1.43,11.97,3.07,17.46,4.9,1.37.46,2.72.92,4.05,1.4l1.98.72,1.8.71c2.37.95,4.67,1.96,6.91,3.01-1.98-.65-4.88-1.38-8.11-2.18-3.39-.85-7.17-1.79-10.71-2.68-7.21-1.87-13.67-3.76-15.7-4.73-1.7-.11-3.5-.34-1.14.98.73.12,4.06.96,7.31,1.79,3.24.84,6.36,1.7,6.49,1.96-5.6-1.02-7.01-1.34-8.35-1.55-1.3-.23-2.54-.34-6.99-1.39,1.05.21,4.72,1.49,7.9,2.79,3.2,1.3,5.83,2.66,5.14,2.86-1.72-.79-12.25-4.71-13.33-5.33,3.41,1.73,6.55,3.61,9.45,5.62-2.29-1.39-9.47-4.11-12.62-5.34,1.17.47.82.62.27.74-.55.12-1.27.17-.95.56.99.34,2.02.66,3.07.97-1.67.04,1.48,2.31,4.37,4.85,2.94,2.52,5.62,5.31,3.79,5.98-.7-.79-3.29-2.97-6.02-4.97-2.73-2-5.53-3.84-6.5-4.03,1.98,1.82,6.64,6.24,10.24,11.07,3.6,4.76,6.01,9.99,5.3,12.59-.9-.61-1.79-1.23-2.66-1.86-.25,1.35-.57,2.74-.97,4.17-1.25-3.63-3.17-9.18-5.84-14.25-2.61-5.11-5.95-9.65-7.97-12.11-2.44-1.3-2.88-2.34-3.45-1.74-2.23-1.89-2.74-3.21-2.74-3.39-.87-.2-1.66-.44-2.38-.73,2,2.29,2.71,3.58,3.2,4.84.5,1.26.79,2.48,2.22,4.5-.28-2.13-.84-4.09-1.72-5.96,2.13,2.2,4.85,5.53,6.27,8.52,1.47,2.96,1.58,5.63-.03,5.85-.96-.83-2.19-3.14-3.42-5.39-1.22-2.26-2.45-4.46-3.01-5.27,1,1.76.45,4.08-.38,2.89-.24-1.05-.53-2.07-.85-3.08-.46-.39-.51-.13-.44.43.04.28.11.64.19,1.02,0,.44-.02.87-.03,1.31-.06,1.73-.37,3.1-2.61,1.08-.87.01-5.36-5.78-3.98-2.59,4.02,5.48,13.28,24.03,14.65,28.97-.45-.24-6.66-3.94-8.89-6.56-3.42-4.21-3.52-12.16-6.46-15.78.64,1.47.83,3.56.83,4.26-1.33-.89-1.79-4.64-3.12-3.24,2.24,5.53-3.54,1.07,1.34,4.92-.9,2.29-2.22-.33-3.99.78,2.2,3.22,3.7,12.71,2.72,15.03-.52-1.43-1.69-3.06-2.23-3.8-3.6,1-6.5-.74-9.66.56-.86-1.2-3.04-2.17-3.4-4.8-.04,1.16.33,3.2-.58,3.74-3.84-3.96,1.84-1.65-1.97-6.75,1.22,3.24-.64,5.46-1.19,8.05,2.45,4.76,3.59-.42,4.12-2.99,2.87,6.78,3.44,14.96,1.31,19.52-2.03,2.76-2.96-3.96-3.04-2.8-5.53.78.38,13.68-5.83,10.4-3.37-3.72-3.42-8.7-5-11.71,1.53-2.51,4.42,1.47,5.84.71l-2.63-1.35c.13-1.73,1.14-3.4,2.43-2.44-1.47-1.69-3.65-1.05-6.13-.25-1.24.4-2.55.84-3.88,1.04-1.34.17-2.7.11-4-.46-.14,1.72-.78,3.68.43,5.26l1.01-1.06c2.45,3.14-.54,5.76,1.64,6.85-.76,3.1-1.26,7.73-4.37,6.57l-2.22-4.89c.53,1.36,2.33,2.29,2.66.96-.68,1.57-5.9-5.5-4.73,1.18l2.89,2.91c-.8,3.16-1.1,9.29-3.82,8.38,2.29,4.01.89.65,2.65,2.93.46,1.73-4.83-.17-8.24-.21-.39-1.38-.74-2.7.3-5.1-1.2-1.6-5.16-2.96-4.68-6.41,1.7-2.43,2.22.56,3.89,1.94-2.27-3.8.89-6.89-1.61-12.74l-1.24,2.75c-.34-.92-.14-2.65-.96-3.33.96,3.32.03,6.99-2.77,4-.82,2.97,3.58,13.26,7,18.88-1.41,0-2.48.32-2.67,1.37l-.13.02c-.16-.13-.33-.26-.52-.38v-.08s-.04.06-.04.06c-1.36-.86-3.04-1.39-.31-2.56-1.26.26-2.45.44-3.57.56.03-1.87,0-3.53-1.43-5.78-2,.88-.53,3.44-1.31,5.37,1.52-.92,1.47-.4,1.38.54-7.26.61-11.92-.76-17.55,2.56-1.25-1.2,2.05-2.02.96-2.7-.45.19-1.39.57-2.32.76-.15-.44-.38-.89-.72-1.33.58-.2,1.22-.4,1.76-.63-.75.06-1.43.15-2.08.24-.12-.13-.25-.27-.39-.4,0,.16.02.31.03.46-1.43.23-2.65.52-3.65.87-.38.14-.74.28-1.07.43-.16.08-.32.16-.48.24l-.22.12c-.09.04-.24.09-.36.13-.98.36-1.75.75-2.36,1.15-1.2,1.02-1.8,2.08-2.1,3.08-.24.99-.14,1.93-.11,2.88-5.64-.34-8.18.57-11.32,3.9-1.84-.61-4.62-1.02-1.14-2.5l.04.98c2.22-1.32,4.55-5.28,6.6-3.96-2.42-5.84-3.73,1.89-6.17.17l-.62-1.31.14,3.79c-1.13.22-2.55.5-4.12.82l.88-3.53-1.08,2.42.07,1.13c-1.98.41-4.18.89-6.29,1.42-.4.11-.8.21-1.19.31-.34.1-.67.2-1,.31-.64.22-1.24.46-1.78.74-1.07.55-1.94,1.25-2.22,2.09-.5-.65-3.1.58-3.99,1.16-1.28.27-2.28.49-3.12.67-.41.08-.79.16-1.14.23-.08,0-.2.07-.24.02v-.3s.03-.58.03-.58c.04-1.53.02-2.93-.1-5.49l-.5,1.9c-1.81.44-2.01-.93-1.79-2.68.22-1.8.85-3.89.71-6.28l.36.09c.18-.69.33-1.3.48-1.86.03-.14.07-.28.1-.41.03-.18.06-.35.09-.52.06-.34.11-.66.16-.97.2-1.22.32-2.16.38-2.93.13-1.53.03-2.33-.06-3.13-.16-1.59-.33-3.19,1.7-10.4l-2.28.62c-2.33-.87-1.37-4.1.09-8.15.37-1.01.76-2.07,1.16-3.17.19-.55.38-1.1.57-1.66.18-.56.35-1.06.54-1.89.1-.37.15-.75.18-1.13l.09-1.04c.05-.57.09-1.13.11-1.69.02-1.12-.03-2.21-.24-3.26l-1.31,3.01c-.81-2.31.89-5.54,3-8.56,2.09-3.04,4.58-5.84,5.16-7.94.53-.88.47,1.56.65,2.9,2.03-5.43,1.48-5.81.3-6.03-1.13-.19-2.84-.07-2.39-4.37,1.86-1.22,3.51,2.67,4.95-2.71.12-.17.2-.3.31-.63.13-.45.25-.99.37-1.6.21-1.14.12-3.08.03-3.78-.21-2-.59-4.46-.9-7.09-.16-1.31-.3-2.67-.39-4.03l-.06-1.02c-.03-.18-.07-.3-.07-.46-.04,0,0-.45.03-.8l.09-1.05c.27-2.77.78-5.34,1.8-7.41-1.45,1.77-2.89,3.48-3.23-.99.2-3.35,1.83-7.69,3.05-11.89,1.22-4.22,2.06-8.23.61-11.33.46-.74.82-.98,1.12-.97-.11-2.45.17-6.32.49-9.92.08-.9.15-1.79.22-2.64.03-.22.06-.39.08-.56.74.49,1.59-.08,2.76-3,.44,1.76-.85,2.62-.73,4.59,1.09-3.51,2.16-4.11,3.57-2.27Zm143.49,41.05c-2.55.63-9.82,2.57-3.74.79,12.37-3.46,6.91-1.79,3.74-.79Zm22.03,4.56c-3.09.15-1.08-.25,3.3-1,.51.14-.29.46-3.3,1ZM98.97,285.15l1.25-4.79c.56.34,1.12.69,1.69,1.03.08.16.16.34.23.52,0-.13-.01-.26-.02-.39.29.17.57.35.86.53l-.46.77c-.13-.32-.26-.63-.38-.91.01.45.03.96.05,1.47l-.57.95c-1.12.29-2.08.53-2.66.81Zm-.53,17.84h0s0,0,0,0h0s-.02.01-.02.01c-.01,0-.03,0-.04.01.47-.14.71-.21.08-.02Zm-2.76,164.8c-1.61.14-3.23.29-4.85.43,1.18-.88,2.98-1.3,4.85-.43Zm-5.79.39s-.01.08-.02.12c-.12.01-.23.02-.35.03.12-.05.25-.1.37-.15Zm-7.22-20.28c-.18.59-.54,1.48-.94,1.85-1.32.72-2.51.75-3.54.45-1.04-.27-1.95-.86-2.84-.67-.11-1.8.56-3.22,1.26-4.37.72-1.17,1.5-2.17,1.72-3.42l-1.72,2.84c-.52-1.32-.58-3.91.38-5.11-.3.23-.58.61-.85,1.1,1.25-5.81,2.64-11.58,4.17-17.33,1.77,2.24,2.93,5.76,3.13,9.65-.17,4.64-2.75,1.39-2.43,2.28-1.28,4.13-.1,6.27.88,8.14.49.94.93,1.82,1,2.86.04.52-.02,1.09-.21,1.72Zm2.13,1.97c-.09.1-.21.22-.34.38-.03-.02-.05-.04-.09-.06.25-.24.39-.28.51-.48.11-.18.15-.23.13-.18-.02.02-.12.25-.21.34Zm-.63-45.39c.32-1.21.65-2.41,1.01-3.61.56,1.23.95,2.5.98,3.51-.57-.3-1.42-.09-1.99.1Zm6.42-16.18c-.37.18-.73.24-1.08.22.36-1.47.71-2.95,1.06-4.42l3.23.68-3.08-1.3c.35-1.45.7-2.89,1.05-4.34,2.49.58,4.62,1.37,5.46,2.16-.33.39-4.7,5.93-6.64,6.99Zm12-23.68c-1.24-1.48-2.99-3.96-4.72-6.69.61-2.19,1.24-4.38,1.9-6.56,2.02,2.68,3.82,5.63,4.01,8.25l-1.65.6.46,4.4Zm12.36-38.82c-.17-.19-.36-.37-.59-.52.46.11.82-.22.59.52Zm-1.5-11.31c.36-.97.72-1.95,1.09-2.92l2.49,4.19c-.81-.58-2.13-.93-3.58-1.27Zm4-45.06l-.63-1.35c.79.68.91,1.11.63,1.35Zm-1.08.28c-.35.03-.75.04-1.17.09-.12.01-.26.03-.39.04l-7.66-7.21,9.22,7.08Zm-55.55,238.82l-1.28-.38c2.67-.97,1.98-.33,1.28.38Zm415.45,48.04c-.01.24-.03.49-.05.73-1.19.32-2.44.65-3.71.98.01-.21.02-.44.02-.71.59-.16,1.17-.31,1.73-.46.68-.18,1.35-.37,2.01-.55Zm-5.42,2.15c-1.89.49-3.77.98-5.51,1.41-.02-.21-.04-.41-.06-.62,1.88-.5,3.76-1,5.6-1.49,0,.23-.02.47-.03.7Zm-5.84.86l-.26.69c-1.65.4-3.15.75-4.38,1,0-.14,0-.29,0-.43,1.5-.42,3.05-.84,4.63-1.27Zm1.25-46.67c-.07,2.36-.78,5.17-2.08,7.74.52-2.87,1.1-5.73,1.74-8.6.1-.43.16-.86.23-1.29.12.62.17,1.34.11,2.15Zm.11-4.12c.01-.21.02-.42.03-.64.03.22.08.44.11.67-.04,0-.09,0-.14-.03Zm133.36-95.52c-.26-1.62-.51-3.24-.75-4.86,1,1.06,1.58,2.92.75,4.86Zm-.76-5.82s-.09,0-.14,0c-.02-.12-.04-.24-.05-.36l.19.36Z" style="stroke-width: 0px;"></path><path d="m598.47,516.96c-1.45-.06-.85,1.84-1.06,2.2,2.49-.61.95-2.7,1.06-2.2Z" style="stroke-width: 0px;"></path><path d="m620.55,500.34l-.36,1.74c.14.28.27.56.38.83.13-.71.15-1.47.21-2.18.05-.71.08-1.41,0-2.13-.02.59-.11,1.16-.23,1.73Z" style="stroke-width: 0px;"></path><path d="m623.39,483.71c-.17-.57-.32-1.11-.45-1.64-.12-.52-.21-1.03-.27-1.5-.08-.46-.12-.89-.11-1.3-1.32,1.34-.84,3.03-.09,5.1.32,1.15.74,2.4.92,3.65.12,1.24.18,2.49-.24,3.49l-.83.55c.79.78,1.57,1.63,2.32,2.54.28-2.8-.04-6.05-.77-8.88-.17-.69-.31-1.44-.48-2.02Z" style="stroke-width: 0px;"></path><path d="m626.94,470.13c.08-.24.14-.32.2-.47-.13-.35-.27-.85-.43-1.72-1.08.91-1.63-1.61.22,2.19Z" style="stroke-width: 0px;"></path><path d="m627.14,469.67c.61,1.73.7-1.46,0,0h0Z" style="stroke-width: 0px;"></path><path d="m626.78,461.57c-1.27-2.2-1.86-1.52-2.69.18l1.76,2.01c.59-.69.18-2.8.93-2.18Z" style="stroke-width: 0px;"></path><path d="m621.15,460.18l.81,1.08c.25-.3.27-.65-.81-1.08Z" style="stroke-width: 0px;"></path><path d="m623.66,463.54l-1.7-2.28c-.42.48-1.44.81.69,1.08-1,.06.05.31,1.02,1.21Z" style="stroke-width: 0px;"></path><path d="m623.59,465.13c-.32,1.5-.27,3.32-2.04,1.3,1.73,4.34,3.76,3.02,2.04-1.3Z" style="stroke-width: 0px;"></path><path d="m618.99,479.18l-.43,2.15c.5.46.95.96,1.43,1.47-.64-.76-.03-4-1-3.61Z" style="stroke-width: 0px;"></path><path d="m621.91,446.84c-.72.03-1.63,1.24-2.45,1.63l1.22,1.52c.24-1,.24-2.79,1.23-3.16Z" style="stroke-width: 0px;"></path><path d="m619.45,448.47l-1.82-2.29c.43,2.35,1.1,2.63,1.82,2.29Z" style="stroke-width: 0px;"></path><polygon points="617.49 460.74 621.13 464.31 617.24 459.93 617.49 460.74" style="stroke-width: 0px;"></polygon><polygon points="619.66 437 621.58 438.09 618.58 436.05 619.66 437" style="stroke-width: 0px;"></polygon><path d="m617.95,430.54c1.54.8,1.93-1.95,2.98-.98-.6-1.71-2.05-2.98-3.34-4.14.85,1.34,1.02,2.9.36,5.12Z" style="stroke-width: 0px;"></path><path d="m617.59,425.42c-.46-.71-1.05-1.38-1.94-2,.46.67,1.18,1.31,1.94,2Z" style="stroke-width: 0px;"></path><path d="m618.39,439.19l-1.69,1.47c.06.31.14.67.21,1.03.37-.3,1.36-.94,1.48-2.49Z" style="stroke-width: 0px;"></path><path d="m616.65,440.71l.05-.05c-.22-1.12-.34-1.89-.4-2.23.04.29.15.97.35,2.28Z" style="stroke-width: 0px;"></path><path d="m616.97,441.94c-.02-.1-.03-.17-.05-.26-.17.14-.22.22.05.26Z" style="stroke-width: 0px;"></path><path d="m613.12,452.84c1.6.76,2.07-1.24,4.28.63-1.47-1.24-3.43-4.15-4.28-.63Z" style="stroke-width: 0px;"></path><path d="m616.92,446.42l-2.07-2.64.23,2.87c.49-.18,1.11-.86,1.83-.23Z" style="stroke-width: 0px;"></path><polygon points="614.78 442.72 613.92 442.57 614.86 443.78 614.78 442.72" style="stroke-width: 0px;"></polygon><path d="m613.29,429.62c.66.09,1.89.55,1.47-1.13-1.09-1.02-1.41-2.31-1.84-3.76-.07,1.66.04,3.34.37,4.89Z" style="stroke-width: 0px;"></path><path d="m615.47,434.46c-.06-.07-.11-.17-.17-.24-.13.2-.15.34.17.24Z" style="stroke-width: 0px;"></path><path d="m610.4,410.13c-.11.1-.21.19-.32.29.12,0,.22,0,.35,0l-.03-.3Z" style="stroke-width: 0px;"></path><path d="m612.99,429.96c-.13,1.27.49,1.88,1.24,2.43-.38-.85-.7-1.76-.93-2.77-.3-.04-.48-.02-.31.34Z" style="stroke-width: 0px;"></path><path d="m613.99,419.55c-.3.69-.51,1.45-.69,2.25.5-.72,1.24-2.13.69-2.25Z" style="stroke-width: 0px;"></path><path d="m615.75,433.71c.04.05.09.1.12.16.33-.48.14-.39-.12-.16Z" style="stroke-width: 0px;"></path><path d="m615.75,433.71c-.41-.55-.99-.93-1.52-1.32.31.69.66,1.32,1.08,1.83.11-.18.28-.37.45-.52Z" style="stroke-width: 0px;"></path><path d="m610.74,415.71l.42,1.09c.09-1.34.67-2.39,1.81-4.3-1.19-1.73-1.92-2.04-2.54-2.07l.65,5.62-.33-.34Z" style="stroke-width: 0px;"></path><path d="m612.08,421.86c-2.14-.51-3.46-3.1-5.29-1.04.76,3.32,2.08,2.04,3.3,3.87-1.49-5.27,1.38,1.33,1.77-2.75.53.99.8,1.91,1.06,2.78.04-1,.18-1.99.38-2.92-.04.06-.06.1-.1.14v.02s-.02,0-.02,0c-.2.28-.34.38-.24.09-.03-.01-.05-.08-.06-.1-.28.02-.54-.04-.79-.1.12-1.62.47-.34.79.1.1,0,.2.02.3.01.01,0,.02-.02.02-.02l-2.04-5.15c-.07,1.18.21,2.59.92,5.06Z" style="stroke-width: 0px;"></path><path d="m608.22,451.03c.13-.21.27-.24.41-.29-.33-.29-.52-.38-.41.29Z" style="stroke-width: 0px;"></path><path d="m608.84,448.51c.37.33,1.22.46,1.34,1.78-.3,1.25-.93.23-1.55.45.71.64,2.07,2.33,2.4-.31l-.36-.31c.1-1.84,1.19-4.3,1.84-5.12-1.39.94-2.42,1.8-3.67,3.51Z" style="stroke-width: 0px;"></path><path d="m612.51,445c.13-.09.26-.18.4-.27-.08-.07-.22.04-.4.27Z" style="stroke-width: 0px;"></path><path d="m609.72,435.05l-1.91-4.29-1.22,2.65.99-.33c.15,2.65,1.29,1.82,2.14,1.97Z" style="stroke-width: 0px;"></path><polygon points="611.3 409.46 613.48 409.73 610.13 407.58 611.3 409.46" style="stroke-width: 0px;"></polygon><polygon points="610.16 403.62 612.01 403.57 610.69 402.18 610.16 403.62" style="stroke-width: 0px;"></polygon><path d="m572.17,262.82c-1.28.11-2.07.47-1.56,1.32.5.44.98.89,1.44,1.35,1.73-1.59,3.23-2.25,4.43-2.52-1.36-.08-3.03-.26-4.31-.15Z" style="stroke-width: 0px;"></path><path d="m604.61,343.73c.81-1.65,1.16-2.95,1.27-4.1-1.18,1.95-2.94,3.56-1.27,4.1Z" style="stroke-width: 0px;"></path><path d="m559.02,452.37c.26.27.5.46.74.57.24.1.46.09.68.07-.48-.5-.97-.86-1.42-.64Z" style="stroke-width: 0px;"></path><path d="m605.88,339.64c.86-1.45,1.48-3.08.15-4.74-.21.28-.33.56-.51.85.29,1.21.49,2.42.36,3.89Z" style="stroke-width: 0px;"></path><path d="m580.36,515.01c-.57.13-1.5.14-2.38.17.43.14,1.15.12,2.38-.17Z" style="stroke-width: 0px;"></path><path d="m608.08,379.92c.25,1.23.24.17,0,0h0Z" style="stroke-width: 0px;"></path><path d="m600.83,386.86c-.26-.24-.56-.41-1.03-.39.49.05.82.19,1.03.39Z" style="stroke-width: 0px;"></path><path d="m607.35,381.88c.2-.49.35-1.05.44-1.65-.13.27-.28.77-.44,1.65Z" style="stroke-width: 0px;"></path><path d="m608.27,381.53c-.05.44-.06.78-.08,1.1.36.12.54-.04.08-1.1Z" style="stroke-width: 0px;"></path><path d="m608.08,379.92c-.07-.36-.16-.87-.28-1.72.1.71.07,1.38-.01,2.03.11-.26.21-.37.29-.31Z" style="stroke-width: 0px;"></path><path d="m610.46,392.37l-.83-2.35c.28,1.29-.15,1.81-.42,2.52.44-.11,1-.56,1.24-.17Z" style="stroke-width: 0px;"></path><path d="m610.46,392.37l.09.27c-.02-.12-.05-.2-.09-.27Z" style="stroke-width: 0px;"></path><path d="m603.51,396.11c-1.84.46-.99,2.1-.36,3.96-.02-.11-.05-.22-.05-.34,2.7.2,1.52-1.71.41-3.62Z" style="stroke-width: 0px;"></path><path d="m603.57,402.26c1.08.07.12-.75-.3-1.76.17.58.31,1.17.3,1.76Z" style="stroke-width: 0px;"></path><path d="m606.14,375.99c-.4.94,2.45.34,1.74.92,2.47.78-3.44-5.7-1.74-.92Z" style="stroke-width: 0px;"></path><polygon points="597.78 396.65 597.57 398.49 599.78 397.48 597.78 396.65" style="stroke-width: 0px;"></polygon><path d="m597.41,383.05l-.29,3.15c.38-.09.65.28.88.74-.14-1.91.08-4.03-.59-3.89Z" style="stroke-width: 0px;"></path><path d="m598,386.94c.07.99.22,1.93.66,2.43-.09-.53-.29-1.67-.66-2.43Z" style="stroke-width: 0px;"></path><path d="m594.14,348.32c.57.81.89,2.05,1.65,1.53l-.71-3.37c-.8-.34-1.28.58-.94,1.84Z" style="stroke-width: 0px;"></path><polygon points="590.05 517.36 592.73 518.25 590.97 516.73 590.05 517.36" style="stroke-width: 0px;"></polygon><path d="m594.99,513.68l.74,2.99,1.47-2.78c-.59.15-1.73.45-2.21-.21Z" style="stroke-width: 0px;"></path><path d="m466.46,736.64c-2.98.06-1.83,1.91-2.27,2.29,5.13-.81,2.06-2.79,2.27-2.29Z" style="stroke-width: 0px;"></path><polygon points="488.37 695.72 489.33 696.14 485.83 691.24 488.37 695.72" style="stroke-width: 0px;"></polygon><path d="m486.08,683.25c-2.54-7.37-6.73-16.77-7.06-22.33-2.47,4.09,3.59,12.56,4.16,19.03l-.45,1.22,3.35,2.08Z" style="stroke-width: 0px;"></path><path d="m482.57,645.25c.06-.44.11-.58.17-.84-.17-.74-.36-1.77-.59-3.54-1.05,1.37-1.86-3.79.43,4.38Z" style="stroke-width: 0px;"></path><path d="m482.74,644.41c.81,3.62.59-2.59,0,0h0Z" style="stroke-width: 0px;"></path><path d="m479.09,627.58c.63,1.57,1.25,3.18,1.9,4.71.58-1.1.09-5.52.88-3.98-1.39-4.93-1.98-3.79-2.78-.74Z" style="stroke-width: 0px;"></path><path d="m476,623.27l.86,2.48c.25-.5.24-1.19-.86-2.48Z" style="stroke-width: 0px;"></path><path d="m478.71,631.01l-1.85-5.26c-.42.79-1.47,1.03.75,2.43-1.04-.29.06.64,1.1,2.83Z" style="stroke-width: 0px;"></path><path d="m479.24,641.88c.51-.45.45-3.18-.54-7.77-.27,2.83-.07,6.44-2.06,1.75,1.03,4.62,2.1,6.46,2.6,6.02Z" style="stroke-width: 0px;"></path><path d="m475.28,659.88l-.09,3.89,1.84,2.91c-.93-1.45-.8-7.27-1.75-6.81Z" style="stroke-width: 0px;"></path><path d="m474.36,599.17c.39,1.18.76,2.35,1.17,3.53.27-1.91.39-5.46,1.4-5.81-.73-.24-1.71,1.82-2.57,2.27Z" style="stroke-width: 0px;"></path><path d="m474.36,599.17l-1.72-5.31c.3,4.86.98,5.69,1.72,5.31Z" style="stroke-width: 0px;"></path><path d="m476.11,631.52c-1.39-3.43-2.81-6.87-4.15-10.33l.28,1.73c1.25,2.88,2.58,5.74,3.87,8.6Z" style="stroke-width: 0px;"></path><polygon points="475.65 576.43 477.38 579.38 474.73 574.09 475.65 576.43" style="stroke-width: 0px;"></polygon><path d="m476.11,552.73c-.27-1.59-.6-3.16-1.24-4.77.22,1.5.67,3.07,1.24,4.77Z" style="stroke-width: 0px;"></path><path d="m472.32,584.61c.4-.44,1.47-1.32,1.76-4.36l-1.85,2.22c.03.65.06,1.39.09,2.13Z" style="stroke-width: 0px;"></path><path d="m472.16,582.56l.06-.08c-.09-1.93-.11-3.35-.11-4.17,0,.74,0,2.06.05,4.25Z" style="stroke-width: 0px;"></path><path d="m472.11,578.31c0-.17,0-.32,0-.43,0,.11,0,.26,0,.43Z" style="stroke-width: 0px;"></path><path d="m472.34,585.15c0-.2-.01-.34-.02-.54-.18.22-.24.34.02.54Z" style="stroke-width: 0px;"></path><path d="m472.11,608.35c-1.46-3.06-3.41-9.68-4.35-2.98,1.61,2.16,2.14-1.66,4.35,2.98Z" style="stroke-width: 0px;"></path><path d="m471.9,594.06l-1.87-6.1v5.83c.52-.16,1.2-1.26,1.87.27Z" style="stroke-width: 0px;"></path><path d="m469.23,585.17c.27.93.52,1.86.81,2.79,0-.72.02-1.44.03-2.16l-.84-.64Z" style="stroke-width: 0px;"></path><path d="m471.93,569.66c-.05-.17-.07-.39-.12-.55-.16.34-.21.61.12.55Z" style="stroke-width: 0px;"></path><path d="m475.58,519.83c-.14.14-.3.25-.45.4.11.06.21.1.31.17l.14-.57Z" style="stroke-width: 0px;"></path><path d="m474.65,539.68c-.54,1.21-1.04,2.6-1.5,4.08.73-1.18,1.97-3.58,1.5-4.08Z" style="stroke-width: 0px;"></path><path d="m472.35,568.28c.03.12.07.23.09.37.42-.81.21-.71-.09-.37Z" style="stroke-width: 0px;"></path><path d="m472.35,568.28c-.3-1.26-.81-2.25-1.24-3.25.16,1.5.4,2.89.71,4.09.14-.31.35-.61.54-.83Z" style="stroke-width: 0px;"></path><path d="m473.8,528.72l-.44,2.8-.17-.82-.08,2.32c.66-2.56,1.63-4.33,3.64-7.46-.28-3.89-.76-4.8-1.3-5.17-.45,1.83-.74,3.7-1.11,5.55l-.54,2.78Z" style="stroke-width: 0px;"></path><path d="m467.38,538.87c-.29,3.45.02,4.69.48,5.6.45.9,1.01,1.46,1.3,3.53.28-11.07.89,3.23,2.58-4.62.19,2.18.16,4.12.11,5.94.38-1.95.81-3.82,1.31-5.57-.05.1-.09.16-.14.24v.05s-.01-.01-.03-.01c-.28.45-.44.59-.26.07-.02-.04-.02-.17-.02-.23-.27-.1-.5-.32-.72-.56.74-3.11.55-.45.72.56.09.04.18.14.29.16.01,0,.02-.02.03-.04,0-3.65-.08-7.32.1-10.97-.62,2.25-.85,5.16-1.14,10.3-1.81-1.95-2.09-7.66-4.58-4.45Z" style="stroke-width: 0px;"></path><path d="m462.85,599.78c.14-.37.28-.37.43-.41-.32-.71-.51-.98-.43.41Z" style="stroke-width: 0px;"></path><path d="m467.59,589.44c.14-.12.27-.24.41-.36-.07-.17-.22,0-.41.36Z" style="stroke-width: 0px;"></path><path d="m463.61,594.99c.34.8,1.22,1.42,1.27,4.12-.37,2.38-.95.08-1.6.27.69,1.57,1.98,5.51,2.45.35l-.35-.77c.15-3.65,1.49-8.14,2.21-9.51-1.48,1.32-2.59,2.62-3.98,5.55Z" style="stroke-width: 0px;"></path><path d="m476.95,515.61c-.07-.27-.18-.35-.17-1.03,0,.06-.07.53-.06.57v.26s0,.52,0,.52v1.03s.03,2.06.03,2.06l1.83,1.58-.94-2.83-.47-1.43-.23-.72Z" style="stroke-width: 0px;"></path><path d="m419.37,678.73c-.58-.46-1.14-.9-1.6-1.27-.85-.66-1.3-.83-1.16.21.23.68.49,1.36.78,2.05.81-.14,1.51-.15,2.17-.05.49.09.8.27,1.23.5-.55-.45-.95-.96-1.42-1.44Z" style="stroke-width: 0px;"></path><path d="m396.91,550.07c-.37-1.18-.47-2.18-.59-3.17-.18-1.92-.07-3.46.04-4.67.02-.31.04-.61.06-.9.03-.26.05-.51.08-.75.04-.48.05-.92.03-1.31-.03-.74-.19-1.3-.59-1.7-.56,2.24-.85,4.75-.57,7.54.04.34.08.69.11,1.02.05.34.14.73.21,1.09.18.74.31,1.41.58,2.16.27.75.56,1.47.88,2.17.33.7.77,1.41,1.18,2.07-.31-.61-.6-1.22-.86-1.82-.22-.59-.39-1.17-.56-1.75Z" style="stroke-width: 0px;"></path><path d="m201.23,565.25c-.12-1.67-.4-2.41-.85-2.44.06,1.71.32,2.72.85,2.44Z" style="stroke-width: 0px;"></path><path d="m429.43,734.74c-1.17.1-3.07.08-4.87.07.87.16,2.34.16,4.87-.07Z" style="stroke-width: 0px;"></path><path d="m436.76,458.25c4.13,1.56.61.01,0,0h0Z" style="stroke-width: 0px;"></path><path d="m427.49,464.65c1.81-2.11-.28-4.26,1.05-5,.36-2.96-2.15,2.72-3.43,6.59-.65,1.95-1,3.47-.72,3.55.29.07,1.16-1.23,3.11-5.15Z" style="stroke-width: 0px;"></path><path d="m407.88,528.76c-.13-1.77.4-4.4-.67-3.58-.5,2.37-.92,4.76-1.06,7.18.69.84,1.4-.99,1.73-3.59Z" style="stroke-width: 0px;"></path><polygon points="449.18 737.3 454.62 738.18 451.09 736.66 449.18 737.3" style="stroke-width: 0px;"></polygon><path d="m459.46,733.54l1.38,2.96,3.14-2.83c-1.21.18-3.57.52-4.51-.13Z" style="stroke-width: 0px;"></path><path d="m230.71,386.77c-20.68,25.35-28.06,52.76-13.62,83.76,15.41,27,40.51,41.49,68.1,52.79,5.32,1.02,10.65,2.05,15.96,3.07,16.84-.26,33.74,1.95,50.49-2.54,21.53-5.77,38.97-17.69,53.93-33.77,10.39-19.85,16.61-40.18,14.53-63.38-2.77-30.83-14.49-55.87-39.66-74.15-12.08-8.77-21.58-8.67-28.94-.22-6.92,7.94-5.56,18.48,3.64,29.25,7.55,8.85,16.12,16.84,21.45,27.5,10.61,21.22,9.08,57.78-12.94,70.64-3.22,5.38-8.77,7.61-14.16,9.41-28.82,9.63-56.38,6.14-82.54-8.95-2.52-1.45-5.36-3.23-5.96-6.68-22.71-13.51-27.45-44.67-9.77-68.28,16.17-21.6,35.67-39.04,62.9-45.56,4.96-1.19,8.92-3.71,9.06-9.15.15-6.09-4.24-8.63-9.53-10.08-11.57-3.17-22.39-.76-32.71,4.53-19.84,10.17-36.17,24.57-50.21,41.79Z" style="stroke-width: 0px;"></path><path d="m188.41,60.04c.15-.39-2.23.17-2.67.2.62.44,3.3-.3,2.67-.2Z" style="stroke-width: 0px;"></path><path d="m194.45,69.03c.91.39,1.82.69,2.73,1.02-.57-.34-1.14-.67-1.71-1.03h-1.01Z" style="stroke-width: 0px;"></path><path d="m198.07,72.75l-3.43.02c.98,2.01,3.89,4.03,3.15,5.77,3.75-2.01-1.58-3.21-.58-5.28l.86-.5Z" style="stroke-width: 0px;"></path><path d="m190.53,85.23c.09.21.18.49.23,1.01,1.44-.82,1.68.68.1-1.35-.13.17-.22.24-.32.34Z" style="stroke-width: 0px;"></path><path d="m190.53,85.23c-.43-1-1.09,1.09,0,0h0Z" style="stroke-width: 0px;"></path><path d="m192.96,89.56l-1.81-.85c-.81.58-.62,1.84-1.42,1.63,1.21,1.1,2.01.49,3.23-.78Z" style="stroke-width: 0px;"></path><path d="m196.26,89.77l-.81-.45c-.34.25-.4.47.81.45Z" style="stroke-width: 0px;"></path><path d="m193.73,88.32c.57.34,1.13.68,1.71,1,.57-.41,1.83-.86-.67-.49,1.2-.29,0-.18-1.04-.51Z" style="stroke-width: 0px;"></path><path d="m194.06,87.3c.61-1.02.84-2.13,2.64-1.29-1.36-2.27-4.03-1.03-2.64,1.29Z" style="stroke-width: 0px;"></path><path d="m202.06,77.8l.89-1.27-1.56-.44c.76.22-.58,2.14.67,1.71Z" style="stroke-width: 0px;"></path><path d="m195.64,95.93c-.38.69-.56,1.79-1.76,2.33.85-.24,2.04-1.27,3.06-1.77l-1.3-.56Z" style="stroke-width: 0px;"></path><path d="m196.94,96.49l1.94.82c-.3-1.29-1.06-1.25-1.94-.82Z" style="stroke-width: 0px;"></path><path d="m196.87,87.21c1.32.58,2.67,1.12,4.01,1.65l-.2-.42c-1.28-.39-2.55-.8-3.81-1.24Z" style="stroke-width: 0px;"></path><polygon points="197.05 103.72 195.84 103.52 193.63 103.51 197.05 103.72" style="stroke-width: 0px;"></polygon><path d="m197.54,106.75c-1.8.08-2.34,1.85-3.55,1.66.66.81,2.32,1,3.81,1.2-.98-.45-1.12-1.29-.26-2.86Z" style="stroke-width: 0px;"></path><path d="m197.8,109.61c.52.24,1.2.41,2.24.43-.53-.21-1.35-.31-2.24-.43Z" style="stroke-width: 0px;"></path><path d="m199.38,99.77c-.46.3-1.68,1.02-1.92,2l2.1-1.45c-.05-.17-.11-.35-.18-.54Z" style="stroke-width: 0px;"></path><path d="m199.62,100.26l-.07.05c.18.59.28,1.01.33,1.19-.03-.16-.11-.53-.26-1.24Z" style="stroke-width: 0px;"></path><path d="m199.34,99.63c.01.05.02.09.04.14.21-.14.27-.2-.04-.14Z" style="stroke-width: 0px;"></path><path d="m199.88,92.82c1.61.32,3.63,1.42,5.01-.92-1.81.04-2.59,1.38-5.01.92Z" style="stroke-width: 0px;"></path><path d="m201.94,96.2c-.6.27-1.39.88-2.19.73l2.22.89-.03-1.63Z" style="stroke-width: 0px;"></path><polygon points="202.98 98.23 201.97 97.83 201.98 98.43 202.98 98.23" style="stroke-width: 0px;"></polygon><path d="m203,105.59c-.77.18-2.21.38-1.78,1.19,1.25.18,1.6.8,2.06,1.47.13-.97.04-1.89-.29-2.66Z" style="stroke-width: 0px;"></path><path d="m200.65,103.55c.07.02.12.06.19.08.16-.16.2-.25-.19-.08Z" style="stroke-width: 0px;"></path><path d="m206.19,115.4c.12-.09.25-.19.37-.28-.14.05-.27.09-.41.13l.04.15Z" style="stroke-width: 0px;"></path><path d="m203.37,105.28c.2-.78-.51-.91-1.36-.96.42.36.76.77.99,1.27.35-.08.57-.16.37-.31Z" style="stroke-width: 0px;"></path><path d="m201.94,111.6c.36-.5.62-1.01.85-1.54-.6.61-1.49,1.67-.85,1.54Z" style="stroke-width: 0px;"></path><path d="m200.28,104.09s-.1-.03-.14-.05c-.41.4-.18.28.14.05Z" style="stroke-width: 0px;"></path><path d="m200.28,104.09c.46.18,1.13.19,1.73.23-.33-.29-.72-.53-1.18-.69-.13.14-.35.32-.55.46Z" style="stroke-width: 0px;"></path><path d="m205.75,112.49l-.49-.44c-.12.78-.78,1.58-2.12,3.09,1.41.48,2.28.34,3.01.12l-.8-2.82.4.06Z" style="stroke-width: 0px;"></path><path d="m210.44,108.12c-.83-1.56-2.41-.35-3.82-.91,1.67,2.41-1.61-.23-2.13,2.23-.61-.36-.92-.78-1.2-1.18-.08.59-.24,1.2-.49,1.81.05-.05.08-.08.12-.12h-.01s.02-.02.04-.02c.24-.23.4-.34.29-.15.03,0,.06.02.07.04.33-.12.63-.18.92-.24-.16.96-.55.37-.92.24-.12.04-.23.06-.36.11-.01,0-.02.01-.03.02l2.35,2.1c.09-.69-.26-1.35-1.03-2.48,2.5-.52,4.03.4,6.21-1.45Z" style="stroke-width: 0px;"></path><path d="m210.48,91.42c-.18.16-.34.22-.51.3.35.06.57.05.51-.3Z" style="stroke-width: 0px;"></path><path d="m204.82,96.34c-.16.09-.3.18-.47.28.08.01.26-.1.47-.28Z" style="stroke-width: 0px;"></path><path d="m204.82,96.34c1.72-1.01,3.04-1.87,4.67-3.26-.4-.07-1.4.13-1.4-.6.49-.83,1.12-.43,1.88-.76-.77-.14-2.2-.7-2.87.95l.39.07c-.31,1.12-1.85,2.93-2.67,3.61Z" style="stroke-width: 0px;"></path><path d="m207.45,101.15l2.05,1.76,1.55-1.96-1.18.55c-.04-1.46-1.42-.58-2.41-.36Z" style="stroke-width: 0px;"></path><polygon points="205.14 116.11 202.57 116.82 206.54 116.66 205.14 116.11" style="stroke-width: 0px;"></polygon><polygon points="206.55 118.78 204.37 119.52 205.94 119.74 206.55 118.78" style="stroke-width: 0px;"></polygon><path d="m235.91,190.58c-1.41,1.93-3.8,4.52-1.58,3.19l2.07-1.47c-.74-.42-.75-1.04-.5-1.71Z" style="stroke-width: 0px;"></path><path d="m217.15,147.94c-.61,1.22-.75,2.08-.64,2.75.97-1.58,2.73-3.15.64-2.75Z" style="stroke-width: 0px;"></path><path d="m274.52,158.06c-.57-.24-1.12-.24-1.65-.05.55.27,1.09.34,1.65.05Z" style="stroke-width: 0px;"></path><path d="m216.52,150.69c-.73,1.17-1.02,2.34.95,2.6.17-.24.24-.45.38-.68-.63-.51-1.19-1.06-1.33-1.92Z" style="stroke-width: 0px;"></path><path d="m192.67,43.85c-.28.28-.46.88-.43,1.96-.01-.5.22-1.25.43-1.96Z" style="stroke-width: 0px;"></path><path d="m209.56,130.08c-.36-.51-.3,0,0,0h0Z" style="stroke-width: 0px;"></path><path d="m219.25,123.81c-.17.05-.29.07-.43.1.13-.03.27-.06.43-.1Z" style="stroke-width: 0px;"></path><path d="m218.83,123.91c-.18.04-.34.06-.47.07.14,0,.3-.03.47-.07Z" style="stroke-width: 0px;"></path><path d="m218.35,123.97c-.12,0-.24.01-.34,0,.09.01.21,0,.34,0Z" style="stroke-width: 0px;"></path><path d="m210.35,128.86c-.22.31-.38.64-.46.97.14-.18.3-.48.46-.97Z" style="stroke-width: 0px;"></path><path d="m209.26,129.36c.04-.23.04-.41.06-.58-.42.07-.65.21-.06.58Z" style="stroke-width: 0px;"></path><path d="m209.56,130.08c.09.15.21.37.38.74-.14-.31-.12-.64-.05-1-.12.17-.24.26-.33.26Z" style="stroke-width: 0px;"></path><path d="m192.67,43.85c.76-.76,2.37.89,3.74,1.17-1.81,1.25-3.5,2.76-5.05,4.44,1.87.77,1.69,2.18,1.72,3.46-.01,1.29,0,2.54,1.88,2.7-.25-.47-.47-.96-.67-1.48,2.15,1.02,4.58.24,7.17-.39.25-.06.52-.12.77-.18-.04,1.15-.04,2.35.07,3.63.47,2.55.84,6.37,1.64,10.19,2.86,13.7,8.36,26.47,13.63,39.27-.04-.03-.09-.06-.18-.07l-1.19.55c.36.68,1.31.9,1.67.26.26.63.52,1.27.78,1.9-2.32-.41-8.7,3.19-12.08,5.82.95-.34,1.81-.69,3.61.14.98-.93,1.53-4.07,3.92-3.73,1.82,1.34-.17,1.77-.95,3.09,2.11-1.61,4.25.2,7.34-.72,1.45,3.67,2.83,7.35,4.09,11.07-.35.04-.68.16-.99.41l.75.9c-2.1,1.72-3.93-.82-4.63.84-2.14-.8-5.29-1.34-4.61-3.68l3.22-1.58c-.96.4-1.54,1.96-.34,2.12-1.74-.23,3.47-4.58-1.23-3.81l-1.83,2.18c-2.18-.72-6.32-.98-5.92-3.02-2.99,2.02.53.24-2.87,2.88,4.43-2.83,1.35,4.2,5.8.71-4.05,2.84-1.13,2.77-4.46,5.63,1.09-.43,1.94-1.28,1.86.24.35-.05.81-.05,1.08-.04-.02.05-.03.07-.05.12.04-.04.07-.08.11-.12.19,0,.22,0,.04-.04.38-.49.87-.95,1.45-1.27,2.81-.21,3.46,2,5.01,2.31-.27.99-1.4.07-2.45.9l2.35.47c-2.45.91-3.49,3.38-5.54,1.98.15.57.26,1.12.38,1.68-.57.69-.9,1.4-.92,2-.03.59.25,1.07.94,1.5-.26,1.13,3.49,1.66,1.28,1.38l2.48,2.74-.62.22c.34,1.61,1.89,2.88,2.93,4.34,1.07,1.46,1.65,3.09.06,5.66,1,.8,2.16,1.53,2.13,3.5l-1.98,1.16c1.22,1.02-.49,4.75,1.91,4.4-5.03,3.8,1.49,6.77,1.53,9.37l2.72-1.16c.55,1.57,1.98,2.67,3.94,3.96l2.29-1.25c2.68.62.3,4.82,1.79,7.15-.97.29-1.06-.45-.74-1.16-3.77,5.64,6.95,4.14,4.51,8.7,1.18.2,1.14.81.8,1.57-.04-.06-.11-.09-.21-.1,0,.08.05.18.11.28-.25.5-.55,1.03-.75,1.55.42-.57.74-1.07.83-1.41.31.47,1,1.07,1.97,1.49l-2.3,1.64c.06.04.09.09.16.13-.53,1.21,1.48-.05,3.13-1.43.6.15,1.27.22,2.01.16-3.67,2.73,2.37,1.19-1.45,4.27,2.16-.59,3.35,2.3,7.13,1.17-.06,1.06-.11,2.12,1.49,2.17l-2.95,2.03,5.16-.52c-1.34,2.09-2.22,3.12-5.2,3.37,5.08.55,2.51,1.31,7.35,1.51l-2.09.97c.48.73,3.87.53,2.43,1.88-1.49,1.72-.59,4.39,2.07,8.03,1.4,1.78,3.27,4,6.64,5.91.85.46,1.7.9,2.69,1.24.96.38,1.94.64,2.95.85,1.99.43,3.96.55,5.67.62-2.04-3.03-.35-2.52,1.39-2.21,1.91.34,4,.39,2.84-1.96.65.56,1.4.84,1.85,1.26.44.42.83.89.47,1.91.86-1,1.5-1.47,2.34-2,.78-.46,1.61-.85,2.34-1.34.72-.43,1.4-1.1,1.8-1.89.41-.86.57-1.96.23-3.4,1.73.36,1.15,2.43,2.28,2.49.05-.61.02-2.49,1.18-2.56,1.18-.12.67,1.53.58,2.87.49-.78.84-1.51,1.05-2.24.22-.76.31-1.46.3-2.1-.03-1.27-.5-2.4-1.19-3.21-1.38-1.65-3.71-2.49-5.91-3.22,1.39-1,1.92-2.11,1.79-3.06-.22-.92-1.06-1.79-2.72-2.32.69-.49,1.34-1.21,1.96-1.45.61-.23,1.25.03,1.77,1.71,0-.48.02-1.5-.11-2.68-.08-.57-.18-1.19-.33-1.82-.16-.6-.36-1.17-.59-1.73-.47-1.11-1.09-1.94-1.77-2.44-.69-.43-1.42-.49-2.21.01.13-.22.15-.44.08-.64-.03-.1-.08-.2-.15-.29-.04-.06-.07-.07-.12-.1-.18-.09-.52-.07-.74-.03-.53-1.27-.28-1.52-1.27-2.78l-.36.66c-2.17.67-2.56.41-2.52-.12.04-.53.5-1.33-.02-1.93l.45-.13c.89-2.2.39-2.47-.06-2.72-.46-.27-.82-.5.21-3.01l-2.54,1.19c-5.75,1.77,2.08-4.43-.82-5.58l-1.21,1.3c-2.34-.36,6.45-5.98,6.74-7.31.4-.42.93.07,1.42.26,2.23-4.07-3.57.94-5.16-.89,1.7-1.08,4.88-1.26,4.7-2.81,1.25-1.25-7.55-1.91-4.7-5.16-1.28.95-2.55,1.89-3.98,1.29-1.06-1.36,3.97-6.03-1.04-5.82.32-.33.67-.53,1.03-.67-1.59-.75-3.24-3.12-5.94-3,4.39-2.09,2.67-3.52.9-4.81-1.76-1.29-3.54-2.44.69-3.79l-1.61-3.47.9-.18c-.19-2.48-2.44-2.67-4.74-2.86.42-.72,1.33-.57,1.79-.66.69-3.93.21-4.12-4.88-5.74l2.68-1.11c-1.83-.33,2.91-6.16-1.23-8.6.32-.05.88-.13,1.35.02-2.14-1.44-.82-4.22-.28-6.45.56-2.24.37-3.94-4.91-3.34l-3.15-1.88c.04,3.46-4.55.62-5.9,2.39-.93-1.15,2.23-4.11,3.15-2.65l-.45.37c5.45-.73.9-4.53,4.55-5.32-.91-3.17-.97-6.49-.9-9.77.03-3.27.21-6.51-.29-9.53l-4.03,1.54-.19-2.16c.86-.75,3.12-1.39,3.25.14,2.2-1.26-2.49-2.12-3.41-1.99,1.14-3.28,5.09.2,5.02-.73l-.54-1.16-.44.37c-1.89-.66-3.72-.4-3.86-2.25.62-1.3,2.47-1.07,2.55-1.55.3-.05.41-.23,0-.71l-.13-2.71-3.12,1.66c-1.85-.89-.26-2.55-3.8-.64,5.46-2.84.36-10.34,2.02-11.76-2.67-1.28-2.91-2.94-2.91-5.03-.62.61-4.32,1.47-4.11-.38,7.81-.47,2.9-3.72,8.26-5.9-1.76.87-2.15-.31-2.75-1.45-.67-1.5-1.5-2.71-3.9-1,.17-.94.87-1.12,1.74-1.26.87-.15,1.91-.24,2.63-1.2-1.97-2.06-2.27-4.71-2.99-7.94-.18-.8-.37-1.63-.68-2.48-.28-.84-.59-1.7-1.07-2.54-.45-.84-.94-1.66-1.61-2.41-.64-.76-1.36-1.47-2.24-2.03-.73.72-.9,2.65-3.05,2.8.21-2.12.04-4.27-.36-6.55-.87-.2-1.92.92-2.81,1.55-.45.32-.85.51-1.21.35-.36-.14-.67-.62-.99-1.7.07.95.05,2.34-.93,2.31-2.76-2.4-6.34-3.27-9.53-3.21-.79.03-1.6.07-2.37.18-.75.12-1.5.27-2.24.42-.76.19-1.52.42-2.27.64-.76.24-1.53.55-2.29.82-3.06,1.21-6.15,2.86-9.32,4.94-3.19,2.08-6.41,4.63-10.06,7.58,2.75-1.28,2.22.2,1.82,1.63Zm20.98,91.75s.08,0,.14,0c-.79,1.21-.47.77-.14,0Zm38.24-55.78l-.64.55c-.97-.79-.2-.66.64-.55Zm-33.16,29.69c.32.78.63,1.55.94,2.33-1.19-.18-1.9-.96-.94-2.33Zm.97,2.85s.1-.04.16-.05c.02.06.05.11.07.17l-.22-.12Zm2.67,30.51c-1.93-2.01,2.7-1.98,1.9-2.18-.29-2.32-2.57-2.67-4.58-3.05-1.98-.33-3.68-.92-2.42-2.96,2.63-2.18,5.98-1.76,8.06-2.67,1.67,1.53-1.1,3.38-.6,4.65l.97-1.99c1.18.33,2.29,1.35,1.62,2.29.28-.24.47-.53.6-.86.86,2.96,1.8,5.88,2.81,8.76-3.2.19-6.32-.46-8.36-1.98Zm9.68,12.49c.81-.26,1.67-.85,2.23-1.27.25.6.49,1.19.75,1.78-1.31-.01-2.42-.18-2.98-.51Zm.59,14.2c.16-.36,2.32-5.11,4-6.72.33-.3.71-.56,1.12-.78.33.71.66,1.41,1,2.12l-3.99,1.93,4.13-1.64c.33.69.65,1.39.99,2.08-3.09,1.5-5.89,2.69-7.24,3.01Zm5.01,10.96l1.45-1.36-2.93-.92c2.17-.46,5.44-1.01,8.82-1.52.54,1.04,1.08,2.09,1.63,3.13-3.7.8-7.3,1.29-8.97.67Zm9.75,16.06c.3-.09.6-.2.93-.34-.54.32-.7.65-.93.34Zm4.28,3.61c1.22-.49,2.82-1.43,4.55-2.47.26.48.52.97.78,1.45-1.78.34-3.55.68-5.33,1.02Zm29.46,1.69c.89.98,1.57,2.28,2.04,3.79-.72.41-1.83-.32-3.36-.98.29.24.57.49.81.7-.64.36-1.33.34-2.04.17.1-.42.17-.85.2-1.29.36.13.7.27,1.04.41-.32-.26-.66-.5-1.01-.73,0-.2-.01-.4-.02-.61.44-.2.87-.41,1.23-.63.49-.3.88-.61,1.12-.85Z" style="stroke-width: 0px;"></path><path d="m206.38,124.72l1.03.89c-.35-.55.14-.98.45-1.44-.52.22-1.18.67-1.48.56Z" style="stroke-width: 0px;"></path><path d="m206.38,124.72l-.12-.1c.03.05.07.08.12.1Z" style="stroke-width: 0px;"></path><path d="m214.56,120.16c2.18-.94,1.11-1.48.34-2.23.03.05.07.1.06.16-3.19.93-1.78,1.49-.41,2.07Z" style="stroke-width: 0px;"></path><path d="m214.75,117.75c-.21-.24-.38-.5-.38-.82-1.27.38-.12.44.38.82Z" style="stroke-width: 0px;"></path><path d="m209.89,131.48c-3.01.46,4.34,1.61,2.11-.15.45-.6-2.96.67-2.11.15Z" style="stroke-width: 0px;"></path><polygon points="221.34 117.7 221.55 116.64 218.95 118.01 221.34 117.7" style="stroke-width: 0px;"></polygon><path d="m222.22,124.73l.24-1.76c-.45.18-.79.09-1.08-.07.23.95.03,2.14.84,1.82Z" style="stroke-width: 0px;"></path><path d="m220.51,121.88c.12.25.4.77.87,1.03-.11-.5-.33-.93-.87-1.03Z" style="stroke-width: 0px;"></path><path d="m226.66,141.26l1.34,1.42c1-.15,1.44-.79.86-1.29-.79-.18-1.36-.69-2.2-.13Z" style="stroke-width: 0px;"></path><path d="m187.98,52.96c-.44.66-.86,1.35-1.29,2.06.67-.46,1.35-.9,2.02-1.31l-.73-.74Z" style="stroke-width: 0px;"></path><path d="m192.4,56.57l-3.75.63c1.16.31,2.32.6,3.47.85-.19-.38-.56-1.14.28-1.49Z" style="stroke-width: 0px;"></path><path d="m360.86,183.3c.24-.21-2.2-.36-2.63-.43.5.42,3.26.49,2.63.43Z" style="stroke-width: 0px;"></path><path d="m365.94,189.56l-1-.14c.82.39,1.62.72,2.46,1.09l-1.47-.96Z" style="stroke-width: 0px;"></path><path d="m368.47,195.78c-.89-.75-1.98-1.64-1.44-2.63l.89-.42c-1.13-.01-2.27-.07-3.41-.18.4.99,1.36,2.16,2.26,3.19.88,1.06,1.73,1.96,1.74,3.05,1.44-1.64.79-2.26-.04-3.01Z" style="stroke-width: 0px;"></path><path d="m369.12,209.74c.06-.02-.4.09-2.27-.66.06.26.05.37.07.55.31.18.72.46,1.37,1.01.19-.83.77-.88.83-.89Z" style="stroke-width: 0px;"></path><path d="m366.92,209.63c-1.53-.92.17,1.77,0,0h0Z" style="stroke-width: 0px;"></path><path d="m372.13,214.98c2.01-.16,1.85-1.23,1.47-2.99l-1.01.42c-.37.11-.78.2-1.17.29,0,.51.45,1.04.7,1.4.25.36.41.66.02.89Z" style="stroke-width: 0px;"></path><path d="m375.88,209.52l-.89.37c0,.42.17.62.89-.37Z" style="stroke-width: 0px;"></path><path d="m374.14,210.1c.51-1.13-.11-.07-1.17.46.75-.16,1.36-.43,2.02-.67,0-.71.43-1.98-.85.21Z" style="stroke-width: 0px;"></path><path d="m370.11,207.28c-.28.68.45,1.87,2.08,2.25-.56-1.25-1.26-2.24.8-2.84-.37-.09-.7-.13-1-.14-.31-.01-.62-.02-.87.03-.51.09-.86.34-1,.69Z" style="stroke-width: 0px;"></path><path d="m372.31,196.71c.14-.47.33-.93.55-1.36-.51.06-1.03.08-1.56.08.4,0,.35.49.38.92.01.44.14.77.64.35Z" style="stroke-width: 0px;"></path><path d="m387.02,215.01c-.03-.89-1.46-2.12-1.82-3.21-.58.44-1.19.85-1.84,1.25,1.07.54,3.2.74,3.66,1.97Z" style="stroke-width: 0px;"></path><path d="m387.71,209.61c-.65.17-1.15.32-1.54.48-.37.15-.61.29-.78.46-.34.34-.35.77-.19,1.24.44-.33.82-.64,1.26-1.02.44-.38.86-.77,1.25-1.17Z" style="stroke-width: 0px;"></path><path d="m377.34,205.14c-.96.82-1.98,1.63-3.19,2.3,1.36-.63,2.5-1.42,3.6-2.23-.16-.02-.27-.05-.41-.07Z" style="stroke-width: 0px;"></path><path d="m399.3,208.63c-.02-.74-.07-1.46-.15-2.17,0,.55-.04,1.12-.09,1.69.1.9.22,1.78.1,2.8.16-.84.15-1.58.13-2.32Z" style="stroke-width: 0px;"></path><path d="m403.71,202.16c-.33.2-.75.42-1.24.59,1.06,1.6,3.11.28,3.58,1.61.27-.81.09-1.48-.21-2.18-.31-.68-.71-1.46-1.21-1.98.22.43.1,1.01-.22,1.4-.17.21-.4.4-.71.56Z" style="stroke-width: 0px;"></path><path d="m403.28,198.45c.25.46.79,1.07,1.35,1.74-.22-.5-.6-1.06-1.35-1.74Z" style="stroke-width: 0px;"></path><path d="m395.98,208.16c-.87-.34-1.71-.71-2.52-1.13-.28.2-.6.43-.92.66.48.3,1.66,1.23,3.44.47Z" style="stroke-width: 0px;"></path><path d="m393.38,207l.08.04c.97-.72,1.69-1.31,1.88-1.49-.17.15-.78.68-1.96,1.45Z" style="stroke-width: 0px;"></path><path d="m392.28,207.85c.1-.06.17-.1.26-.16-.24-.14-.34-.17-.26.16Z" style="stroke-width: 0px;"></path><path d="m382.89,205.75c.42-.87.19-1.72-.74-2.74-.27.85-.19,1.58-.16,2.35.01.77-.02,1.61-.91,2.63.63-.68,1.37-1.36,1.81-2.24Z" style="stroke-width: 0px;"></path><path d="m386.8,206.48c.24.61,1.09,1.33.54,2.25.84-.88,1.54-1.81,2.12-2.82-.89.3-1.77.48-2.66.57Z" style="stroke-width: 0px;"></path><path d="m390.16,204.57c-.21.45-.44.9-.7,1.35.33-.1.66-.22.99-.34l-.29-1Z" style="stroke-width: 0px;"></path><path d="m398.15,199.17c.66.44,1.75,1.41,2.07.53-.35-.52-.48-.95-.51-1.33-.06-.33,0-.63.03-.95-.36.23-.64.44-.91.74-.28.32-.51.66-.68,1.02Z" style="stroke-width: 0px;"></path><path d="m397.65,202.81c0-.09.01-.17,0-.25-.25-.01-.36.04,0,.25Z" style="stroke-width: 0px;"></path><path d="m400.79,194.81c-.13-.06-.28-.12-.42-.18.13.07.25.13.38.2l.03-.02Z" style="stroke-width: 0px;"></path><path d="m397.67,199.09c-.73.38-.41,1.05.05,1.8.05-.59.22-1.24.43-1.72-.3-.2-.5-.31-.47-.08Z" style="stroke-width: 0px;"></path><path d="m402.68,196.76c-.53-.07-1.03.02-1.5.12.4.04.93.07,1.29.05.35-.01.51-.02.22-.17Z" style="stroke-width: 0px;"></path><path d="m398.41,202.66c0,.06.02.12.01.18.63.02.38-.09-.01-.18Z" style="stroke-width: 0px;"></path><path d="m398.41,202.66c-.01-.31-.1-.62-.22-.93-.13-.3-.31-.57-.47-.84-.03.46-.12,1.09-.07,1.66.21,0,.5.05.75.11Z" style="stroke-width: 0px;"></path><path d="m399.92,195.05l.22.22c.42.03,1.31.28,3.01.91-.97-.6-1.71-1.02-2.4-1.37-.19.12-.36.26-.53.4l-.3-.17Z" style="stroke-width: 0px;"></path><path d="m399.84,195.41c-.05.17-.04.4-.07.87-2.22-1.22-3.01-2.17-5.69-2.74-.17.94,1.73,1.35,2.51,2.37.05-1.87,1.13.96,2.91.28.27.48.3.8.24,1.22.45-.3.9-.42,1.44-.54-.06,0-.11-.01-.16-.02h0s-.02,0-.04,0c-.32-.04-.51-.08-.31-.1-.03-.02-.03-.04-.03-.05-.32-.14-.6-.27-.86-.41.67-.3.64.15.86.41.11.05.22.1.34.15h.03c-.18-.8-.5-1.28-.87-1.58-.19,0-.27.02-.3.14Z" style="stroke-width: 0px;"></path><path d="m382.88,197.52c.09.21.13.39.16.56.06-.32.05-.53-.16-.56Z" style="stroke-width: 0px;"></path><path d="m383.6,200.71c.59.35,1.57,1.05,2.52,1.7.55.37,1.06.7,1.38.95-1.28-1.55-2.28-2.81-3.47-4.56-.03.36.07,1.44-.57,1.28-.61-.67-.21-1.18-.41-1.99-.06.35-.24.82-.3,1.36-.05.53.03,1.12.73,1.63l.12-.37Z" style="stroke-width: 0px;"></path><path d="m387.49,203.35c.12.14.22.27.34.42.02-.1-.11-.24-.34-.42Z" style="stroke-width: 0px;"></path><path d="m391.9,198.44c.06-.46.05-.85.03-1.24-.03-.38-.03-.79-.1-1.12-.77-.06-1.58-.11-2.34-.22l1.16.6c-.92.62.47,1.32,1.25,1.99Z" style="stroke-width: 0px;"></path><path d="m401.93,195.32l2.35,1.22c-1.1-.6-2.17-1.23-3.23-1.89.29.23.58.45.88.67Z" style="stroke-width: 0px;"></path><polygon points="403.35 193.92 402.3 193.97 404.31 195.11 403.35 193.92" style="stroke-width: 0px;"></polygon><path d="m413.13,153.59c2.21-.04,5.6.11,3.05-.39l-2.5-.39c.36.45.03.66-.55.77Z" style="stroke-width: 0px;"></path><path d="m407.53,175.22c1.06-.22,1.55-.47,1.73-.74-1.53.19-3.75.12-1.73.74Z" style="stroke-width: 0px;"></path><path d="m395.24,96.63c.46-.41.76-.88.7-1.5-.49.43-.69.94-.7,1.5Z" style="stroke-width: 0px;"></path><path d="m409.27,174.48c1.14-.14,1.89-.43.28-1.24-.26.02-.41.06-.63.09.34.41.6.8.35,1.15Z" style="stroke-width: 0px;"></path><path d="m364.35,179.21c-.14-.16-.12-.39-.14-.62-.18.09-.18.27.14.62Z" style="stroke-width: 0px;"></path><path d="m406.63,186.41c.02.46.24.15,0,0h0Z" style="stroke-width: 0px;"></path><path d="m396.56,184.95c-.24-.17-.56-.35-1.1-.56.56.24.91.42,1.1.56Z" style="stroke-width: 0px;"></path><path d="m405.34,186.66c.35-.05.65-.14.89-.27-.21.02-.5.1-.89.27Z" style="stroke-width: 0px;"></path><path d="m406.5,186.96c-.16.1-.25.19-.35.28.38.19.65.23.35-.28Z" style="stroke-width: 0px;"></path><path d="m406.63,186.41c0-.13,0-.31.05-.6-.04.24-.22.41-.46.56.19-.03.34-.01.41.03Z" style="stroke-width: 0px;"></path><path d="m361.99,178.13c2.03-.42,2.19,0,2.22.46.5-.25,2.52.23,3.91.3l-4.01,1.49c3.81.68.08,2,3.73,2.52l-.61-.64c2.34.64,5.04.51,7.92.37-.05.6-.11,1.21-.16,1.81-.46,4.85-1.79,10.34,4.89,12.06,5.33,1.37,6.5-2.82,7.74-6.1.02.03.04.07.1.11l1.23.45c.06-.35-.57-.92-1.18-.93.13-.33.26-.65.4-.95,1.56,1.42,8.41,3.87,12.21,5.54-.89-.46-1.76-.84-2.76-1.83-1.16-.52-3.11-.41-4.81-1.69-.67-1.13.81-.31,2,.04.09.02.17.04.26.05-2.42-.87-2.93-2.73-5.74-4.31.88-1.74,1.61-3.57,2.23-5.46.32.15.66.26,1.04.31l-.25-.67c2.57.26,2.99,2.11,4.33,1.78,1.44,1.3,3.74,3.18,1.96,3.85l-3.41-1.09c.98.37,2.27.04,1.36-.64.66.5-.63.51-1.56.62-.93.12-1.49.34.55,1.5.87.07,1.74.12,2.61.16,1.35,1.46,4.31,4.15,2.73,4.84,3.43,1-.25-.41,3.89.48-4.96-1.41,1.5-2.93-3.96-3.88,2.37.51,2.99.33,3.54.09.54-.24,1-.54,3.13-.41-1.13-.36-2.25-.38-1.37-1.13-.31-.16-.69-.4-.91-.55.04-.02.06-.02.1-.03-.05,0-.1,0-.15,0-.15-.1-.19-.11-.05,0-.56.06-1.21.03-1.85-.12-2.38-1.36-1.85-2.69-3.05-3.56.69-.34,1.22.61,2.51.71l-1.8-1.3c2.52.7,4.58-.16,5.68,1.53l.44-1.09c1.6-.26,2.41-1.02,1.49-1.85.68-.37-2.48-1.99-.61-1.05-.39-.68-.77-1.36-1.17-2.02l.64.14c.71-1.52-3.48-4.13,1.5-4.73-.53-.64-1.2-1.33-.29-1.99l2.24.35c-.62-.81,2.64-1.39.41-2.19,6.09.68,2-2.78,3.31-3.66l-2.87-.7c.34-.73-.31-1.66-1.25-2.87l-2.56-.52c-1.91-1.3,2.29-1.7,2.32-3.07.95.31.62.58-.02.68,6.1-.27-3.45-4.23,1.06-4.71-.85-.56-.48-.74.22-.85,0,.03.04.07.11.12.04-.03.06-.08.06-.14.47-.06,1.02-.11,1.47-.19-.65.01-1.19.04-1.46.11,0-.28-.22-.77-.77-1.31l2.78.43s-.02-.07-.06-.11c1.1-.18-1.23-.61-3.33-.85-.41-.3-.91-.61-1.53-.9,4.49.64-1.26-1.39,3.56-.8-2.07-.72-1.42-2.18-5.12-3.39.64-.33,1.27-.66,0-1.35l3.53.55-4.48-1.99c2.25-.15,3.54-.14,6.1,1.03-3.82-2.32-1.3-1.5-5.14-3.58l2.24.53c0-.46-2.87-1.78-.95-1.66,4.5-.09,1.59-4.72,6.08-6.47-6.76-.81,3.22-.6-1.93-1.71,1.6.16,2.56-.03,3.85.65-1.3-1.6,2.88-1.48-1.31-3.21,1.61.15,2.26.72,3.22.76-.32-.17-1.29-.67-.33-.63.96.04,1.29.44,1.94.78-.01-1.39-4.85-2.43-9.4-3.38,2.29-.27,2.04-.66-.87-1.69,1.54.04,3.17-.06,3.56.86.15-.21.83-.82,1.01-1.47.05-.16.06-.32.03-.49-.02-.24-.1-.46-.23-.67-.27-.41-.81-.71-1.73-.85.98-.08.39-.9-.03-1.11.34-1.45.67-1.61.29-3.1l-.59.43c-2.26-.25-2.52-.48-2.29-.84.23-.35.93-.85.58-1.39l.46-.02c.73-.76.95-1.26.95-1.56,0-.3-.2-.42-.4-.53-.39-.25-.68-.36.64-2.37l-2.61,1.02c-2.89.79-2.2.11-1.24-1.11.97-1.17,2.06-3.08.55-3.26-.33.47-.67.92-1.03,1.36-1.12.15.33-1.38,1.79-3.46,1.44-2.03,2.85-4.64,2.59-5.45.15-.6.98-.21,1.57-.09,0-1.37-.32-1.94-.66-2.01-.35-.08-.79.33-1.29.86-1,1.07-2.33,2.56-3.54,2.05.45-.91,1.37-1.78,2.04-2.59.67-.81,1.08-1.59.32-2.39.02-.48-.54-.64-1.35-.64-.82,0-1.88.25-2.9.45-1.03.18-1.98.41-2.73.32-.75-.1-1.32-.55-1.58-1.6.05,1.6-.1,3.14-1.38,3.95-.77.06-1.4-1.62-2.25-2.66-.42-.53-.9-.93-1.39-.9-.51.04-1.04.52-1.45,1.7-.18-.43-.24-.83-.23-1.2-.33.3-.73.55-1.18.85-.46.31-.94.63-1.37,1.01-.87.72-1.58,1.76-1.64,3.09-1.39-4.68-3.5-2.95-4.51-1.05-.57.93-.91,1.88-1.41,2.13-.51.24-1.25-.2-2.5-2.04-.96.88-1.86,1.79-2.59,2.72l-.56-.72c-2.11,1.24-.95,3.29.34,5.09-.74-.03-1.21-.78-1.55-1.1-3.13,1.2-3.09,1.99-.13,5.81l-2.66-1.14c.6.64-.79.91-2.1,1.6-1.29.67-2.47,1.75-1.23,3.34-.3-.13-.82-.35-1.14-.66,1.18,1.75-1.15,2.55-2.57,3.58-1.42,1-1.89,2.12,3.16,3.65.74.69,1.48,1.36,2.24,2,1.17-1.69,4.42,1.14,6.28.73.48.75-3.44,1.19-3.82.24l.54-.04c-5.34-1.32-2.31,1.96-5.97,1.35-.08.97-.33,1.89-.68,2.81-.35.93-.77,1.62-1.22,2.42-.9,1.55-1.86,3.07-2.11,4.62l4.27.06-.34,1.07c-1.01.19-3.35.06-3.11-.7-2.44.17,1.89,1.51,2.81,1.62-1.86,1.36-4.89-1.08-5.03-.62l.26.67.51-.09c1.68.69,3.52.91,3.22,1.83-.9.51-2.64.05-2.83.27-.3-.03-.45.03-.15.35l-.49,1.34,3.4-.22c1.59.77-.29,1.28,3.56,1.01-5.93.36-2.57,4.93-4.43,5.32,2.36,1.09,2.24,1.93,1.85,2.94.72-.19,4.5.01,3.96.87-7.74-1.07-3.52,1.33-9.18,1.52,3.76-.3.68,2.65,6.04,2.13-.7.69-2.91-.23-4.79.17,2.85,2.07-2.32,3.76-1.5,6.07,1.02.13,2.61-.09,4.08.52l-5.21.69c.46.48,5.85.95,2.24,1.42.87-.03,2.18-.08,2.48.24-5.36,3.87,3.27,9.22-6.47,12.77Zm44.14-20.62c-2.03-.75-5-1.92-8.03-3.17.13-.57.26-1.15.38-1.72,3.45,1.29,6.65,2.64,7.68,3.53l-1.93-.16,1.9,1.52Zm-10.59,8.1c1.11.52,1.99,1.02,2.3,1.36-.81-.22-1.84-.35-2.52-.42.07-.31.14-.63.22-.94Zm2.09-3.11c-.44-.03-.88-.09-1.34-.18.09-.38.17-.76.26-1.14l4.33.96-4.29-1.12c.09-.37.17-.75.26-1.12,3.35.76,6.3,1.5,7.58,1.94-.32.05-4.56.78-6.79.67Zm3.01-19.8c.06-.26.11-.53.17-.79l4.9,1.86c-1.26-.34-3.09-.69-5.07-1.07Zm-12.43,46.29c.09-.2.19-.39.29-.56.1-.18.19-.37.29-.55,0,0,.01.01.02.02.75.76.85,1.29-.6,1.1Zm.86-1.24s-.1-.07-.15-.1c.01-.03.03-.05.04-.08.04.06.08.11.11.17Zm13.04-7.24c-3.23-.05-6.02-1.61-8.24-2.04-.89-1.25,2.31-.96,2.36-1.66l-1.64.44c-.93-.57-1.53-1.39-.57-1.51-.35-.01-.63.03-.87.12.35-1.39.67-2.78.99-4.16.02-.11.05-.21.07-.32,2.9,1.12,5.37,2.51,6.59,3.84.9,1.48-3.21-.21-2.58.15-1.37,2.02,7.86,4.02,3.89,5.13Zm3.59,1.04s-.08-.04-.12-.06c1.22-.31.74-.21.12.06Zm1.46-34.77c-.29-.09-.6-.19-.94-.28.61.12.93.08.94.28Zm-.39-22.01l1.73,1.67c-.63.05-1.86-.32-3.35-.82.29.14.57.28.83.4-.58.09-1.25.03-1.98-.1.04-.21.08-.43.12-.64.36.12.7.24,1.03.35-.31-.16-.65-.33-1-.51.02-.09.03-.19.05-.28,1.12-.01,2.08-.02,2.58-.06Zm-39.15,16.46l.75-.14c.76.57.04.36-.75.14Z" style="stroke-width: 0px;"></path><path d="m406.17,191.08l.03.13s0-.09-.03-.13Z" style="stroke-width: 0px;"></path><path d="m404.71,190.48c.52.2,1.29.36,1.45.6l-.27-1.08c-.05.5-.68.43-1.19.48Z" style="stroke-width: 0px;"></path><path d="m397.27,188.34c-2.19-.88-1.66-.1-1.52.63,0-.04,0-.08.04-.1,2.91,1.58,2.23.48,1.48-.54Z" style="stroke-width: 0px;"></path><path d="m395.57,189.66c1.16.65.36-.09.19-.53.02.21,0,.41-.19.53Z" style="stroke-width: 0px;"></path><path d="m407.06,185.48c2.79,1.19-2.9-2.95-1.86-.96-.67.1,2.82,1.08,1.86.96Z" style="stroke-width: 0px;"></path><polygon points="389.98 185.58 392.72 186.61 390.68 185.39 389.98 185.58" style="stroke-width: 0px;"></polygon><path d="m393.44,182.61l-1.04.51c.46.15.7.35.86.55.27-.45,1-.8.18-1.06Z" style="stroke-width: 0px;"></path><path d="m393.48,184.48c.02-.15.04-.48-.22-.81-.15.23-.18.49.22.81Z" style="stroke-width: 0px;"></path><path d="m394.43,173.42c.63.36.93.77,1.91.86l-.61-1.04c-.95-.31-1.6-.22-1.29.19Z" style="stroke-width: 0px;"></path><polygon points="360.96 181.35 359.67 181.9 361.69 181.65 360.96 181.35" style="stroke-width: 0px;"></polygon><path d="m364.82,183.54c-.15-.16-.45-.48.41-.52l-3.78-.18,3.37.7Z" style="stroke-width: 0px;"></path><path d="m216.49,677.62l-1.53-1.52-.5,2.26c.25-1.12,2.54,1.15,2.03-.74Z" style="stroke-width: 0px;"></path><path d="m233.23,667.96c.19.29.26.55.34.82.09-.5.09-.83-.34-.82Z" style="stroke-width: 0px;"></path><path d="m234.58,673.2l.1-.56c1.33.7,3.47,3.37,4.27,4.75-1.15-2.76-2.13-4.87-3.75-7.59-.1.57.09,2.08-.81,1.91-.98-.91-.47-1.74-.83-2.93-.21,1.09-.97,3.04,1.01,4.42Z" style="stroke-width: 0px;"></path><path d="m238.96,677.38c.11.25.21.51.32.77.02-.12-.1-.4-.32-.77Z" style="stroke-width: 0px;"></path><path d="m247.28,672.03l-2.34-2.71.62,1.86c-1.8-.27-.78,1.94-.56,3.44l2.27-2.59Z" style="stroke-width: 0px;"></path><path d="m346.04,590.04c-2.28.68-3.9,1.18-3.97,1.23l3.97-1.23Z" style="stroke-width: 0px;"></path><path d="m371.4,636.91l-4.19-1.98c-.58,1.09-1.94,1.37-3.46,1.29,4.6,1.12,11.64,2.9,7.65.69Z" style="stroke-width: 0px;"></path><path d="m396.46,590.52c1.16-.07,2.28-.14,3.34-.21-1.33-.02-2.51-.07-4.51,0-1.03.18-2.1.36-3.17.55,1.5-.11,2.95-.22,4.34-.33Z" style="stroke-width: 0px;"></path><path d="m363.24,593.61c-2.37.42-4.69.86-6.96,1.32l6.96-1.32Z" style="stroke-width: 0px;"></path><path d="m323,593.12c-1.55,1.05-3.06,2.11-4.53,3.17.25.01,2.37-1.61,4.53-3.17Z" style="stroke-width: 0px;"></path><path d="m303.98,664.29c1.58.94,2.62,1.17,3.4,1.04-2.07-1.48-4.29-4.09-3.4-1.04Z" style="stroke-width: 0px;"></path><path d="m307.38,665.33c1.53,1.11,2.96,1.59,2.92-1.26-.33-.27-.58-.37-.88-.59-.49.9-1.04,1.69-2.04,1.85Z" style="stroke-width: 0px;"></path><path d="m227.78,563.26c-.02-.19-.09-.3-.1-.51-.19.48-.09.54.1.51Z" style="stroke-width: 0px;"></path><path d="m282.66,675.85c-.69.51.02.44,0,0h0Z" style="stroke-width: 0px;"></path><path d="m273.86,663.09c.02-.46-.04-1.01-.32-1.84.25.88.34,1.47.32,1.84Z" style="stroke-width: 0px;"></path><path d="m308.24,639.29s.04,0,.07-.02c-.51-.58-.42-.47-.07.02Z" style="stroke-width: 0px;"></path><path d="m280.91,674.65c.45.33.92.58,1.37.7-.26-.22-.69-.45-1.37-.7Z" style="stroke-width: 0px;"></path><path d="m281.68,676.28c-.33-.06-.57-.08-.8-.1.12.63.34.97.8.1Z" style="stroke-width: 0px;"></path><path d="m282.66,675.85c.21-.14.5-.32,1.01-.58-.42.21-.9.2-1.39.08.24.19.38.36.38.5Z" style="stroke-width: 0px;"></path><path d="m293.45,573.38c-.02-.13-.06-.22-.08-.39-1.17,1.33-.77,1.17.08.39Z" style="stroke-width: 0px;"></path><path d="m336.33,606.2c.09.03.15.05.23.09.08,0,.17.01.24.02l-.47-.11Z" style="stroke-width: 0px;"></path><path d="m333.18,604.64c6.77,1.74,5.44,1.82,3.63,1.67,5.45,1.21,10.98,2.37,16.6,3.49-6.51-1.84-13.26-3.57-20.23-5.15Z" style="stroke-width: 0px;"></path><path d="m264.17,533.73c.03-.18.05-.37.06-.58-.03.2-.04.39-.06.58Z" style="stroke-width: 0px;"></path><path d="m273.79,663.43c.03-.08.06-.17.07-.29,0,.12-.04.2-.07.29Z" style="stroke-width: 0px;"></path><path d="m308.77,590.59c-.1,0-.18,0-.28,0,.1.03.19.03.28,0Z" style="stroke-width: 0px;"></path><path d="m232.59,564.75l.1.18c-.02-.08-.05-.13-.1-.18Z" style="stroke-width: 0px;"></path><path d="m343.4,590.36l-.31.05s.09,0,.31-.05Z" style="stroke-width: 0px;"></path><path d="m366.74,593.55c-1.68.15-3.77.43-5.92.83,2.77-.39,4.19-.58,5.92-.83Z" style="stroke-width: 0px;"></path><path d="m323.87,592.54s0-.02.03-.04c-.38.27-.64.45-.89.62l.86-.58Z" style="stroke-width: 0px;"></path><path d="m310.83,619.8c.74.33,1.34.9,1.86,1.54-.41-.95-1-1.63-1.86-1.54Z" style="stroke-width: 0px;"></path><path d="m252.66,660.55c-.08.57-.49.22-.56.79l.65,1.85c.98-.45,1.21-2.19-.09-2.64Z" style="stroke-width: 0px;"></path><path d="m269.15,667.85c-1.28-3.3-1.92-1.82-2.87-.82.07-.04.12-.08.2-.07,1.25,4.8,1.97,2.86,2.67.89Z" style="stroke-width: 0px;"></path><path d="m266.05,667.23c-.3.27-.64.48-1.04.43.5,1.93.57.25,1.04-.43Z" style="stroke-width: 0px;"></path><path d="m284.6,675.35c.95,4.45,1.81-6.45-.41-3.14-.87-.66,1.22,4.37.41,3.14Z" style="stroke-width: 0px;"></path><polygon points="265.75 657.56 264.44 657.12 266.26 661.13 265.75 657.56" style="stroke-width: 0px;"></polygon><path d="m274.42,656.96l-2.22-.49c.27.68.19,1.17.02,1.58,1.16-.26,2.68.12,2.2-1.09Z" style="stroke-width: 0px;"></path><path d="m272.22,658.05c-.61.13-1.13.42-1.22,1.21.3-.16.93-.54,1.22-1.21Z" style="stroke-width: 0px;"></path><polygon points="268.68 655.53 266.47 655.01 267.3 655.68 268.68 655.53" style="stroke-width: 0px;"></polygon><path d="m295.51,648.42c-.38-1.47-1.25-2.09-1.74-1.24-.07,1.15-.58,1.97.27,3.2.5-.64.99-1.29,1.47-1.95Z" style="stroke-width: 0px;"></path><path d="m285.81,644.3l-1.93-5.07-.13,2.31c.85.64,1.24,1.54,2.07,2.76Z" style="stroke-width: 0px;"></path><path d="m288.85,638.18c-.37-1.47,1.12-5.09-1.15-3.82.37,1.46-1.07,3.36,1.15,3.82Z" style="stroke-width: 0px;"></path><polygon points="320.06 631.93 319.61 632.21 323.49 640.22 320.06 631.93" style="stroke-width: 0px;"></polygon><path d="m322.71,606.8c-2.66-1.02,5.03,3.59,1.8,2.27,1.66,1.52,2.67,1.06,4.14,2.35-1.43-1.77-.01-1.09-5.95-4.62Z" style="stroke-width: 0px;"></path><path d="m328.66,611.41c.22.28.5.62.9,1.06-.3-.47-.61-.8-.9-1.06Z" style="stroke-width: 0px;"></path><path d="m329.73,595.97l-8.35,2.27,3.7-.97c3.95-1.05,4.17-1.13,4.65-1.3Z" style="stroke-width: 0px;"></path><polygon points="328.09 595.04 327.94 595.13 338.28 591.33 328.09 595.04" style="stroke-width: 0px;"></polygon><path d="m315.37,599.28s.04-.02,0-.01c-.18.1-.22.12,0,.01Z" style="stroke-width: 0px;"></path><path d="m314.17,599.83c-.28.14,1.03-.49,1.2-.56,1.06-.56,7.1-3.7-1.2.56Z" style="stroke-width: 0px;"></path></svg>