<svg xmlns="http://www.w3.org/2000/svg" data-name="Layer 2" viewBox="0 0 402.93 529.74"><path d="M261.91 132.52c.1.14.21.2.33.19-.1-.15-.2-.23-.33-.19ZM257.83 159.47l-.1-.65c-.2-.09-.35.07-.3.31.13.17.18.41.4.34ZM234.49 244.81c.06-.04.09-.03.13-.02-.04-.11-.08-.16-.13.02ZM239.52 227.76a.34.34 0 0 0-.22-.2c.12.06.18.13.22.2ZM239.25 230.41c-.5-.07-.46.43-.5.96 0-.03 0-.06.02-.09.64.33.56-.27.48-.87ZM238.74 231.5c-.02.16-.05.33-.11.47.26.13.11-.18.11-.47ZM237.54 230.4l.65-.02-.41-.42-.24.44zM238.82 227.5c.15-.5.42-1.03.23-1.06l-.38.78c.1.01.13.14.15.28ZM238.74 228.19c.03-.15.09-.46.07-.69-.08.26-.13.52-.07.69ZM241.49 217.59l.06-.95c-.18-.15-.37.07-.38.42.09.25.08.61.31.52ZM146.29 319.74c-.3-.35-.28-1.82-.54-1.68v.99c.17.23.36.47.54.7ZM142.1 302.81c.03-.1.07-.1.11-.11-.09-.18-.15-.24-.11.11ZM106.38 156.02c-.05.38-.07.81-.07 1.4.03-.46.06-.85.07-1.4ZM148.83 328.28c.02.22.11.58.33 1.19-.1-.28-.22-.75-.33-1.19ZM138.54 268.94c-.08-.13-.17-.23-.3-.23.14.04.23.12.3.23ZM138.13 274.93l.56-.45-.57-.49.01.94zM137.42 266.88l.08 1.64c.1-.04.19.16.27.4-.13-1-.18-2.11-.36-2.04ZM138.06 270.21c-.05-.28-.15-.88-.29-1.29.06.52.15 1.01.29 1.29ZM133.13 249.01c.25.37.51.99.63.67l-.64-1.67c-.25-.12-.25.39 0 1ZM224.33 52.52c-.12.02-.23.06-.35.09.79.13 1.59.38 2.38.73-.67-.35-1.36-.61-2.04-.82ZM235.57 64.87c-.13-1.91-3.7-5.2-5.45-7.77l-.17-.51c-.47-.2-.95-.37-1.43-.52 1.24 1.21 2.71 2.9 4.02 4.46 1.29 1.59 2.42 3.13 3.02 4.33ZM237.53 71.89c.06.2.06.26.09.38.16.33.4.78.74 1.57.06-.65 1.13 1.64-.83-1.95ZM237.62 72.28c-.82-1.59.26 1.18 0 0ZM239.93 77.71c0 .53.68 2.5.27 1.83.95 2.21.98 1.69.84.28-.35-.72-.74-1.41-1.11-2.1ZM241.87 80.61c0 .23.07.55.51 1.14-.17-.38-.32-.76-.51-1.14Z"></path><path d="M241.38 79.51c.31.12-.07-.3-.66-1.26.41.77.77 1.57 1.15 2.37.02-.37.28-.5-.49-1.1ZM240.62 75.96c-.95-2.1-1.57-2.88-1.62-2.67-.08.23.39 1.44 1.31 3.53-.34-1.3-.9-2.96.31-.86ZM236.83 65.14l-.78-1.69c-.37-.4-.76-.77-1.14-1.16.59.57 1.76 3.1 1.92 2.85ZM244.73 94.69c.22.1.24-.96.42-1.21l-.71-1.75c.13.97.52 2.76.29 2.96ZM245.15 93.48l1.09 2.59c-.67-2.39-.94-2.8-1.09-2.59ZM243.44 81.86c-.65-1.34-1.34-2.64-2.07-3.92.84 1.53 1.6 3.12 2.34 4.72l-.26-.81ZM247.63 104.6c-.25-.42-.52-.82-.77-1.21.43.71.84 1.46 1.23 2.23l-.45-1.01ZM247.79 111.17c.15 1.7.45 3.19.69 4.56-.11-1.46-.06-2.97.12-4.94-.43-1.02-.52 1.47-.81.38ZM248.48 115.74c.05.78.14 1.54.28 2.34-.03-.74-.15-1.51-.28-2.34ZM247.62 102.81l.2-1.18c-.09-.32-.2-.67-.3-1.03-.05.24-.21.71.1 2.21ZM248.33 103.5c.03.12.05.21.07.29-.02-.07-.04-.17-.07-.29ZM247.83 101.59v.04c.26.88.41 1.49.51 1.87-.08-.35-.23-.92-.51-1.91ZM247.44 100.33c.03.1.05.17.08.26.02-.11.02-.18-.08-.26ZM246.27 90.28c-.65-1.05-.42.86-1.47-1.43.68 1.54 1.9 4.73 1.47 1.43ZM246.95 96.01c-.12.1-.16.66-.53-.07l1.27 2.91-.73-2.84ZM248.26 100.18l-.57-1.32.27 1.05.3.27zM249.41 113.34c.24 1.19.22 2.51.18 4.01.2-1.6.29-3.25.25-4.81-.18-.22-.48-.88-.43.8ZM249.15 107.56c.02.08.05.18.06.25.02-.16.02-.29-.06-.25ZM247.81 132.39c.04-.08.08-.15.13-.23a.27.27 0 0 1-.08-.07l-.05.3ZM249.94 112.27c.08-1.2-.12-1.9-.33-2.55.12.87.22 1.81.24 2.82.08.1.13.11.09-.27ZM248.64 122.22c.18-.62.35-1.33.5-2.08-.22.6-.61 1.84-.5 2.08ZM249.12 108.22c-.02-.06-.03-.11-.05-.17-.06.39-.01.34.05.17ZM249.12 108.22c.16.58.32 1.04.48 1.51-.11-.71-.23-1.36-.39-1.91-.02.15-.05.3-.09.41ZM248.77 126.72l.09-1.18c-.25 1.32-.6 2.26-1.23 3.97-.04 1.99.08 2.42.22 2.57l.89-5.78.02.41Z"></path><path d="M250.57 122.46c.31-3.43-.2-2.45-.28-4.49-.31 5.49-.15-1.59-.79 2.33 0-1.08.05-2.04.08-2.95-.13.97-.28 1.91-.46 2.79a.84.84 0 0 0 .04-.12v-.03c.09-.23.13-.3.07-.04v.11c.07.04.13.15.18.26-.27 1.57-.16.23-.18-.26-.02-.02-.05-.07-.07-.07v.02c-.07 1.82-.19 3.67-.33 5.53.22-1.16.4-2.64.58-5.21.45.94.36 3.78 1.13 2.12ZM248.18 92.89c0 .18-.04.18-.07.21.16.33.25.45.07-.21ZM248.15 98.04c-.02.06-.04.13-.06.2.04.08.06 0 .06-.2Z"></path><path d="M247.6 93.36c.36 1.76.57 3.98.56 4.68.23-.7.36-1.37.38-2.82-.19-.37-.49-.64-.81-1.94-.17-1.16.25-.07.4-.17-.36-.73-1.14-2.61-.7-.1l.18.37ZM251.69 110.14l-.27.14c-.11-2.61-.43-2.01-.67-2.3.26 1.49.48 2.99.59 4.52.14-.78.25-1.57.35-2.36ZM247.47 132.89l-.47-.69.4 2.79.07-2.1zM246.28 140.28l.39-1.35-.46-.28.07 1.63zM208.02 287.53l.62-.54c.1-1.41.32-2.48.58-3.37-.76 1.94-1.77 4.08-1.19 3.91ZM234.84 199.65c-.73 1.59-1.23 2.88-1.62 4.03.93-1.9 1.88-3.37 1.62-4.03ZM162.23 292.52c-.26-.8-.44-1.13-.55-1.08.26.83.46 1.29.55 1.08ZM231.71 208.45c.14-.27.26-.55.4-.84.3-1.24.61-2.47 1.12-3.94-.69 1.4-1.35 3.04-1.51 4.77ZM200.01 40.1c.39.09 1.04.25 2.19.43-.53-.07-1.38-.31-2.19-.43ZM242.95 163.18c.15-1.29-.03-.21 0 0ZM245.94 157.26c.02.28.07.5.19.55-.11-.12-.17-.31-.19-.55ZM243.47 161.29c-.13.47-.27 1.02-.39 1.61.08-.26.2-.75.39-1.61ZM243.18 161.51c.08-.44.15-.78.21-1.11-.07-.17-.14-.04-.21 1.11ZM242.95 163.18c-.05.38-.12.91-.23 1.79.1-.73.22-1.41.35-2.06-.07.25-.12.35-.12.28ZM244.56 150.19l-.22 2.51c.16-1.35.36-1.81.55-2.47-.13.04-.35.4-.33-.04ZM244.56 150.19l.03-.29c-.02.12-.02.21-.03.29ZM246.92 147.6c.53-.15.61-1.92.8-3.87-.02.12-.03.23-.05.34-.61-.67-.68 1.43-.75 3.53ZM247.76 143.28c.06-.6.14-1.22.25-1.8-.25-.27-.16.72-.25 1.8ZM242.48 166.29c-.48-1.12-.12 6.26.27 1.16.26-.9-.55-.67-.27-1.16ZM248.78 146.26l-.71.61.34 1.16.37-1.77zM246.13 161.55l.62-3.08c-.11.03-.11-.37-.09-.86-.3 1.91-.72 3.99-.53 3.95ZM246.65 157.61c.16-1 .28-1.95.26-2.52-.07.54-.22 1.7-.26 2.52ZM238.99 194.38l-.87 3.32c.1.4.5-.45.81-1.7.11-.83.41-2.06.06-1.62ZM211.31 44.48l-.86-.23c.71.41 1.4.89 2.09 1.34l-1.23-1.11ZM226.95 27.66c.24-.23.43-.43.59-.59l2.27-2.43-1.7-2.16c-1.41-1.8-.93-.23-.87-.37.18.29.34.5.46.65l1.48 1.79-1.98 2.14c-.71.77-.11.73-.25.96ZM196.93 8.67c-1.67.32-3.32.75-4.95 1.18 1.45-.32 2.9-.67 4.37-.9l.58-.27ZM182 12.29l.95-.12c.73-.52 1.5-.95 2.26-1.44-3.36 1-7.08 2.57-10.4 4.31-3.34 1.71-6.24 3.63-8.34 4.89 1.5-.5 3.9-2.08 6.71-3.69 2.79-1.63 6.05-3.18 8.81-3.96ZM155.1 26.82c-.29.22-.38.28-.56.39-.48.43-1.13 1.04-2.29 1.96.48-.18-.12.42-.19.48.03-.03.08-.08.52-.47.44-.4 1.22-1.11 2.51-2.37Z"></path><path d="M154.55 27.21c2.31-2.15-1.72 1.17 0 0ZM143.24 34.96c1.12-.51 2.21-1.13 3.26-1.84-.4.11-1.33.54-2.05.79-.71.26-1.2.38-.67.1-1.68.76-2.35.95-2.33 1.08.02.12.73.08 1.8-.12ZM140.02 36.46c.63-.16 1.25-.32 1.86-.54-.35 0-.83.11-1.86.54ZM143.65 35.25c-.23.35.48-.11 2-1.06-1.21.71-2.47 1.3-3.76 1.74.55 0 .72.26 1.77-.68ZM149.1 33.05c3.18-2.23 4.29-3.61 3.98-3.5-.34.03-2.1 1.53-5.26 3.58.99-.48 2.1-1.17 2.56-1.4.46-.24.32.05-1.28 1.32ZM168.52 19.99c.75-.58 1.48-1.21 2.27-1.75-.6.39-1.95 1.22-3.15 1.92-1.17.75-2.15 1.41-1.99 1.46.96-.55 1.88-1.14 2.87-1.63ZM122.76 46.21c-.32.34-.67.78-1.03 1.24-.36.47-.76.94-1.07 1.41-.65.92-1.22 1.66-1.38 1.71 0 .34 1.25-1.15 1.64-1.32.26-.52.57-1.03.88-1.53.31-.51.6-1.02.96-1.5Z"></path><path d="M118.77 53.97c.47-1.04.91-1.85 1.23-2.49.31-.65.58-1.11.75-1.45.34-.68.34-.85.17-.78-.41.78-.82 1.55-1.16 2.34-.37.79-.7 1.58-1 2.38ZM141.21 37.06c.56-.2 1.12-.38 1.66-.62 1.09-.46 2.15-1.01 3.16-1.65-1.22.74-2.49 1.37-3.81 1.86l-1 .34-1.02.28c-.81.23-1.64.4-2.44.69.52-.17 1.06-.24 1.6-.36l1.85-.53ZM112.75 64.88l-.8 2.36c-.27.82-.52 1.64-.76 2.47.23-.72.47-1.43.72-2.14l.84-2.69ZM106.09 86.11c.06-.38.13-.77.19-1.17.29-1.6.71-3.32 1.33-5.21.16-2.19-1.29 2.73-.97.46-.38 1.74-.6 3.38-.72 4.93-.07.8-.09 1.46-.12 2.12-.03.67-.06 1.31-.08 1.94.06-.66.14-1.34.23-2.02.05-.34.1-.69.15-1.05ZM105.44 93.42c.13-1.34.2-2.73.27-4.24-.14 1.41-.24 2.81-.27 4.24ZM113.81 64.73c.42-.46.82-.92 1.22-1.39.22-.49.46-1.05.68-1.62-.24.28-.71.78-1.9 3.01ZM115.08 63.29l-.04.05c-.61 1.35-1.12 2.35-1.46 3.02.32-.61.82-1.56 1.5-3.07ZM113.57 66.36c-.11.21-.2.39-.26.52l.26-.52ZM115.72 61.72c.11-.14.16-.23.16-.41-.06.15-.1.26-.16.41ZM125.5 46.24c.58-.9.25-.77.11-.86-.07-.04-.1-.14.07-.46.08-.16.22-.37.42-.66.22-.28.51-.62.9-1.06-1.09 1.12-2.5 3.01-3.08 4.05-.57 1.06-.48 1.15 1.58-1.01ZM119 53.94c-.72 1.81-1.27 3.65-1.76 5.48.6-1.66 1.26-3.31 2.04-4.92-.17.04-.76.84-.28-.57ZM116.92 60.61l.32-1.19-.64 1.71v.61l.32-1.13zM107.99 83.45c-.06-.44-.15-1.81-.71 1.43a69.9 69.9 0 0 1-.31 3.5c-.14 1.2-.33 2.45-.53 3.79.28-1.42.56-2.87.8-4.31.24-1.4.47-2.94.75-4.41ZM110.3 73.91c-.05.15-.1.35-.15.49.15-.28.25-.51.15-.49ZM102.99 118.47s-.05-.06-.08-.11l-.05.53c.05-.15.09-.27.13-.42ZM108.19 82.97c.55-2.22.79-3.57.98-4.87a99.46 99.46 0 0 0-1.18 5.35c.04.2.08.24.2-.48ZM105.37 97.13c-.35 1.07-.97 3.29-.89 3.72.29-1.12.59-2.39.89-3.72ZM109.76 75.09c.03-.11.06-.21.09-.33-.35.68-.27.61-.09.33ZM109.76 75.09c-.31 1.15-.45 2.08-.6 3.01.34-1.36.69-2.6.99-3.69-.13.26-.27.51-.39.69Z"></path><path d="M103.28 123.74c.35-1.77 1.6-11.13 1.64-6.85-.35 6.68-.64 5.44-1.13 8.68.4-1.36.47.78.62 3.08.11 1.79.29 3.67.58 4.08 0 .22-.01.44-.02.66l-2.06-2.46 2.05 6.84c.04 3.72.28 7.4.69 11.03-.17-.07-.34-.41-.55-.31.24 1.59.39 2.27.54 2.87.12.43.25.83.52 1.48.09.64.19 1.29.29 1.93-.03.41-.06.82-.07 1.23.04-.26.1-.43.17-.53l.3 1.71c-.13-.15-.24-.13-.27.26.07-.15.17-.2.28-.26l.12.63c-.04-.01-.08 0-.1.03-.04.07.04.2.18.39l.09.48-.49.46c-.07-.26-.13-.51-.19-.71.04.2.09.46.15.75l-.1.09.12.03c.07.35.16.73.25 1.13v2.53c.29.55.62 1.09.96 1.64.27 1.24.54 2.41.77 3.29-.22-.51-.41-1.05-.51-1.63.18 1.08-.23.93-.42.7l1.59 3.41c-.61.06-.3.83-.3 1.79-1.53-4.17-3.11-8.91-3.93-14.87l.49-1.37c-.1.66.44 4.73 1.08 6.52-.49-1.42-.78-4.16-1.06-6.93-.29-2.77-.54-5.55-1.2-7.13 0 1.68.04 3.37.11 5.06-1.14-4.99-2.52-11.35-2.23-17.8-.38 1.45-.35 1.83-.34 2.41 0 .58 0 1.36-.34 3.68.48-2.02.58 2.12.97 5.92.34 3.5.84 6.69 1 4.69-.21 4.44.86 7.7 1.37 13.57.22-.25-.06-2.21 1.12 3.04.13.22.37.75.51 1.09.03.16.04.22.07.36-.02-.11-.03-.19-.05-.29.1.22.11.23-.02-.11-.22-1.26-.35-2.3-.31-2.74.59 1.23 1.43 3.89 2.31 6.56.88 2.66 1.72 5.3 2.25 6.63.72 3.03-.63-1.18-.43.53l1.54 3.94c-.41.55 1.14 8.2-.97 1.22.55 2.12 1.06 4.24 1.55 6.36.59 3.82 1.46 8.99 2.17 12.16.35 3.21 2.08 7.85 1.1 5.2.8 3.46 1.7 6.84 2.58 10.19l-.11.12c.55 2.47 1.11 4.97 1.68 7.51.54 2.55 1.06 5.17 1.55 7.84.96 5.36 1.76 10.95 2.1 16.82.63 3.4 1.3 6.92 1.98 12.67l-.31 1.19c.79 4.37 1.54 13.3 2.35 15.12-.23 2.49.56 7.85 1.86 13.61.3 1.43.68 2.9 1.06 4.35.34 1.44.81 2.9 1.23 4.29.21.71.42 1.35.62 1.96.2.62.39 1.21.58 1.79.36 1.15.69 2.21.95 3.15l.69.09c1.55 5.12 3.19 9.99 5.33 16.31l.42-.55c2.07 5.38 3.78 14.3 6.49 23.01-.39-.53-1-2.76-1.35-4.37.97 5.39 2.86 10.85 4.95 16.14 2.1 5.29 4.39 10.34 6.06 15.11 1.23 2.2 1.97 3.86 2.66 5.49a5.95 5.95 0 0 0-.32-.54c.12.23.29.57.47.92.42 1.03.89 2.09 1.42 3.23-.39-1-.8-1.93-1.16-2.74.34.65.78 1.42 1.27 2.25.15.62.29 1.13.4 1.52-.19-.36-.36-.7-.52-1.04.33.8.67 1.62 1 2.4l9.67 23.23-1.1-8.32-8.37-15.02c-.15-.27-.29-.52-.42-.78l.44-.19c.15.23.29.46.44.69l7.42 11.54.5 3.76 3.7 6.64-1.67-6.47 1.4 2.18-3.91-11.89-1.6-6.18.29 2.21-1.28-3.89c-.08-.25-.17-.51-.25-.77l.53-.23c.08.29.17.59.24.86l.47 1.83-.25-1.89c-.14-1.05-.27-2.04-.4-2.81.27.67.61 1.41.97 2.18.37.8.87 1.7 1.34 2.47.95 1.57 1.83 2.94 2.11 3.84l.44 1.41 1.71-.86c.08-.04.14-.06.19-.09.2-.1.42-.22.67-.34l.84-.43-.16-1.28c-.19-1.48-.57-3.57-1.09-6.1-.27-1.27-.56-2.65-.87-4.12-.2-.89-.45-1.64-.62-2.3-.11-.44-.2-.94.01-1.38.11-.37.2-.81.26-1.27 1.98 6.33 2.16 7.09 4.31 13.56l-.47-1.89c.88 1.17 1.37 2.54 1.88 4.28.53 1.77 1.14 4.03 2.92 6.5l-.18-.09c1.04 1.69 2.18 2.83 3.14 3.63.25.19.48.37.69.54.16.11.31.21.46.31.29.2.49.28.69.4.81.38 1.28.49 1.89.62.11.03.23.06.35.09-.06.1-.14.21-.21.33-.16.25-.37.55-.64.92s-.6.82-1.01 1.34c-.52.69-1.15 1.51-1.9 2.5l.88-.25c.06.27-.07.68-.35 1.2-.92.59-1.94 1.1-3.06 1.57l1.08 1.33c-.23.3-.47.61-.72.93l-1.76 2.25 2.85-.91c.37-.12.76-.25 1.15-.4l.98 1.21c.49-.76.98-1.52 1.46-2.3.81-.45 1.62-.99 2.37-1.68.46-.43.9-.9 1.28-1.42.36-.48.67-.92.98-1.39.62-.93 1.19-1.86 1.68-2.78l-1.73 2.11c.93-1.83 2.79-4.02 4.61-6.32 1.82-2.27 3.62-4.74 4.49-6.6.45-.78-.38 1.37-.86 2.59 2.58-4.86 2.45-5.26 2.19-5.38-.29-.13-.79.03.6-3.73.91-1.24.33 2.18 2.31-2.87.63-1.21 1.64-5.02 2.77-9.37.23-.88.46-1.79.7-2.69l1.86 1.1.83-2.32c.11-.3.2-.61.28-.91l.16.36c.07-.49.14-1 .21-1.51.61-1.75 1.1-3.4 1.59-5.06.43-5.35-.86 1.42-1.08-.35.06-.84.1-1.64.13-2.45.02-.72.04-1.45.04-2.22.08-1.28.16-2.22.23-2.91.19-.52.37-1.03.56-1.56.03-.1.07-.19.1-.29.21.07.41.22.61-.92 0-.35-.02-.73-.02-1.13 0-.03.01-.06.02-.09l.1-.76c.46-3.88.64-7.49.24-10.08.09-.54.16-.83.23-.94-.03.39-.06.77-.08 1.17l.16-.91c.04 1.31.11 2.03.24 1.74-.03-1.23-.1-1.86-.19-2.02l.76-4.42c.21 6.88-.47 11.82.65 6.55-.8-.47-.4-5.98.07-11.44.02-.29.05-.58.08-.87.96-2.85 1.87-5.76 2.63-8.54.03.14.06.41-.16 1.36.46-1.65.99-3.37 1.56-5.13.6-1.76 1.21-3.57 1.82-5.38 1.17-3.61 2.35-7.25 3.45-10.63 1.1-3.31 2.21-6.25 3.15-8.62.46-1.19.88-2.22 1.21-3.26.32-1 .51-1.86.53-2.55l1.66-4.24 1.57-4.27c-4.88 10.67-.18-1.98-2.46 2.28 1.76-4.23 5.2-10.71 3.18-5.43l-.44.77c.14 1.19 1.65-2.13 3.11-5.72 1.45-3.59 2.83-7.43 3.16-7.15 3.86-10.9 7.23-21.79 10.24-32.59 1.54-5.39 2.82-10.78 4.14-16.12 1.29-5.34 2.57-10.63 3.83-15.87l-1.45 2.21 1.76-7.31c.65-1.87 1.29-2.42.04 2.79 1.14-2.63 1.62-8.86 1.46-9.05 2.74-10.15.1 4.23.85 1.09l.93-4.28-.33.94c.41-3.54.23-3.9 1.48-10.23.96-3.97.95-1.94 1.29-3.51.06.02.19-.5.5-2.41l1.9-9.29-1.43 3.58c.46-4.19 1.75-8.74.11-4.6.61-1.51 1.37-4.43 2.18-8.02.41-1.79.82-3.76 1.24-5.79.44-2.03.75-4.32.88-6.51.28-4.43-.1-8.76-.64-12.17-.53-3.42-1.17-5.95-1.32-6.96-2.06-5.58-3.54-11.09-4.82-18.1.2 1.76-.43 2.98-1.43-3.11 1.02.96.68-1.83.32-5.5-.37-3.67-.67-8.25-.15-10.72-.14 1.08-.28.62-.42-.76-.14-1.39-.39-3.59-.74-5.65-.72-4.13-1.62-7.77-1.5-4.21-.83-5.12.55-.44.21-4.36-.12-.51-.24-1.03-.37-1.55-.17-.74-.42-1.41-.7-2.01-.33-.69-.67-1.29-.99-1.84v-.16l-.07.02c-.19-.34-.37-.66-.52-.97l-4.02-8.5-.13 9.38v.15c-.56-1.07-1.15-2.12-1.81-3.14-.31-.08.82 2.33-1.27-.37-1.25-2.52-2.75-4.98-4.6-7.24-1.21-1.08-2-1.32-2.96-1.82-.51-.28-.95-.5-1.51-.98-.55-.47-1.2-1.16-1.92-2.22.35.64.92 1.63-.44.3l-2.76-3.36c-.96-1.15-2-2.23-3.04-3.32-2.14-2.12-4.39-4.16-6.85-5.96a57.44 57.44 0 0 0-16.22-8.47c-2.91-.98-5.89-1.76-8.9-2.3-3.02-.55-6.03-.94-9.12-1.12-2.69-.15-5.34-.12-7.97-.04 3-1 6.06-1.75 9.12-2.17-1.94.19-2.29.21-1.78 0 .51-.19 1.87-.53 3.34-.78-1.93.23-.05-.54-.48-.76 4.08-.46 8.16-.39 12.11.24.56-.13 1.69-.19 2.86.02 1.22.21 2.68.71 4.08 1.34 1.39.62 2.82 1.38 3.84 1.91.97.53 1.72 1.03 2.09 1.07-.51-.38-1.01-.73-1.53-1.04-.26-.16-.51-.29-.77-.43l-.87-.44c2.45.85 1.22-.5-.73-2.09l-.58-.46c1.02.48 2.02 1 3 1.55 2.5 1.39 4.7 3.78 7.04 5.73l.62-.56c-1.06-1.59-2.08-3.26-3.2-4.77-5.88-7.95-13.43-9.54-21.07-9.23-15.45.62-29.79 6.39-42.74 18.53-5.28 4.95-10.99 9.3-17.66 10.35-10 1.57-17.11 8.68-21.2 21.4-.77 2.4-1.8 4.68-2.9 6.85-2.94 5.81-5.1 12.04-6.11 19.03-.96 6.65-2.21 13.24-3.12 19.9.04-.3.08-.6.09-.89l-.3.15c-.35 2.63-.4 4.58-.08 3.01-.09.74-.18 1.47-.26 2.21-.17 1.6-.34 3.21-.49 4.82.02-4.35-1.86-1.43-3.11 2.67.21.17.37.19.28 5.27Zm13.93 60.01 1.24 3.77-.2-.04c-.19-.33-.44-.67-.67-1.01-.32-.47-.55-.88-.46-1.2.07-1.08-.74-3.35-1.49-6.1-.54-1.91-1.05-4.03-1.38-6.04.5 1.15 1.06 2.36 1.53 2.72-1.63 1.71 3.26 7.4 1.43 7.89ZM121 93.4c.61.85 1.22-.63 2.05-2.54.82-1.92 1.9-4.29 3.05-5.27-.88.95.08-1.29 1.09-3.33 1-2.04 2.02-3.9.51-2.5 1.63-2.41.61.16 2.11-1.49.78-1.54 1.76-3.03 2.89-4.57 1.13-1.55 2.37-3.09 3.67-4.65 2.59-3.12 5.43-6.26 8.26-9.41-.06-.25-1.29.57-.27-.99 1.31-.83 2.62-1.63 3.95-2.36.57-.61.65-1.09.93-1.61.28-.53.78-1.08 2.19-1.74-.45.12-1.12.32-.29-.44 3.43-2.34 6.99-4.57 10.76-6.26 1.88-.85 3.82-1.56 5.81-2.09 1.01-.28 1.96-.47 3.05-.67 1.13-.2 2.23-.46 3.33-.72 4.37-1.06 8.54-2.44 12.7-3.08 4.12-.65 8.31-.42 12.21.72-2.11-.71-.66-.61 1.01-.31-1.07-.29.12-.53-.04-.85 2.24.69 4.4 1.58 6.47 2.62.73-.17 2.5.48 4.14 1.25 1.65.75 3.19 1.59 3.7 1.43-.67-.33-1.36-.62-2.05-.92 1.53.27.86-.67-.15-1.78-.1-.11-.2-.21-.3-.32 1.07.51 2.14 1.06 3.21 1.65-.25.54.4.33.3.29.03-.03.05-.05.07-.08.9.51 1.8 1.03 2.69 1.59-.57.56-1.1 1.08-1.63 1.59-.5-.27-1.09-.62-1.3-.9l.1 1 1 .09c-1.09 1.07-2.12 2.07-3.13 3.07.1.37.21.75.31 1.12.71.07 1.48.45 2.1.17 6.12-2.79 11.32-.69 16.03 5.09 6.9 8.46 12.34 18.17 15.18 30.45 1.2 5.2 2.84 10.2 4.34 15.27 2.31 7.78 1.65 15.75.68 23.57.02-.15.04-.31.03-.45l-.29.08c-.17 1.5-.15 2.63.09 1.75 0 .05-.01.1-.02.16-.42 3.22-.85 6.43-1.29 9.64-.13-1.21.06-3.54.75-5.57.04-2.83-1.83-1.22-3.07 1.09.2.11.4.14.27 3.04.41-.96 1.53-6.26 1.63-3.79-.29 3.82-.62 3.08-1.14 4.89.78-1.39.26 4.17 1.03 4.29-.48 3.42-.96 6.84-1.46 10.25l-.17.6-.36 2.19.47-2.34c-.6 4.18-1.22 8.35-1.84 12.52-.05-.4-.13-.56-.31-.16l-.21 2.15c-.81 1.88-.16-4.12-.79-1.46.04-2.92-.09-6.21.79-10.2l.86-.65c-.23.06-.83 2.57-.76 3.74-.09-1.73 1.9-6.04 1.19-8.02l-.93 2.75c.04-2.93-.25-6.59.5-10.12-.98 1.52-.03.83-1.27 3.25 1.4-2.05-1.36 9.12.29 5.75-1.38 2.46-1.07 4.44-2.42 7.72.26-.07.65-1.14.09 1.84.05.15.1.48.12.69-.02.09-.03.12-.05.2.02-.06.03-.1.05-.16.02.14.02.15.02-.06.21-.7.42-1.26.6-1.47.36 1.57-.35 6.33-.28 7.99-.37 1.76-.18-.79-.58.15l.09 2.47c-.58.16-1.59 4.59-1.31.35l-.57 3.77c-.16.54-.31 1.14-.45 1.76-.13.59-.26 1.21-.39 1.81-.25 1.15-.48 2.29-.59 3.19-.52 1.6-.6 4.38-.58 2.79-.44 1.88-.93 3.83-1.43 5.76h-.15c-1.85 5.61-2.79 11.86-5.79 17.98-.47 1.93-.92 3.94-2.08 7.06l-.65.47c-.61 2.48-2.77 7.15-2.63 8.34-1.04 1.11-2.02 4.04-2.99 7.2-.98 3.16-1.9 6.57-2.71 8.66l.54.36c-1 2.92-1.76 5.78-2.72 9.5l.6-.05c-.6 3.28-3.04 7.94-4.62 12.92-.09-.4.38-1.64.79-2.49-1.57 2.77-2.39 5.96-3.14 9.1-.19.75-.37 1.63-.55 2.49-.2.87-.29 1.65-.45 2.45-.31 1.59-.57 3.06-1.08 4.45-.03 1.44-.27 2.45-.57 3.42.02-.13.03-.25.03-.35-.03.14-.06.36-.1.58-.19.61-.39 1.23-.59 1.91.22-.57.42-1.12.54-1.6-.15 1.09-.34 2.74-.43 4.37l-.69.6c-.01.13-.02.24-.04.37-.44 1.55.1 1.31.66.53-.02.82 0 1.58.06 2.18-1.13 1.15-.26 4.26-1.5 5.87.32 1.06-.55 7.1.05 8.78-.36 1.76-.71 3.51-.64 5.13l-.86.65.44 4.03c-.8 2.29-1.24 3.21-1.45.8 0 2.87-.09 4.04-.2 5.07-.11 1.04-.16 1.98-.24 4.4l-.43-.34c-.15.86-.29 1.87-.44 2.89-.19 1.04-.41 1.98-.76 2.42-2.02 3.46-5.72 18.45-9.45 27.8.98-.72.48.34-.13 1.68-.59 1.34-1.31 2.96-.82 3.31-.49.47-1.05 1.75-.89.11-.14.63-.28 1.21-.42 1.76-.07.3-.12.46-.2.68-.13.4-.27.71-.39 1-.24.62-.33 1.02-.36 2.82-.21-.52-.1-1.49-.25-1.7 0 .26-.04 1.23-.17.92-.11-.34-.03-.95-.03-1.47-.17.69-.18 1.85-.32 3.4-.11 1.51-.18 3.51-.21 4.87-.09-.48-.16-.92-.23-1.32-.37-1.97-.54-2.09-1.1-2.09-.1-1.39-.19-2.77.43-1.19-.16-.59-.58-2.33-1.01-3.69-.22-.69-.45-1.31-.69-1.81-.37-.87-.7-1.42-.9-1.39 0-.62-.84-2.44-1.09-2.85-1.41-3.85-1.47-4.21-2.96-7.95l.27 1.09c-1.46-1.15-1.38-3.05-2.64-6.04l.12.05c-1.99-7.2-1.45-2.88-3.31-10.03l-.41.59c-1.44-.18-1.6-6.35-3.56-10.15l.23 1.56c-1.23-2.02-.68-6.71-1.36-8.95-.08-.52.45.69.78 1.32-1.47-6-1.01-.46-2.79-4.65.09-.94 1.38.62.36-2.27-.11-.78-1.22-2.73-2.39-5.02-.58-1.14-1.18-2.37-1.68-3.57-.44-1.17-.79-2.16-.85-3.23-.07.93-.14 1.89-.93-.01-.99-3-.84-8.63-2.39-11.28 0-.42.06-.59.13-.62-.75-2.36-1.96-7.8-2.77-9.16 1.6-2.63-3.82-14.96-1.98-15.27-.52-2.5-1.08-5-1.65-7.49l.23.15c-.96-4.84-1.87-6.45-2.8-8.01-.21-1.15.2-.39.32-.32-.39-1.78-.9-3.23-1.33-4.4-.43-1.07-.81-1.92-1.21-2.73-.78-1.62-1.66-3.04-3.2-5.63l.35-.8c-.95-1.36-2.78-9.86-5.64-16.22.09.04.25.14.51.63-3.22-7.17-4.1-18.33-7.06-20.43-.69-1.6-1.34-3.2-1.98-4.81 1.65 6.5-1.2-.68-.81 2.08-.84-2.5-1.2-6.75-.21-3.67l.03.52c1.44.81-1.86-8.13-1.05-8.18-1.82-6.33-3.44-12.64-5.02-18.84-.79-3.1-1.58-6.17-2.36-9.22-.4-1.52-.72-3.02-1.09-4.51-.31-1.5-.67-2.99-.96-4.48-.2.52-.41 1.04-.59 1.56-.29-1.39-.54-2.79-.81-4.18.03-1.14.4-1.6.96 1.38.16-1.65-1.34-4.91-1.56-4.97-.53-5.92 1.39 2.12 1.15.31-.16-.8-.3-1.61-.45-2.42l-.02.56c-.67-1.91-1.09-2.04-1.49-5.66-.04-2.31.44-1.23.39-2.14.06 0 .06-.31-.11-1.38-.09-1.77-.22-3.54-.25-5.32-.2.72-.43 1.44-.61 2.17-.48-2.35-.18-5.03-.89-2.53.52-1.85.54-6.83.82-11.63.26-4.8.77-9.42 1.13-10.49-.03-3.36.48-6.63 1.61-10.47-.38.93-1.38 1.3-.29-2.05Zm10.87 151.75c.89.67 1.92 2.13 2.77 4.05.89 2.29-.37 1.21-.12 1.57.4 1.78.93 2.65 1.43 3.32l.2 1.79.44-.96c.14.2.27.4.39.64.12.55.17.98.32.9.04.16.07.33.1.52-.04.45-.05.97-.03 1.54-.41.94-1.19-.05-1.55.34-.3-.96-.42-1.72-.44-2.42-.03-.71-.03-1.34-.22-1.99.04.56.09 1.13.12 1.7-.36-.57-.88-1.79-.88-2.55-.03.18-.02.45.02.78-.87-3.07-1.72-6.15-2.56-9.24Zm-18.46-74.43c.05.06.09.12.14.17-.07 0-.11-.07-.14-.17Zm4.93 17.18c.09.34.19.66.29.93-.18-.24-.39-.53-.69-.89l.4-.04Zm69.63 184.65c.51 1.17.98 2.2 1.41 3.08v.03c.11.58.09.99-.03 1.24a.57.57 0 0 1-.22.32c.08.1.16.18.21.2.03.05.05.06.08.07.12.6.2 1.11.25 1.53.03.28.05.55.05.74-.27-.83-.52-1.64-.78-2.46.07-.02.14-.05.2-.09-.12-.14-.25-.32-.4-.53-.11-.35-.23-.72-.34-1.07-.17-1.25-.31-2.33-.41-3.07Zm18.9-57.58c.23.32.64.24 1.1.13-.17 1.11-.33 2.19-.5 3.22l-.6-3.34Zm1.17-9.92c-.14.04-.26.47-.17-.32.05.13.1.24.17.32Zm5.33-32.72c0-.67.04-1.36.11-2.07.08-.69.2-1.35.34-2.02l.71-.86.87-4.12c.09 1.2.11 3.28.07 5.58-.19.56-.38 1.13-.56 1.69-.4 1.2-.81 2.9-1.21 4.95-.17-.98-.28-2.02-.34-3.15Zm7.83-26.13c.21-.42 3.05-6.33 3.97-7.63.18-.24.33-.35.44-.37-.48 1.47-.96 2.93-1.44 4.4l-.95-.21.75.85c-.47 1.43-.93 2.86-1.41 4.29-.72-.21-1.27-.68-1.36-1.33Zm16.73-51.7c1.18-4.56 1.26-1.74 1.37-2.56 1.43-4.18 1.55-6.12 1.65-7.82.07-1.71.24-3.17 1.21-6.52 1.08-2.74 1.33.08 1.9-.48-.33 3.83-1.62 5.62-2.3 8.1.4-.99.8-1.97 1.16-2.97-.08 1.23-.65 3.74-1.25 5.01.15-.26.34-.68.55-1.21-.27.9-.56 1.8-.83 2.69-1.54 4.92-3.09 9.82-4.64 14.73-.12-1.84.29-5.1 1.18-8.96Zm3.47-17.22s0 .07.01.1c-.57 1.89-.35 1.22-.01-.1Zm-4.25 54.66c.16-.62.3-1.25.47-1.87.38-1.41.75-2.83 1.13-4.24.06.05.13.06.22 0l.06-.59c.66-.38.44 1.26.87.61.17.86.52 1.87-.06 2.86h-.79c.22.04.62-.58.48-.94.21.53-1.42 1.37-.59 2.12l.7-.61c.17.87.7 2.02.23 2.87.84-.23-.03-.24.99-.67-.09.02-.16.02-.22.02.27-.18.93-.1.65.74-1.49-.68-1.12 1.42-2.32 1.99-.03-.12-.06-.26-.08-.46-.33.2-1 1.53-1.29.79-.01-1.07.37-.78.73-1.21-.61.24-.58-1.09-1.19-1.42Zm-.2.89-.02-.01c0-.02.01-.04.02-.07v.08Zm-.4 1.54c.1-.43.2-.85.31-1.28.13.37.07.88-.31 1.28Zm4.55-6.91c-.45-.55-.1-1.81-.28-2.31.24-.44.23.27.55.08l-.26-.76c.27.04.55-.19.79-.31-.38 1.02-.59 2.35-.79 3.29h-.01Zm11.95-61.77.06-.3c.27-.17.51-.32.64-.43l.02.27c-.15.26-.37.57-.54.89-.01-.01-.03-.02-.04-.04 0 .02.02.04.03.06-.07.14-.13.28-.18.42-.06.01-.12.01-.18 0 .05-.23.1-.46.15-.68.06.07.13.14.19.21-.05-.12-.1-.25-.15-.38Zm5.36-11.59c-.17-.05-.4 0-.55.05.03-.23.05-.46.08-.69.23.22.41.45.47.64Zm-.96 3.62c.48.31.9.78 1.17 1.34-.39.14-.11.58.15.85-.16.25-.65-.07-.55.06v.05c-.1-.18-.17-.33-.21-.21l-.03.46.13-.08s.05.06.08.1c-.02.45.18.76.41 1.01 0 .04 0 .06-.01.1-.27.38-.59.1-.66.26-.06-.01-.1.04-.08.25l-.2.67c-.11-.21-.3-.24-.48-.32.13-.41.54-.67.57-1.03l-.39.55c-.19-.25-.3-.74-.08-.97-.08.05-.14.12-.2.22l.06-.5.25-.35-.18-.2.27-2.27Zm-.09 5.03c.03-.12.14-.11.23-.08l-.04.14c-.06-.02-.12-.03-.19-.05Zm.96-.11c.06.13.08.25.08.36-.27.01-.51-.08-.74-.15l.66-.21Zm-.22-.83.19-.12c.09.38-.04.25-.19.12Zm-.62 6.62c-.05.07-.06.17-.05.28-.01.06-.03.12-.05.18-.09-.08-.17-.17-.25-.29.06-.3.18-.5.33-.65l.04-.03c.01.17 0 .34-.02.51Zm-1.94 5.76s.05-.02.08-.03c-.02.04-.04.08-.05.13l-.02-.1Zm.89-1.64s.05-.08.08-.12c.06 0 .13 0 .21-.02.01.03.03.07.04.1-.1.08-.21.07-.33.04Zm.96-5.56c0-.07-.01-.14-.01-.23.04-.12.08-.23.11-.34.02.01.05.02.07.03-.05.23-.1.41-.16.53Zm-.59 5.48s-.04-.04-.05-.07c.04-.01.08-.02.12-.04-.02.05-.05.08-.07.11Zm1.26-2.76s-.07-.01-.1-.03c-.08-.27-.19-.44-.32-.56.28.02.58.18.43.59Zm-.51-3.25s-.04-.02-.07-.03c.1-.39.12-.75.08-1.13.03-.02.06-.05.1-.1.03.06.06.11.1.17-.08.39-.15.78-.21 1.09Zm1.25-6.91c-.15-.05-.25-.19-.18-.47.07.14.13.29.18.44v.02Zm-.29-8.57c-.1.04-.19.06-.29.06l.09-.85.94.08-.93-.2.09-.83c.73.07 1.37.19 1.64.32-.07.08-1.04 1.19-1.53 1.41Zm1.94-27.04a.53.53 0 0 1-.42.17v-.46c.07.04.16.08.23.11-.07-.07-.15-.16-.22-.24v-.21c.23-.15.44-.28.54-.37l.19.45c.04.23.11.34.17.4l.05.12c-.13.11-.4.01-.73-.15.06.07.13.13.19.18Zm.14 12.65c-.27-.07-.67-.07-1.1-.07.01-.2.03-.39.04-.59l1.06.65Zm-1.67 7.28c.74.44 1.42.94 1.63 1.44l-.42.16.39.81c-.44-.25-1.07-.67-1.72-1.14l.12-1.27Zm-14.49 60.34.89.2-.84-.37c.1-.4.21-.8.31-1.2.7.18 1.29.41 1.53.63-.09.11-1.36 1.61-1.92 1.89-.09.04-.18.05-.27.05.1-.4.21-.8.31-1.2Zm3.23.53c.05-.32.08-.66.1-1.02.14.11.27.15.41-.04.02.39-.25.85-.51 1.07Zm-.76-9.45c-.09.51-.12 1.04 0 1.56a.43.43 0 0 1-.25-.24c.06.29.06.59.02.89-.13-.18-.25-.36-.39-.55l.24-.93c.08-.3.14-.6.21-.9l.15.18Zm-3.7 13.7c.15.31.26.63.27.9-.14-.07-.34-.04-.5 0 .08-.3.15-.6.23-.9Zm-2.3 20.28c.08.72-.08 1.42-.3 2.22-.59-.21.81-2.33-.41-1.76.36-.13.56-.29.71-.46Zm-1.67 5.37c-.09-.06-.17-.16-.23-.39.18-.04.23.13.23.39Zm.55 1.5c-.23.45-.42.25-.68.19.04-.07.09-.13.15-.19.08.12.24.15.54 0Zm13.83-45.51.77-.38c-.01.05-.02.1-.04.16l-.75.37s.01-.1.02-.15Zm0-.22v-.18l.86-.43h.03c-.02.07-.03.13-.05.19l-.83.41Zm8.57-39.31s.01-.08.02-.11l-.2-.03s-.02-.06-.02-.1l.13-.07c-.24-.09-.4-.07-.52 0 .02-.19.02-.38 0-.58.39-.73.86.55 1.29.15.03.35-.43.74-.7.74Zm.61-8.56-.62.04c.24.25-.49 1.04-.7 1.97-.09-.38-.07-.73.25-1.03-.18-.28-.09-.46.06-.63 0 .02 0 .05.02.07 0-.03.01-.07.02-.11.1-.11.22-.22.32-.34-.14.1-.26.19-.32.28 0-.2-.04-.51-.15-.82l.6-.08s0-.04-.01-.07c.02-.02.02-.03.03-.05.02.03.04.07.06.11h-.08c.08.28 0 .47-.13.63.14-.1.3-.19.44-.28.07.1.13.19.21.31Zm-.52-5.39.04 1.36-.19-.05c-.17.85.25 1.19.68 1.53-.14.19-.31.03-.41 0-.32.81-.39 1.14-.18 1.61-.15-.03-.41 0-.67.07-.09-.16-.19-.31-.33-.42.98-.16-.26-.81.79-1.05-.48-.24-.26-1.53-1.29-1.77.14 0 .21-.08.21.08.14-.32.28-.65 0-.97l.77-.09-.97-.8c.49-.41.77-.58 1.32-.1-.83-1.12-.28-.88-1.11-1.84l.49.07c0-.32-.62-.88-.21-1.05.63-.44.58-1.84.72-3.26.23-.11.45-.15.66.09.17.56-1.12 1.56-.09 2.03-.09.07-.17.1-.25.11.27.42.45 1.4 1 1.68-2.04.36.92 2.82-.97 2.75Zm-9.52-62.7c.04.25.08.5.09.72l-.5-.41s.07-.03.11-.05c-.03 0-.08.02-.13.03v-.06c.07-.03.14-.06.22-.08 0 .08 0 .16-.02.23.05-.05.08-.16.12-.26.05 0 .09-.02.1-.04-.04.02-.06.03-.09.04a.4.4 0 0 1 .1-.16c0 .02.01.03.02.05Zm2 5.24v.02l-.17.06c.05-.03.11-.05.16-.08Zm-1.49-1.95c.07-.03.14-.05.21-.08-.07.02-.14.04-.22.06 0-.01-.01-.03-.02-.04.08-.05.16-.1.22-.14.07-.02.14-.05.21-.07.09.01.09.06.05.11-.08.03-.15.06-.24.09.06-.02.13-.04.19-.05-.09.07-.21.14-.35.21-.01-.03-.03-.05-.04-.08Zm-.73-3.17c-.07 0-.15.02-.23.05v-.03c.05-.12.12-.24.16-.36.06.12.08.23.08.33Zm1.94 5.25.3-.1s0 .03.01.04c-.09.06-.17.11-.27.18l-.07-.1s.02 0 .02-.01Zm.67 1.07a.864.864 0 0 1-.1-.16l.07-.04c.02.06.04.12.07.18h-.04Zm-5.75 102.93a.67.67 0 0 1-.25.01c.02-.08.03-.17.05-.25l.2.24Zm-7.76 31.25c.49.63.81 1.58.84 2.65 0 .05-.01.08-.02.12-.04-.14-.08-.21-.12-.08l-.09.62c-.23.15-.54-.22-.48-.05-.38 1.09-.1 1.7.14 2.23-.02.05-.04.15-.04.32l-.41 1.44.6-.31c-.06.15-.15.32-.29.51-.84.59-1.29-.31-1.8-.26.02-1.07.81-1.44.97-2.13l-.52.76c-.13-.38-.12-1.09.17-1.41a.83.83 0 0 0-.18.19c.41-1.54.82-3.07 1.22-4.61Zm-5.42 20.9s-.01.06 0 .09l.28.03c.07-.39-.02-.72-.19-.53l.24-1.07c.24.71 1.69.64 2.69.27 0 .17-.03.37-.05.57-.02.2-.03.41 0 .57l-.1.35-.05-.12v.17c-.12-.01-.24 0-.39.12.02.39-.06.77-.19 1.15-.26-.37-.41-.8-.93-.54-.17.93.29.74.4 1.34.12-.98.17-.49.33-.29-.4.88-1.03 1.78-1.55 2.78v-1.18l-.58.54.28.03c-.24.64.06.61.25.71-.22.42-.42.86-.57 1.32.19.12.65-.12.75.47l-1.49.73c-.03.17.1.34.22.5-.19.07-.39.15-.62.28.05.12.24.26.11.6-.22.27-.25-.06-.42-.08.09.24.21.83.61.21l-.05-.12c.12-.22.32-.45.52-.65.09.2.06.4-.4.63.22-.04.54-.1.48.22-1.54 2.14-2.27 4.7-3.23 7.17 1.41-5.33 2.43-10.84 3.64-16.26Zm17.34-44.89c.21-.02.43-.06.66-.11-.03.12-.06.24-.09.37-.19-.08-.38-.17-.58-.25ZM250 138.71l.08-1.55s.07.08.11.19l-.18 1.36Zm-20.28 86.88c.07-1.08.22-2.26.45-3.26.13.2.5-.19.74-.47-.4 1.24-.79 2.49-1.19 3.73Zm-89.34 48.42c-.28-.08-.48-.03-.62.1a2.25 2.25 0 0 1-.08-.24c-.3.11-.3.5-.2 1.02-.11 1.03.14 2.68-.24 3.77-.21-.37-.44-.69-.68-.75-.58-4.29-1.15-8.37-1.72-11.96.08.06.15.04.21-.12l-.27-1.09c.37-1.11 1.06 1.97 1.09.53.12.28.25.57.38.87.08.69.11 1.22.06 1.45.42.96.65 1.94.81 2.99l-.49.35c.21-.08.25-1.44-.06-1.99.46.83-.55 3.36.57 4.18l.19-.93c.03.31.06.6.09.93.05-.3.3-.55.54-.41.12.27.25.55.37.83.02.14.04.28.06.46Zm-1.59 5.63c0-.06-.02-.12-.02-.18l.06.18h-.03Zm-17.58-81.67c.12-.07.12-.3.24.08a.754.754 0 0 0-.24-.08Zm42.69 142.68s.04-.01.07 0c.04.12.08.24.13.36-.06-.03-.13-.16-.2-.36Zm-37.59-124.38-.12-.33h.03c.04.11.08.23.12.33h-.04Zm-.2-.66h-.03c-.06-.15-.12-.31-.17-.47.02 0 .04-.01.07-.02.04.17.09.33.14.48Zm.8.41.89.1.12.09-.07.23-.94-.1v-.31Zm-1.19-2.05-.33-.28c-.08-.21-.15-.43-.23-.64.15.1.3.2.45.31.04.21.08.41.11.61Zm3.3 6.13.06.11-.03-.14 1.07-.85c.09.28.17.56.25.84.14 1.1-.06 2.06-.49.89l.03-.29c-1.04-.2.16 2.72.24 3.92l-.27.03c-.33-1.33-.8-2.59-1.41-4.08l.22-.18.33-.26Zm4.27 17.65c.13.59.25 1.18.37 1.8l.18 1.01c-.27-.69-.52-1.49-.72-2.6l.17-.2Zm1.65 5.92c-.02 1.11-.22 2.05.28 2.21-.03-.91-.13-1.61-.27-2.22l.27-.31.35 2.19c-.11.61-.56.88-.8-.67-.02.05-.02.11-.03.17-.08-.29-.15-.58-.22-.87l.42-.49Zm.89 3.75c.02.38 0 .65-.02.83-.18-.49-.36-.97-.54-1.47.24.37.47.63.55.64ZM153 335.09c.12.48.01 1.06.01 1.59-.21.14-.41.28-.62.42-.26-.64-.53-1.27-.8-1.91l.05-.1c.43.05.72-.63 1.03-1.35l.33 1.34Zm-30.88-136.36c-.21-.31-.43-.55-.66-.67-.15-.92-.31-1.84-.83-2.56l.19-.18c.36.87.85 1.63 1.74 2.97l-.45.44Zm-2.44-5.5c.04-.72.09-1.21.26-1.36.17.88.31 1.56.46 2.12l-.72-.77Zm.31-2.11c.09.09.17.18.26.27v.14c-.1-.15-.18-.29-.26-.42Zm-.49 1.94c-.31-.05-.67.13-1.05.35-.17-.53-.33-1.07-.51-1.6.52.41 1.04.83 1.55 1.25Zm7.78 26.11c.05-.12.13-.27.23-.43l.41-.65.29.53-.44.48-.34.37-.04.04c-.04-.11-.08-.22-.12-.34Zm2.5 15.81c-.22-.03-.4.35-.48.55-.19-.7-.37-1.4-.56-2.1.42.47.81 1.04 1.04 1.55Zm9.08 45.19c.3.59.5 1.56.33 2.52-.11-.84-.22-1.69-.33-2.52Zm1.88 1.9v.22c-.1.45-.24.65-.5.15 0-.02 0-.03-.01-.05.14.22.31.2.51-.32Zm8.12 46.21c-.05-.61.53-.11.78-.3l.08 2.91c-.48-1.1-.95-2.19-1.42-3.3.13-.84.34-.14.55.68Zm17.66 20.17c-.2-.71-.39-1.4-.58-2.1.03.06.05.12.08.17.11.31.22.63.33.94.06.34.12.67.17.98Zm63.13-86.23c.27 0 .57-.07.87-.14-.17.41-.35.82-.52 1.23-.16-.12-.32-.25-.48-.37.05-.24.09-.48.13-.72ZM119.34 134.64l-.07.85c-.35-1.87-.15-1.35.07-.85Zm-9.44 17.04c-.07-.23-.15-.4-.25-.47l.1-.59c.18.27.21.64.15 1.05Zm-1 6.69c.09.09.19.19.28.27-.1-.19-.23-.41-.34-.63-.03-.18-.07-.35-.1-.53.13-.41.24-.77.3-1.04.02 0 .05-.01.08-.02.14.37.26.74.38 1.12-.24.04-.42.19-.26 1.04v.11l-.05-.05c.02.03.03.06.05.09.02.15.08.34.17.57-.06.25-.16.37-.29.39-.07-.44-.13-.88-.21-1.32Zm2.36 18.62c.07.09.14.18.21.28-.05-.02-.12-.12-.21-.28Zm14.5 44.92.42.45.73-.58c.2.02.38.05.51.13 0 .25.07 3.73-.18 4.61-.06.17-.14.28-.24.33-.21-.78-.41-1.55-.62-2.33l.92-.3-1.01-.03-.6-2.27c.02 0 .05-.02.07-.02Zm13.75 63.1-.27-2.09c.17.35.4.51.66.52 1.08 3.57.56 8.09 1.45 12.6.23.04.44-.77.91.15-.25.85-.49 1.7-.7 2.57.26.89 1.37.62.92 2.38-.06.13-.13.25-.19.41.1.2.34.34.39 1.04-.07.62-.25.04-.42.09.2.39.6 1.39.66.06l-.1-.19c0-.49.08-1.04.17-1.51 0 .02.01.03.02.05.11 1.13.22 2.32.44 3.41.22 1.1.46 2.2.73 3.3.54 2.2 1.16 4.39 1.75 6.59.49 1.82.96 3.66 1.35 5.51-.26-.63-.44-1.21-.48-1.68-.42.69.17 1.75.72 2.86.4 2.1.67 4.22.75 6.37-1.09-2.59-2.13-5.2-3.02-7.92-1.95-5.96-3.82-20.06-5.63-33.81.01.08.02.16.06.22l.27-.09c-.12-.78-.36-1.32-.42-.85Zm22.75 83.31c.05.24.08.44.1.6-.04-.2-.07-.4-.1-.6Zm-.41-2.42c.44.34.71-.03.99-.49.66 1.58 1.29 3.19 1.89 4.83.03.09.07.18.11.28l-2.98-4.62Zm-30.9-316.62.54.54h-.09c-.12-.09-.24-.18-.34-.25-.07-.06-.14-.13-.21-.2.03-.03.07-.06.1-.09Zm-.6 1.22c-.08-.07-.17-.16-.24-.24.08.08.17.16.24.24Zm-.02.12a.979.979 0 0 1-.34-.28c.02-.02.04-.05.06-.07.11.14.23.29.28.35Zm-.46-.13c.05.11.02.09-.03.03 0 0 .01-.02.02-.03Zm0-.01s.06-.07.09-.11c.03.04.05.08.07.11v.02c.01.02.02.03.03.04.01.04.01.06-.01.07-.06-.03-.12-.09-.18-.14Zm.51.9c-.32-.3-.5-.39-.61-.38.04-.03.18.03.3.07.05.06.14.15.31.31Zm.25-1.59s-.08.01-.12.02c-.02-.01-.03-.03-.04-.04.03-.03.05-.06.08-.09.03.04.06.07.09.11Zm-.71.96c.12.2.03.17.12.28l-.1-.04c-.15-.16-.24-.33-.06-.25a.517.517 0 0 0-.16-.07c.02-.02.03-.05.05-.07l.15.15Zm1.89-.77c-.2-.15-.28-.16-.34-.15l-.53-.56s.07-.06.1-.1c.29.3.55.58.76.81Zm-2.51 1.26c.05.04.1.09.17.13.03.08.05.14.06.18h-.08s.06.04.08.05c-.01.05-.05.07-.11.08.11.1.62.72.48.71-.54-.73-.66-.8-.79-.86l.21-.3Zm-.39.63s-.02-.01-.03-.02v-.01c0 .01.01.02.02.03Zm-1.67 3.04c-.07.03-.13.07-.2.1.04-.08.08-.15.12-.23.02.04.05.08.07.12Zm-20.52 104.45.19.04v.75c-.06-.28-.13-.55-.19-.8Zm2.24 9.31c-.26-1.16-.52-2.33-.75-3.5.17.26.34.52.52.78.42 1.71.86 3.41 1.33 5.11-.15.1-.32.19-.53.22.31-.73-.1-1.61-.56-2.62Zm.05 3.6c1.02-.92 1.42 2.54 2.17 3.91-.09.05-.19.07-.3.04-.71-1.69-1.68-4.53-1-1.62-.28-.76-.57-1.54-.87-2.34Zm4.91 25.1c.02.07.04.11.06.16.46 3.59.31 2.31-.06-.16Zm7.43 30.29c-.89-3.95-.93-4.83-.76-4.92.17-.08.54.66.31-.02-1.61-7.5-2.79-10.62-3.73-13.47-.47-1.43-.9-2.8-1.26-4.62-.36-1.76-.71-3.95-1.14-7.08-.37-5.05 1.25-.49 1.5-1.68 1.63 6.47 1.28 10.15 2.26 14.6-.27-1.85-.51-3.7-.69-5.55.53 2.08 1.56 6.4 1.91 8.81-.04-.57-.18-1.45-.36-2.56.82 3.93 1.75 7.82 2.61 11.73 1.05 4.76 2.16 11.7 3.33 19.6-1.08-2.91-2.48-8.31-3.96-14.85Zm8.52 49.55c.21.22.31-.55.36-1.14.35 2.23.71 4.4 1.06 6.52-.55-1.73-1.08-3.66-1.43-5.38Zm9.48 43.36c-.16-.8-2.63-11.86-3-14.51-.05-.45-.04-.73.01-.87.81 2.55 1.6 5.11 2.38 7.67l-.84.43 1.17.64c.77 2.52 1.52 5.04 2.27 7.57-.69.23-1.44-.05-2-.93ZM151 359.38l-.19-1.87c-.91-2.27-1.79-4.55-2.65-6.84 1.01 1.72 2.66 4.81 4.54 8.23 1.3 3.85 2.68 7.65 4.19 11.34-2.05-2.95-4.23-6.7-5.89-10.86Zm16.54 22.78c-.19-1.11-.36-1.77-.55-1.52l-.23 1.18c.27.82.48 1.56.68 2.26-.5-.75-.69-.77-.92-.91v-.03l.25-1.32c-.07-.22-.12-.39-.19-.62-.54-2.72-.87-2.06-.91-.52-.48-1.34-.94-2.56-1.35-3.49.16-1.22-.43-3-1.04-4.88.6 1.28 1.02 2.2 1.4 3.05.76 1.69 1.46 3.21 3.45 7l-.59-.19Zm47.77-42.74c-.01-.76-.02-1.63-.03-2.58.11-.75.22-1.51.36-2.27-.04 1.79-.2 3.29-.34 4.86Zm49.76-168.85-.44 1.43c.48-3.33.45-2.38.44-1.43Zm-159.02-54.05c-.28 2.88-.52 5.77-.7 8.67-.08-2.13.09-5.54.7-8.67Zm-.81 10.34c0 .17-.02.33-.03.5v-.52c.01 0 .02 0 .03.02ZM104.05 108.13l-.02.72.21-2.1c-.4 2.37-.78 4.07-1.48 7.13-.11 3.48.02 4.22.16 4.47.34-3.43.69-6.78 1.13-10.23ZM106.4 101.21c.93-6.02.25-4.29.6-7.9-1.47 9.7.17-2.83-1.29 4.11.22-1.92.48-3.63.72-5.24-.35 1.72-.71 3.39-1.06 4.96.03-.09.05-.15.07-.22v-.05l.01.01c.13-.41.2-.54.08-.07 0 .03-.02.15-.02.2.06.08.1.27.13.47-.57 2.8-.21.42-.13-.47-.02-.04-.03-.12-.06-.13 0 0 0 .02-.01.04-.44 3.25-.87 6.53-1.21 9.84.35-2.08.71-4.7 1.41-9.28.26 1.68-.29 6.66.75 3.72Z"></path><path d="M123.29 51.27c-.2.24-.22.21-.27.21-.27.58-.36.81.27-.21ZM118.26 58.54c-.07.08-.13.16-.2.24-.04.15.04.04.2-.24ZM124.11 49.26c.22-.47-.08-.4-1.37 1.44l-.31.65c-1.78 2.65-3.58 6.17-4.17 7.2.34-.4.67-.8 1.06-1.32.46-.62.99-1.41 1.77-2.51.23-.69.28-1.34 1.5-3.37 1.2-1.67.21.14.42.14.15-.32.37-.76.57-1.18.21-.41.43-.8.53-1.04ZM111.34 75.57c-.82 2.67-1.44 5.4-1.88 8.16.42-1.36.89-2.71 1.39-4.03l-.32.14c1.38-4.53.86-3.62.81-4.26ZM102.52 119.81l-.47-1.14.41 4.83.06-3.69zM101.91 130.57l-.48-.41.21 2.87.27-2.46zM122.42 245.35c-.22-3.64-.2-6.6-.79-7.48.25 3 .51 5.39.79 7.48ZM123.66 253.98c-.03-.53-.07-1.06-.1-1.6-.4-2.17-.79-4.36-1.14-7.03.16 2.69.46 5.75 1.25 8.62ZM196.62 18.03c-.68.08-1.41.19-2.13.33.7-.09 1.87-.29 3.88-.55-.47.05-1.08.12-1.76.22ZM107.3 173.82c-.67-2.2-.16-.33 0 0ZM106.64 162.54c.16.46.31.8.45.83-.17-.15-.32-.45-.45-.83ZM106.62 170.43c.16.85.37 1.82.63 2.87-.09-.47-.28-1.34-.63-2.87ZM106.49 170.95c-.18-.77-.32-1.38-.46-1.96-.16-.26-.15 0 .46 1.96Z"></path><path d="M107.3 173.82c.19.64.46 1.53.91 3.02-.37-1.22-.68-2.4-.97-3.54.09.44.11.63.06.52ZM102.57 150.98c-.1.1-.18.75-.3.19.23 1.44.48 2.88.75 4.31-.41-2.39-.39-3.27-.45-4.5ZM102.26 151.17c-.03-.22-.07-.43-.1-.65.04.31.07.51.1.65ZM103.66 145.72c.47-.43.03-3.5-.12-6.97v.61c-.72-1.01-.43 2.71.11 6.36ZM103.51 137.95c-.04-1.07-.05-2.16-.02-3.2-.27-.41-.09 1.29.02 3.2ZM109.75 180.81c-.31-1.58-.89-.8-.95-1.73-1.08-1.56 3.62 10.12.95 1.73ZM105.12 142.82l-.55 1.27.65 1.88c-.05-1.05-.09-2.1-.1-3.15ZM123.07 229.37c-.4-1.38-.87-3.54-.91-2.6.4 1.94.83 3.88 1.19 5.84.3.57.19-1.06-.29-3.23ZM215.71 21.8l-1.13-.84c-.47-.18-.95-.36-1.42-.52.61.34 1.22.69 1.83 1.07l.92.57c.24.16.47.33.71.51-.14-.13-.28-.27-.42-.39l-.21-.19-.28-.21ZM220.55 25.35c.84.43 1.71.89 2.6 1.33-.88-.68-2.41-2-2.85-2.63l.25 1.31ZM215.73 351.92c.05-.46.09-.95.12-1.47-.05.47-.08.97-.12 1.47ZM215.35 357.2c.18-1.65.25-3.52.38-5.27-.38 3.69-1.23 5.71-.38 5.27ZM192.13 165.9c.07-.08.07-.12 0 0ZM140.61 103.72l.1-.03c-.04-.02-.06-.06-.1.03ZM155.77 138.67c-.05-.05-.11-.09-.16-.16.06.09.11.13.16.16ZM204.94 147.32s.08-.06.13-.1l-.1.05s-.01.03-.02.05ZM204.34 148.04c.11.03.35-.31.53-.46-.07.02.03-.18.07-.26-.29.22-.48.46-.6.72ZM161.22 135.86l.14.14a.364.364 0 0 0-.14-.14ZM224.77 118.88l.16.11c-.05-.07-.1-.1-.16-.11Z"></path><path d="M135.02 110.08c.17.2.35.42.56.66.26.29.56.64.9 1.11.45.95.27 1.51-.58 1.03 1.1.69.61.29 1.63 1.31-.09.22-.22.12-.58-.07.44 1.03.62.55 1.12 1.27-.11-.02-.21-.04-.3-.07l.35.13s-.03-.04-.04-.06c.55.1 1.36.18 1.56.41l-.08-.31c.76.71 1.47 1.53 1.91 2.48l-.23.02.79.92-.22.13 1.05 1.34-.06-.2c.26.31 1.11 1.34 1.4 1.97l-.15.02c.76 1.81 2.35 3.05 3.82 5.02l-.48-.18c.19.75.58.07 1.02.91l-.34.13c.98.59.56.95.73 1.48l.31-.35.56.95c.56 1.05-.15.77-.5.69l.86.59-.32.25c.84.37.28.52 1.17 1.34-.11.12-.35-.09-.21.23l1.63 1.3-.88-.81.68-.05c1.11.79.82 1.25 1.46 1.86l-.5-.4c.91 1.03.69 1.15.99 1.79-.02-.21-.05-.54.33-.13.26.31-.09.23.06.54.46-.04 1.21.67 1.52 1.41-.06 0-.13 0-.2-.03.19.16.36.23.49.55l-.58-.06.85.48c.15.43.9.92.55.95l-.25-.2 2.04 3.02-.33.14c.7.16.97 1.68 1.52 1.42.07.65 1.84 2.16.9 2.01 1.35 1.98 2.79 2.86 4.17 5.34.02 1 1.88 3.28 2.92 4.83 2.4 2.93 4.01 4.81 6.39 7.82.13.52.42 1.06.79 1.61.18.27.39.56.62.84.27.35.56.71.85 1.07.4.51.81 1.02 1.21 1.53.19.25.41.48.64.7.24.19.46.41.7.55.49.34.9.55 1.44.77.53.21 1.15.38 1.78.51.47-.02.96-.06 1.42-.15.85.07 1.85-.07 2.65-.37.42-.14.73-.32 1.09-.54.17-.12.35-.25.54-.37.17-.15.35-.31.52-.47.33-.36.61-.77.9-1.18.29-.41.59-.82.89-1.23l.22-.29.14-.17.29-.34c.2-.23.42-.45.65-.66.18-.49.31-.74.37-.85-.08.08-.24.19-.47.18.53-.49 1.11-1.6 1.47-1.42l-.05.14c.35.19.96-1.65 1.74-2.14l-.67.2.79-.98-.11.29c2.13-4.6 4.95-6.19 6.98-10.51.09.66.32-.87.89-.79 1.4-.85 1.22-1.95 1.65-2.84-.03 0-.05-.02-.05-.08l1.12-1.46c.05 1.06.21-1.21.2-.25 3.26-3.71 6.35-8.86 9.78-13.25l-.32.15c.85-1.12 1.65-2.58 2.54-3.36.88-.79.9-1.99 1.11-2.33.34-.9 1.32-1.55 1.32-1.41.59-.99.68-2.07 1.91-3.36.91-.33 2.16-3.95 2.84-3.82l-.05-.03c1.74-1.67 2.17-3.55 3.96-5.36 0 0 .02.05 0 .13l.86-4.42-2.94.56-4.17 2.93-6.22 9.28-5.94 7.14-12.57 17.89-.43 1.4c-2.28 2.23-4.06 5.14-6 7.91l-.12.05.35-.9.02.25c.16-4.07 2.22-5.69 2.4-9.51.36.55-.05-.76.54-.75 1-.86.37-1.75.42-2.54-.03 0-.05-.02-.08-.07l.48-1.34c.36.7-.03-.34-.03-.42.02.02.05.08.11.2 1.62-3.44 2.47-8.07 3.97-12.09l-.24.16c.35-1.02.52-2.32 1.06-3.07s.05-1.76.12-2.07c-.05-.77.61-1.41.68-1.32.15-.9-.19-1.81.46-3 .75-.37.46-3.49 1.16-3.49l-.05-.02c.98-1.57.64-3.19 1.61-4.9 0 0 .04.04.06.1l-.44-1.69c.11 0 .22.02.28.08l-.15-.29.48.05-.13.05c2.06-.65 3 .28 4.94-.31-.25.32.38-.17.41.18.49.44.91-.09 1.31-.21 0-.02 0-.03.03-.06l.7.04c-.32.34.15-.05.21-.08 0 .01-.04.04-.09.09 1.83.33 4.22 0 6.34.15l-.09-.12c.54.02 1.2-.12 1.61.07.41.18.89-.29 1.05-.31.41-.18.77.12.7.17.47-.07.91-.45 1.56-.28.23.37 1.81-.37 1.83.05v-.04c.85.3 1.65-.21 2.57.06 0 0 0 .02-.03.04l1.84-1.26-.53-1.41-1.62-1.15-2.9.16-.13-.1h-.21c-1.1-.63-.89-.79-1.42-1.12-.02.01-.02.03-.03.06l-.36-.05c.15.06.26.1.34.11-.03.04-.12.04-.43-.13l.08.02c-.52-.22-1.34-.65-1.69-.85l.16-.13c-1.2-.18-5.37-3.23-6.52-3.8-.96-.73-2.69-1.24-4.05-2.03-2.29-1.18-.93-.76-1.95-1.44-1.36-.8.09.3-.51.02l-1.52-1.03c1.05.48.59.13.47 0-1.49-.76-3.57-2.17-4.38-2.13-1.89-1.12-1.76-1.23-2.62-1.67.24.19.76.52.7.57-.67-.51-.44-.16-.13.03-1.41-.49-5.88-3.63-6.52-3.47l.07-.05c-.57.07-.38.51-1.41.19l-.45-.37-1-.34c-.5-.35-.14-.27-.1-.3-.78-.3-1.64-.72-2.5-1.18-.52-.27-1.05-.55-1.58-.82-.34-.17-2.1-.86-2.46-.98 0 0-12.72 4.99-13.76 5.5l-.06-.1c-1.31.64-2.7 1.45-3.59 1.85-.42.15-1.5.45-1.3.16l-.45.43c-4.37 2.15-4.38 2.17-9.21 4.2l.51-.1c-.83.49-1.67.97-2.11.96.01 0 .03-.01.03-.02l-.21-.03s.11.04.17.05c-2.78 1.31-5.77 2.58-7.85 3.23l-.12.4c-.59.27-1.87.38-1.77.81l-1.13.69c-.81.37-1.15.72-2.2 1.04-.06.02-.13.04-.2.06 0 0 .02 0 .04.01-1.92.78.25.17-1.96 1.06-.43.09-.52.24-.65.42-.03.05-.06.1-.1.15-.05.05-.07.09-.2.18-.22.15-.52.31-.93.51-.69.2-1.34.45-1.87.79-.55.51-.75.99-.8 1.42-.04.43.07.83.31 1.23.12.2.28.41.47.63Zm88.8-4.47h-.04s-.07-.05-.09-.07c.05.03.08.05.13.07Zm-1.41-1.16c.03.05-.04.06-.12.04.01-.01.02-.03.02-.05h.1Zm-24.59 7-2.16 8.4-2.78 6.59-4.76 16.25.16 1.22c-1.88 3.09-2.1 7.29-3.81 10.66l.43.12c-.27.97-.53.87-.68 1.1l-.11.36v.06l-.03.12-.05.26-.11.66c-.08.47-.19 1.07-.34 1.67-.14-.32-.31-.81-.43-1.34-.09-.41-.15-.84-.14-1.15.05-.07.08-.13.1-.18 0-.02 0-.04.02-.07v-.05l-.04-.14c-.2-.77-.4-1.53-.34-1.85-1.35-2.58-2.21-5.36-2.96-8.01l.08.09-.47-1.23c.02-.06.07-.07.12-.03-.83-1.36-1.11-3.61-1.48-5.34l.08.09c-3-10.02-6.69-19.22-9.13-29.21-.05-.32-.12-.66-.18-.99.05-.04.12-.08.22-.06l.34.37c.62.21.72-.16 1.61-.16.43.13.64.45.35.73.39-.34.17-.23.69-.39.08.14.03.17-.09.3.46.16.29-.12.63-.12-.02.05-.04.1-.06.14l.09-.14h-.02c.1-.26.21-.69.33-.7l-.14-.08c.36-.14.76-.2 1.19-.07l-.02.13.45-.07.03.17.65-.05-.08-.04c.15-.02.65-.08.94 0l-.02.09c.81.3 1.47-.09 2.42-.12l-.13.19c.32.19.09-.3.47-.2l.02.24c.34-.31.44.07.66.19l-.11-.31.44.06c.48.1.3.4.23.55l.33-.24.06.27c.25-.31.25.05.66-.12.04.1-.07.16.07.2l.69-.38-.42.17.05-.4c.44-.31.59.04.9-.07l-.21.12c.5-.1.53.07.82.16-.09-.07-.23-.18-.02-.24.15-.02.08.14.22.19.04-.27.4-.41.73-.29 0 .04 0 .08-.03.1.08-.04.13-.11.27-.04l-.09.29.28-.28c.19.08.46-.13.45.07l-.11.06 1.42.07.02.24c.15-.32.78.13.74-.28.26.22 1.05-.16.89.3.94.03 1.45-.41 2.58-.19.4.39 1.51.26 2.25.31 1.42-.16 2.35-.31 3.8-.43.86.54 2.16-.17 3.1.11l-1.54 1.57Zm.49-8.65.08.03s-.07.04-.13.01a.21.21 0 0 0 .06-.04Zm-7.04-10.48v-.12c-.12-.14-.24-.3-.35-.46 5.58 2.59 8.14 4.19 13.38 6.41l-.37-.08c.69.43 1.9.06 9.42 4.89l-.04.03c.25.12.35.1.67.31l-1.06-.74c.96.36 1.9.61 3.09 1.16.21.15.23.24.19.3l-.06-.03c-.12.09.02.1.06.03l2.68 1.24-8.22.15-.61.32c-1.66-.56-3.81.08-5.6-.31l-.04.27c-.51.02-.47-.15-.6-.2-1.47.02-2.96.07-4.44.12-.31-.67-.57-1.28-.66-1.62.88 1.19.33.29.28.01l.22.05c-.19-.17-.23-.14-.22-.05l-.18-.04c-.49-.72-.2-.81-.43-1.18-.02 0-.04.03-.06.04l-.27-.11c.08.08.15.12.21.15-.05.03-.14.01-.28-.18l.06.02c-.29-.27-.68-.77-.85-1l.24-.08c-.9-.36-2.3-3.63-2.88-4.32-.3-.78-1.43-1.51-2.03-2.41-1.13-1.39-.25-.8-.65-1.55-.6-.9-.13.26-.45-.07l-.52-1.03s.05.02.08.03c.24.23.29.21.3.13l.19.08-.2-.14Zm-9.05.73c.26-.31.53-.61.79-.91l.39-.46.15-.19v-.07c0-.06.02-.16.05-.26 0-.01.02-.03.03-.04l-.03-.24a.617.617 0 0 0-.14-.34c.05-.08.1-.15.14-.21.29.25.51.59.66.82l.06.09.32.37c.25.29.52.58.78.87.55.59 1.15 1.21 1.86 1.89l-.26-.14c.28.48 1.6.38 4.61 5.74l-.05.02c.14.14.23.14.36.39l-.39-.82c.57.47 1.2.84 1.83 1.51.07.16.02.24-.05.28l1.56 1.64.14.61c.62.46 1.07.01 1.91 1.49 0-.66.87.59.95.34 0 .04.02.1.04.17h-.18c-.15-.16-.25-.26-.25-.26.05.09.09.18.14.26-2.65.08-5.24.11-7.63-.09-.41-.18-1.65-.07-1.97-.26-1.37.34-2.84.33-4.21.3l.05-.03-.65.05s-.03-.05 0-.08c-.74.24-1.89 0-2.78-.09l.05-.03c-3.33-.03-6.49.16-9.69.21.56-.68 1.14-1.35 1.71-2.03 1.56-1.85 3.2-3.71 5.05-5.49.55-.35 2.59-2.62 4.68-5.04Zm-29.39 10.35c7.58-3.12 15.23-7.62 23.8-11.31.07-.02.18-.06.31-.11-.19.2-.29.36-.24.43l-.81.4c-2.2 1.48-.75 1.29-1.56 1.9l-1.15.73.75-.85c-.95.79-1.38 1.08-2.24 1.68.06-.03.11-.05.14-.05l-.1.12s-.01-.05-.04-.06l-.97 1.34 1-1.28c.11.17-.15.65-.69 1.25-.81.84-5.73 5.4-8.19 7.72-1.81.01-3.74.22-5.66-.04-.5-.27-6.1-.07-6.6.06l.65.34c-1.39.1-2.29-.01-3.27-.02 1.61-.75 3.22-1.5 4.87-2.25Zm-10.95 5.13c.39-.18.78-.37 1.17-.55.42.14.81.28.97.29.4.21.89-.05 1.39.05.79.05.39.24.79.38.5.1-.1-.19.1-.2l.59.23c-.34.02-.16.12-.09.18-.12 0-.22 0-.3.04.33.04.35 0 .3-.04.52.03 1.33.33 1.48 0 .7.16.7.29 1 .31-.1-.06-.3-.12-.3-.18.27.14.13-.04.02-.07.42-.14 2.2.6 2.29.24v.07c.1-.27-.06-.53.24-.68l.19.12.3-.12c.2.09.1.16.1.2.49-.13 1.16.02 1.75.06l.14.16-.1-.16h-.04l-.63-.74c.5.17 1.39.52 1.49.28l.3.25c.99.47.69-.2 1.09-.06l.5.27h-.5c.5.13.69.22 1.09.4s-.04-.03-.05-.05h.07c.05-.14.32-.23.66-.23.5.04.89-.16 1.68.13l.2-.27.59.16v.22c-.58-.02-1.68.07-2.43.08l-.02.1c.45 0 .96-.1 1.25-.08.13.04.42.22.32.36l.2-.15c.94-.02 1.28-.03 1.8.03.07.35.14.69.18 1.02.12.77.16 1.47.12 2.02l.5.21c.09.37-.36 1.01.28 1.13l.43.78c.13.52.46.81.4 1.42s0 .08 0 .12c0 0 .02 0 .03-.01.17 1.18.37-.05.55 1.3-.17.46.68.41.78 1.07l-.4.72c0 1.21.68 1.35 1.21 3.05.04.84-.36 1.3-.98.81.78.68.46.3 1.03 1.25-.17.18-.25.08-.53-.12 0 .91.37.52.56 1.18.48.14 1.24.29 1.33.5l.05-.27c.45.67.79 1.42.83 2.26h-.23l.37.85-.25.09.46 1.23.03-.18c.12.29.51 1.23.54 1.79h-.16c0 1.59 1.02 2.79 1.62 4.58l-.38-.2c-.13.65.54.11.6.86l-.37.08c.71.59.15.85.1 1.31l.44-.27.15.85c.11.94-.46.64-.77.53l.59.58-.41.18c.66.4.06.47.58 1.24-.15.09-.3-.1-.29.18l1.04 1.25-.53-.77.68.03c.75.77.27 1.13.64 1.7l-.32-.38c.45.95.2 1.03.22 1.6.07-.19.17-.47.37-.08.13.29-.17.18-.16.46.45.02.9.69.88 1.34-.06 0-.13 0-.17-.04.12.15.25.23.24.52l-.54-.11.63.48c-.02.37.49.86.15.85l-.16-.2.72 2.74-.37.08c.62.21.25 1.51.89 1.34-.2.55.88 1.99.04 1.77.2.73.49 1.3.78 1.88-1.44-2.04-2.81-4.05-4.08-6.01-.34-.93-2.37-3.5-2.56-4.25-2.59-2.76-4.78-5.82-6.81-8.73l.13.09-1.06-1.34c0-.07.04-.09.1-.05-1.47-1.45-2.85-3.96-4.05-5.89l.13.09c-3.91-5.51-7.89-10.76-11.79-16.02-.97-1.31-1.95-2.63-2.92-3.95l-.91-1.24c-.07-.13.04-.27.22-.34Z"></path><path d="M207.29 95.51c-.95-.51-1.02-.51-.93-.4.35.18.67.32.93.4ZM224.23 105.5c-.33-.13-.35-.1-.26 0h.26ZM211.3 109.5h-.02c.02.01.03.02.05.03l-.03-.04ZM211.28 109.51a.44.44 0 0 0-.35-.05c0 .08.22.07.28.14-.11-.04.03-.08.08-.09ZM157.97 109.28l.02-.17-.73.07s-.02.03-.02.05c.1.04.38.05.73.05ZM165.67 125.49c-.1-.03-.19-.06-.26-.09l.28.15-.02-.06ZM163.41 116.3v-.06c-.05.01-.11 0 0 .06ZM173.04 146.64c.02.08.05.12.09.15a.988.988 0 0 1-.09-.15ZM195.21 142.21v.04c.03-.03.05-.06.08-.09l-.08.05ZM194.92 142.92c.12.01.22-.29.32-.44-.06.03-.05-.15-.04-.22-.19.21-.27.43-.28.67ZM202.61 116.42l.2.08c-.08-.06-.14-.08-.2-.08ZM193.34 101.37l-.03-.04c-.17.06-.05.09.03.04ZM191.78 92.7c-.45-.59-.52-.6-.51-.5.17.21.34.39.51.5ZM107.04 452.31c-.11-.06-.21-.12-.32-.16l-.07.28c1.05.63 1.91.91 1.37.46.91.53 1.86 1.05 2.85 1.57-1.96-.56-1.43 1.47-.06 3.15.16-.16.25-.32 2.5.47-.64-.58-4.41-2.93-2.43-2.41 2.89 1.19 2.21 1.3 3.45 2.2-.79-.97 2.93.48 3.61.05 5.47 2.55 11.4 5.14 16.97 8.06-.13.01-.17.08 0 .26l1.58.74c1.15 1.22-3.22-.89-1.41.36-2.23-.76-4.79-1.38-7.62-3.05l-.24-.94c-.03.23 1.74 1.32 2.67 1.52-1.36-.3-4.11-3.08-5.89-2.81l1.87 1.44c-2.28-.64-5.24-1.11-7.81-2.56.9 1.24.65.21 2.17 1.86-1.17-1.73 6.74 3.15 4.6.91 1.49 1.81 3.14 1.93 5.21 3.91.03-.26-.65-.86 1.44.32.13-.02.4.02.57.04.06.04.08.06.14.09a.902.902 0 0 1-.1-.09c.11.01.12.01-.04-.03-.46-.35-.82-.68-.93-.89 1.34 0 4.72 1.8 5.98 2.2 1.18.8-.66-.04-.11.57l1.88.58c-.18.55 3.47 2.87-.21 1.3l1.59.85c.53.24 1.07.46 1.6.69.45.28.94.52 1.46.74.52.22 1.07.45 1.61.63 1.08.31 2.14.61 2.96.64 1.49.47 3.9.13 2.52.33l2.51.25 2.49.16.03.14c4.89.66 10.03-.04 15.51 1.11 1.63-.09 3.3-.24 6.01-.05l.52.48c2.08-.14 6.24.47 7.12-.04 2.26 1.28 10.05.13 13.68.27l.12-.63c2.5-.02 4.88-.26 7.97-.58l-.2-.55c2.66-.51 6.86.24 11.06.13-.28.21-1.35.17-2.11.06 5.03 1.17 10.59-1.01 15.09.04 1.13-.16 1.94-.08 2.72.1-.1 0-.2 0-.28.02.11 0 .28.02.46.03.49.12.99.25 1.54.37-.46-.16-.9-.29-1.29-.36.86.03 2.17.03 3.46-.01l.5.63h.29c1.21.33 1.02-.18.4-.69.65-.03 1.24-.09 1.71-.19.43.52 1.35.53 2.29.54.95.03 1.93-.01 2.65.54.47-.21 2.18-.28 3.86-.47 1.43-.17 2.82-.45 3.39-.87.74.01 1.47 0 2.18-.07.72-.07 1.43-.19 2.06-.44l.74.65c1.04-.48 2.04-1.03 3.04-1.55 2.01.04 2.9.11 1.08 1.11 2.26-.93 3.15-1.3 3.98-1.59.81-.34 1.57-.59 3.34-1.65l-.03.52c1.38-.45 3.3-1.88 4.25-1.84 1.66-.18 5.41-1.7 9.42-4.13 4.03-2.42 8.26-5.72 11.24-9.25-1.11.29-.34-.42.52-1.48.85-1.06 1.71-2.68 1.18-3.05.5-.44.95-1.97.89-.16.08-.33.12-.68.14-1.03.02-.34.07-.68.07-.99-.01-.61 0-1.19-.08-1.7-.03-.26-.05-.51-.08-.76-.04-.24-.08-.47-.12-.69-.07-.46-.17-.88-.29-1.28-.44-1.6-1.05-2.91-2.22-4.04.05-.63.9.62.86.12-.23-.31-.96-1.14-1.04-1.63-.07-.5.6.41 1.08.99-1.2-2.05-2.17-2.91-2.91-3.26-.74-.35-1.25-.2-1.74-.03-.97-2.03-1.78-2.83-3.3-3.58-.28-.77-.89-1.95 1.01-.03-.47-.6-1.97-2.37-3.49-3.88-1.52-1.51-3.05-2.74-3.37-2.49-.22-.46-1.54-1.43-1.9-1.61-2.55-2.18-2.74-2.43-5.4-4.36l.65.65c-1.61-.02-2.3-1.48-4.54-2.9l.12-.04c-2.3-2.01-2.91-2.29-3.48-2.58-.59-.3-1.1-.58-3.51-2.52v.68c-.29.2-.7.08-1.21-.23-.25-.15-.53-.36-.83-.59-.35-.27-.73-.56-1.13-.87-.83-.65-1.85-1.42-2.92-2.1-1.07-.71-2.18-1.3-3.05-1.61l1.55 1.17c-.86-.2-2.46-1.54-4.46-2.98-2.05-1.54-4.19-2.85-5.16-3.14-.26-.12-.17-.15.04-.16.21-.01.61.06.84.07-.38-.15-.71-.28-1-.39-.26-.08-.48-.15-.67-.2-.38-.11-.59-.12-.71-.1-.24.03-.11.19.08.4.4.42 1.03 1-.31.88-.51-.27-.65-.55-.92-.81-.26-.25-.67-.49-1.51-.4-.29-.04-.61.07-1.04.33-.21.14-.46.29-.78.67-.35.43-.41 1.01-.36 1.41.23 1.67 1.42 3.34 1.4 4.36.13-.16.26-.3.48-.22.23.08.54.37 1.17 1.14.75 1.06 1.28 2.34 2.5 4.03 1.19 1.65 3.03 3.66 4.87 4.77.23.35.27.51.19.54.58.5 1.35 1.16 2.19 1.88.39.33.79.68 1.2 1.03.34.28.69.56 1.03.84 1.21.95 2.38 1.8 3 2.02-.05 2.78 9.82 7.75 8.52 9.09l4.62 4.08-.25.03c1.4 1.36 2.5 2.23 3.27 2.75.8.53 1.39.85 2 1.17.45.72-.08.37-.2.38 1.58 2.11 2.02 3.32 2.46 4.34.36 1.04.89 1.89.58 3.86-.25.04-.46.07-.71.08-.04.51-1.17 1.79-3.2 2.9-1.99 1.15-4.75 2.16-7.19 3.32.03-.08.1-.23.47-.45-2.74 1.32-6.46 1.73-9.64 2.05-3.19.31-5.89.58-6.91 1.8-1.35.34-2.7.64-4.07.93 5.37-.3-.71 1.04 1.52 1.21-2.12.33-5.53-.26-2.93-.55l.41.08c.43-.61-1.24-.59-3.01-.54-1.77.04-3.64.1-3.58-.3-10.56.44-20.87-.62-30.74-1.43l1.07.98-3.45-.33c-.89-.29-1.15-.8 1.3-.56-1.25-.62-4.16.07-4.25.25-4.78-.82 1.98-.87.5-1.03l-2.01-.12.44.15c-1.66.21-1.84.58-4.79.23-1.85-.39-.9-.66-1.63-.78.01-.06-.23-.12-1.12-.15l-4.32-.6 1.65.92c-1.97.12-4.07-.55-2.17.51-1.39-.81-5.42-1.44-9.31-2.03-3.89-.58-7.65-1.1-8.51-1.44-2.76.06-5.4-.41-8.66-1.07.79.29 1.13 1.18-1.67.55 1.34-1.42-5.03-1.68-7.05-3.32.93.6-1.06.23-2.92-.07-1.85-.32-3.57-.59-2.12.32-2.29-.66 0-.63-1.67-1.42-5.64-.7-11.92-3.51-18.31-5.88-.18.16.76.91-.73.63-.98-.8-1.94-1.62-2.85-2.46-.63-.23-1.04-.1-1.53-.12-.48-.03-1.08-.18-1.94-1.13.21.33.52.83-.29.44-2.75-1.87-5.41-3.87-7.46-6.27-2.06-2.37-3.31-5.21-3.17-8.24.15-3.02 1.56-6.09 3.59-8.7 2.03-2.63 4.61-4.89 7.46-6.72-1.64.89-.77.05.28-.87-.76.52-.33-.42-.66-.53a80.19 80.19 0 0 1 5-2.9c.18-.63 1.43-1.55 2.66-2.37 1.23-.83 2.44-1.59 2.5-2.07l-1.47 1.09c.78-1.04-.21-1.02-1.45-.86-.12.02-.25.03-.38.05 2.9-1.92 4.94-3.02 4.94-3.02s-25.43.13-31.61 3.27-6.73 24.71-4.44 35.27c.83 3.81 4.4 7.02 9.4 10.04Zm4.18 2.33c1.14.59 2.32 1.18 3.54 1.77-.97-.23-2.38-.85-3.54-1.77Zm4.25 2.15s.02-.02.03-.02c.08.04.17.08.25.12l-.28-.09Zm28.98 17h.09c1.69.72 1.09.48-.09 0Zm12.68.51c-1.79-.22-3.07-.35-4.09-.32-1.02-.02-1.78.06-2.51.13-1.44.09-2.78.2-5.68-1.03-2.15-1.4.3-1.29-.08-1.91 3.04.68 4.53 1.64 6.63 1.99-.84-.23-1.67-.53-2.5-.81 1.01.02 3.07.21 4.16.57-.21-.11-.53-.21-.93-.32 4.29.71 9.2 1.14 14.5 1.38-1.44.59-4.05 1.03-7.23 1.07-3.86-.12-1.59-.84-2.27-.75Zm25.74.48c.12-.18-.23-.39-.5-.54 1.02 0 2.04-.01 3.07-.03-.83.26-1.76.47-2.57.56Zm20.6.73c-.38-.06-5.65-.77-6.88-1.21-.22-.09-.34-.18-.4-.28l3.73-.09.1.93.42-.95 3.65-.09c.03.72-.17 1.37-.63 1.67Zm18.74-.21-.84-.4-3.37.48c.89-.47 2.46-1.14 4.24-1.83 1.93 0 3.8.01 5.62.04-1.64.74-3.61 1.44-5.65 1.7Zm29.73.71c.1-.07.17-.15.22-.22.05.13.42.17-.22.22Zm8.34-1.59c.15-.32-.03-.68-.25-1.06.85-.17 1.69-.37 2.53-.57-.75.56-1.5 1.1-2.28 1.63Zm28.28-36.07c.22.49-.26.31-.95-.03.23.19.45.36.63.49.28.55.31.81.18.91-.4-.54-.84-1.08-1.29-1.63.17.08.33.16.48.23-.25-.2-.54-.41-.83-.64-.2-.23-.39-.47-.6-.7-.27-.66-.51-1.23-.71-1.6 1.05.95 2.09 1.93 3.08 2.97Zm-93.6 23.3.66.23c-1.56 0-1.11-.11-.66-.23ZM132.91 400.75c.96.03.62-.48.76-.57-1.62.13-.71.7-.76.57ZM117.31 402.56l.26-.23-2.26.69 2-.46zM110.6 403.37l.45.14 1.1-.84c-3.19.46-7.2 1.52-9.65 2.18.46.03.99.02 1.62-.13.63-.16 1.32-.33 2.06-.53 1.47-.41 3.09-.82 4.42-.82ZM95.08 411.46s0-.06.09-.39c.1-.33.24-.91.63-1.91-.12.18-.16.23-.24.33-.16.36-.34.84-.65 1.64.25-.21.16.28.16.32Z"></path><path d="M95.57 409.49c.72-1.74-.75 1.02 0 0ZM93.71 417.2c.01-.73.04-1.46.09-2.2-.3.41-.68 2.33-.7 1.59-.19 2.24.1 1.8.61.61ZM94.08 418.19c-.11.18-.19.47-.02 1.11l.02-1.11ZM94.14 417.11c.23.23.04-.26.05-1.29-.06.8-.1 1.59-.12 2.37.19-.29.46-.27.07-1.08ZM95.34 414.06c.44-2.03.63-2.97.42-2.87-.2.1-.75 1.26-1.16 3.32.45-1.16 1.01-2.66.74-.46ZM102.06 406.01c.55-.12 1.08-.29 1.6-.32l1.23-.65c-.31.16-1.06.31-1.71.44-.66.2-1.23.41-1.13.52ZM93.16 429.46l-.22-1.55c-.14.79-.24 2.31-.51 2.42.19.13.49-.72.73-.87ZM93.16 429.46c.11.77.24 1.53.37 2.3-.03-2.05-.16-2.43-.37-2.3ZM94.91 420.5l.07-.72a49.66 49.66 0 0 1-.09-3.88c-.07 1.56-.05 3.09.02 4.6ZM92.47 437.97c.31.77.62 1.54.96 2.3l-.37-1.01-.59-1.28ZM94.22 446.62c1.11 1.97 2.5 3.09 3.7 3.91-1.17-.97-2.33-2.35-3.15-4.64-.42-.55-.4-.05-.31.41.09.45.2.91-.24.32ZM97.92 450.53c.63.5 1.28.96 1.99 1.28-.61-.38-1.27-.8-1.99-1.28ZM93.68 435.69c-.09.19-.37.56-.35 1.88l.43-.97c-.02-.28-.05-.59-.08-.91ZM93.76 436.56v.03c.02.39.06.73.08 1.02-.02-.29-.05-.62-.08-1.05ZM93.85 437.61Z"></path><path d="M93.66 435.46c0 .08.01.15.02.23.04-.09.06-.15-.02-.23ZM95.08 427.19c-.34-.96-.63.58-1.02-1.45.24 1.36.55 4.13 1.02 1.45ZM94.23 434.29c0-.81-.02-1.62 0-2.43-.14.05-.32.5-.49-.16.15.87.32 1.73.5 2.59ZM94.49 435.46l-.26-1.17.02.9.24.27zM96.91 448.02c.95.86 1.85 1.8 2.94 2.73-1.07-1.09-2.15-2.32-3.06-3.67-.26-.1-.94-.54.12.95ZM94.49 442.12c.02.07.06.17.08.23.01-.16 0-.28-.08-.23ZM110.94 457.78c-.05-.06-.09-.11-.14-.18-.03.02-.05.04-.08.06l.22.12ZM96.72 446.79c-.31-.54-.53-1.01-.78-1.37-.22-.39-.43-.72-.65-1.05.41.91.9 1.84 1.5 2.7.12.04.17.03-.07-.28ZM103.14 453.92c-.41-.43-.9-.85-1.4-1.35.35.49 1.16 1.34 1.4 1.35ZM94.5 442.75c-.02-.05-.04-.1-.06-.16-.04.38 0 .32.06.16Z"></path><path d="M94.5 442.75c.21.58.51 1.17.79 1.62-.31-.74-.57-1.56-.73-2.01 0 .14-.04.29-.07.39ZM106.79 455.39l-.9-.45c.94.66 1.56 1.23 2.7 2.28 1.58.56 1.96.55 2.13.46-1.43-.76-2.86-1.54-4.27-2.39l.33.11ZM104.24 452.33c-1.22-.81-1.69-1.05-2.07-1.17-.38-.11-.66-.13-1.43-.63 3.93 2.94-1.32-.6 1.32 1.81-.83-.5-1.54-1.05-2.2-1.59.65.65 1.28 1.27 1.88 1.83-.03-.04-.05-.06-.07-.1h-.02v-.02c-.13-.18-.16-.26 0-.08.02 0 .07.04.09.05.07-.04.18-.03.3-.02 1.09.92.1.26-.3.02-.03.01-.07 0-.1.03v.02c1.41.92 2.82 1.73 4.23 2.45-.83-.59-1.93-1.2-3.84-2.52.97.08 3.1 1.2 2.19-.08ZM96.22 429.64c-.05.14-.08.14-.12.15.07.29.11.41.12-.15ZM94.88 433.71l-.11.14c.02.07.06 0 .11-.14Z"></path><path d="m95.46 429.56.08.32c-.13 1.46-.47 3.27-.66 3.82.39-.52.68-1.03 1.07-2.18-.08-.33-.31-.6-.27-1.69.15-.94.25 0 .43-.05-.15-.65-.4-2.29-.64-.23ZM97.67 445.21c-.1-.35-.21-.69-.26-1.05l-.21.21c-.22-.56-.36-.96-.45-1.24-.1-.28-.18-.44-.26-.53-.15-.18-.26-.09-.4-.21.38 1.4 1.08 2.76 1.93 3.85a6.96 6.96 0 0 1-.36-1.03ZM112.87 458.78l-1.65-.56-.71.27 2.36.29zM116.71 461l-.94-.66-.38.37 1.32.29zM237.77 477.73l-.44-.57c-1.11.02-1.94-.11-2.66-.26 1.56.55 3.24 1.38 3.1.82ZM164.07 476.77c1.41.3 2.54.42 3.53.5-1.7-.37-3.05-.9-3.53-.5ZM247.9 421.13c.88.74 1.31 1.02 1.43.97-.85-.72-1.42-1.14-1.43-.97ZM167.61 477.27c1.26.29 2.7.46 4.1.13-.25-.06-.49-.09-.75-.15-1.04.06-2.08.11-3.35.02ZM122.54 414.34c.28-.18.7-.55 1.4-1.21-.33.3-.89.76-1.4 1.21ZM133.46 469c-.92-.44-.17-.02 0 0ZM130.42 464.81c-.13.08-.3.09-.49.05.23.04.41.05.49-.05ZM132.21 468.08c.31.23.68.49 1.09.74-.17-.13-.5-.36-1.09-.74ZM132.27 468.4c-.31-.18-.55-.32-.77-.45-.16.02-.08.12.77.45Z"></path><path d="M133.46 469c.27.14.64.33 1.26.64-.52-.27-.98-.55-1.43-.82.16.12.22.19.17.18ZM123.98 464.67l-.21-.08c.09.04.16.07.21.08ZM123.98 464.67l1.89.73c-.99-.43-1.3-.71-1.75-1.03-.01.13.21.41-.14.3ZM120.14 460.49c-.72.44.92.94 2.55 1.43.04-.53-1.32-.97-2.8-1.55.09.04.17.07.26.12ZM118.2 459.63c-.29.18.52.3 1.34.61-.46-.18-.92-.38-1.34-.61ZM135.62 470.19c-1.01.14 4.6 1.74.97.04-.58-.47-.71.33-.97-.04ZM122.2 459.89l.26.79 1.02-.08-1.28-.71zM133.32 465.67l-2.19-1.28c-.01.11-.33.02-.7-.11 1.4.7 2.86 1.58 2.89 1.39ZM128.55 463.49c.4.18 1.26.57 1.88.79-.72-.37-1.43-.69-1.88-.79ZM160.44 473.73c-.67.09-1.71.09-1.3.33l2.78.05c.3-.19-.45-.38-1.48-.38ZM130.39 409.28l1.85-.88-1.34.35-.51.53zM134.04 406.85l.68-1.22c-.35.23-1.1.75-1.49.77l.82.44ZM84.95 390.3c1.75.1 1.15-.82 1.41-.98-2.97.16-1.34 1.22-1.41.98ZM56.76 392.38c-1.4.35-2.8.74-4.19 1.11l3.7-.72.49-.39ZM32.02 395.65c1.14-.15 2.42-.4 3.79-.72 2.71-.56 5.7-1.2 8.12-1.11l.82.28 2.07-1.41c-5.86.6-13.31 2.25-17.7 2.98.76.23 1.75.19 2.9-.01ZM14.4 406.6s.02-.11.21-.73c.1-.31.24-.74.43-1.32.25-.59.5-1.33.95-2.27-.26.33-.34.43-.49.63-.3.66-.75 1.58-1.35 3.09.48-.39.26.52.25.61Z"></path><path d="M15.53 402.38c-.39.65-.74 1.46-.02.52.82-1.64.46-1.18.02-.52ZM11.8 417.32c.03-1.35.07-2.71.17-4.1-.56.78-1.22 4.35-1.25 2.98-.31 4.18.19 3.34 1.08 1.12ZM12.47 419.14c-.2.34-.31.87 0 2.05 0-.68-.01-1.36 0-2.05ZM12.57 417.14c.4.42.09-.49.09-2.4-.1 1.48-.17 2.95-.19 4.4.33-.54.83-.52.1-2ZM15.64 406.1c-.37.18-1.47 2.37-2.24 6.21.41-1.08.89-2.33 1.2-2.78.31-.46.38-.11.13 1.92.82-3.76 1.31-5.53.91-5.35ZM31.06 397.34c.76-.36 1.54-.71 2.31-.99-1.14.4-5.52.75-5.24 1.28 1-.22 1.96-.2 2.92-.29ZM10.96 437.17c-.19 1.48-.23 4.28-.7 4.51.34.22.79-1.36 1.21-1.67-.18-.94-.35-1.89-.51-2.84Z"></path><path d="M11.47 440.01c.27 1.41.55 2.81.87 4.21-.25-3.79-.51-4.47-.87-4.21ZM13.9 414.89c-.12 2.89-.06 5.71.12 8.49l.1-1.34c-.17-2.35-.26-4.73-.22-7.16ZM11.24 455.89c.66 1.41 1.38 2.81 2.14 4.2-.29-.62-.59-1.25-.86-1.86-.43-.77-.87-1.56-1.28-2.34ZM18.87 470.41c-.97-.59-.68.13-.35.84.33.71.69 1.4-.27.66 2.61 2.58 5.21 3.88 7.47 4.94-2.25-1.33-4.53-3.14-6.85-6.44ZM29.46 478.5c-1.14-.52-2.37-1.07-3.73-1.65 1.21.65 2.43 1.27 3.73 1.65ZM12.68 455.01c.19-.63.41-1.24.62-1.85-.08-.51-.17-1.09-.26-1.68-.15.36-.59 1.07-.36 3.53ZM13.84 456.32c.04.21.07.37.09.49-.02-.12-.06-.29-.09-.49ZM13.3 453.16c.22 1.41.42 2.49.55 3.16-.12-.61-.3-1.64-.53-3.22l-.02.06Z"></path><path d="M12.98 451.06c.02.16.04.27.06.42.07-.17.08-.28-.06-.42ZM12.79 433.07c.51 2.5 1.29 7.57 1.91 2.6-.66-1.75-1.08 1.11-1.91-2.6ZM12.69 444.09c.36 1.59.74 3.17 1.17 4.74-.12-1.5-.21-2.99-.27-4.49-.24.11-.52.95-.89-.25ZM14 450.5l.45.48c-.21-.71-.41-1.43-.6-2.15.04.56.09 1.11.15 1.67ZM23.3 472.92c1.89 1.11 3.72 2.38 5.83 3.73-2.13-1.63-4.32-3.4-6.38-5.26-.47-.07-1.78-.48.55 1.53ZM16.27 464.09c.09.15.21.34.3.48-.09-.35-.18-.61-.3-.48ZM50.04 487.63c-.09-.11-.17-.2-.27-.31-.05.04-.09.08-.15.11l.41.2Z"></path><path d="M22.52 470.94c-.36-.4-.69-.74-1.01-1.05-.31-.33-.6-.62-.88-.87-.28-.26-.56-.48-.83-.69-.27-.23-.52-.45-.78-.66 1.13 1.3 2.38 2.5 3.72 3.73.22.02.3-.02-.23-.46ZM35.54 481.58c-.8-.67-1.74-1.36-2.71-2.13.71.78 2.28 2.16 2.71 2.13ZM16.77 465.4l-.23-.29c.25.79.29.65.23.29ZM16.77 465.4c.39.5.77.93 1.14 1.3.39.34.76.65 1.13.96-.94-1.02-1.73-2.14-2.47-3.09.09.3.17.6.2.83ZM42.27 483.71l-1.67-.72c1.78 1.07 2.96 2.02 5.13 3.78 2.9.89 3.59.82 3.9.65-2.66-1.24-5.32-2.53-7.97-3.88l.61.16ZM37.23 478.58c-2.34-1.24-3.23-1.58-3.93-1.71-.7-.13-1.19-.11-2.67-.81 7.59 4.36-2.45-.82 2.71 2.9-1.57-.72-2.93-1.53-4.21-2.31 1.28.97 2.52 1.91 3.69 2.79l-.15-.15-.04-.02h.01c-.27-.29-.34-.42 0-.14.03 0 .13.06.17.08.12-.08.32-.1.52-.1 2.1 1.46.22.42-.52.1-.05.02-.13.03-.16.07 0 0 .01.02.02.03 2.63 1.36 5.28 2.57 7.92 3.7-1.57-.94-3.62-1.94-7.25-3.9 1.73-.05 5.74 1.66 3.89-.52ZM16.91 440.1c-.07.26-.14.26-.2.28.15.54.24.74.2-.28ZM14.75 447.97c.04.12.1 0 .17-.26-.06.09-.11.18-.17.26ZM15.95 440.51c.19-1.75.45-.02.75-.13-.31-1.17-.9-4.17-1.15-.37l.16.59c-.1 2.69-.53 6.08-.79 7.1.63-1 1.09-1.98 1.67-4.11-.19-.6-.6-1.08-.64-3.08ZM24.53 469.44c-.37-.54-.74-1.06-1.08-1.6l-.97-1.66-.24.46c-.66-.84-1.09-1.46-1.45-1.85-.33-.42-.54-.65-.72-.77-.35-.23-.51-.02-.82-.16 1.52 2.23 3.35 4.04 5.29 5.58ZM49.32 488.91l4.3.38-3.03-.9-1.27.52zM58.36 492.6l2.42.47-1.77-1.13-.65.66zM283.71 524.28l-.81-1.02c-2.04-.01-3.59-.24-4.91-.52 2.89.97 5.97 2.55 5.72 1.54ZM148.37 519.82c2.58.53 4.64.81 6.46.97-3.11-.73-5.57-1.7-6.46-.97ZM305.93 433.15c1.07.7 1.6.91 1.71.73-1.09-.73-1.76-1.08-1.71-.73ZM154.82 520.79c2.29.51 4.93.9 7.5.35-.45-.11-.9-.18-1.36-.28-1.91.07-3.82.11-6.14-.07ZM64.61 413.74c.52-.32 1.33-.93 2.69-2.07-.63.52-1.7 1.3-2.69 2.07ZM91.81 507.01c-1.71-.77-.31-.04 0 0ZM85.13 499.66c.41.07.75.08.89-.1-.24.14-.54.16-.89.1ZM89.47 505.38c.58.42 1.27.86 2.03 1.31-.32-.24-.93-.64-2.03-1.31ZM89.62 505.95c-.56-.33-1.01-.57-1.44-.8-.29.04-.13.21 1.44.8ZM91.81 507.01c.5.23 1.19.57 2.34 1.14-.96-.47-1.82-.98-2.65-1.46.3.22.42.34.31.32ZM129.84 482.46c.08.06.17.13.26.19-.07-.06-.15-.12-.26-.19Z"></path><path d="M393.63 480.32c-.01-.27-.03-.55-.04-.81-.03-.25-.07-.5-.1-.75-.07-.49-.14-.97-.2-1.44-.1-.44-.2-.87-.29-1.3-.18-.86-.42-1.62-.67-2.35-1.01-2.91-2.32-5.21-4.57-7.16 0-1.15 1.7 1.05 1.55.13-.46-.55-1.91-1.94-2.11-2.86-.2-.91 1.12.7 2.09 1.68-.62-.89-1.2-1.65-1.74-2.31-.55-.63-1.07-1.16-1.54-1.6-.94-.89-1.77-1.37-2.44-1.66-1.36-.58-2.29-.22-3.13.13-2.05-3.58-3.62-4.94-6.47-6.14-.61-1.36-1.89-3.43 1.81-.15-.95-1.02-3.89-4.1-6.86-6.66-2.95-2.59-5.88-4.68-6.42-4.21-.45-.83-2.97-2.44-3.64-2.74-2.44-1.88-3.76-2.91-5.1-3.88-1.33-.99-2.69-1.93-5.22-3.56l1.25 1.13c-2.91.05-4.35-2.5-8.56-4.92l.21-.07c-4.4-3.46-5.53-3.92-6.61-4.42-1.08-.49-2.12-1.01-6.57-4.3v1.2c-.99.74-2.92-.74-5.42-2.63-2.48-1.91-5.54-4.22-8.6-5.23l1.79 1.55c-3.42-.86-7.4-7-10.61-8.68-.64-.49 1.26.2 2.3.52-4-2.51-4.49-2.28-4.68-1.78-.22.51-.21 1.29-3.56.17-.48-.58.07-.87.2-1.25.11-.37-.14-.85-2.57-1.72-.63-.33-1.75-.67-3.82-.87l-.84-.06c-.3-.01-.69-.01-1.04 0-.16 0-.38 0-.63.03-.23.02-.47.05-.71.07-.1.01-.25.03-.43.07l-.5.11c-.35.09-.59.13-1.13.35-.24.1-.47.2-.7.32-.24.13-.41.21-.74.44-.6.44-1.12.88-1.59 1.54-.23.33-.45.69-.62 1.06-.09.18-.17.37-.24.56a8.796 8.796 0 0 0-.33 1.49c-.02.17-.04.34-.04.5v.35c.03.45.09 1.01.18 1.35.08.32.18.63.29.95.11.32.2.47.31.72.1.21.22.47.32.62.85 1.42 1.65 2.28 2.44 3.16.76.79 1.52 1.59 2.27 2.37 1.44 1.5 2.73 2.92 3.62 4.3-.6-1.41-1.18-2.79 1.41-.82 3.62 3.31 8.22 10.61 12.71 12.12.36.52.44.79.36.91 3.09 2.09 9.62 7.23 11.95 7.91.27 5.01 18.74 13.26 16.57 15.76l8.88 7.02-.44.08c5.58 4.79 7.71 5.56 9.96 6.74.91 1.27-.1.67-.31.7 1.55 1.85 2.54 3.34 3.21 4.57.38.61.59 1.16.87 1.67.22.5.42.96.6 1.4.33.88.58 1.68.77 2.67.11.98.15 2.21-.53 3.93-.42 0-.87-.03-1.3-.08-.27.9-2.75 2.92-6.84 4.52-4.01 1.69-9.29 3.1-13.99 4.87.07-.14.22-.4.95-.73-5.27 2-12.16 2.4-18.06 2.68-5.92.31-10.92.56-12.89 2.69-2.51.48-5.02.96-7.55 1.39 9.89-.18-1.39 1.79 2.71 2.24-3.9.44-10.13-.81-5.35-1.16l.76.17c.84-1.06-2.24-1.12-5.49-1.15-3.26-.02-6.7-.02-6.57-.72-19.44.22-38.35-2.03-56.47-3.77l1.95 1.78-6.34-.68c-1.63-.53-2.11-1.46 2.4-.95-2.29-1.13-7.65.01-7.82.33-8.78-1.59 3.65-1.49.94-1.81l-3.69-.27.81.27c-3.05.33-3.4.99-8.81.29-3.4-.72-1.64-1.19-2.99-1.41.02-.11-.43-.22-2.06-.3l-7.94-1.15 3.02 1.67c-3.61.16-7.48-1.05-3.99.85-2.55-1.45-9.94-2.66-17.09-3.77-7.15-1.08-14.05-2.06-15.64-2.68-5.07.08-9.93-.78-15.91-2 1.44.53 2.09 2.09-3.07.97 2.38-2.46-8.73-3.02-12.73-5.77 2 1.67-14.73-2.78-9.52.28-4.22-1.19-.03-1.13-3.11-2.53-5.2-.55-10.71-2.14-16.44-3.96-5.71-1.88-11.61-4.05-17.63-5.99-.32.29 1.49 1.58-1.27 1.18l-2.81-2.06-2.73-2.13c-1.19-.36-1.92-.09-2.83-.09-.89-.01-2.01-.24-3.76-1.83.44.57 1.1 1.43-.46.82-5.36-3.08-10.72-6.2-15.3-10.03-4.57-3.77-8.36-8.4-9.24-13.66-.39-2.62-.19-5.36.77-8.02.93-2.66 2.38-5.24 4.24-7.6 3.7-4.73 8.61-8.67 13.97-11.75-3.05 1.5-1.41.03.62-1.55-1.43.88-.55-.78-1.12-.99 3.07-1.75 6.24-3.34 9.44-4.82.41-1.13 2.8-2.66 5.15-4.03 2.35-1.39 4.66-2.63 4.82-3.5-.95.6-1.89 1.21-2.83 1.82 1.56-1.79-.24-1.85-2.52-1.66l-.69.06c5.5-3.17 9.4-4.98 9.4-4.98s-47.88-.83-59.41 4.17c-11.52 5-11.65 41.15-6.9 58.95 1.94 7.28 10.48 13.42 22.07 19.33-.12-.05-.24-.1-.36-.13l-.08.51c2.02.98 3.62 1.45 2.55.67 1.74.86 3.54 1.71 5.4 2.56-3.63-.87-2.41 2.73.23 5.62.27-.3.42-.59 4.58.68-1.21-1.02-8.3-4.95-4.65-4.15 5.39 1.94 4.14 2.19 6.5 3.73-1.53-1.7 5.38.75 6.59-.05 10.32 4.41 21.29 8.97 31.47 14.05-.25.02-.28.15.04.47l2.92 1.31c2.16 2.17-5.93-1.56-2.55.66-4.1-1.33-8.83-2.42-14.08-5.36l-.49-1.68c-.04.41 3.26 2.33 4.96 2.67-2.5-.51-7.68-5.44-10.92-4.91l3.5 2.54c-4.2-1.11-9.63-1.88-14.4-4.37 1.72 2.17 1.2.34 4.09 3.26-1.14-1.53 2.01-.18 4.9 1.08 2.66 1.16 5.12 2.23 3.93.85 2.71 2.81 5.64 3.14 9.36 6.49.04-.46-1.24-1.53 2.64.56.24-.03.73.02 1.04.07.11.07.15.1.25.16-.07-.06-.12-.1-.19-.15.2.02.22.02-.07-.06-.86-.63-1.53-1.2-1.74-1.57 2.44 0 8.72 3.17 11.03 3.87 2.22 1.42-1.21-.07-.17 1.02l1.9.51 1.95.51c-.04.58 1.59 1.63 2.42 2.34.83.7.86 1.05-2.49.05 1.94.77 3.89 1.58 5.82 2.15 3.27 1.68 7.98 2.93 10.96 3.11 2.71.75 7.07.13 4.58.5 1.53.18 3.05.27 4.57.39 1.52.12 3.04.23 4.55.29l.05.25c8.9 1.18 18.35.08 28.34 2.29 2.98-.14 6.06-.3 11.01.1l.95.88c3.82-.19 11.42 1.08 13.06.21 4.08 2.36 18.44.65 25.09 1.05l.25-1.11c4.58.07 8.98-.25 14.66-.68l-.35-.98c4.9-.8 12.59.72 20.31.71-.53.37-2.49.25-3.87.01 9.19 2.29 19.5-1.36 27.76.65 2.08-.25 3.58-.06 5.01.26-.19 0-.37 0-.52.02.21.02.52.04.85.06.9.23 1.82.49 2.82.71-.84-.29-1.66-.54-2.37-.68 1.58.1 4.01.09 6.37.07l.91 1.13c.19 0 .34.01.54.02 2.26.58 1.9-.34.74-1.23 1.2-.08 2.29-.16 3.16-.32 1.6 1.87 6.35.15 8.9 2.12.44-.19 1.43-.28 2.71-.33 1.27-.04 2.83-.15 4.36-.24 1.54-.08 3.05-.32 4.27-.57.85-.18 1.54-.41 1.99-.71 1.34.05 2.69.09 4 .05 1.33-.07 2.62-.26 3.81-.61l1.28 1.24c1.93-.83 3.85-1.58 5.72-2.49 3.68.31 5.28.51 1.85 2.08 4.22-1.45 5.91-1.95 7.45-2.42.77-.24 1.5-.46 2.47-.82.96-.39 2.16-.91 3.85-1.72l-.14.92c1.28-.34 2.86-1.1 4.33-1.7 1.46-.66 2.81-1.19 3.68-1.08 3.05-.14 10.1-2.37 17.79-6.19 3.85-1.9 7.86-4.18 11.64-6.72 3.79-2.54 7.36-5.32 10.37-8.34-1.01.23-1.14 0-.8-.48.32-.5 1.17-1.17 2.01-2.13.88-.89 1.74-2.08 2.32-3.1.51-1.11.72-2.03.32-2.35.87-.84 1.94-3.65 1.59-.25.13-.67.3-1.27.38-1.93.06-.66.11-1.31.17-1.93.03-.61-.03-1.16-.04-1.72Zm-102.77-68.1c0 .14-.01.27-.02.4 0-.15.02-.3.02-.45v.04Zm3.42-4.97h-.01.02Zm-.52.21.27-.11c-.09.04-.18.07-.27.11Zm.79-.33Zm-.93.38h-.01c-.01 0-.02 0-.03.01h.03-.03c.04-.01.08-.03.12-.04-.02 0-.05.02-.07.03Zm-2.79 5.7Zm87.86 46.1c.45.87-.41.57-1.71.05.45.31.88.6 1.21.82.58.97.68 1.45.47 1.64-.81-.93-1.68-1.88-2.58-2.83.31.13.62.25.9.37-.49-.32-1.01-.69-1.55-1.06-.39-.4-.79-.81-1.2-1.22-.59-1.17-1.11-2.19-1.54-2.83 2.05 1.6 4.05 3.29 6 5.06Zm-84.14-52.19Zm-89.79 88.01 1.22.43c-2.86-.05-2.04-.22-1.22-.43ZM50.17 481.99c2.17.99 4.41 1.99 6.7 2.99-1.8-.36-4.49-1.4-6.7-2.99Zm8.01 3.62s.02-.04.04-.05c.16.07.31.14.47.2l-.51-.15Zm54.4 29.11c.07 0 .11 0 .17-.01 3.1 1.21 2 .77-.17.01Zm22.99 1.12c0-.32.72-.59.1-.53-1.64-.23-3.04-.37-4.27-.45-1.23-.1-2.29-.15-3.22-.14-1.87.02-3.26.18-4.58.28-2.63.23-5.03.44-10.37-1.57-4.02-2.24.41-2.31-.34-3.37 1.42.24 2.63.57 3.74.86 1.11.28 2.11.6 3.05.91 1.87.65 3.55 1.16 5.46 1.49l-4.61-1.37c1.86-.07 5.64.32 7.65.9-.4-.18-1.02-.36-1.8-.56 8 1.23 17.03 2.06 26.7 2.62-2.65 1-7.44 1.72-13.26 1.74-3.53-.09-4.26-.5-4.26-.82Zm47.32 1.04c.22-.31-.41-.71-.91-.97 1.87.03 3.75.06 5.64.08-1.54.43-3.24.77-4.73.89Zm37.78 2.18c-.69-.11-10.34-1.61-12.59-2.45-.4-.16-.62-.33-.72-.51h6.86l.14 1.66.82-1.66h6.73c.02 1.29-.39 2.43-1.25 2.94Zm34.43.42-1.53-.75-6.21.72c1.65-.79 4.57-1.93 7.85-3.08 3.53.07 6.98.16 10.32.28-3.04 1.26-6.67 2.44-10.43 2.82Zm54.49 2.51c.18-.12.33-.25.42-.39.09.23.77.32-.42.39Zm15.41-2.1c.34-.54.05-1.19-.32-1.9 1.57-.22 3.12-.47 4.66-.74-1.42.9-2.86 1.79-4.34 2.64ZM74.26 499.4l-.39-.14c.17.07.29.11.39.14Z"></path><path d="M74.49 498.86c-.01.23.41.73-.23.55l3.49 1.26c-1.84-.76-2.4-1.25-3.26-1.81ZM66.99 492.04c-1.28.81 1.74 1.64 4.74 2.48.05-.95-2.47-1.69-5.21-2.68.16.07.32.12.47.2ZM63.39 490.57c-.51.32.97.53 2.49 1.04-.84-.31-1.7-.65-2.49-1.04ZM99.57 510.1c-.42-.22-1.18-.54-1.97-.9-1.08-.83-1.28.6-1.78-.07-.46.07-.16.3.44.55.3.12.68.25 1.08.38l.61.17c.24.06.47.12.69.18.9.21 1.59.3 1.57.15-.01-.08-.2-.22-.64-.44ZM70.71 490.91l.53 1.42 1.85-.17-2.38-1.25zM91.37 501.05l-4.07-2.27c-.01.2-.6.05-1.29-.18 2.59 1.22 5.31 2.8 5.36 2.45ZM86.01 498.6c-1.34-.65-2.65-1.21-3.48-1.39.74.32 2.34 1 3.48 1.39ZM141.74 514.34c-1.24.15-3.13.11-2.39.55 1.7.05 3.4.12 5.11.13.55-.34-.82-.65-2.72-.68ZM79.5 405.27c1.16-.49 2.32-.96 3.49-1.42l-2.48.52-1.01.91ZM86.48 401.23l1.4-2.12c-.67.38-2.12 1.25-2.83 1.25l1.43.86Z"></path></svg>