<?xml version="1.0" encoding="UTF-8"?>
<svg id="Layer_1" xmlns="http://www.w3.org/2000/svg" version="1.1" viewBox="0 0 166 166">
  <!-- Generator: Adobe Illustrator 30.1.0, SVG Export Plug-In . SVG Version: 2.1.1 Build 136)  -->
  <defs>
    <style>
      .st0 {
        fill: #e07a3f;
      }

      .st1 {
        fill: #fff;
      }
    </style>
  </defs>
  <rect class="st0" y="-5" width="166" height="171"/>
  <g>
    <path class="st1" d="M114.77,24.7c3.22-.39,7.19-.02,9.84,1.93,11.29,8.31,1.26,25.59-4.48,33.82.04,2.6.1,5.11-.26,7.68-.99,6.92-4.7,13.15-10.32,17.32-1.8,1.35-15.2,9.34-15.57,3.55-.13-2.02,1.63-9.83,2.13-12.36l-2.04-1.83c-1.42.76-3.24,1.94-4.65,2.81-5.54,2.94-11.34-2.13-13.07-7.32-.94-2.82,2.19-7.16,3.75-9.53l-1.96-2.04c-2.67.4-12.33,2.72-13.86,1.74-3.07-3.61,4.67-15.72,7.72-18.56,6.98-6.48,13.07-7.78,22.24-7.7,6.33-4.42,12.79-8.29,20.54-9.5h0ZM83.15,63.86c-2.25,2.93-3.97,5.79-.16,9.1,1.32,1.14,2.68,1.66,4.41,1.06,1.65-.91,2.14-1.26,3.58-2.49-1.91-2.03-5.75-6.12-7.82-7.67h0ZM115.52,65.79c-6.1,5.76-8.97,7.22-15.39,11.71-.26,1.47-1.64,7.73-1.12,8.63,6.75-2.47,11.43-5.37,14.82-12.19.86-1.73,2.04-5.96,1.88-7.87l-.18-.29h0ZM87.4,38.6c-6.48,1.09-11.33,4.24-15.23,9.57-1.2,1.64-3.57,5.59-3.55,7.55l.28.26.91-.1c2.39-.44,5.18-.89,7.52-1.42,2.04-3.02,3.76-5.85,5.92-8.82,1.18-1.63,5.25-5.93,5.73-6.92-.66-.32-.78-.18-1.58-.12ZM117.01,28.82c-10.54.75-21.17,8.54-27.89,16.26-2.94,3.38-5.54,7.03-7.76,10.91l13.14,13.06,4.2,4.26c11.97-7.11,22.19-17.44,26.1-31.25,1.86-6.56.52-13.61-7.79-13.24Z"/>
    <path class="st1" d="M107.16,39.21c4.01-.56,7.71,2.24,8.26,6.25.55,4.01-2.26,7.7-6.27,8.24-3.99.54-7.67-2.26-8.22-6.25-.55-3.99,2.24-7.68,6.23-8.23h0ZM107.72,43.32c-1.71.26-2.88,1.85-2.62,3.56.26,1.71,1.86,2.88,3.56,2.62.15-.02.3-.06.45-.1,1.65-.51,2.57-2.26,2.06-3.91-.46-1.48-1.92-2.4-3.45-2.17ZM58.03,43.94c.95-.13,2.27.09,2.99.76.73,2.74-5.22,5-7.09,6.28-1.59,1.1-3.07,2.34-4.42,3.73-10.21,10.42-12.13,27.1-3.8,39.33,3.53,5.08,8.82,8.4,11.47,14.13,2.52,5.44,2.27,10.9,2.31,16.75h24.25s-.05-6.26-.05-6.26c-5.55-.02-11.27.29-16.77-.21-1.06-.1-1.46-1.66-1.05-2.71,2.32-2.13,14.62-1.34,18.21-1.34,1.75-6.64,4.52-11.84,10.34-16.19,1.05-.78,1.78-.68,2.97-.39.31.54.82,1.68.39,2.27-2.39,3.31-5.3,5.29-7.34,8.97-2.46,4.43-2.51,8.15-2.38,13.08.18,3.78-.65,3.33-1.67,6.3-1.69,4.92-3.08,8.98-8.16,11.53-3.51,1.76-7.84,1.89-11.55.68-5.65-2.06-8.05-6.42-9.65-11.84-.27-.92-1.55-2.52-1.62-3.63-.37-4.95.35-11.55-2.45-15.95-4.45-6.98-9.56-9.46-13.3-17.38-4.01-8.5-4.48-18.23-1.31-27.07,3.59-9.9,10.3-16.42,19.7-20.83h0Z"/>
  </g>
</svg>