<svg width="1991" height="500" viewBox="0 0 1991 500" xmlns="http://www.w3.org/2000/svg" xml:space="preserve" style="fill-rule:evenodd;clip-rule:evenodd;stroke-linejoin:round;stroke-miterlimit:2">
    <g transform="translate(-1, -289) scale(1.3)">
        <path d="M329.592 233.879c7.745-.93 17.326-.041 23.687 4.641 27.195 20.02 3.043 61.633-10.784 81.463.095 6.253.23 12.298-.627 18.508a62.996 62.996 0 0 1-24.844 41.711c-4.324 3.258-36.607 22.491-37.492 8.557-.309-4.873 3.918-23.689 5.123-29.778l-4.916-4.413c-3.413 1.831-7.803 4.677-11.201 6.76-13.335 7.075-27.305-5.134-31.485-17.622-2.275-6.795 5.273-17.239 9.04-22.965l-4.72-4.918c-6.44.959-29.695 6.548-33.387 4.19-7.396-8.686 11.242-37.876 18.585-44.702 16.804-15.619 31.467-18.739 53.565-18.556 15.24-10.64 30.805-19.972 49.456-22.876Zm-76.148 94.335c-5.41 7.059-9.569 13.957-.396 21.919 3.176 2.756 6.458 4 10.61 2.562 3.981-2.203 5.156-3.033 8.614-5.995-4.604-4.883-13.84-14.734-18.828-18.486Zm77.948 4.63c-14.679 13.871-21.59 17.401-37.068 28.213-.636 3.537-3.949 18.628-2.703 20.782 16.264-5.955 27.528-12.927 35.676-29.361 2.068-4.173 4.902-14.346 4.534-18.947l-.439-.687Zm-67.707-65.49c-15.599 2.637-27.284 10.202-36.678 23.045-2.887 3.948-8.606 13.464-8.559 18.194l.677.633 2.193-.245c5.753-1.066 12.47-2.143 18.104-3.427 4.904-7.275 9.048-14.095 14.246-21.256 2.849-3.925 12.638-14.295 13.81-16.666-1.583-.767-1.87-.437-3.793-.278Zm71.311-23.556c-25.383 1.802-50.972 20.561-67.169 39.171a164.996 164.996 0 0 0-18.685 26.284l31.641 31.45 10.12 10.261c28.815-17.13 53.445-42.014 62.846-75.274 4.469-15.81 1.244-32.795-18.753-31.892Z" style="fill:#e07a3f;fill-rule:nonzero" transform="scale(1.15402 1.15365)" />
        <path d="M311.271 268.817c9.647-1.348 18.555 5.396 19.879 15.049 1.323 9.652-5.441 18.546-15.094 19.846-9.62 1.296-18.474-5.441-19.793-15.06-1.319-9.62 5.394-18.492 15.008-19.835Zm1.352 9.921a7.533 7.533 0 1 0 3.349 14.647 7.534 7.534 0 0 0-3.349-14.647ZM192.961 280.215c2.278-.308 5.457.226 7.19 1.823 1.767 6.6-12.57 12.056-17.069 15.116a71.88 71.88 0 0 0-10.653 8.976c-24.596 25.091-29.21 65.272-9.151 94.734 8.503 12.227 21.238 20.246 27.615 34.042 6.059 13.11 5.458 26.247 5.562 40.34l58.403-.027-.126-15.053c-13.361-.044-27.147.697-40.391-.505-2.559-.232-3.52-4.002-2.517-6.531 5.587-5.125 35.21-3.218 43.857-3.219 4.221-15.994 10.888-28.528 24.889-39.005 2.523-1.888 4.284-1.634 7.159-.936.749 1.303 1.975 4.048.942 5.48-5.745 7.963-12.753 12.751-17.67 21.604-5.932 10.679-6.045 19.64-5.731 31.512.424 9.111-1.566 8.027-4.022 15.186-4.064 11.849-7.411 21.636-19.653 27.771-8.442 4.23-18.888 4.549-27.823 1.63-13.611-4.954-19.387-15.471-23.244-28.522-.654-2.213-3.724-6.08-3.912-8.738-.895-11.928.85-27.825-5.905-38.42-10.716-16.811-23.016-22.791-32.016-41.874a85.427 85.427 0 0 1-3.163-65.219c8.646-23.842 24.807-39.556 47.429-50.165ZM1167.57 350.525c4.26-.113 12.72 2.173 10.63 7.716-2.55 1.398-3.73.883-6.96.865-3.83.097-8.65 1.124-10.68-2.513.94-3.019 4.35-4.74 7.01-6.068Z" style="fill:#e07a3f;fill-rule:nonzero" transform="scale(1.15402 1.15365)" />
        <text x="507.301" y="201.182" style="font-family:&quot;Surgena-SemiBold&quot;,&quot;Surgena&quot;;font-weight:600;font-size:4.959px;fill:#e07a3f" transform="matrix(20.83855 0 0 20.83855 -10151.811 -3639.587)">more than a w<tspan x="538.809" y="201.182">e</tspan>bsite</text>
        <path d="M.393-.367v.22c0 .104.056.157.152.157a.23.23 0 0 0 .102-.018c.007-.003.009-.007.009-.014V-.12c0-.008-.005-.009-.009-.008a.118.118 0 0 1-.03.004C.578-.124.568-.14.568-.183v-.184h.083c.006 0 .008-.002.008-.008v-.119C.659-.5.657-.502.65-.502H.568L.573-.64c0-.008-.003-.008-.008-.007l-.149.018c-.006.001-.009.005-.01.011-.006.03-.009.084-.012.116H.241L.246-.64c0-.008-.003-.008-.008-.007l-.149.018c-.006.001-.009.005-.01.011-.006.03-.009.084-.012.116H.01c-.008 0-.01.003-.01.01v.115c0 .007.002.009.008.01h.058v.226c0 .103.056.151.152.151A.23.23 0 0 0 .32-.008c.007-.003.009-.007.009-.014V-.12c0-.008-.005-.009-.009-.008a.118.118 0 0 1-.03.004C.251-.124.241-.14.241-.183v-.184h.152Z" style="fill:#e07a3f;fill-rule:nonzero" transform="matrix(232.06018 0 0 232.06018 547.073 464.79)" />
        <text x="507.301" y="201.182" style="font-family:&quot;AdobeClean-Black&quot;,&quot;Adobe Clean&quot;,sans-serif;font-weight:900;font-size:12px;fill:#e07a3f" transform="matrix(19.33835 0 0 19.33835 -9400.67 -3425.731)">o<tspan x="522.529" y="201.182">o</tspan>mate</text>
    </g>
</svg>